<?xml version="1.0" encoding="utf-8" standalone="no"?>
<!DOCTYPE svg PUBLIC "-//W3C//DTD SVG 1.1//EN"
  "http://www.w3.org/Graphics/SVG/1.1/DTD/svg11.dtd">
<svg xmlns:xlink="http://www.w3.org/1999/xlink" width="576pt" height="360pt" viewBox="0 0 576 360" xmlns="http://www.w3.org/2000/svg" version="1.1">
 <metadata>
  <rdf:RDF xmlns:dc="http://purl.org/dc/elements/1.1/" xmlns:cc="http://creativecommons.org/ns#" xmlns:rdf="http://www.w3.org/1999/02/22-rdf-syntax-ns#">
   <cc:Work>
    <dc:type rdf:resource="http://purl.org/dc/dcmitype/StillImage"/>
    <dc:date>2025-09-07T03:47:57.006160</dc:date>
    <dc:format>image/svg+xml</dc:format>
    <dc:creator>
     <cc:Agent>
      <dc:title>Matplotlib v3.9.2, https://matplotlib.org/</dc:title>
     </cc:Agent>
    </dc:creator>
   </cc:Work>
  </rdf:RDF>
 </metadata>
 <defs>
  <style type="text/css">*{stroke-linejoin: round; stroke-linecap: butt}</style>
 </defs>
 <g id="figure_1">
  <g id="patch_1">
   <path d="M 0 360 
L 576 360 
L 576 0 
L 0 0 
z
" style="fill: #ffffff"/>
  </g>
  <g id="axes_1">
   <g id="patch_2">
    <path d="M 48.425 316.6 
L 558.732256 316.6 
L 558.732256 25.8 
L 48.425 25.8 
z
" style="fill: #ffffff"/>
   </g>
   <g id="matplotlib.axis_1">
    <g id="xtick_1">
     <g id="line2d_1">
      <defs>
       <path id="me337577eb5" d="M 0 0 
L 0 3.5 
" style="stroke: #000000; stroke-width: 0.8"/>
      </defs>
      <g>
       <use xlink:href="#me337577eb5" x="56.456118" y="316.6" style="stroke: #000000; stroke-width: 0.8"/>
      </g>
     </g>
     <g id="text_1">
      <!-- 0 -->
      <g transform="translate(53.274868 331.198438) scale(0.1 -0.1)">
       <defs>
        <path id="DejaVuSans-30" d="M 2034 4250 
Q 1547 4250 1301 3770 
Q 1056 3291 1056 2328 
Q 1056 1369 1301 889 
Q 1547 409 2034 409 
Q 2525 409 2770 889 
Q 3016 1369 3016 2328 
Q 3016 3291 2770 3770 
Q 2525 4250 2034 4250 
z
M 2034 4750 
Q 2819 4750 3233 4129 
Q 3647 3509 3647 2328 
Q 3647 1150 3233 529 
Q 2819 -91 2034 -91 
Q 1250 -91 836 529 
Q 422 1150 422 2328 
Q 422 3509 836 4129 
Q 1250 4750 2034 4750 
z
" transform="scale(0.015625)"/>
       </defs>
       <use xlink:href="#DejaVuSans-30"/>
      </g>
     </g>
    </g>
    <g id="xtick_2">
     <g id="line2d_2">
      <g>
       <use xlink:href="#me337577eb5" x="127.7167" y="316.6" style="stroke: #000000; stroke-width: 0.8"/>
      </g>
     </g>
     <g id="text_2">
      <!-- 20 -->
      <g transform="translate(121.3542 331.198438) scale(0.1 -0.1)">
       <defs>
        <path id="DejaVuSans-32" d="M 1228 531 
L 3431 531 
L 3431 0 
L 469 0 
L 469 531 
Q 828 903 1448 1529 
Q 2069 2156 2228 2338 
Q 2531 2678 2651 2914 
Q 2772 3150 2772 3378 
Q 2772 3750 2511 3984 
Q 2250 4219 1831 4219 
Q 1534 4219 1204 4116 
Q 875 4013 500 3803 
L 500 4441 
Q 881 4594 1212 4672 
Q 1544 4750 1819 4750 
Q 2544 4750 2975 4387 
Q 3406 4025 3406 3419 
Q 3406 3131 3298 2873 
Q 3191 2616 2906 2266 
Q 2828 2175 2409 1742 
Q 1991 1309 1228 531 
z
" transform="scale(0.015625)"/>
       </defs>
       <use xlink:href="#DejaVuSans-32"/>
       <use xlink:href="#DejaVuSans-30" x="63.623047"/>
      </g>
     </g>
    </g>
    <g id="xtick_3">
     <g id="line2d_3">
      <g>
       <use xlink:href="#me337577eb5" x="198.977281" y="316.6" style="stroke: #000000; stroke-width: 0.8"/>
      </g>
     </g>
     <g id="text_3">
      <!-- 40 -->
      <g transform="translate(192.614781 331.198438) scale(0.1 -0.1)">
       <defs>
        <path id="DejaVuSans-34" d="M 2419 4116 
L 825 1625 
L 2419 1625 
L 2419 4116 
z
M 2253 4666 
L 3047 4666 
L 3047 1625 
L 3713 1625 
L 3713 1100 
L 3047 1100 
L 3047 0 
L 2419 0 
L 2419 1100 
L 313 1100 
L 313 1709 
L 2253 4666 
z
" transform="scale(0.015625)"/>
       </defs>
       <use xlink:href="#DejaVuSans-34"/>
       <use xlink:href="#DejaVuSans-30" x="63.623047"/>
      </g>
     </g>
    </g>
    <g id="xtick_4">
     <g id="line2d_4">
      <g>
       <use xlink:href="#me337577eb5" x="270.237862" y="316.6" style="stroke: #000000; stroke-width: 0.8"/>
      </g>
     </g>
     <g id="text_4">
      <!-- 60 -->
      <g transform="translate(263.875362 331.198438) scale(0.1 -0.1)">
       <defs>
        <path id="DejaVuSans-36" d="M 2113 2584 
Q 1688 2584 1439 2293 
Q 1191 2003 1191 1497 
Q 1191 994 1439 701 
Q 1688 409 2113 409 
Q 2538 409 2786 701 
Q 3034 994 3034 1497 
Q 3034 2003 2786 2293 
Q 2538 2584 2113 2584 
z
M 3366 4563 
L 3366 3988 
Q 3128 4100 2886 4159 
Q 2644 4219 2406 4219 
Q 1781 4219 1451 3797 
Q 1122 3375 1075 2522 
Q 1259 2794 1537 2939 
Q 1816 3084 2150 3084 
Q 2853 3084 3261 2657 
Q 3669 2231 3669 1497 
Q 3669 778 3244 343 
Q 2819 -91 2113 -91 
Q 1303 -91 875 529 
Q 447 1150 447 2328 
Q 447 3434 972 4092 
Q 1497 4750 2381 4750 
Q 2619 4750 2861 4703 
Q 3103 4656 3366 4563 
z
" transform="scale(0.015625)"/>
       </defs>
       <use xlink:href="#DejaVuSans-36"/>
       <use xlink:href="#DejaVuSans-30" x="63.623047"/>
      </g>
     </g>
    </g>
    <g id="xtick_5">
     <g id="line2d_5">
      <g>
       <use xlink:href="#me337577eb5" x="341.498444" y="316.6" style="stroke: #000000; stroke-width: 0.8"/>
      </g>
     </g>
     <g id="text_5">
      <!-- 80 -->
      <g transform="translate(335.135944 331.198438) scale(0.1 -0.1)">
       <defs>
        <path id="DejaVuSans-38" d="M 2034 2216 
Q 1584 2216 1326 1975 
Q 1069 1734 1069 1313 
Q 1069 891 1326 650 
Q 1584 409 2034 409 
Q 2484 409 2743 651 
Q 3003 894 3003 1313 
Q 3003 1734 2745 1975 
Q 2488 2216 2034 2216 
z
M 1403 2484 
Q 997 2584 770 2862 
Q 544 3141 544 3541 
Q 544 4100 942 4425 
Q 1341 4750 2034 4750 
Q 2731 4750 3128 4425 
Q 3525 4100 3525 3541 
Q 3525 3141 3298 2862 
Q 3072 2584 2669 2484 
Q 3125 2378 3379 2068 
Q 3634 1759 3634 1313 
Q 3634 634 3220 271 
Q 2806 -91 2034 -91 
Q 1263 -91 848 271 
Q 434 634 434 1313 
Q 434 1759 690 2068 
Q 947 2378 1403 2484 
z
M 1172 3481 
Q 1172 3119 1398 2916 
Q 1625 2713 2034 2713 
Q 2441 2713 2670 2916 
Q 2900 3119 2900 3481 
Q 2900 3844 2670 4047 
Q 2441 4250 2034 4250 
Q 1625 4250 1398 4047 
Q 1172 3844 1172 3481 
z
" transform="scale(0.015625)"/>
       </defs>
       <use xlink:href="#DejaVuSans-38"/>
       <use xlink:href="#DejaVuSans-30" x="63.623047"/>
      </g>
     </g>
    </g>
    <g id="xtick_6">
     <g id="line2d_6">
      <g>
       <use xlink:href="#me337577eb5" x="412.759025" y="316.6" style="stroke: #000000; stroke-width: 0.8"/>
      </g>
     </g>
     <g id="text_6">
      <!-- 100 -->
      <g transform="translate(403.215275 331.198438) scale(0.1 -0.1)">
       <defs>
        <path id="DejaVuSans-31" d="M 794 531 
L 1825 531 
L 1825 4091 
L 703 3866 
L 703 4441 
L 1819 4666 
L 2450 4666 
L 2450 531 
L 3481 531 
L 3481 0 
L 794 0 
L 794 531 
z
" transform="scale(0.015625)"/>
       </defs>
       <use xlink:href="#DejaVuSans-31"/>
       <use xlink:href="#DejaVuSans-30" x="63.623047"/>
       <use xlink:href="#DejaVuSans-30" x="127.246094"/>
      </g>
     </g>
    </g>
    <g id="xtick_7">
     <g id="line2d_7">
      <g>
       <use xlink:href="#me337577eb5" x="484.019606" y="316.6" style="stroke: #000000; stroke-width: 0.8"/>
      </g>
     </g>
     <g id="text_7">
      <!-- 120 -->
      <g transform="translate(474.475856 331.198438) scale(0.1 -0.1)">
       <use xlink:href="#DejaVuSans-31"/>
       <use xlink:href="#DejaVuSans-32" x="63.623047"/>
       <use xlink:href="#DejaVuSans-30" x="127.246094"/>
      </g>
     </g>
    </g>
    <g id="xtick_8">
     <g id="line2d_8">
      <g>
       <use xlink:href="#me337577eb5" x="555.280187" y="316.6" style="stroke: #000000; stroke-width: 0.8"/>
      </g>
     </g>
     <g id="text_8">
      <!-- 140 -->
      <g transform="translate(545.736437 331.198438) scale(0.1 -0.1)">
       <use xlink:href="#DejaVuSans-31"/>
       <use xlink:href="#DejaVuSans-34" x="63.623047"/>
       <use xlink:href="#DejaVuSans-30" x="127.246094"/>
      </g>
     </g>
    </g>
    <g id="text_9">
     <!-- time -->
     <g transform="translate(292.282534 344.876563) scale(0.1 -0.1)">
      <defs>
       <path id="DejaVuSans-74" d="M 1172 4494 
L 1172 3500 
L 2356 3500 
L 2356 3053 
L 1172 3053 
L 1172 1153 
Q 1172 725 1289 603 
Q 1406 481 1766 481 
L 2356 481 
L 2356 0 
L 1766 0 
Q 1100 0 847 248 
Q 594 497 594 1153 
L 594 3053 
L 172 3053 
L 172 3500 
L 594 3500 
L 594 4494 
L 1172 4494 
z
" transform="scale(0.015625)"/>
       <path id="DejaVuSans-69" d="M 603 3500 
L 1178 3500 
L 1178 0 
L 603 0 
L 603 3500 
z
M 603 4863 
L 1178 4863 
L 1178 4134 
L 603 4134 
L 603 4863 
z
" transform="scale(0.015625)"/>
       <path id="DejaVuSans-6d" d="M 3328 2828 
Q 3544 3216 3844 3400 
Q 4144 3584 4550 3584 
Q 5097 3584 5394 3201 
Q 5691 2819 5691 2113 
L 5691 0 
L 5113 0 
L 5113 2094 
Q 5113 2597 4934 2840 
Q 4756 3084 4391 3084 
Q 3944 3084 3684 2787 
Q 3425 2491 3425 1978 
L 3425 0 
L 2847 0 
L 2847 2094 
Q 2847 2600 2669 2842 
Q 2491 3084 2119 3084 
Q 1678 3084 1418 2786 
Q 1159 2488 1159 1978 
L 1159 0 
L 581 0 
L 581 3500 
L 1159 3500 
L 1159 2956 
Q 1356 3278 1631 3431 
Q 1906 3584 2284 3584 
Q 2666 3584 2933 3390 
Q 3200 3197 3328 2828 
z
" transform="scale(0.015625)"/>
       <path id="DejaVuSans-65" d="M 3597 1894 
L 3597 1613 
L 953 1613 
Q 991 1019 1311 708 
Q 1631 397 2203 397 
Q 2534 397 2845 478 
Q 3156 559 3463 722 
L 3463 178 
Q 3153 47 2828 -22 
Q 2503 -91 2169 -91 
Q 1331 -91 842 396 
Q 353 884 353 1716 
Q 353 2575 817 3079 
Q 1281 3584 2069 3584 
Q 2775 3584 3186 3129 
Q 3597 2675 3597 1894 
z
M 3022 2063 
Q 3016 2534 2758 2815 
Q 2500 3097 2075 3097 
Q 1594 3097 1305 2825 
Q 1016 2553 972 2059 
L 3022 2063 
z
" transform="scale(0.015625)"/>
      </defs>
      <use xlink:href="#DejaVuSans-74"/>
      <use xlink:href="#DejaVuSans-69" x="39.208984"/>
      <use xlink:href="#DejaVuSans-6d" x="66.992188"/>
      <use xlink:href="#DejaVuSans-65" x="164.404297"/>
     </g>
    </g>
   </g>
   <g id="matplotlib.axis_2">
    <g id="ytick_1">
     <g id="line2d_9">
      <defs>
       <path id="m5ef343c807" d="M 0 0 
L -3.5 0 
" style="stroke: #000000; stroke-width: 0.8"/>
      </defs>
      <g>
       <use xlink:href="#m5ef343c807" x="48.425" y="303.381818" style="stroke: #000000; stroke-width: 0.8"/>
      </g>
     </g>
     <g id="text_10">
      <!-- 0.0 -->
      <g transform="translate(25.521875 307.181037) scale(0.1 -0.1)">
       <defs>
        <path id="DejaVuSans-2e" d="M 684 794 
L 1344 794 
L 1344 0 
L 684 0 
L 684 794 
z
" transform="scale(0.015625)"/>
       </defs>
       <use xlink:href="#DejaVuSans-30"/>
       <use xlink:href="#DejaVuSans-2e" x="63.623047"/>
       <use xlink:href="#DejaVuSans-30" x="95.410156"/>
      </g>
     </g>
    </g>
    <g id="ytick_2">
     <g id="line2d_10">
      <g>
       <use xlink:href="#m5ef343c807" x="48.425" y="259.321212" style="stroke: #000000; stroke-width: 0.8"/>
      </g>
     </g>
     <g id="text_11">
      <!-- 0.5 -->
      <g transform="translate(25.521875 263.120431) scale(0.1 -0.1)">
       <defs>
        <path id="DejaVuSans-35" d="M 691 4666 
L 3169 4666 
L 3169 4134 
L 1269 4134 
L 1269 2991 
Q 1406 3038 1543 3061 
Q 1681 3084 1819 3084 
Q 2600 3084 3056 2656 
Q 3513 2228 3513 1497 
Q 3513 744 3044 326 
Q 2575 -91 1722 -91 
Q 1428 -91 1123 -41 
Q 819 9 494 109 
L 494 744 
Q 775 591 1075 516 
Q 1375 441 1709 441 
Q 2250 441 2565 725 
Q 2881 1009 2881 1497 
Q 2881 1984 2565 2268 
Q 2250 2553 1709 2553 
Q 1456 2553 1204 2497 
Q 953 2441 691 2322 
L 691 4666 
z
" transform="scale(0.015625)"/>
       </defs>
       <use xlink:href="#DejaVuSans-30"/>
       <use xlink:href="#DejaVuSans-2e" x="63.623047"/>
       <use xlink:href="#DejaVuSans-35" x="95.410156"/>
      </g>
     </g>
    </g>
    <g id="ytick_3">
     <g id="line2d_11">
      <g>
       <use xlink:href="#m5ef343c807" x="48.425" y="215.260606" style="stroke: #000000; stroke-width: 0.8"/>
      </g>
     </g>
     <g id="text_12">
      <!-- 1.0 -->
      <g transform="translate(25.521875 219.059825) scale(0.1 -0.1)">
       <use xlink:href="#DejaVuSans-31"/>
       <use xlink:href="#DejaVuSans-2e" x="63.623047"/>
       <use xlink:href="#DejaVuSans-30" x="95.410156"/>
      </g>
     </g>
    </g>
    <g id="ytick_4">
     <g id="line2d_12">
      <g>
       <use xlink:href="#m5ef343c807" x="48.425" y="171.2" style="stroke: #000000; stroke-width: 0.8"/>
      </g>
     </g>
     <g id="text_13">
      <!-- 1.5 -->
      <g transform="translate(25.521875 174.999219) scale(0.1 -0.1)">
       <use xlink:href="#DejaVuSans-31"/>
       <use xlink:href="#DejaVuSans-2e" x="63.623047"/>
       <use xlink:href="#DejaVuSans-35" x="95.410156"/>
      </g>
     </g>
    </g>
    <g id="ytick_5">
     <g id="line2d_13">
      <g>
       <use xlink:href="#m5ef343c807" x="48.425" y="127.139394" style="stroke: #000000; stroke-width: 0.8"/>
      </g>
     </g>
     <g id="text_14">
      <!-- 2.0 -->
      <g transform="translate(25.521875 130.938613) scale(0.1 -0.1)">
       <use xlink:href="#DejaVuSans-32"/>
       <use xlink:href="#DejaVuSans-2e" x="63.623047"/>
       <use xlink:href="#DejaVuSans-30" x="95.410156"/>
      </g>
     </g>
    </g>
    <g id="ytick_6">
     <g id="line2d_14">
      <g>
       <use xlink:href="#m5ef343c807" x="48.425" y="83.078788" style="stroke: #000000; stroke-width: 0.8"/>
      </g>
     </g>
     <g id="text_15">
      <!-- 2.5 -->
      <g transform="translate(25.521875 86.878007) scale(0.1 -0.1)">
       <use xlink:href="#DejaVuSans-32"/>
       <use xlink:href="#DejaVuSans-2e" x="63.623047"/>
       <use xlink:href="#DejaVuSans-35" x="95.410156"/>
      </g>
     </g>
    </g>
    <g id="ytick_7">
     <g id="line2d_15">
      <g>
       <use xlink:href="#m5ef343c807" x="48.425" y="39.018182" style="stroke: #000000; stroke-width: 0.8"/>
      </g>
     </g>
     <g id="text_16">
      <!-- 3.0 -->
      <g transform="translate(25.521875 42.817401) scale(0.1 -0.1)">
       <defs>
        <path id="DejaVuSans-33" d="M 2597 2516 
Q 3050 2419 3304 2112 
Q 3559 1806 3559 1356 
Q 3559 666 3084 287 
Q 2609 -91 1734 -91 
Q 1441 -91 1130 -33 
Q 819 25 488 141 
L 488 750 
Q 750 597 1062 519 
Q 1375 441 1716 441 
Q 2309 441 2620 675 
Q 2931 909 2931 1356 
Q 2931 1769 2642 2001 
Q 2353 2234 1838 2234 
L 1294 2234 
L 1294 2753 
L 1863 2753 
Q 2328 2753 2575 2939 
Q 2822 3125 2822 3475 
Q 2822 3834 2567 4026 
Q 2313 4219 1838 4219 
Q 1578 4219 1281 4162 
Q 984 4106 628 3988 
L 628 4550 
Q 988 4650 1302 4700 
Q 1616 4750 1894 4750 
Q 2613 4750 3031 4423 
Q 3450 4097 3450 3541 
Q 3450 3153 3228 2886 
Q 3006 2619 2597 2516 
z
" transform="scale(0.015625)"/>
       </defs>
       <use xlink:href="#DejaVuSans-33"/>
       <use xlink:href="#DejaVuSans-2e" x="63.623047"/>
       <use xlink:href="#DejaVuSans-30" x="95.410156"/>
      </g>
     </g>
    </g>
    <g id="text_17">
     <!-- queue length -->
     <g transform="translate(19.442188 204.391406) rotate(-90) scale(0.1 -0.1)">
      <defs>
       <path id="DejaVuSans-71" d="M 947 1747 
Q 947 1113 1208 752 
Q 1469 391 1925 391 
Q 2381 391 2643 752 
Q 2906 1113 2906 1747 
Q 2906 2381 2643 2742 
Q 2381 3103 1925 3103 
Q 1469 3103 1208 2742 
Q 947 2381 947 1747 
z
M 2906 525 
Q 2725 213 2448 61 
Q 2172 -91 1784 -91 
Q 1150 -91 751 415 
Q 353 922 353 1747 
Q 353 2572 751 3078 
Q 1150 3584 1784 3584 
Q 2172 3584 2448 3432 
Q 2725 3281 2906 2969 
L 2906 3500 
L 3481 3500 
L 3481 -1331 
L 2906 -1331 
L 2906 525 
z
" transform="scale(0.015625)"/>
       <path id="DejaVuSans-75" d="M 544 1381 
L 544 3500 
L 1119 3500 
L 1119 1403 
Q 1119 906 1312 657 
Q 1506 409 1894 409 
Q 2359 409 2629 706 
Q 2900 1003 2900 1516 
L 2900 3500 
L 3475 3500 
L 3475 0 
L 2900 0 
L 2900 538 
Q 2691 219 2414 64 
Q 2138 -91 1772 -91 
Q 1169 -91 856 284 
Q 544 659 544 1381 
z
M 1991 3584 
L 1991 3584 
z
" transform="scale(0.015625)"/>
       <path id="DejaVuSans-20" transform="scale(0.015625)"/>
       <path id="DejaVuSans-6c" d="M 603 4863 
L 1178 4863 
L 1178 0 
L 603 0 
L 603 4863 
z
" transform="scale(0.015625)"/>
       <path id="DejaVuSans-6e" d="M 3513 2113 
L 3513 0 
L 2938 0 
L 2938 2094 
Q 2938 2591 2744 2837 
Q 2550 3084 2163 3084 
Q 1697 3084 1428 2787 
Q 1159 2491 1159 1978 
L 1159 0 
L 581 0 
L 581 3500 
L 1159 3500 
L 1159 2956 
Q 1366 3272 1645 3428 
Q 1925 3584 2291 3584 
Q 2894 3584 3203 3211 
Q 3513 2838 3513 2113 
z
" transform="scale(0.015625)"/>
       <path id="DejaVuSans-67" d="M 2906 1791 
Q 2906 2416 2648 2759 
Q 2391 3103 1925 3103 
Q 1463 3103 1205 2759 
Q 947 2416 947 1791 
Q 947 1169 1205 825 
Q 1463 481 1925 481 
Q 2391 481 2648 825 
Q 2906 1169 2906 1791 
z
M 3481 434 
Q 3481 -459 3084 -895 
Q 2688 -1331 1869 -1331 
Q 1566 -1331 1297 -1286 
Q 1028 -1241 775 -1147 
L 775 -588 
Q 1028 -725 1275 -790 
Q 1522 -856 1778 -856 
Q 2344 -856 2625 -561 
Q 2906 -266 2906 331 
L 2906 616 
Q 2728 306 2450 153 
Q 2172 0 1784 0 
Q 1141 0 747 490 
Q 353 981 353 1791 
Q 353 2603 747 3093 
Q 1141 3584 1784 3584 
Q 2172 3584 2450 3431 
Q 2728 3278 2906 2969 
L 2906 3500 
L 3481 3500 
L 3481 434 
z
" transform="scale(0.015625)"/>
       <path id="DejaVuSans-68" d="M 3513 2113 
L 3513 0 
L 2938 0 
L 2938 2094 
Q 2938 2591 2744 2837 
Q 2550 3084 2163 3084 
Q 1697 3084 1428 2787 
Q 1159 2491 1159 1978 
L 1159 0 
L 581 0 
L 581 4863 
L 1159 4863 
L 1159 2956 
Q 1366 3272 1645 3428 
Q 1925 3584 2291 3584 
Q 2894 3584 3203 3211 
Q 3513 2838 3513 2113 
z
" transform="scale(0.015625)"/>
      </defs>
      <use xlink:href="#DejaVuSans-71"/>
      <use xlink:href="#DejaVuSans-75" x="63.476562"/>
      <use xlink:href="#DejaVuSans-65" x="126.855469"/>
      <use xlink:href="#DejaVuSans-75" x="188.378906"/>
      <use xlink:href="#DejaVuSans-65" x="251.757812"/>
      <use xlink:href="#DejaVuSans-20" x="313.28125"/>
      <use xlink:href="#DejaVuSans-6c" x="345.068359"/>
      <use xlink:href="#DejaVuSans-65" x="372.851562"/>
      <use xlink:href="#DejaVuSans-6e" x="434.375"/>
      <use xlink:href="#DejaVuSans-67" x="497.753906"/>
      <use xlink:href="#DejaVuSans-74" x="561.230469"/>
      <use xlink:href="#DejaVuSans-68" x="600.439453"/>
     </g>
    </g>
   </g>
   <g id="line2d_16">
    <path d="M 71.620784 303.381818 
L 71.620784 215.260606 
L 71.620784 215.260606 
L 77.82891 303.381818 
L 77.82891 303.381818 
L 82.660275 303.381818 
L 82.660275 303.381818 
L 82.660275 215.260606 
L 82.660275 215.260606 
L 92.215287 303.381818 
L 96.261117 303.381818 
L 96.261117 303.381818 
L 96.261117 215.260606 
L 96.261117 215.260606 
L 97.169972 303.381818 
L 97.169972 303.381818 
L 114.659392 303.381818 
L 114.659392 303.381818 
L 114.659392 215.260606 
L 114.659392 215.260606 
L 121.498334 303.381818 
L 121.498334 303.381818 
L 123.294822 303.381818 
L 123.294822 303.381818 
L 123.294822 215.260606 
L 123.294822 215.260606 
L 126.960622 303.381818 
L 126.960622 303.381818 
L 135.869947 303.381818 
L 135.869947 303.381818 
L 135.869947 215.260606 
L 135.869947 215.260606 
L 142.968103 303.381818 
L 142.968103 303.381818 
L 142.968103 215.260606 
L 142.968103 215.260606 
L 144.948446 303.381818 
L 144.948446 303.381818 
L 153.51557 303.381818 
L 153.51557 303.381818 
L 153.51557 215.260606 
L 153.51557 215.260606 
L 154.285607 303.381818 
L 154.285607 303.381818 
L 175.002201 303.381818 
L 175.002201 303.381818 
L 175.002201 215.260606 
L 175.002201 215.260606 
L 180.362201 303.381818 
L 180.362201 303.381818 
L 180.362201 215.260606 
L 180.362201 215.260606 
L 180.653807 303.381818 
L 180.653807 303.381818 
L 187.978689 303.381818 
L 187.978689 303.381818 
L 187.978689 215.260606 
L 187.978689 215.260606 
L 190.340189 303.381818 
L 190.340189 303.381818 
L 195.75438 303.381818 
L 195.75438 303.381818 
L 195.75438 215.260606 
L 195.75438 215.260606 
L 196.537199 303.381818 
L 196.537199 303.381818 
L 206.535339 303.381818 
L 206.535339 303.381818 
L 206.535339 215.260606 
L 206.535339 215.260606 
L 211.280093 303.381818 
L 211.280093 303.381818 
L 227.616949 303.381818 
L 227.616949 303.381818 
L 227.616949 215.260606 
L 227.616949 215.260606 
L 230.651624 303.381818 
L 230.651624 303.381818 
L 247.539591 303.381818 
L 247.539591 303.381818 
L 247.539591 215.260606 
L 247.539591 215.260606 
L 252.030804 303.381818 
L 252.030804 303.381818 
L 258.178632 303.381818 
L 258.178632 303.381818 
L 258.178632 215.260606 
L 258.178632 215.260606 
L 260.379413 303.381818 
L 260.379413 303.381818 
L 279.287735 303.381818 
L 279.287735 303.381818 
L 279.287735 215.260606 
L 279.287735 215.260606 
L 285.151635 303.381818 
L 285.151635 303.381818 
L 289.692833 303.381818 
L 289.692833 303.381818 
L 289.692833 215.260606 
L 289.692833 215.260606 
L 293.000109 303.381818 
L 303.753341 303.381818 
L 303.753341 303.381818 
L 303.753341 215.260606 
L 303.753341 215.260606 
L 308.066563 303.381818 
L 308.066563 303.381818 
L 316.925171 303.381818 
L 316.925171 303.381818 
L 316.925171 215.260606 
L 316.925171 215.260606 
L 321.067817 303.381818 
L 322.048779 303.381818 
L 322.048779 303.381818 
L 322.048779 215.260606 
L 322.048779 215.260606 
L 327.015225 303.381818 
L 327.015225 303.381818 
L 331.577461 303.381818 
L 331.577461 303.381818 
L 331.577461 215.260606 
L 331.577461 215.260606 
L 333.773654 303.381818 
L 333.773654 303.381818 
L 345.597974 303.381818 
L 345.597974 303.381818 
L 345.597974 215.260606 
L 345.597974 215.260606 
L 349.47216 303.381818 
L 369.453317 303.381818 
L 369.453317 303.381818 
L 369.453317 215.260606 
L 369.453317 215.260606 
L 378.365883 303.381818 
L 378.365883 303.381818 
L 378.365883 215.260606 
L 378.365883 215.260606 
L 383.101129 303.381818 
L 396.675121 303.381818 
L 396.675121 303.381818 
L 396.675121 215.260606 
L 396.675121 215.260606 
L 400.844765 303.381818 
L 440.119151 303.381818 
L 440.119151 303.381818 
L 440.119151 215.260606 
L 440.119151 215.260606 
L 445.414715 303.381818 
L 445.414715 303.381818 
L 445.414715 215.260606 
L 445.414715 215.260606 
L 450.546839 303.381818 
L 450.546839 303.381818 
L 458.885893 303.381818 
L 458.885893 303.381818 
L 458.885893 215.260606 
L 458.885893 215.260606 
L 465.836755 303.381818 
L 465.836755 303.381818 
L 467.305799 303.381818 
L 467.305799 303.381818 
L 467.305799 215.260606 
L 467.305799 215.260606 
L 469.514111 303.381818 
L 469.514111 303.381818 
L 481.002394 303.381818 
L 481.002394 303.381818 
L 481.002394 215.260606 
L 481.002394 215.260606 
L 494.271585 303.381818 
L 494.271585 303.381818 
L 535.536472 303.381818 
L 535.536472 303.381818 
" clip-path="url(#p9b9b0e0c8f)" style="fill: none; stroke: #2563eb; stroke-width: 1.5; stroke-linecap: square"/>
   </g>
   <g id="line2d_17">
    <path d="M 71.620784 303.381818 
L 77.82891 303.381818 
L 77.82891 303.381818 
L 77.82891 215.260606 
L 77.82891 215.260606 
L 82.660275 303.381818 
L 82.660275 303.381818 
L 97.169972 303.381818 
L 97.169972 303.381818 
L 97.169972 215.260606 
L 97.169972 215.260606 
L 103.140565 303.381818 
L 104.111349 303.381818 
L 104.111349 303.381818 
L 104.111349 215.260606 
L 104.111349 215.260606 
L 105.108945 303.381818 
L 105.108945 215.260606 
L 105.108945 215.260606 
L 114.659392 215.260606 
L 114.659392 215.260606 
L 121.498334 303.381818 
L 121.498334 215.260606 
L 123.294822 303.381818 
L 123.294822 303.381818 
L 126.960622 303.381818 
L 126.960622 215.260606 
L 126.960622 215.260606 
L 131.17568 215.260606 
L 131.17568 127.139394 
L 131.17568 127.139394 
L 131.961792 215.260606 
L 131.961792 127.139394 
L 135.869947 215.260606 
L 135.869947 215.260606 
L 142.881125 303.381818 
L 142.881125 215.260606 
L 142.968103 303.381818 
L 144.948446 303.381818 
L 144.948446 215.260606 
L 144.948446 215.260606 
L 154.285607 215.260606 
L 154.285607 127.139394 
L 154.285607 127.139394 
L 160.252835 215.260606 
L 160.252835 127.139394 
L 164.086063 215.260606 
L 164.086063 127.139394 
L 164.086063 127.139394 
L 187.978689 127.139394 
L 187.978689 127.139394 
L 190.340189 215.260606 
L 190.340189 127.139394 
L 192.586921 215.260606 
L 192.586921 215.260606 
L 196.537199 215.260606 
L 196.537199 39.018182 
L 196.537199 39.018182 
L 206.522845 215.260606 
L 206.522845 127.139394 
L 206.535339 215.260606 
L 211.280093 215.260606 
L 211.280093 127.139394 
L 211.280093 127.139394 
L 212.335993 127.139394 
L 216.1818 215.260606 
L 216.1818 127.139394 
L 217.925036 215.260606 
L 217.925036 127.139394 
L 217.925036 127.139394 
L 224.150937 127.139394 
L 224.150937 39.018182 
L 224.150937 39.018182 
L 227.616949 39.018182 
L 227.616949 39.018182 
L 230.651624 127.139394 
L 230.651624 39.018182 
L 235.4382 127.139394 
L 235.4382 39.018182 
L 235.4382 39.018182 
L 243.488883 127.139394 
L 243.488883 39.018182 
L 247.539591 127.139394 
L 247.539591 127.139394 
L 252.030804 215.260606 
L 252.030804 127.139394 
L 255.704646 215.260606 
L 255.704646 127.139394 
L 255.704646 127.139394 
L 258.178632 127.139394 
L 258.178632 127.139394 
L 260.379413 215.260606 
L 260.379413 127.139394 
L 269.955433 303.381818 
L 269.955433 215.260606 
L 274.94468 303.381818 
L 274.94468 215.260606 
L 274.94468 215.260606 
L 279.287735 215.260606 
L 279.287735 215.260606 
L 285.151635 303.381818 
L 285.151635 215.260606 
L 287.647921 303.381818 
L 287.647921 303.381818 
L 308.066563 303.381818 
L 308.066563 303.381818 
L 308.066563 215.260606 
L 308.066563 215.260606 
L 314.406144 303.381818 
L 327.015225 303.381818 
L 327.015225 303.381818 
L 327.015225 215.260606 
L 327.015225 215.260606 
L 331.577461 303.381818 
L 331.577461 303.381818 
L 333.773654 303.381818 
L 333.773654 215.260606 
L 333.773654 215.260606 
L 339.111559 303.381818 
L 339.111559 215.260606 
L 341.234228 303.381818 
L 341.234228 303.381818 
L 390.922474 303.381818 
L 390.922474 303.381818 
L 390.922474 215.260606 
L 390.922474 215.260606 
L 396.675121 303.381818 
L 396.675121 303.381818 
L 403.755375 303.381818 
L 403.755375 303.381818 
L 403.755375 215.260606 
L 403.755375 215.260606 
L 415.625118 303.381818 
L 422.351674 303.381818 
L 422.351674 303.381818 
L 422.351674 215.260606 
L 422.351674 215.260606 
L 431.388895 303.381818 
L 450.546839 303.381818 
L 450.546839 303.381818 
L 450.546839 215.260606 
L 450.546839 215.260606 
L 458.656008 303.381818 
L 458.656008 215.260606 
L 458.656008 215.260606 
L 458.885893 215.260606 
L 458.885893 215.260606 
L 465.836755 303.381818 
L 465.836755 215.260606 
L 467.305799 303.381818 
L 467.305799 303.381818 
L 469.514111 303.381818 
L 469.514111 215.260606 
L 469.514111 215.260606 
L 474.583904 215.260606 
L 474.583904 127.139394 
L 474.583904 127.139394 
L 480.128848 215.260606 
L 480.128848 127.139394 
L 481.002394 215.260606 
L 481.002394 215.260606 
L 494.271585 215.260606 
L 494.271585 127.139394 
L 494.271585 127.139394 
L 503.010684 215.260606 
L 503.010684 127.139394 
L 518.081511 303.381818 
L 518.081511 215.260606 
L 535.536472 303.381818 
L 535.536472 303.381818 
" clip-path="url(#p9b9b0e0c8f)" style="fill: none; stroke: #16a34a; stroke-width: 1.5; stroke-linecap: square"/>
   </g>
   <g id="line2d_18">
    <path d="M 71.620784 303.381818 
L 180.653807 303.381818 
L 180.653807 303.381818 
L 180.653807 215.260606 
L 187.978689 303.381818 
L 187.978689 303.381818 
L 192.586921 303.381818 
L 192.586921 303.381818 
L 192.586921 215.260606 
L 195.75438 303.381818 
L 195.75438 303.381818 
L 287.647921 303.381818 
L 287.647921 303.381818 
L 287.647921 215.260606 
L 289.692833 303.381818 
L 289.692833 303.381818 
L 298.137417 303.381818 
L 298.137417 303.381818 
L 298.137417 215.260606 
L 298.932445 303.381818 
L 341.234228 303.381818 
L 341.234228 303.381818 
L 341.234228 215.260606 
L 345.597974 303.381818 
L 345.597974 303.381818 
L 351.126221 303.381818 
L 351.126221 303.381818 
L 351.126221 215.260606 
L 365.657292 303.381818 
L 388.621524 303.381818 
L 388.621524 303.381818 
L 388.621524 215.260606 
L 390.922474 303.381818 
L 390.922474 303.381818 
L 535.536472 303.381818 
L 535.536472 303.381818 
" clip-path="url(#p9b9b0e0c8f)" style="fill: none; stroke: #f59e0b; stroke-width: 1.5; stroke-linecap: square"/>
   </g>
   <g id="patch_3">
    <path d="M 48.425 316.6 
L 48.425 25.8 
" style="fill: none; stroke: #000000; stroke-width: 0.8; stroke-linejoin: miter; stroke-linecap: square"/>
   </g>
   <g id="patch_4">
    <path d="M 558.732256 316.6 
L 558.732256 25.8 
" style="fill: none; stroke: #000000; stroke-width: 0.8; stroke-linejoin: miter; stroke-linecap: square"/>
   </g>
   <g id="patch_5">
    <path d="M 48.425 316.6 
L 558.732256 316.6 
" style="fill: none; stroke: #000000; stroke-width: 0.8; stroke-linejoin: miter; stroke-linecap: square"/>
   </g>
   <g id="patch_6">
    <path d="M 48.425 25.8 
L 558.732256 25.8 
" style="fill: none; stroke: #000000; stroke-width: 0.8; stroke-linejoin: miter; stroke-linecap: square"/>
   </g>
   <g id="text_18">
    <!-- Queue Length Over Time (DOCTOR: avg=0.21, med=0.00; MRI: avg=0.84, med=1.00; BED: avg=0.02, med=0.00) -->
    <g transform="translate(-42.350434 19.8) scale(0.12 -0.12)">
     <defs>
      <path id="DejaVuSans-51" d="M 2522 4238 
Q 1834 4238 1429 3725 
Q 1025 3213 1025 2328 
Q 1025 1447 1429 934 
Q 1834 422 2522 422 
Q 3209 422 3611 934 
Q 4013 1447 4013 2328 
Q 4013 3213 3611 3725 
Q 3209 4238 2522 4238 
z
M 3406 84 
L 4238 -825 
L 3475 -825 
L 2784 -78 
Q 2681 -84 2626 -87 
Q 2572 -91 2522 -91 
Q 1538 -91 948 567 
Q 359 1225 359 2328 
Q 359 3434 948 4092 
Q 1538 4750 2522 4750 
Q 3503 4750 4090 4092 
Q 4678 3434 4678 2328 
Q 4678 1516 4351 937 
Q 4025 359 3406 84 
z
" transform="scale(0.015625)"/>
      <path id="DejaVuSans-4c" d="M 628 4666 
L 1259 4666 
L 1259 531 
L 3531 531 
L 3531 0 
L 628 0 
L 628 4666 
z
" transform="scale(0.015625)"/>
      <path id="DejaVuSans-4f" d="M 2522 4238 
Q 1834 4238 1429 3725 
Q 1025 3213 1025 2328 
Q 1025 1447 1429 934 
Q 1834 422 2522 422 
Q 3209 422 3611 934 
Q 4013 1447 4013 2328 
Q 4013 3213 3611 3725 
Q 3209 4238 2522 4238 
z
M 2522 4750 
Q 3503 4750 4090 4092 
Q 4678 3434 4678 2328 
Q 4678 1225 4090 567 
Q 3503 -91 2522 -91 
Q 1538 -91 948 565 
Q 359 1222 359 2328 
Q 359 3434 948 4092 
Q 1538 4750 2522 4750 
z
" transform="scale(0.015625)"/>
      <path id="DejaVuSans-76" d="M 191 3500 
L 800 3500 
L 1894 563 
L 2988 3500 
L 3597 3500 
L 2284 0 
L 1503 0 
L 191 3500 
z
" transform="scale(0.015625)"/>
      <path id="DejaVuSans-72" d="M 2631 2963 
Q 2534 3019 2420 3045 
Q 2306 3072 2169 3072 
Q 1681 3072 1420 2755 
Q 1159 2438 1159 1844 
L 1159 0 
L 581 0 
L 581 3500 
L 1159 3500 
L 1159 2956 
Q 1341 3275 1631 3429 
Q 1922 3584 2338 3584 
Q 2397 3584 2469 3576 
Q 2541 3569 2628 3553 
L 2631 2963 
z
" transform="scale(0.015625)"/>
      <path id="DejaVuSans-54" d="M -19 4666 
L 3928 4666 
L 3928 4134 
L 2272 4134 
L 2272 0 
L 1638 0 
L 1638 4134 
L -19 4134 
L -19 4666 
z
" transform="scale(0.015625)"/>
      <path id="DejaVuSans-28" d="M 1984 4856 
Q 1566 4138 1362 3434 
Q 1159 2731 1159 2009 
Q 1159 1288 1364 580 
Q 1569 -128 1984 -844 
L 1484 -844 
Q 1016 -109 783 600 
Q 550 1309 550 2009 
Q 550 2706 781 3412 
Q 1013 4119 1484 4856 
L 1984 4856 
z
" transform="scale(0.015625)"/>
      <path id="DejaVuSans-44" d="M 1259 4147 
L 1259 519 
L 2022 519 
Q 2988 519 3436 956 
Q 3884 1394 3884 2338 
Q 3884 3275 3436 3711 
Q 2988 4147 2022 4147 
L 1259 4147 
z
M 628 4666 
L 1925 4666 
Q 3281 4666 3915 4102 
Q 4550 3538 4550 2338 
Q 4550 1131 3912 565 
Q 3275 0 1925 0 
L 628 0 
L 628 4666 
z
" transform="scale(0.015625)"/>
      <path id="DejaVuSans-43" d="M 4122 4306 
L 4122 3641 
Q 3803 3938 3442 4084 
Q 3081 4231 2675 4231 
Q 1875 4231 1450 3742 
Q 1025 3253 1025 2328 
Q 1025 1406 1450 917 
Q 1875 428 2675 428 
Q 3081 428 3442 575 
Q 3803 722 4122 1019 
L 4122 359 
Q 3791 134 3420 21 
Q 3050 -91 2638 -91 
Q 1578 -91 968 557 
Q 359 1206 359 2328 
Q 359 3453 968 4101 
Q 1578 4750 2638 4750 
Q 3056 4750 3426 4639 
Q 3797 4528 4122 4306 
z
" transform="scale(0.015625)"/>
      <path id="DejaVuSans-52" d="M 2841 2188 
Q 3044 2119 3236 1894 
Q 3428 1669 3622 1275 
L 4263 0 
L 3584 0 
L 2988 1197 
Q 2756 1666 2539 1819 
Q 2322 1972 1947 1972 
L 1259 1972 
L 1259 0 
L 628 0 
L 628 4666 
L 2053 4666 
Q 2853 4666 3247 4331 
Q 3641 3997 3641 3322 
Q 3641 2881 3436 2590 
Q 3231 2300 2841 2188 
z
M 1259 4147 
L 1259 2491 
L 2053 2491 
Q 2509 2491 2742 2702 
Q 2975 2913 2975 3322 
Q 2975 3731 2742 3939 
Q 2509 4147 2053 4147 
L 1259 4147 
z
" transform="scale(0.015625)"/>
      <path id="DejaVuSans-3a" d="M 750 794 
L 1409 794 
L 1409 0 
L 750 0 
L 750 794 
z
M 750 3309 
L 1409 3309 
L 1409 2516 
L 750 2516 
L 750 3309 
z
" transform="scale(0.015625)"/>
      <path id="DejaVuSans-61" d="M 2194 1759 
Q 1497 1759 1228 1600 
Q 959 1441 959 1056 
Q 959 750 1161 570 
Q 1363 391 1709 391 
Q 2188 391 2477 730 
Q 2766 1069 2766 1631 
L 2766 1759 
L 2194 1759 
z
M 3341 1997 
L 3341 0 
L 2766 0 
L 2766 531 
Q 2569 213 2275 61 
Q 1981 -91 1556 -91 
Q 1019 -91 701 211 
Q 384 513 384 1019 
Q 384 1609 779 1909 
Q 1175 2209 1959 2209 
L 2766 2209 
L 2766 2266 
Q 2766 2663 2505 2880 
Q 2244 3097 1772 3097 
Q 1472 3097 1187 3025 
Q 903 2953 641 2809 
L 641 3341 
Q 956 3463 1253 3523 
Q 1550 3584 1831 3584 
Q 2591 3584 2966 3190 
Q 3341 2797 3341 1997 
z
" transform="scale(0.015625)"/>
      <path id="DejaVuSans-3d" d="M 678 2906 
L 4684 2906 
L 4684 2381 
L 678 2381 
L 678 2906 
z
M 678 1631 
L 4684 1631 
L 4684 1100 
L 678 1100 
L 678 1631 
z
" transform="scale(0.015625)"/>
      <path id="DejaVuSans-2c" d="M 750 794 
L 1409 794 
L 1409 256 
L 897 -744 
L 494 -744 
L 750 256 
L 750 794 
z
" transform="scale(0.015625)"/>
      <path id="DejaVuSans-64" d="M 2906 2969 
L 2906 4863 
L 3481 4863 
L 3481 0 
L 2906 0 
L 2906 525 
Q 2725 213 2448 61 
Q 2172 -91 1784 -91 
Q 1150 -91 751 415 
Q 353 922 353 1747 
Q 353 2572 751 3078 
Q 1150 3584 1784 3584 
Q 2172 3584 2448 3432 
Q 2725 3281 2906 2969 
z
M 947 1747 
Q 947 1113 1208 752 
Q 1469 391 1925 391 
Q 2381 391 2643 752 
Q 2906 1113 2906 1747 
Q 2906 2381 2643 2742 
Q 2381 3103 1925 3103 
Q 1469 3103 1208 2742 
Q 947 2381 947 1747 
z
" transform="scale(0.015625)"/>
      <path id="DejaVuSans-3b" d="M 750 3309 
L 1409 3309 
L 1409 2516 
L 750 2516 
L 750 3309 
z
M 750 794 
L 1409 794 
L 1409 256 
L 897 -744 
L 494 -744 
L 750 256 
L 750 794 
z
" transform="scale(0.015625)"/>
      <path id="DejaVuSans-4d" d="M 628 4666 
L 1569 4666 
L 2759 1491 
L 3956 4666 
L 4897 4666 
L 4897 0 
L 4281 0 
L 4281 4097 
L 3078 897 
L 2444 897 
L 1241 4097 
L 1241 0 
L 628 0 
L 628 4666 
z
" transform="scale(0.015625)"/>
      <path id="DejaVuSans-49" d="M 628 4666 
L 1259 4666 
L 1259 0 
L 628 0 
L 628 4666 
z
" transform="scale(0.015625)"/>
      <path id="DejaVuSans-42" d="M 1259 2228 
L 1259 519 
L 2272 519 
Q 2781 519 3026 730 
Q 3272 941 3272 1375 
Q 3272 1813 3026 2020 
Q 2781 2228 2272 2228 
L 1259 2228 
z
M 1259 4147 
L 1259 2741 
L 2194 2741 
Q 2656 2741 2882 2914 
Q 3109 3088 3109 3444 
Q 3109 3797 2882 3972 
Q 2656 4147 2194 4147 
L 1259 4147 
z
M 628 4666 
L 2241 4666 
Q 2963 4666 3353 4366 
Q 3744 4066 3744 3513 
Q 3744 3084 3544 2831 
Q 3344 2578 2956 2516 
Q 3422 2416 3680 2098 
Q 3938 1781 3938 1306 
Q 3938 681 3513 340 
Q 3088 0 2303 0 
L 628 0 
L 628 4666 
z
" transform="scale(0.015625)"/>
      <path id="DejaVuSans-45" d="M 628 4666 
L 3578 4666 
L 3578 4134 
L 1259 4134 
L 1259 2753 
L 3481 2753 
L 3481 2222 
L 1259 2222 
L 1259 531 
L 3634 531 
L 3634 0 
L 628 0 
L 628 4666 
z
" transform="scale(0.015625)"/>
      <path id="DejaVuSans-29" d="M 513 4856 
L 1013 4856 
Q 1481 4119 1714 3412 
Q 1947 2706 1947 2009 
Q 1947 1309 1714 600 
Q 1481 -109 1013 -844 
L 513 -844 
Q 928 -128 1133 580 
Q 1338 1288 1338 2009 
Q 1338 2731 1133 3434 
Q 928 4138 513 4856 
z
" transform="scale(0.015625)"/>
     </defs>
     <use xlink:href="#DejaVuSans-51"/>
     <use xlink:href="#DejaVuSans-75" x="78.710938"/>
     <use xlink:href="#DejaVuSans-65" x="142.089844"/>
     <use xlink:href="#DejaVuSans-75" x="203.613281"/>
     <use xlink:href="#DejaVuSans-65" x="266.992188"/>
     <use xlink:href="#DejaVuSans-20" x="328.515625"/>
     <use xlink:href="#DejaVuSans-4c" x="360.302734"/>
     <use xlink:href="#DejaVuSans-65" x="414.265625"/>
     <use xlink:href="#DejaVuSans-6e" x="475.789062"/>
     <use xlink:href="#DejaVuSans-67" x="539.167969"/>
     <use xlink:href="#DejaVuSans-74" x="602.644531"/>
     <use xlink:href="#DejaVuSans-68" x="641.853516"/>
     <use xlink:href="#DejaVuSans-20" x="705.232422"/>
     <use xlink:href="#DejaVuSans-4f" x="737.019531"/>
     <use xlink:href="#DejaVuSans-76" x="815.730469"/>
     <use xlink:href="#DejaVuSans-65" x="874.910156"/>
     <use xlink:href="#DejaVuSans-72" x="936.433594"/>
     <use xlink:href="#DejaVuSans-20" x="977.546875"/>
     <use xlink:href="#DejaVuSans-54" x="1009.333984"/>
     <use xlink:href="#DejaVuSans-69" x="1067.292969"/>
     <use xlink:href="#DejaVuSans-6d" x="1095.076172"/>
     <use xlink:href="#DejaVuSans-65" x="1192.488281"/>
     <use xlink:href="#DejaVuSans-20" x="1254.011719"/>
     <use xlink:href="#DejaVuSans-28" x="1285.798828"/>
     <use xlink:href="#DejaVuSans-44" x="1324.8125"/>
     <use xlink:href="#DejaVuSans-4f" x="1401.814453"/>
     <use xlink:href="#DejaVuSans-43" x="1480.525391"/>
     <use xlink:href="#DejaVuSans-54" x="1550.349609"/>
     <use xlink:href="#DejaVuSans-4f" x="1611.433594"/>
     <use xlink:href="#DejaVuSans-52" x="1690.144531"/>
     <use xlink:href="#DejaVuSans-3a" x="1756.501953"/>
     <use xlink:href="#DejaVuSans-20" x="1790.193359"/>
     <use xlink:href="#DejaVuSans-61" x="1821.980469"/>
     <use xlink:href="#DejaVuSans-76" x="1883.259766"/>
     <use xlink:href="#DejaVuSans-67" x="1942.439453"/>
     <use xlink:href="#DejaVuSans-3d" x="2005.916016"/>
     <use xlink:href="#DejaVuSans-30" x="2089.705078"/>
     <use xlink:href="#DejaVuSans-2e" x="2153.328125"/>
     <use xlink:href="#DejaVuSans-32" x="2185.115234"/>
     <use xlink:href="#DejaVuSans-31" x="2248.738281"/>
     <use xlink:href="#DejaVuSans-2c" x="2312.361328"/>
     <use xlink:href="#DejaVuSans-20" x="2344.148438"/>
     <use xlink:href="#DejaVuSans-6d" x="2375.935547"/>
     <use xlink:href="#DejaVuSans-65" x="2473.347656"/>
     <use xlink:href="#DejaVuSans-64" x="2534.871094"/>
     <use xlink:href="#DejaVuSans-3d" x="2598.347656"/>
     <use xlink:href="#DejaVuSans-30" x="2682.136719"/>
     <use xlink:href="#DejaVuSans-2e" x="2745.759766"/>
     <use xlink:href="#DejaVuSans-30" x="2777.546875"/>
     <use xlink:href="#DejaVuSans-30" x="2841.169922"/>
     <use xlink:href="#DejaVuSans-3b" x="2904.792969"/>
     <use xlink:href="#DejaVuSans-20" x="2938.484375"/>
     <use xlink:href="#DejaVuSans-4d" x="2970.271484"/>
     <use xlink:href="#DejaVuSans-52" x="3056.550781"/>
     <use xlink:href="#DejaVuSans-49" x="3126.033203"/>
     <use xlink:href="#DejaVuSans-3a" x="3155.525391"/>
     <use xlink:href="#DejaVuSans-20" x="3189.216797"/>
     <use xlink:href="#DejaVuSans-61" x="3221.003906"/>
     <use xlink:href="#DejaVuSans-76" x="3282.283203"/>
     <use xlink:href="#DejaVuSans-67" x="3341.462891"/>
     <use xlink:href="#DejaVuSans-3d" x="3404.939453"/>
     <use xlink:href="#DejaVuSans-30" x="3488.728516"/>
     <use xlink:href="#DejaVuSans-2e" x="3552.351562"/>
     <use xlink:href="#DejaVuSans-38" x="3584.138672"/>
     <use xlink:href="#DejaVuSans-34" x="3647.761719"/>
     <use xlink:href="#DejaVuSans-2c" x="3711.384766"/>
     <use xlink:href="#DejaVuSans-20" x="3743.171875"/>
     <use xlink:href="#DejaVuSans-6d" x="3774.958984"/>
     <use xlink:href="#DejaVuSans-65" x="3872.371094"/>
     <use xlink:href="#DejaVuSans-64" x="3933.894531"/>
     <use xlink:href="#DejaVuSans-3d" x="3997.371094"/>
     <use xlink:href="#DejaVuSans-31" x="4081.160156"/>
     <use xlink:href="#DejaVuSans-2e" x="4144.783203"/>
     <use xlink:href="#DejaVuSans-30" x="4176.570312"/>
     <use xlink:href="#DejaVuSans-30" x="4240.193359"/>
     <use xlink:href="#DejaVuSans-3b" x="4303.816406"/>
     <use xlink:href="#DejaVuSans-20" x="4337.507812"/>
     <use xlink:href="#DejaVuSans-42" x="4369.294922"/>
     <use xlink:href="#DejaVuSans-45" x="4437.898438"/>
     <use xlink:href="#DejaVuSans-44" x="4501.082031"/>
     <use xlink:href="#DejaVuSans-3a" x="4578.083984"/>
     <use xlink:href="#DejaVuSans-20" x="4611.775391"/>
     <use xlink:href="#DejaVuSans-61" x="4643.5625"/>
     <use xlink:href="#DejaVuSans-76" x="4704.841797"/>
     <use xlink:href="#DejaVuSans-67" x="4764.021484"/>
     <use xlink:href="#DejaVuSans-3d" x="4827.498047"/>
     <use xlink:href="#DejaVuSans-30" x="4911.287109"/>
     <use xlink:href="#DejaVuSans-2e" x="4974.910156"/>
     <use xlink:href="#DejaVuSans-30" x="5006.697266"/>
     <use xlink:href="#DejaVuSans-32" x="5070.320312"/>
     <use xlink:href="#DejaVuSans-2c" x="5133.943359"/>
     <use xlink:href="#DejaVuSans-20" x="5165.730469"/>
     <use xlink:href="#DejaVuSans-6d" x="5197.517578"/>
     <use xlink:href="#DejaVuSans-65" x="5294.929688"/>
     <use xlink:href="#DejaVuSans-64" x="5356.453125"/>
     <use xlink:href="#DejaVuSans-3d" x="5419.929688"/>
     <use xlink:href="#DejaVuSans-30" x="5503.71875"/>
     <use xlink:href="#DejaVuSans-2e" x="5567.341797"/>
     <use xlink:href="#DejaVuSans-30" x="5599.128906"/>
     <use xlink:href="#DejaVuSans-30" x="5662.751953"/>
     <use xlink:href="#DejaVuSans-29" x="5726.375"/>
    </g>
   </g>
   <g id="legend_1">
    <g id="patch_7">
     <path d="M 476.249444 77.834375 
L 551.732256 77.834375 
Q 553.732256 77.834375 553.732256 75.834375 
L 553.732256 32.8 
Q 553.732256 30.8 551.732256 30.8 
L 476.249444 30.8 
Q 474.249444 30.8 474.249444 32.8 
L 474.249444 75.834375 
Q 474.249444 77.834375 476.249444 77.834375 
z
" style="fill: #ffffff; opacity: 0.8; stroke: #cccccc; stroke-linejoin: miter"/>
    </g>
    <g id="line2d_19">
     <path d="M 478.249444 38.898438 
L 488.249444 38.898438 
L 498.249444 38.898438 
" style="fill: none; stroke: #2563eb; stroke-width: 1.5; stroke-linecap: square"/>
    </g>
    <g id="text_19">
     <!-- DOCTOR -->
     <g transform="translate(506.249444 42.398438) scale(0.1 -0.1)">
      <use xlink:href="#DejaVuSans-44"/>
      <use xlink:href="#DejaVuSans-4f" x="77.001953"/>
      <use xlink:href="#DejaVuSans-43" x="155.712891"/>
      <use xlink:href="#DejaVuSans-54" x="225.537109"/>
      <use xlink:href="#DejaVuSans-4f" x="286.621094"/>
      <use xlink:href="#DejaVuSans-52" x="365.332031"/>
     </g>
    </g>
    <g id="line2d_20">
     <path d="M 478.249444 53.576563 
L 488.249444 53.576563 
L 498.249444 53.576563 
" style="fill: none; stroke: #16a34a; stroke-width: 1.5; stroke-linecap: square"/>
    </g>
    <g id="text_20">
     <!-- MRI -->
     <g transform="translate(506.249444 57.076563) scale(0.1 -0.1)">
      <use xlink:href="#DejaVuSans-4d"/>
      <use xlink:href="#DejaVuSans-52" x="86.279297"/>
      <use xlink:href="#DejaVuSans-49" x="155.761719"/>
     </g>
    </g>
    <g id="line2d_21">
     <path d="M 478.249444 68.254687 
L 488.249444 68.254687 
L 498.249444 68.254687 
" style="fill: none; stroke: #f59e0b; stroke-width: 1.5; stroke-linecap: square"/>
    </g>
    <g id="text_21">
     <!-- BED -->
     <g transform="translate(506.249444 71.754687) scale(0.1 -0.1)">
      <use xlink:href="#DejaVuSans-42"/>
      <use xlink:href="#DejaVuSans-45" x="68.603516"/>
      <use xlink:href="#DejaVuSans-44" x="131.787109"/>
     </g>
    </g>
   </g>
  </g>
 </g>
 <defs>
  <clipPath id="p9b9b0e0c8f">
   <rect x="48.425" y="25.8" width="510.307256" height="290.8"/>
  </clipPath>
 </defs>
</svg>
