<?xml version="1.0" encoding="utf-8" standalone="no"?>
<!DOCTYPE svg PUBLIC "-//W3C//DTD SVG 1.1//EN"
  "http://www.w3.org/Graphics/SVG/1.1/DTD/svg11.dtd">
<svg xmlns:xlink="http://www.w3.org/1999/xlink" width="504pt" height="360pt" viewBox="0 0 504 360" xmlns="http://www.w3.org/2000/svg" version="1.1">
 <metadata>
  <rdf:RDF xmlns:dc="http://purl.org/dc/elements/1.1/" xmlns:cc="http://creativecommons.org/ns#" xmlns:rdf="http://www.w3.org/1999/02/22-rdf-syntax-ns#">
   <cc:Work>
    <dc:type rdf:resource="http://purl.org/dc/dcmitype/StillImage"/>
    <dc:date>2025-09-07T05:36:59.051877</dc:date>
    <dc:format>image/svg+xml</dc:format>
    <dc:creator>
     <cc:Agent>
      <dc:title>Matplotlib v3.9.2, https://matplotlib.org/</dc:title>
     </cc:Agent>
    </dc:creator>
   </cc:Work>
  </rdf:RDF>
 </metadata>
 <defs>
  <style type="text/css">*{stroke-linejoin: round; stroke-linecap: butt}</style>
 </defs>
 <g id="figure_1">
  <g id="patch_1">
   <path d="M 0 360 
L 504 360 
L 504 0 
L 0 0 
z
" style="fill: #ffffff"/>
  </g>
  <g id="axes_1">
   <g id="patch_2">
    <path d="M 45.275 316.6 
L 493.2 316.6 
L 493.2 25.8 
L 45.275 25.8 
z
" style="fill: #ffffff"/>
   </g>
   <g id="patch_3">
    <path d="M 78.284012 316.6 
L 81.87628 316.6 
L 81.87628 291.422511 
L 78.284012 291.422511 
z
" clip-path="url(#pb37f2a31eb)" style="fill: #dc2626; opacity: 0.5"/>
   </g>
   <g id="patch_4">
    <path d="M 81.87628 316.6 
L 85.468548 316.6 
L 85.468548 257.852525 
L 81.87628 257.852525 
z
" clip-path="url(#pb37f2a31eb)" style="fill: #dc2626; opacity: 0.5"/>
   </g>
   <g id="patch_5">
    <path d="M 85.468548 316.6 
L 89.060817 316.6 
L 89.060817 299.815007 
L 85.468548 299.815007 
z
" clip-path="url(#pb37f2a31eb)" style="fill: #dc2626; opacity: 0.5"/>
   </g>
   <g id="patch_6">
    <path d="M 89.060817 316.6 
L 92.653085 316.6 
L 92.653085 283.030014 
L 89.060817 283.030014 
z
" clip-path="url(#pb37f2a31eb)" style="fill: #dc2626; opacity: 0.5"/>
   </g>
   <g id="patch_7">
    <path d="M 92.653085 316.6 
L 96.245353 316.6 
L 96.245353 274.637518 
L 92.653085 274.637518 
z
" clip-path="url(#pb37f2a31eb)" style="fill: #dc2626; opacity: 0.5"/>
   </g>
   <g id="patch_8">
    <path d="M 96.245353 316.6 
L 99.837621 316.6 
L 99.837621 274.637518 
L 96.245353 274.637518 
z
" clip-path="url(#pb37f2a31eb)" style="fill: #dc2626; opacity: 0.5"/>
   </g>
   <g id="patch_9">
    <path d="M 99.837621 316.6 
L 103.42989 316.6 
L 103.42989 316.6 
L 99.837621 316.6 
z
" clip-path="url(#pb37f2a31eb)" style="fill: #dc2626; opacity: 0.5"/>
   </g>
   <g id="patch_10">
    <path d="M 103.42989 316.6 
L 107.022158 316.6 
L 107.022158 308.207504 
L 103.42989 308.207504 
z
" clip-path="url(#pb37f2a31eb)" style="fill: #dc2626; opacity: 0.5"/>
   </g>
   <g id="patch_11">
    <path d="M 107.022158 316.6 
L 110.614426 316.6 
L 110.614426 316.6 
L 107.022158 316.6 
z
" clip-path="url(#pb37f2a31eb)" style="fill: #dc2626; opacity: 0.5"/>
   </g>
   <g id="patch_12">
    <path d="M 110.614426 316.6 
L 114.206694 316.6 
L 114.206694 308.207504 
L 110.614426 308.207504 
z
" clip-path="url(#pb37f2a31eb)" style="fill: #dc2626; opacity: 0.5"/>
   </g>
   <g id="patch_13">
    <path d="M 114.206694 316.6 
L 117.798963 316.6 
L 117.798963 316.6 
L 114.206694 316.6 
z
" clip-path="url(#pb37f2a31eb)" style="fill: #dc2626; opacity: 0.5"/>
   </g>
   <g id="patch_14">
    <path d="M 117.798963 316.6 
L 121.391231 316.6 
L 121.391231 316.6 
L 117.798963 316.6 
z
" clip-path="url(#pb37f2a31eb)" style="fill: #dc2626; opacity: 0.5"/>
   </g>
   <g id="patch_15">
    <path d="M 121.391231 316.6 
L 124.983499 316.6 
L 124.983499 308.207504 
L 121.391231 308.207504 
z
" clip-path="url(#pb37f2a31eb)" style="fill: #dc2626; opacity: 0.5"/>
   </g>
   <g id="patch_16">
    <path d="M 124.983499 316.6 
L 128.575767 316.6 
L 128.575767 316.6 
L 124.983499 316.6 
z
" clip-path="url(#pb37f2a31eb)" style="fill: #dc2626; opacity: 0.5"/>
   </g>
   <g id="patch_17">
    <path d="M 128.575767 316.6 
L 132.168036 316.6 
L 132.168036 308.207504 
L 128.575767 308.207504 
z
" clip-path="url(#pb37f2a31eb)" style="fill: #dc2626; opacity: 0.5"/>
   </g>
   <g id="patch_18">
    <path d="M 132.168036 316.6 
L 135.760304 316.6 
L 135.760304 316.6 
L 132.168036 316.6 
z
" clip-path="url(#pb37f2a31eb)" style="fill: #dc2626; opacity: 0.5"/>
   </g>
   <g id="patch_19">
    <path d="M 135.760304 316.6 
L 139.352572 316.6 
L 139.352572 316.6 
L 135.760304 316.6 
z
" clip-path="url(#pb37f2a31eb)" style="fill: #dc2626; opacity: 0.5"/>
   </g>
   <g id="patch_20">
    <path d="M 139.352572 316.6 
L 142.94484 316.6 
L 142.94484 316.6 
L 139.352572 316.6 
z
" clip-path="url(#pb37f2a31eb)" style="fill: #dc2626; opacity: 0.5"/>
   </g>
   <g id="patch_21">
    <path d="M 142.94484 316.6 
L 146.537109 316.6 
L 146.537109 316.6 
L 142.94484 316.6 
z
" clip-path="url(#pb37f2a31eb)" style="fill: #dc2626; opacity: 0.5"/>
   </g>
   <g id="patch_22">
    <path d="M 146.537109 316.6 
L 150.129377 316.6 
L 150.129377 308.207504 
L 146.537109 308.207504 
z
" clip-path="url(#pb37f2a31eb)" style="fill: #dc2626; opacity: 0.5"/>
   </g>
   <g id="patch_23">
    <path d="M 65.635227 316.6 
L 70.199658 316.6 
L 70.199658 274.637518 
L 65.635227 274.637518 
z
" clip-path="url(#pb37f2a31eb)" style="fill: #ea580c; opacity: 0.5"/>
   </g>
   <g id="patch_24">
    <path d="M 70.199658 316.6 
L 74.764089 316.6 
L 74.764089 274.637518 
L 70.199658 274.637518 
z
" clip-path="url(#pb37f2a31eb)" style="fill: #ea580c; opacity: 0.5"/>
   </g>
   <g id="patch_25">
    <path d="M 74.764089 316.6 
L 79.32852 316.6 
L 79.32852 274.637518 
L 74.764089 274.637518 
z
" clip-path="url(#pb37f2a31eb)" style="fill: #ea580c; opacity: 0.5"/>
   </g>
   <g id="patch_26">
    <path d="M 79.32852 316.6 
L 83.89295 316.6 
L 83.89295 299.815007 
L 79.32852 299.815007 
z
" clip-path="url(#pb37f2a31eb)" style="fill: #ea580c; opacity: 0.5"/>
   </g>
   <g id="patch_27">
    <path d="M 83.89295 316.6 
L 88.457381 316.6 
L 88.457381 283.030014 
L 83.89295 283.030014 
z
" clip-path="url(#pb37f2a31eb)" style="fill: #ea580c; opacity: 0.5"/>
   </g>
   <g id="patch_28">
    <path d="M 88.457381 316.6 
L 93.021812 316.6 
L 93.021812 266.245022 
L 88.457381 266.245022 
z
" clip-path="url(#pb37f2a31eb)" style="fill: #ea580c; opacity: 0.5"/>
   </g>
   <g id="patch_29">
    <path d="M 93.021812 316.6 
L 97.586243 316.6 
L 97.586243 283.030014 
L 93.021812 283.030014 
z
" clip-path="url(#pb37f2a31eb)" style="fill: #ea580c; opacity: 0.5"/>
   </g>
   <g id="patch_30">
    <path d="M 97.586243 316.6 
L 102.150673 316.6 
L 102.150673 299.815007 
L 97.586243 299.815007 
z
" clip-path="url(#pb37f2a31eb)" style="fill: #ea580c; opacity: 0.5"/>
   </g>
   <g id="patch_31">
    <path d="M 102.150673 316.6 
L 106.715104 316.6 
L 106.715104 283.030014 
L 102.150673 283.030014 
z
" clip-path="url(#pb37f2a31eb)" style="fill: #ea580c; opacity: 0.5"/>
   </g>
   <g id="patch_32">
    <path d="M 106.715104 316.6 
L 111.279535 316.6 
L 111.279535 299.815007 
L 106.715104 299.815007 
z
" clip-path="url(#pb37f2a31eb)" style="fill: #ea580c; opacity: 0.5"/>
   </g>
   <g id="patch_33">
    <path d="M 111.279535 316.6 
L 115.843966 316.6 
L 115.843966 291.422511 
L 111.279535 291.422511 
z
" clip-path="url(#pb37f2a31eb)" style="fill: #ea580c; opacity: 0.5"/>
   </g>
   <g id="patch_34">
    <path d="M 115.843966 316.6 
L 120.408396 316.6 
L 120.408396 291.422511 
L 115.843966 291.422511 
z
" clip-path="url(#pb37f2a31eb)" style="fill: #ea580c; opacity: 0.5"/>
   </g>
   <g id="patch_35">
    <path d="M 120.408396 316.6 
L 124.972827 316.6 
L 124.972827 308.207504 
L 120.408396 308.207504 
z
" clip-path="url(#pb37f2a31eb)" style="fill: #ea580c; opacity: 0.5"/>
   </g>
   <g id="patch_36">
    <path d="M 124.972827 316.6 
L 129.537258 316.6 
L 129.537258 308.207504 
L 124.972827 308.207504 
z
" clip-path="url(#pb37f2a31eb)" style="fill: #ea580c; opacity: 0.5"/>
   </g>
   <g id="patch_37">
    <path d="M 129.537258 316.6 
L 134.101689 316.6 
L 134.101689 308.207504 
L 129.537258 308.207504 
z
" clip-path="url(#pb37f2a31eb)" style="fill: #ea580c; opacity: 0.5"/>
   </g>
   <g id="patch_38">
    <path d="M 134.101689 316.6 
L 138.666119 316.6 
L 138.666119 316.6 
L 134.101689 316.6 
z
" clip-path="url(#pb37f2a31eb)" style="fill: #ea580c; opacity: 0.5"/>
   </g>
   <g id="patch_39">
    <path d="M 138.666119 316.6 
L 143.23055 316.6 
L 143.23055 308.207504 
L 138.666119 308.207504 
z
" clip-path="url(#pb37f2a31eb)" style="fill: #ea580c; opacity: 0.5"/>
   </g>
   <g id="patch_40">
    <path d="M 143.23055 316.6 
L 147.794981 316.6 
L 147.794981 308.207504 
L 143.23055 308.207504 
z
" clip-path="url(#pb37f2a31eb)" style="fill: #ea580c; opacity: 0.5"/>
   </g>
   <g id="patch_41">
    <path d="M 147.794981 316.6 
L 152.359412 316.6 
L 152.359412 291.422511 
L 147.794981 291.422511 
z
" clip-path="url(#pb37f2a31eb)" style="fill: #ea580c; opacity: 0.5"/>
   </g>
   <g id="patch_42">
    <path d="M 152.359412 316.6 
L 156.923842 316.6 
L 156.923842 308.207504 
L 152.359412 308.207504 
z
" clip-path="url(#pb37f2a31eb)" style="fill: #ea580c; opacity: 0.5"/>
   </g>
   <g id="patch_43">
    <path d="M 80.341053 316.6 
L 84.446527 316.6 
L 84.446527 308.207504 
L 80.341053 308.207504 
z
" clip-path="url(#pb37f2a31eb)" style="fill: #d97706; opacity: 0.5"/>
   </g>
   <g id="patch_44">
    <path d="M 84.446527 316.6 
L 88.552001 316.6 
L 88.552001 274.637518 
L 84.446527 274.637518 
z
" clip-path="url(#pb37f2a31eb)" style="fill: #d97706; opacity: 0.5"/>
   </g>
   <g id="patch_45">
    <path d="M 88.552001 316.6 
L 92.657476 316.6 
L 92.657476 316.6 
L 88.552001 316.6 
z
" clip-path="url(#pb37f2a31eb)" style="fill: #d97706; opacity: 0.5"/>
   </g>
   <g id="patch_46">
    <path d="M 92.657476 316.6 
L 96.76295 316.6 
L 96.76295 266.245022 
L 92.657476 266.245022 
z
" clip-path="url(#pb37f2a31eb)" style="fill: #d97706; opacity: 0.5"/>
   </g>
   <g id="patch_47">
    <path d="M 96.76295 316.6 
L 100.868425 316.6 
L 100.868425 308.207504 
L 96.76295 308.207504 
z
" clip-path="url(#pb37f2a31eb)" style="fill: #d97706; opacity: 0.5"/>
   </g>
   <g id="patch_48">
    <path d="M 100.868425 316.6 
L 104.973899 316.6 
L 104.973899 274.637518 
L 100.868425 274.637518 
z
" clip-path="url(#pb37f2a31eb)" style="fill: #d97706; opacity: 0.5"/>
   </g>
   <g id="patch_49">
    <path d="M 104.973899 316.6 
L 109.079373 316.6 
L 109.079373 283.030014 
L 104.973899 283.030014 
z
" clip-path="url(#pb37f2a31eb)" style="fill: #d97706; opacity: 0.5"/>
   </g>
   <g id="patch_50">
    <path d="M 109.079373 316.6 
L 113.184848 316.6 
L 113.184848 283.030014 
L 109.079373 283.030014 
z
" clip-path="url(#pb37f2a31eb)" style="fill: #d97706; opacity: 0.5"/>
   </g>
   <g id="patch_51">
    <path d="M 113.184848 316.6 
L 117.290322 316.6 
L 117.290322 299.815007 
L 113.184848 299.815007 
z
" clip-path="url(#pb37f2a31eb)" style="fill: #d97706; opacity: 0.5"/>
   </g>
   <g id="patch_52">
    <path d="M 117.290322 316.6 
L 121.395797 316.6 
L 121.395797 299.815007 
L 117.290322 299.815007 
z
" clip-path="url(#pb37f2a31eb)" style="fill: #d97706; opacity: 0.5"/>
   </g>
   <g id="patch_53">
    <path d="M 121.395797 316.6 
L 125.501271 316.6 
L 125.501271 291.422511 
L 121.395797 291.422511 
z
" clip-path="url(#pb37f2a31eb)" style="fill: #d97706; opacity: 0.5"/>
   </g>
   <g id="patch_54">
    <path d="M 125.501271 316.6 
L 129.606746 316.6 
L 129.606746 308.207504 
L 125.501271 308.207504 
z
" clip-path="url(#pb37f2a31eb)" style="fill: #d97706; opacity: 0.5"/>
   </g>
   <g id="patch_55">
    <path d="M 129.606746 316.6 
L 133.71222 316.6 
L 133.71222 316.6 
L 129.606746 316.6 
z
" clip-path="url(#pb37f2a31eb)" style="fill: #d97706; opacity: 0.5"/>
   </g>
   <g id="patch_56">
    <path d="M 133.71222 316.6 
L 137.817694 316.6 
L 137.817694 308.207504 
L 133.71222 308.207504 
z
" clip-path="url(#pb37f2a31eb)" style="fill: #d97706; opacity: 0.5"/>
   </g>
   <g id="patch_57">
    <path d="M 137.817694 316.6 
L 141.923169 316.6 
L 141.923169 299.815007 
L 137.817694 299.815007 
z
" clip-path="url(#pb37f2a31eb)" style="fill: #d97706; opacity: 0.5"/>
   </g>
   <g id="patch_58">
    <path d="M 141.923169 316.6 
L 146.028643 316.6 
L 146.028643 316.6 
L 141.923169 316.6 
z
" clip-path="url(#pb37f2a31eb)" style="fill: #d97706; opacity: 0.5"/>
   </g>
   <g id="patch_59">
    <path d="M 146.028643 316.6 
L 150.134118 316.6 
L 150.134118 308.207504 
L 146.028643 308.207504 
z
" clip-path="url(#pb37f2a31eb)" style="fill: #d97706; opacity: 0.5"/>
   </g>
   <g id="patch_60">
    <path d="M 150.134118 316.6 
L 154.239592 316.6 
L 154.239592 316.6 
L 150.134118 316.6 
z
" clip-path="url(#pb37f2a31eb)" style="fill: #d97706; opacity: 0.5"/>
   </g>
   <g id="patch_61">
    <path d="M 154.239592 316.6 
L 158.345066 316.6 
L 158.345066 316.6 
L 154.239592 316.6 
z
" clip-path="url(#pb37f2a31eb)" style="fill: #d97706; opacity: 0.5"/>
   </g>
   <g id="patch_62">
    <path d="M 158.345066 316.6 
L 162.450541 316.6 
L 162.450541 308.207504 
L 158.345066 308.207504 
z
" clip-path="url(#pb37f2a31eb)" style="fill: #d97706; opacity: 0.5"/>
   </g>
   <g id="patch_63">
    <path d="M 76.666135 316.6 
L 96.474817 316.6 
L 96.474817 190.712554 
L 76.666135 190.712554 
z
" clip-path="url(#pb37f2a31eb)" style="fill: #2563eb; opacity: 0.5"/>
   </g>
   <g id="patch_64">
    <path d="M 96.474817 316.6 
L 116.283499 316.6 
L 116.283499 39.647619 
L 96.474817 39.647619 
z
" clip-path="url(#pb37f2a31eb)" style="fill: #2563eb; opacity: 0.5"/>
   </g>
   <g id="patch_65">
    <path d="M 116.283499 316.6 
L 136.092181 316.6 
L 136.092181 157.142569 
L 116.283499 157.142569 
z
" clip-path="url(#pb37f2a31eb)" style="fill: #2563eb; opacity: 0.5"/>
   </g>
   <g id="patch_66">
    <path d="M 136.092181 316.6 
L 155.900863 316.6 
L 155.900863 241.067532 
L 136.092181 241.067532 
z
" clip-path="url(#pb37f2a31eb)" style="fill: #2563eb; opacity: 0.5"/>
   </g>
   <g id="patch_67">
    <path d="M 155.900863 316.6 
L 175.709545 316.6 
L 175.709545 266.245022 
L 155.900863 266.245022 
z
" clip-path="url(#pb37f2a31eb)" style="fill: #2563eb; opacity: 0.5"/>
   </g>
   <g id="patch_68">
    <path d="M 175.709545 316.6 
L 195.518227 316.6 
L 195.518227 283.030014 
L 175.709545 283.030014 
z
" clip-path="url(#pb37f2a31eb)" style="fill: #2563eb; opacity: 0.5"/>
   </g>
   <g id="patch_69">
    <path d="M 195.518227 316.6 
L 215.326908 316.6 
L 215.326908 308.207504 
L 195.518227 308.207504 
z
" clip-path="url(#pb37f2a31eb)" style="fill: #2563eb; opacity: 0.5"/>
   </g>
   <g id="patch_70">
    <path d="M 215.326908 316.6 
L 235.13559 316.6 
L 235.13559 308.207504 
L 215.326908 308.207504 
z
" clip-path="url(#pb37f2a31eb)" style="fill: #2563eb; opacity: 0.5"/>
   </g>
   <g id="patch_71">
    <path d="M 235.13559 316.6 
L 254.944272 316.6 
L 254.944272 316.6 
L 235.13559 316.6 
z
" clip-path="url(#pb37f2a31eb)" style="fill: #2563eb; opacity: 0.5"/>
   </g>
   <g id="patch_72">
    <path d="M 254.944272 316.6 
L 274.752954 316.6 
L 274.752954 316.6 
L 254.944272 316.6 
z
" clip-path="url(#pb37f2a31eb)" style="fill: #2563eb; opacity: 0.5"/>
   </g>
   <g id="patch_73">
    <path d="M 274.752954 316.6 
L 294.561636 316.6 
L 294.561636 283.030014 
L 274.752954 283.030014 
z
" clip-path="url(#pb37f2a31eb)" style="fill: #2563eb; opacity: 0.5"/>
   </g>
   <g id="patch_74">
    <path d="M 294.561636 316.6 
L 314.370318 316.6 
L 314.370318 308.207504 
L 294.561636 308.207504 
z
" clip-path="url(#pb37f2a31eb)" style="fill: #2563eb; opacity: 0.5"/>
   </g>
   <g id="patch_75">
    <path d="M 314.370318 316.6 
L 334.179 316.6 
L 334.179 308.207504 
L 314.370318 308.207504 
z
" clip-path="url(#pb37f2a31eb)" style="fill: #2563eb; opacity: 0.5"/>
   </g>
   <g id="patch_76">
    <path d="M 334.179 316.6 
L 353.987682 316.6 
L 353.987682 299.815007 
L 334.179 299.815007 
z
" clip-path="url(#pb37f2a31eb)" style="fill: #2563eb; opacity: 0.5"/>
   </g>
   <g id="patch_77">
    <path d="M 353.987682 316.6 
L 373.796363 316.6 
L 373.796363 316.6 
L 353.987682 316.6 
z
" clip-path="url(#pb37f2a31eb)" style="fill: #2563eb; opacity: 0.5"/>
   </g>
   <g id="patch_78">
    <path d="M 373.796363 316.6 
L 393.605045 316.6 
L 393.605045 316.6 
L 373.796363 316.6 
z
" clip-path="url(#pb37f2a31eb)" style="fill: #2563eb; opacity: 0.5"/>
   </g>
   <g id="patch_79">
    <path d="M 393.605045 316.6 
L 413.413727 316.6 
L 413.413727 316.6 
L 393.605045 316.6 
z
" clip-path="url(#pb37f2a31eb)" style="fill: #2563eb; opacity: 0.5"/>
   </g>
   <g id="patch_80">
    <path d="M 413.413727 316.6 
L 433.222409 316.6 
L 433.222409 316.6 
L 413.413727 316.6 
z
" clip-path="url(#pb37f2a31eb)" style="fill: #2563eb; opacity: 0.5"/>
   </g>
   <g id="patch_81">
    <path d="M 433.222409 316.6 
L 453.031091 316.6 
L 453.031091 316.6 
L 433.222409 316.6 
z
" clip-path="url(#pb37f2a31eb)" style="fill: #2563eb; opacity: 0.5"/>
   </g>
   <g id="patch_82">
    <path d="M 453.031091 316.6 
L 472.839773 316.6 
L 472.839773 308.207504 
L 453.031091 308.207504 
z
" clip-path="url(#pb37f2a31eb)" style="fill: #2563eb; opacity: 0.5"/>
   </g>
   <g id="patch_83">
    <path d="M 74.938826 316.6 
L 85.007799 316.6 
L 85.007799 274.637518 
L 74.938826 274.637518 
z
" clip-path="url(#pb37f2a31eb)" style="fill: #16a34a; opacity: 0.5"/>
   </g>
   <g id="patch_84">
    <path d="M 85.007799 316.6 
L 95.076772 316.6 
L 95.076772 274.637518 
L 85.007799 274.637518 
z
" clip-path="url(#pb37f2a31eb)" style="fill: #16a34a; opacity: 0.5"/>
   </g>
   <g id="patch_85">
    <path d="M 95.076772 316.6 
L 105.145746 316.6 
L 105.145746 241.067532 
L 95.076772 241.067532 
z
" clip-path="url(#pb37f2a31eb)" style="fill: #16a34a; opacity: 0.5"/>
   </g>
   <g id="patch_86">
    <path d="M 105.145746 316.6 
L 115.214719 316.6 
L 115.214719 274.637518 
L 105.145746 274.637518 
z
" clip-path="url(#pb37f2a31eb)" style="fill: #16a34a; opacity: 0.5"/>
   </g>
   <g id="patch_87">
    <path d="M 115.214719 316.6 
L 125.283693 316.6 
L 125.283693 257.852525 
L 115.214719 257.852525 
z
" clip-path="url(#pb37f2a31eb)" style="fill: #16a34a; opacity: 0.5"/>
   </g>
   <g id="patch_88">
    <path d="M 125.283693 316.6 
L 135.352666 316.6 
L 135.352666 291.422511 
L 125.283693 291.422511 
z
" clip-path="url(#pb37f2a31eb)" style="fill: #16a34a; opacity: 0.5"/>
   </g>
   <g id="patch_89">
    <path d="M 135.352666 316.6 
L 145.42164 316.6 
L 145.42164 308.207504 
L 135.352666 308.207504 
z
" clip-path="url(#pb37f2a31eb)" style="fill: #16a34a; opacity: 0.5"/>
   </g>
   <g id="patch_90">
    <path d="M 145.42164 316.6 
L 155.490613 316.6 
L 155.490613 299.815007 
L 145.42164 299.815007 
z
" clip-path="url(#pb37f2a31eb)" style="fill: #16a34a; opacity: 0.5"/>
   </g>
   <g id="patch_91">
    <path d="M 155.490613 316.6 
L 165.559587 316.6 
L 165.559587 316.6 
L 155.490613 316.6 
z
" clip-path="url(#pb37f2a31eb)" style="fill: #16a34a; opacity: 0.5"/>
   </g>
   <g id="patch_92">
    <path d="M 165.559587 316.6 
L 175.62856 316.6 
L 175.62856 291.422511 
L 165.559587 291.422511 
z
" clip-path="url(#pb37f2a31eb)" style="fill: #16a34a; opacity: 0.5"/>
   </g>
   <g id="patch_93">
    <path d="M 175.62856 316.6 
L 185.697533 316.6 
L 185.697533 316.6 
L 175.62856 316.6 
z
" clip-path="url(#pb37f2a31eb)" style="fill: #16a34a; opacity: 0.5"/>
   </g>
   <g id="patch_94">
    <path d="M 185.697533 316.6 
L 195.766507 316.6 
L 195.766507 316.6 
L 185.697533 316.6 
z
" clip-path="url(#pb37f2a31eb)" style="fill: #16a34a; opacity: 0.5"/>
   </g>
   <g id="patch_95">
    <path d="M 195.766507 316.6 
L 205.83548 316.6 
L 205.83548 308.207504 
L 195.766507 308.207504 
z
" clip-path="url(#pb37f2a31eb)" style="fill: #16a34a; opacity: 0.5"/>
   </g>
   <g id="patch_96">
    <path d="M 205.83548 316.6 
L 215.904454 316.6 
L 215.904454 316.6 
L 205.83548 316.6 
z
" clip-path="url(#pb37f2a31eb)" style="fill: #16a34a; opacity: 0.5"/>
   </g>
   <g id="patch_97">
    <path d="M 215.904454 316.6 
L 225.973427 316.6 
L 225.973427 316.6 
L 215.904454 316.6 
z
" clip-path="url(#pb37f2a31eb)" style="fill: #16a34a; opacity: 0.5"/>
   </g>
   <g id="patch_98">
    <path d="M 225.973427 316.6 
L 236.042401 316.6 
L 236.042401 316.6 
L 225.973427 316.6 
z
" clip-path="url(#pb37f2a31eb)" style="fill: #16a34a; opacity: 0.5"/>
   </g>
   <g id="patch_99">
    <path d="M 236.042401 316.6 
L 246.111374 316.6 
L 246.111374 316.6 
L 236.042401 316.6 
z
" clip-path="url(#pb37f2a31eb)" style="fill: #16a34a; opacity: 0.5"/>
   </g>
   <g id="patch_100">
    <path d="M 246.111374 316.6 
L 256.180348 316.6 
L 256.180348 316.6 
L 246.111374 316.6 
z
" clip-path="url(#pb37f2a31eb)" style="fill: #16a34a; opacity: 0.5"/>
   </g>
   <g id="patch_101">
    <path d="M 256.180348 316.6 
L 266.249321 316.6 
L 266.249321 316.6 
L 256.180348 316.6 
z
" clip-path="url(#pb37f2a31eb)" style="fill: #16a34a; opacity: 0.5"/>
   </g>
   <g id="patch_102">
    <path d="M 266.249321 316.6 
L 276.318294 316.6 
L 276.318294 308.207504 
L 266.249321 308.207504 
z
" clip-path="url(#pb37f2a31eb)" style="fill: #16a34a; opacity: 0.5"/>
   </g>
   <g id="matplotlib.axis_1">
    <g id="xtick_1">
     <g id="line2d_1">
      <defs>
       <path id="m027ad9ed45" d="M 0 0 
L 0 3.5 
" style="stroke: #000000; stroke-width: 0.8"/>
      </defs>
      <g>
       <use xlink:href="#m027ad9ed45" x="53.310746" y="316.6" style="stroke: #000000; stroke-width: 0.8"/>
      </g>
     </g>
     <g id="text_1">
      <!-- 0 -->
      <g transform="translate(50.129496 331.198438) scale(0.1 -0.1)">
       <defs>
        <path id="DejaVuSans-30" d="M 2034 4250 
Q 1547 4250 1301 3770 
Q 1056 3291 1056 2328 
Q 1056 1369 1301 889 
Q 1547 409 2034 409 
Q 2525 409 2770 889 
Q 3016 1369 3016 2328 
Q 3016 3291 2770 3770 
Q 2525 4250 2034 4250 
z
M 2034 4750 
Q 2819 4750 3233 4129 
Q 3647 3509 3647 2328 
Q 3647 1150 3233 529 
Q 2819 -91 2034 -91 
Q 1250 -91 836 529 
Q 422 1150 422 2328 
Q 422 3509 836 4129 
Q 1250 4750 2034 4750 
z
" transform="scale(0.015625)"/>
       </defs>
       <use xlink:href="#DejaVuSans-30"/>
      </g>
     </g>
    </g>
    <g id="xtick_2">
     <g id="line2d_2">
      <g>
       <use xlink:href="#m027ad9ed45" x="108.733727" y="316.6" style="stroke: #000000; stroke-width: 0.8"/>
      </g>
     </g>
     <g id="text_2">
      <!-- 10 -->
      <g transform="translate(102.371227 331.198438) scale(0.1 -0.1)">
       <defs>
        <path id="DejaVuSans-31" d="M 794 531 
L 1825 531 
L 1825 4091 
L 703 3866 
L 703 4441 
L 1819 4666 
L 2450 4666 
L 2450 531 
L 3481 531 
L 3481 0 
L 794 0 
L 794 531 
z
" transform="scale(0.015625)"/>
       </defs>
       <use xlink:href="#DejaVuSans-31"/>
       <use xlink:href="#DejaVuSans-30" x="63.623047"/>
      </g>
     </g>
    </g>
    <g id="xtick_3">
     <g id="line2d_3">
      <g>
       <use xlink:href="#m027ad9ed45" x="164.156708" y="316.6" style="stroke: #000000; stroke-width: 0.8"/>
      </g>
     </g>
     <g id="text_3">
      <!-- 20 -->
      <g transform="translate(157.794208 331.198438) scale(0.1 -0.1)">
       <defs>
        <path id="DejaVuSans-32" d="M 1228 531 
L 3431 531 
L 3431 0 
L 469 0 
L 469 531 
Q 828 903 1448 1529 
Q 2069 2156 2228 2338 
Q 2531 2678 2651 2914 
Q 2772 3150 2772 3378 
Q 2772 3750 2511 3984 
Q 2250 4219 1831 4219 
Q 1534 4219 1204 4116 
Q 875 4013 500 3803 
L 500 4441 
Q 881 4594 1212 4672 
Q 1544 4750 1819 4750 
Q 2544 4750 2975 4387 
Q 3406 4025 3406 3419 
Q 3406 3131 3298 2873 
Q 3191 2616 2906 2266 
Q 2828 2175 2409 1742 
Q 1991 1309 1228 531 
z
" transform="scale(0.015625)"/>
       </defs>
       <use xlink:href="#DejaVuSans-32"/>
       <use xlink:href="#DejaVuSans-30" x="63.623047"/>
      </g>
     </g>
    </g>
    <g id="xtick_4">
     <g id="line2d_4">
      <g>
       <use xlink:href="#m027ad9ed45" x="219.579689" y="316.6" style="stroke: #000000; stroke-width: 0.8"/>
      </g>
     </g>
     <g id="text_4">
      <!-- 30 -->
      <g transform="translate(213.217189 331.198438) scale(0.1 -0.1)">
       <defs>
        <path id="DejaVuSans-33" d="M 2597 2516 
Q 3050 2419 3304 2112 
Q 3559 1806 3559 1356 
Q 3559 666 3084 287 
Q 2609 -91 1734 -91 
Q 1441 -91 1130 -33 
Q 819 25 488 141 
L 488 750 
Q 750 597 1062 519 
Q 1375 441 1716 441 
Q 2309 441 2620 675 
Q 2931 909 2931 1356 
Q 2931 1769 2642 2001 
Q 2353 2234 1838 2234 
L 1294 2234 
L 1294 2753 
L 1863 2753 
Q 2328 2753 2575 2939 
Q 2822 3125 2822 3475 
Q 2822 3834 2567 4026 
Q 2313 4219 1838 4219 
Q 1578 4219 1281 4162 
Q 984 4106 628 3988 
L 628 4550 
Q 988 4650 1302 4700 
Q 1616 4750 1894 4750 
Q 2613 4750 3031 4423 
Q 3450 4097 3450 3541 
Q 3450 3153 3228 2886 
Q 3006 2619 2597 2516 
z
" transform="scale(0.015625)"/>
       </defs>
       <use xlink:href="#DejaVuSans-33"/>
       <use xlink:href="#DejaVuSans-30" x="63.623047"/>
      </g>
     </g>
    </g>
    <g id="xtick_5">
     <g id="line2d_5">
      <g>
       <use xlink:href="#m027ad9ed45" x="275.002671" y="316.6" style="stroke: #000000; stroke-width: 0.8"/>
      </g>
     </g>
     <g id="text_5">
      <!-- 40 -->
      <g transform="translate(268.640171 331.198438) scale(0.1 -0.1)">
       <defs>
        <path id="DejaVuSans-34" d="M 2419 4116 
L 825 1625 
L 2419 1625 
L 2419 4116 
z
M 2253 4666 
L 3047 4666 
L 3047 1625 
L 3713 1625 
L 3713 1100 
L 3047 1100 
L 3047 0 
L 2419 0 
L 2419 1100 
L 313 1100 
L 313 1709 
L 2253 4666 
z
" transform="scale(0.015625)"/>
       </defs>
       <use xlink:href="#DejaVuSans-34"/>
       <use xlink:href="#DejaVuSans-30" x="63.623047"/>
      </g>
     </g>
    </g>
    <g id="xtick_6">
     <g id="line2d_6">
      <g>
       <use xlink:href="#m027ad9ed45" x="330.425652" y="316.6" style="stroke: #000000; stroke-width: 0.8"/>
      </g>
     </g>
     <g id="text_6">
      <!-- 50 -->
      <g transform="translate(324.063152 331.198438) scale(0.1 -0.1)">
       <defs>
        <path id="DejaVuSans-35" d="M 691 4666 
L 3169 4666 
L 3169 4134 
L 1269 4134 
L 1269 2991 
Q 1406 3038 1543 3061 
Q 1681 3084 1819 3084 
Q 2600 3084 3056 2656 
Q 3513 2228 3513 1497 
Q 3513 744 3044 326 
Q 2575 -91 1722 -91 
Q 1428 -91 1123 -41 
Q 819 9 494 109 
L 494 744 
Q 775 591 1075 516 
Q 1375 441 1709 441 
Q 2250 441 2565 725 
Q 2881 1009 2881 1497 
Q 2881 1984 2565 2268 
Q 2250 2553 1709 2553 
Q 1456 2553 1204 2497 
Q 953 2441 691 2322 
L 691 4666 
z
" transform="scale(0.015625)"/>
       </defs>
       <use xlink:href="#DejaVuSans-35"/>
       <use xlink:href="#DejaVuSans-30" x="63.623047"/>
      </g>
     </g>
    </g>
    <g id="xtick_7">
     <g id="line2d_7">
      <g>
       <use xlink:href="#m027ad9ed45" x="385.848633" y="316.6" style="stroke: #000000; stroke-width: 0.8"/>
      </g>
     </g>
     <g id="text_7">
      <!-- 60 -->
      <g transform="translate(379.486133 331.198438) scale(0.1 -0.1)">
       <defs>
        <path id="DejaVuSans-36" d="M 2113 2584 
Q 1688 2584 1439 2293 
Q 1191 2003 1191 1497 
Q 1191 994 1439 701 
Q 1688 409 2113 409 
Q 2538 409 2786 701 
Q 3034 994 3034 1497 
Q 3034 2003 2786 2293 
Q 2538 2584 2113 2584 
z
M 3366 4563 
L 3366 3988 
Q 3128 4100 2886 4159 
Q 2644 4219 2406 4219 
Q 1781 4219 1451 3797 
Q 1122 3375 1075 2522 
Q 1259 2794 1537 2939 
Q 1816 3084 2150 3084 
Q 2853 3084 3261 2657 
Q 3669 2231 3669 1497 
Q 3669 778 3244 343 
Q 2819 -91 2113 -91 
Q 1303 -91 875 529 
Q 447 1150 447 2328 
Q 447 3434 972 4092 
Q 1497 4750 2381 4750 
Q 2619 4750 2861 4703 
Q 3103 4656 3366 4563 
z
" transform="scale(0.015625)"/>
       </defs>
       <use xlink:href="#DejaVuSans-36"/>
       <use xlink:href="#DejaVuSans-30" x="63.623047"/>
      </g>
     </g>
    </g>
    <g id="xtick_8">
     <g id="line2d_8">
      <g>
       <use xlink:href="#m027ad9ed45" x="441.271614" y="316.6" style="stroke: #000000; stroke-width: 0.8"/>
      </g>
     </g>
     <g id="text_8">
      <!-- 70 -->
      <g transform="translate(434.909114 331.198438) scale(0.1 -0.1)">
       <defs>
        <path id="DejaVuSans-37" d="M 525 4666 
L 3525 4666 
L 3525 4397 
L 1831 0 
L 1172 0 
L 2766 4134 
L 525 4134 
L 525 4666 
z
" transform="scale(0.015625)"/>
       </defs>
       <use xlink:href="#DejaVuSans-37"/>
       <use xlink:href="#DejaVuSans-30" x="63.623047"/>
      </g>
     </g>
    </g>
    <g id="text_9">
     <!-- time units -->
     <g transform="translate(244.060937 344.876563) scale(0.1 -0.1)">
      <defs>
       <path id="DejaVuSans-74" d="M 1172 4494 
L 1172 3500 
L 2356 3500 
L 2356 3053 
L 1172 3053 
L 1172 1153 
Q 1172 725 1289 603 
Q 1406 481 1766 481 
L 2356 481 
L 2356 0 
L 1766 0 
Q 1100 0 847 248 
Q 594 497 594 1153 
L 594 3053 
L 172 3053 
L 172 3500 
L 594 3500 
L 594 4494 
L 1172 4494 
z
" transform="scale(0.015625)"/>
       <path id="DejaVuSans-69" d="M 603 3500 
L 1178 3500 
L 1178 0 
L 603 0 
L 603 3500 
z
M 603 4863 
L 1178 4863 
L 1178 4134 
L 603 4134 
L 603 4863 
z
" transform="scale(0.015625)"/>
       <path id="DejaVuSans-6d" d="M 3328 2828 
Q 3544 3216 3844 3400 
Q 4144 3584 4550 3584 
Q 5097 3584 5394 3201 
Q 5691 2819 5691 2113 
L 5691 0 
L 5113 0 
L 5113 2094 
Q 5113 2597 4934 2840 
Q 4756 3084 4391 3084 
Q 3944 3084 3684 2787 
Q 3425 2491 3425 1978 
L 3425 0 
L 2847 0 
L 2847 2094 
Q 2847 2600 2669 2842 
Q 2491 3084 2119 3084 
Q 1678 3084 1418 2786 
Q 1159 2488 1159 1978 
L 1159 0 
L 581 0 
L 581 3500 
L 1159 3500 
L 1159 2956 
Q 1356 3278 1631 3431 
Q 1906 3584 2284 3584 
Q 2666 3584 2933 3390 
Q 3200 3197 3328 2828 
z
" transform="scale(0.015625)"/>
       <path id="DejaVuSans-65" d="M 3597 1894 
L 3597 1613 
L 953 1613 
Q 991 1019 1311 708 
Q 1631 397 2203 397 
Q 2534 397 2845 478 
Q 3156 559 3463 722 
L 3463 178 
Q 3153 47 2828 -22 
Q 2503 -91 2169 -91 
Q 1331 -91 842 396 
Q 353 884 353 1716 
Q 353 2575 817 3079 
Q 1281 3584 2069 3584 
Q 2775 3584 3186 3129 
Q 3597 2675 3597 1894 
z
M 3022 2063 
Q 3016 2534 2758 2815 
Q 2500 3097 2075 3097 
Q 1594 3097 1305 2825 
Q 1016 2553 972 2059 
L 3022 2063 
z
" transform="scale(0.015625)"/>
       <path id="DejaVuSans-20" transform="scale(0.015625)"/>
       <path id="DejaVuSans-75" d="M 544 1381 
L 544 3500 
L 1119 3500 
L 1119 1403 
Q 1119 906 1312 657 
Q 1506 409 1894 409 
Q 2359 409 2629 706 
Q 2900 1003 2900 1516 
L 2900 3500 
L 3475 3500 
L 3475 0 
L 2900 0 
L 2900 538 
Q 2691 219 2414 64 
Q 2138 -91 1772 -91 
Q 1169 -91 856 284 
Q 544 659 544 1381 
z
M 1991 3584 
L 1991 3584 
z
" transform="scale(0.015625)"/>
       <path id="DejaVuSans-6e" d="M 3513 2113 
L 3513 0 
L 2938 0 
L 2938 2094 
Q 2938 2591 2744 2837 
Q 2550 3084 2163 3084 
Q 1697 3084 1428 2787 
Q 1159 2491 1159 1978 
L 1159 0 
L 581 0 
L 581 3500 
L 1159 3500 
L 1159 2956 
Q 1366 3272 1645 3428 
Q 1925 3584 2291 3584 
Q 2894 3584 3203 3211 
Q 3513 2838 3513 2113 
z
" transform="scale(0.015625)"/>
       <path id="DejaVuSans-73" d="M 2834 3397 
L 2834 2853 
Q 2591 2978 2328 3040 
Q 2066 3103 1784 3103 
Q 1356 3103 1142 2972 
Q 928 2841 928 2578 
Q 928 2378 1081 2264 
Q 1234 2150 1697 2047 
L 1894 2003 
Q 2506 1872 2764 1633 
Q 3022 1394 3022 966 
Q 3022 478 2636 193 
Q 2250 -91 1575 -91 
Q 1294 -91 989 -36 
Q 684 19 347 128 
L 347 722 
Q 666 556 975 473 
Q 1284 391 1588 391 
Q 1994 391 2212 530 
Q 2431 669 2431 922 
Q 2431 1156 2273 1281 
Q 2116 1406 1581 1522 
L 1381 1569 
Q 847 1681 609 1914 
Q 372 2147 372 2553 
Q 372 3047 722 3315 
Q 1072 3584 1716 3584 
Q 2034 3584 2315 3537 
Q 2597 3491 2834 3397 
z
" transform="scale(0.015625)"/>
      </defs>
      <use xlink:href="#DejaVuSans-74"/>
      <use xlink:href="#DejaVuSans-69" x="39.208984"/>
      <use xlink:href="#DejaVuSans-6d" x="66.992188"/>
      <use xlink:href="#DejaVuSans-65" x="164.404297"/>
      <use xlink:href="#DejaVuSans-20" x="225.927734"/>
      <use xlink:href="#DejaVuSans-75" x="257.714844"/>
      <use xlink:href="#DejaVuSans-6e" x="321.09375"/>
      <use xlink:href="#DejaVuSans-69" x="384.472656"/>
      <use xlink:href="#DejaVuSans-74" x="412.255859"/>
      <use xlink:href="#DejaVuSans-73" x="451.464844"/>
     </g>
    </g>
   </g>
   <g id="matplotlib.axis_2">
    <g id="ytick_1">
     <g id="line2d_9">
      <defs>
       <path id="m68c4702a96" d="M 0 0 
L -3.5 0 
" style="stroke: #000000; stroke-width: 0.8"/>
      </defs>
      <g>
       <use xlink:href="#m68c4702a96" x="45.275" y="316.6" style="stroke: #000000; stroke-width: 0.8"/>
      </g>
     </g>
     <g id="text_10">
      <!-- 0 -->
      <g transform="translate(31.9125 320.399219) scale(0.1 -0.1)">
       <use xlink:href="#DejaVuSans-30"/>
      </g>
     </g>
    </g>
    <g id="ytick_2">
     <g id="line2d_10">
      <g>
       <use xlink:href="#m68c4702a96" x="45.275" y="274.637518" style="stroke: #000000; stroke-width: 0.8"/>
      </g>
     </g>
     <g id="text_11">
      <!-- 5 -->
      <g transform="translate(31.9125 278.436737) scale(0.1 -0.1)">
       <use xlink:href="#DejaVuSans-35"/>
      </g>
     </g>
    </g>
    <g id="ytick_3">
     <g id="line2d_11">
      <g>
       <use xlink:href="#m68c4702a96" x="45.275" y="232.675036" style="stroke: #000000; stroke-width: 0.8"/>
      </g>
     </g>
     <g id="text_12">
      <!-- 10 -->
      <g transform="translate(25.55 236.474255) scale(0.1 -0.1)">
       <use xlink:href="#DejaVuSans-31"/>
       <use xlink:href="#DejaVuSans-30" x="63.623047"/>
      </g>
     </g>
    </g>
    <g id="ytick_4">
     <g id="line2d_12">
      <g>
       <use xlink:href="#m68c4702a96" x="45.275" y="190.712554" style="stroke: #000000; stroke-width: 0.8"/>
      </g>
     </g>
     <g id="text_13">
      <!-- 15 -->
      <g transform="translate(25.55 194.511773) scale(0.1 -0.1)">
       <use xlink:href="#DejaVuSans-31"/>
       <use xlink:href="#DejaVuSans-35" x="63.623047"/>
      </g>
     </g>
    </g>
    <g id="ytick_5">
     <g id="line2d_13">
      <g>
       <use xlink:href="#m68c4702a96" x="45.275" y="148.750072" style="stroke: #000000; stroke-width: 0.8"/>
      </g>
     </g>
     <g id="text_14">
      <!-- 20 -->
      <g transform="translate(25.55 152.549291) scale(0.1 -0.1)">
       <use xlink:href="#DejaVuSans-32"/>
       <use xlink:href="#DejaVuSans-30" x="63.623047"/>
      </g>
     </g>
    </g>
    <g id="ytick_6">
     <g id="line2d_14">
      <g>
       <use xlink:href="#m68c4702a96" x="45.275" y="106.78759" style="stroke: #000000; stroke-width: 0.8"/>
      </g>
     </g>
     <g id="text_15">
      <!-- 25 -->
      <g transform="translate(25.55 110.586809) scale(0.1 -0.1)">
       <use xlink:href="#DejaVuSans-32"/>
       <use xlink:href="#DejaVuSans-35" x="63.623047"/>
      </g>
     </g>
    </g>
    <g id="ytick_7">
     <g id="line2d_15">
      <g>
       <use xlink:href="#m68c4702a96" x="45.275" y="64.825108" style="stroke: #000000; stroke-width: 0.8"/>
      </g>
     </g>
     <g id="text_16">
      <!-- 30 -->
      <g transform="translate(25.55 68.624327) scale(0.1 -0.1)">
       <use xlink:href="#DejaVuSans-33"/>
       <use xlink:href="#DejaVuSans-30" x="63.623047"/>
      </g>
     </g>
    </g>
    <g id="text_17">
     <!-- count -->
     <g transform="translate(19.470313 185.30625) rotate(-90) scale(0.1 -0.1)">
      <defs>
       <path id="DejaVuSans-63" d="M 3122 3366 
L 3122 2828 
Q 2878 2963 2633 3030 
Q 2388 3097 2138 3097 
Q 1578 3097 1268 2742 
Q 959 2388 959 1747 
Q 959 1106 1268 751 
Q 1578 397 2138 397 
Q 2388 397 2633 464 
Q 2878 531 3122 666 
L 3122 134 
Q 2881 22 2623 -34 
Q 2366 -91 2075 -91 
Q 1284 -91 818 406 
Q 353 903 353 1747 
Q 353 2603 823 3093 
Q 1294 3584 2113 3584 
Q 2378 3584 2631 3529 
Q 2884 3475 3122 3366 
z
" transform="scale(0.015625)"/>
       <path id="DejaVuSans-6f" d="M 1959 3097 
Q 1497 3097 1228 2736 
Q 959 2375 959 1747 
Q 959 1119 1226 758 
Q 1494 397 1959 397 
Q 2419 397 2687 759 
Q 2956 1122 2956 1747 
Q 2956 2369 2687 2733 
Q 2419 3097 1959 3097 
z
M 1959 3584 
Q 2709 3584 3137 3096 
Q 3566 2609 3566 1747 
Q 3566 888 3137 398 
Q 2709 -91 1959 -91 
Q 1206 -91 779 398 
Q 353 888 353 1747 
Q 353 2609 779 3096 
Q 1206 3584 1959 3584 
z
" transform="scale(0.015625)"/>
      </defs>
      <use xlink:href="#DejaVuSans-63"/>
      <use xlink:href="#DejaVuSans-6f" x="54.980469"/>
      <use xlink:href="#DejaVuSans-75" x="116.162109"/>
      <use xlink:href="#DejaVuSans-6e" x="179.541016"/>
      <use xlink:href="#DejaVuSans-74" x="242.919922"/>
     </g>
    </g>
   </g>
   <g id="patch_103">
    <path d="M 45.275 316.6 
L 45.275 25.8 
" style="fill: none; stroke: #000000; stroke-width: 0.8; stroke-linejoin: miter; stroke-linecap: square"/>
   </g>
   <g id="patch_104">
    <path d="M 493.2 316.6 
L 493.2 25.8 
" style="fill: none; stroke: #000000; stroke-width: 0.8; stroke-linejoin: miter; stroke-linecap: square"/>
   </g>
   <g id="patch_105">
    <path d="M 45.275 316.6 
L 493.2 316.6 
" style="fill: none; stroke: #000000; stroke-width: 0.8; stroke-linejoin: miter; stroke-linecap: square"/>
   </g>
   <g id="patch_106">
    <path d="M 45.275 25.8 
L 493.2 25.8 
" style="fill: none; stroke: #000000; stroke-width: 0.8; stroke-linejoin: miter; stroke-linecap: square"/>
   </g>
   <g id="text_18">
    <!-- Wait Times by Priority (overall avg=11.65, median=9.34) -->
    <g transform="translate(96.92875 19.8) scale(0.12 -0.12)">
     <defs>
      <path id="DejaVuSans-57" d="M 213 4666 
L 850 4666 
L 1831 722 
L 2809 4666 
L 3519 4666 
L 4500 722 
L 5478 4666 
L 6119 4666 
L 4947 0 
L 4153 0 
L 3169 4050 
L 2175 0 
L 1381 0 
L 213 4666 
z
" transform="scale(0.015625)"/>
      <path id="DejaVuSans-61" d="M 2194 1759 
Q 1497 1759 1228 1600 
Q 959 1441 959 1056 
Q 959 750 1161 570 
Q 1363 391 1709 391 
Q 2188 391 2477 730 
Q 2766 1069 2766 1631 
L 2766 1759 
L 2194 1759 
z
M 3341 1997 
L 3341 0 
L 2766 0 
L 2766 531 
Q 2569 213 2275 61 
Q 1981 -91 1556 -91 
Q 1019 -91 701 211 
Q 384 513 384 1019 
Q 384 1609 779 1909 
Q 1175 2209 1959 2209 
L 2766 2209 
L 2766 2266 
Q 2766 2663 2505 2880 
Q 2244 3097 1772 3097 
Q 1472 3097 1187 3025 
Q 903 2953 641 2809 
L 641 3341 
Q 956 3463 1253 3523 
Q 1550 3584 1831 3584 
Q 2591 3584 2966 3190 
Q 3341 2797 3341 1997 
z
" transform="scale(0.015625)"/>
      <path id="DejaVuSans-54" d="M -19 4666 
L 3928 4666 
L 3928 4134 
L 2272 4134 
L 2272 0 
L 1638 0 
L 1638 4134 
L -19 4134 
L -19 4666 
z
" transform="scale(0.015625)"/>
      <path id="DejaVuSans-62" d="M 3116 1747 
Q 3116 2381 2855 2742 
Q 2594 3103 2138 3103 
Q 1681 3103 1420 2742 
Q 1159 2381 1159 1747 
Q 1159 1113 1420 752 
Q 1681 391 2138 391 
Q 2594 391 2855 752 
Q 3116 1113 3116 1747 
z
M 1159 2969 
Q 1341 3281 1617 3432 
Q 1894 3584 2278 3584 
Q 2916 3584 3314 3078 
Q 3713 2572 3713 1747 
Q 3713 922 3314 415 
Q 2916 -91 2278 -91 
Q 1894 -91 1617 61 
Q 1341 213 1159 525 
L 1159 0 
L 581 0 
L 581 4863 
L 1159 4863 
L 1159 2969 
z
" transform="scale(0.015625)"/>
      <path id="DejaVuSans-79" d="M 2059 -325 
Q 1816 -950 1584 -1140 
Q 1353 -1331 966 -1331 
L 506 -1331 
L 506 -850 
L 844 -850 
Q 1081 -850 1212 -737 
Q 1344 -625 1503 -206 
L 1606 56 
L 191 3500 
L 800 3500 
L 1894 763 
L 2988 3500 
L 3597 3500 
L 2059 -325 
z
" transform="scale(0.015625)"/>
      <path id="DejaVuSans-50" d="M 1259 4147 
L 1259 2394 
L 2053 2394 
Q 2494 2394 2734 2622 
Q 2975 2850 2975 3272 
Q 2975 3691 2734 3919 
Q 2494 4147 2053 4147 
L 1259 4147 
z
M 628 4666 
L 2053 4666 
Q 2838 4666 3239 4311 
Q 3641 3956 3641 3272 
Q 3641 2581 3239 2228 
Q 2838 1875 2053 1875 
L 1259 1875 
L 1259 0 
L 628 0 
L 628 4666 
z
" transform="scale(0.015625)"/>
      <path id="DejaVuSans-72" d="M 2631 2963 
Q 2534 3019 2420 3045 
Q 2306 3072 2169 3072 
Q 1681 3072 1420 2755 
Q 1159 2438 1159 1844 
L 1159 0 
L 581 0 
L 581 3500 
L 1159 3500 
L 1159 2956 
Q 1341 3275 1631 3429 
Q 1922 3584 2338 3584 
Q 2397 3584 2469 3576 
Q 2541 3569 2628 3553 
L 2631 2963 
z
" transform="scale(0.015625)"/>
      <path id="DejaVuSans-28" d="M 1984 4856 
Q 1566 4138 1362 3434 
Q 1159 2731 1159 2009 
Q 1159 1288 1364 580 
Q 1569 -128 1984 -844 
L 1484 -844 
Q 1016 -109 783 600 
Q 550 1309 550 2009 
Q 550 2706 781 3412 
Q 1013 4119 1484 4856 
L 1984 4856 
z
" transform="scale(0.015625)"/>
      <path id="DejaVuSans-76" d="M 191 3500 
L 800 3500 
L 1894 563 
L 2988 3500 
L 3597 3500 
L 2284 0 
L 1503 0 
L 191 3500 
z
" transform="scale(0.015625)"/>
      <path id="DejaVuSans-6c" d="M 603 4863 
L 1178 4863 
L 1178 0 
L 603 0 
L 603 4863 
z
" transform="scale(0.015625)"/>
      <path id="DejaVuSans-67" d="M 2906 1791 
Q 2906 2416 2648 2759 
Q 2391 3103 1925 3103 
Q 1463 3103 1205 2759 
Q 947 2416 947 1791 
Q 947 1169 1205 825 
Q 1463 481 1925 481 
Q 2391 481 2648 825 
Q 2906 1169 2906 1791 
z
M 3481 434 
Q 3481 -459 3084 -895 
Q 2688 -1331 1869 -1331 
Q 1566 -1331 1297 -1286 
Q 1028 -1241 775 -1147 
L 775 -588 
Q 1028 -725 1275 -790 
Q 1522 -856 1778 -856 
Q 2344 -856 2625 -561 
Q 2906 -266 2906 331 
L 2906 616 
Q 2728 306 2450 153 
Q 2172 0 1784 0 
Q 1141 0 747 490 
Q 353 981 353 1791 
Q 353 2603 747 3093 
Q 1141 3584 1784 3584 
Q 2172 3584 2450 3431 
Q 2728 3278 2906 2969 
L 2906 3500 
L 3481 3500 
L 3481 434 
z
" transform="scale(0.015625)"/>
      <path id="DejaVuSans-3d" d="M 678 2906 
L 4684 2906 
L 4684 2381 
L 678 2381 
L 678 2906 
z
M 678 1631 
L 4684 1631 
L 4684 1100 
L 678 1100 
L 678 1631 
z
" transform="scale(0.015625)"/>
      <path id="DejaVuSans-2e" d="M 684 794 
L 1344 794 
L 1344 0 
L 684 0 
L 684 794 
z
" transform="scale(0.015625)"/>
      <path id="DejaVuSans-2c" d="M 750 794 
L 1409 794 
L 1409 256 
L 897 -744 
L 494 -744 
L 750 256 
L 750 794 
z
" transform="scale(0.015625)"/>
      <path id="DejaVuSans-64" d="M 2906 2969 
L 2906 4863 
L 3481 4863 
L 3481 0 
L 2906 0 
L 2906 525 
Q 2725 213 2448 61 
Q 2172 -91 1784 -91 
Q 1150 -91 751 415 
Q 353 922 353 1747 
Q 353 2572 751 3078 
Q 1150 3584 1784 3584 
Q 2172 3584 2448 3432 
Q 2725 3281 2906 2969 
z
M 947 1747 
Q 947 1113 1208 752 
Q 1469 391 1925 391 
Q 2381 391 2643 752 
Q 2906 1113 2906 1747 
Q 2906 2381 2643 2742 
Q 2381 3103 1925 3103 
Q 1469 3103 1208 2742 
Q 947 2381 947 1747 
z
" transform="scale(0.015625)"/>
      <path id="DejaVuSans-39" d="M 703 97 
L 703 672 
Q 941 559 1184 500 
Q 1428 441 1663 441 
Q 2288 441 2617 861 
Q 2947 1281 2994 2138 
Q 2813 1869 2534 1725 
Q 2256 1581 1919 1581 
Q 1219 1581 811 2004 
Q 403 2428 403 3163 
Q 403 3881 828 4315 
Q 1253 4750 1959 4750 
Q 2769 4750 3195 4129 
Q 3622 3509 3622 2328 
Q 3622 1225 3098 567 
Q 2575 -91 1691 -91 
Q 1453 -91 1209 -44 
Q 966 3 703 97 
z
M 1959 2075 
Q 2384 2075 2632 2365 
Q 2881 2656 2881 3163 
Q 2881 3666 2632 3958 
Q 2384 4250 1959 4250 
Q 1534 4250 1286 3958 
Q 1038 3666 1038 3163 
Q 1038 2656 1286 2365 
Q 1534 2075 1959 2075 
z
" transform="scale(0.015625)"/>
      <path id="DejaVuSans-29" d="M 513 4856 
L 1013 4856 
Q 1481 4119 1714 3412 
Q 1947 2706 1947 2009 
Q 1947 1309 1714 600 
Q 1481 -109 1013 -844 
L 513 -844 
Q 928 -128 1133 580 
Q 1338 1288 1338 2009 
Q 1338 2731 1133 3434 
Q 928 4138 513 4856 
z
" transform="scale(0.015625)"/>
     </defs>
     <use xlink:href="#DejaVuSans-57"/>
     <use xlink:href="#DejaVuSans-61" x="92.501953"/>
     <use xlink:href="#DejaVuSans-69" x="153.78125"/>
     <use xlink:href="#DejaVuSans-74" x="181.564453"/>
     <use xlink:href="#DejaVuSans-20" x="220.773438"/>
     <use xlink:href="#DejaVuSans-54" x="252.560547"/>
     <use xlink:href="#DejaVuSans-69" x="310.519531"/>
     <use xlink:href="#DejaVuSans-6d" x="338.302734"/>
     <use xlink:href="#DejaVuSans-65" x="435.714844"/>
     <use xlink:href="#DejaVuSans-73" x="497.238281"/>
     <use xlink:href="#DejaVuSans-20" x="549.337891"/>
     <use xlink:href="#DejaVuSans-62" x="581.125"/>
     <use xlink:href="#DejaVuSans-79" x="644.601562"/>
     <use xlink:href="#DejaVuSans-20" x="703.78125"/>
     <use xlink:href="#DejaVuSans-50" x="735.568359"/>
     <use xlink:href="#DejaVuSans-72" x="794.121094"/>
     <use xlink:href="#DejaVuSans-69" x="835.234375"/>
     <use xlink:href="#DejaVuSans-6f" x="863.017578"/>
     <use xlink:href="#DejaVuSans-72" x="924.199219"/>
     <use xlink:href="#DejaVuSans-69" x="965.3125"/>
     <use xlink:href="#DejaVuSans-74" x="993.095703"/>
     <use xlink:href="#DejaVuSans-79" x="1032.304688"/>
     <use xlink:href="#DejaVuSans-20" x="1091.484375"/>
     <use xlink:href="#DejaVuSans-28" x="1123.271484"/>
     <use xlink:href="#DejaVuSans-6f" x="1162.285156"/>
     <use xlink:href="#DejaVuSans-76" x="1223.466797"/>
     <use xlink:href="#DejaVuSans-65" x="1282.646484"/>
     <use xlink:href="#DejaVuSans-72" x="1344.169922"/>
     <use xlink:href="#DejaVuSans-61" x="1385.283203"/>
     <use xlink:href="#DejaVuSans-6c" x="1446.5625"/>
     <use xlink:href="#DejaVuSans-6c" x="1474.345703"/>
     <use xlink:href="#DejaVuSans-20" x="1502.128906"/>
     <use xlink:href="#DejaVuSans-61" x="1533.916016"/>
     <use xlink:href="#DejaVuSans-76" x="1595.195312"/>
     <use xlink:href="#DejaVuSans-67" x="1654.375"/>
     <use xlink:href="#DejaVuSans-3d" x="1717.851562"/>
     <use xlink:href="#DejaVuSans-31" x="1801.640625"/>
     <use xlink:href="#DejaVuSans-31" x="1865.263672"/>
     <use xlink:href="#DejaVuSans-2e" x="1928.886719"/>
     <use xlink:href="#DejaVuSans-36" x="1960.673828"/>
     <use xlink:href="#DejaVuSans-35" x="2024.296875"/>
     <use xlink:href="#DejaVuSans-2c" x="2087.919922"/>
     <use xlink:href="#DejaVuSans-20" x="2119.707031"/>
     <use xlink:href="#DejaVuSans-6d" x="2151.494141"/>
     <use xlink:href="#DejaVuSans-65" x="2248.90625"/>
     <use xlink:href="#DejaVuSans-64" x="2310.429688"/>
     <use xlink:href="#DejaVuSans-69" x="2373.90625"/>
     <use xlink:href="#DejaVuSans-61" x="2401.689453"/>
     <use xlink:href="#DejaVuSans-6e" x="2462.96875"/>
     <use xlink:href="#DejaVuSans-3d" x="2526.347656"/>
     <use xlink:href="#DejaVuSans-39" x="2610.136719"/>
     <use xlink:href="#DejaVuSans-2e" x="2673.759766"/>
     <use xlink:href="#DejaVuSans-33" x="2705.546875"/>
     <use xlink:href="#DejaVuSans-34" x="2769.169922"/>
     <use xlink:href="#DejaVuSans-29" x="2832.792969"/>
    </g>
   </g>
   <g id="legend_1">
    <g id="patch_107">
     <path d="M 381.698437 107.746875 
L 486.2 107.746875 
Q 488.2 107.746875 488.2 105.746875 
L 488.2 32.8 
Q 488.2 30.8 486.2 30.8 
L 381.698437 30.8 
Q 379.698437 30.8 379.698437 32.8 
L 379.698437 105.746875 
Q 379.698437 107.746875 381.698437 107.746875 
z
" style="fill: #ffffff; opacity: 0.8; stroke: #cccccc; stroke-linejoin: miter"/>
    </g>
    <g id="patch_108">
     <path d="M 383.698437 42.398438 
L 403.698437 42.398438 
L 403.698437 35.398438 
L 383.698437 35.398438 
z
" style="fill: #dc2626; opacity: 0.5"/>
    </g>
    <g id="text_19">
     <!-- IMMEDIATE -->
     <g transform="translate(411.698437 42.398438) scale(0.1 -0.1)">
      <defs>
       <path id="DejaVuSans-49" d="M 628 4666 
L 1259 4666 
L 1259 0 
L 628 0 
L 628 4666 
z
" transform="scale(0.015625)"/>
       <path id="DejaVuSans-4d" d="M 628 4666 
L 1569 4666 
L 2759 1491 
L 3956 4666 
L 4897 4666 
L 4897 0 
L 4281 0 
L 4281 4097 
L 3078 897 
L 2444 897 
L 1241 4097 
L 1241 0 
L 628 0 
L 628 4666 
z
" transform="scale(0.015625)"/>
       <path id="DejaVuSans-45" d="M 628 4666 
L 3578 4666 
L 3578 4134 
L 1259 4134 
L 1259 2753 
L 3481 2753 
L 3481 2222 
L 1259 2222 
L 1259 531 
L 3634 531 
L 3634 0 
L 628 0 
L 628 4666 
z
" transform="scale(0.015625)"/>
       <path id="DejaVuSans-44" d="M 1259 4147 
L 1259 519 
L 2022 519 
Q 2988 519 3436 956 
Q 3884 1394 3884 2338 
Q 3884 3275 3436 3711 
Q 2988 4147 2022 4147 
L 1259 4147 
z
M 628 4666 
L 1925 4666 
Q 3281 4666 3915 4102 
Q 4550 3538 4550 2338 
Q 4550 1131 3912 565 
Q 3275 0 1925 0 
L 628 0 
L 628 4666 
z
" transform="scale(0.015625)"/>
       <path id="DejaVuSans-41" d="M 2188 4044 
L 1331 1722 
L 3047 1722 
L 2188 4044 
z
M 1831 4666 
L 2547 4666 
L 4325 0 
L 3669 0 
L 3244 1197 
L 1141 1197 
L 716 0 
L 50 0 
L 1831 4666 
z
" transform="scale(0.015625)"/>
      </defs>
      <use xlink:href="#DejaVuSans-49"/>
      <use xlink:href="#DejaVuSans-4d" x="29.492188"/>
      <use xlink:href="#DejaVuSans-4d" x="115.771484"/>
      <use xlink:href="#DejaVuSans-45" x="202.050781"/>
      <use xlink:href="#DejaVuSans-44" x="265.234375"/>
      <use xlink:href="#DejaVuSans-49" x="342.236328"/>
      <use xlink:href="#DejaVuSans-41" x="371.728516"/>
      <use xlink:href="#DejaVuSans-54" x="432.386719"/>
      <use xlink:href="#DejaVuSans-45" x="493.470703"/>
     </g>
    </g>
    <g id="patch_109">
     <path d="M 383.698437 57.076563 
L 403.698437 57.076563 
L 403.698437 50.076563 
L 383.698437 50.076563 
z
" style="fill: #ea580c; opacity: 0.5"/>
    </g>
    <g id="text_20">
     <!-- VERY_URGENT -->
     <g transform="translate(411.698437 57.076563) scale(0.1 -0.1)">
      <defs>
       <path id="DejaVuSans-56" d="M 1831 0 
L 50 4666 
L 709 4666 
L 2188 738 
L 3669 4666 
L 4325 4666 
L 2547 0 
L 1831 0 
z
" transform="scale(0.015625)"/>
       <path id="DejaVuSans-52" d="M 2841 2188 
Q 3044 2119 3236 1894 
Q 3428 1669 3622 1275 
L 4263 0 
L 3584 0 
L 2988 1197 
Q 2756 1666 2539 1819 
Q 2322 1972 1947 1972 
L 1259 1972 
L 1259 0 
L 628 0 
L 628 4666 
L 2053 4666 
Q 2853 4666 3247 4331 
Q 3641 3997 3641 3322 
Q 3641 2881 3436 2590 
Q 3231 2300 2841 2188 
z
M 1259 4147 
L 1259 2491 
L 2053 2491 
Q 2509 2491 2742 2702 
Q 2975 2913 2975 3322 
Q 2975 3731 2742 3939 
Q 2509 4147 2053 4147 
L 1259 4147 
z
" transform="scale(0.015625)"/>
       <path id="DejaVuSans-59" d="M -13 4666 
L 666 4666 
L 1959 2747 
L 3244 4666 
L 3922 4666 
L 2272 2222 
L 2272 0 
L 1638 0 
L 1638 2222 
L -13 4666 
z
" transform="scale(0.015625)"/>
       <path id="DejaVuSans-5f" d="M 3263 -1063 
L 3263 -1509 
L -63 -1509 
L -63 -1063 
L 3263 -1063 
z
" transform="scale(0.015625)"/>
       <path id="DejaVuSans-55" d="M 556 4666 
L 1191 4666 
L 1191 1831 
Q 1191 1081 1462 751 
Q 1734 422 2344 422 
Q 2950 422 3222 751 
Q 3494 1081 3494 1831 
L 3494 4666 
L 4128 4666 
L 4128 1753 
Q 4128 841 3676 375 
Q 3225 -91 2344 -91 
Q 1459 -91 1007 375 
Q 556 841 556 1753 
L 556 4666 
z
" transform="scale(0.015625)"/>
       <path id="DejaVuSans-47" d="M 3809 666 
L 3809 1919 
L 2778 1919 
L 2778 2438 
L 4434 2438 
L 4434 434 
Q 4069 175 3628 42 
Q 3188 -91 2688 -91 
Q 1594 -91 976 548 
Q 359 1188 359 2328 
Q 359 3472 976 4111 
Q 1594 4750 2688 4750 
Q 3144 4750 3555 4637 
Q 3966 4525 4313 4306 
L 4313 3634 
Q 3963 3931 3569 4081 
Q 3175 4231 2741 4231 
Q 1884 4231 1454 3753 
Q 1025 3275 1025 2328 
Q 1025 1384 1454 906 
Q 1884 428 2741 428 
Q 3075 428 3337 486 
Q 3600 544 3809 666 
z
" transform="scale(0.015625)"/>
       <path id="DejaVuSans-4e" d="M 628 4666 
L 1478 4666 
L 3547 763 
L 3547 4666 
L 4159 4666 
L 4159 0 
L 3309 0 
L 1241 3903 
L 1241 0 
L 628 0 
L 628 4666 
z
" transform="scale(0.015625)"/>
      </defs>
      <use xlink:href="#DejaVuSans-56"/>
      <use xlink:href="#DejaVuSans-45" x="68.408203"/>
      <use xlink:href="#DejaVuSans-52" x="131.591797"/>
      <use xlink:href="#DejaVuSans-59" x="194.699219"/>
      <use xlink:href="#DejaVuSans-5f" x="255.783203"/>
      <use xlink:href="#DejaVuSans-55" x="305.783203"/>
      <use xlink:href="#DejaVuSans-52" x="378.976562"/>
      <use xlink:href="#DejaVuSans-47" x="448.458984"/>
      <use xlink:href="#DejaVuSans-45" x="525.949219"/>
      <use xlink:href="#DejaVuSans-4e" x="589.132812"/>
      <use xlink:href="#DejaVuSans-54" x="663.9375"/>
     </g>
    </g>
    <g id="patch_110">
     <path d="M 383.698437 72.032812 
L 403.698437 72.032812 
L 403.698437 65.032812 
L 383.698437 65.032812 
z
" style="fill: #d97706; opacity: 0.5"/>
    </g>
    <g id="text_21">
     <!-- URGENT -->
     <g transform="translate(411.698437 72.032812) scale(0.1 -0.1)">
      <use xlink:href="#DejaVuSans-55"/>
      <use xlink:href="#DejaVuSans-52" x="73.193359"/>
      <use xlink:href="#DejaVuSans-47" x="142.675781"/>
      <use xlink:href="#DejaVuSans-45" x="220.166016"/>
      <use xlink:href="#DejaVuSans-4e" x="283.349609"/>
      <use xlink:href="#DejaVuSans-54" x="358.154297"/>
     </g>
    </g>
    <g id="patch_111">
     <path d="M 383.698437 86.710938 
L 403.698437 86.710938 
L 403.698437 79.710938 
L 383.698437 79.710938 
z
" style="fill: #2563eb; opacity: 0.5"/>
    </g>
    <g id="text_22">
     <!-- STANDARD -->
     <g transform="translate(411.698437 86.710938) scale(0.1 -0.1)">
      <defs>
       <path id="DejaVuSans-53" d="M 3425 4513 
L 3425 3897 
Q 3066 4069 2747 4153 
Q 2428 4238 2131 4238 
Q 1616 4238 1336 4038 
Q 1056 3838 1056 3469 
Q 1056 3159 1242 3001 
Q 1428 2844 1947 2747 
L 2328 2669 
Q 3034 2534 3370 2195 
Q 3706 1856 3706 1288 
Q 3706 609 3251 259 
Q 2797 -91 1919 -91 
Q 1588 -91 1214 -16 
Q 841 59 441 206 
L 441 856 
Q 825 641 1194 531 
Q 1563 422 1919 422 
Q 2459 422 2753 634 
Q 3047 847 3047 1241 
Q 3047 1584 2836 1778 
Q 2625 1972 2144 2069 
L 1759 2144 
Q 1053 2284 737 2584 
Q 422 2884 422 3419 
Q 422 4038 858 4394 
Q 1294 4750 2059 4750 
Q 2388 4750 2728 4690 
Q 3069 4631 3425 4513 
z
" transform="scale(0.015625)"/>
      </defs>
      <use xlink:href="#DejaVuSans-53"/>
      <use xlink:href="#DejaVuSans-54" x="63.476562"/>
      <use xlink:href="#DejaVuSans-41" x="116.810547"/>
      <use xlink:href="#DejaVuSans-4e" x="185.21875"/>
      <use xlink:href="#DejaVuSans-44" x="260.023438"/>
      <use xlink:href="#DejaVuSans-41" x="335.275391"/>
      <use xlink:href="#DejaVuSans-52" x="403.683594"/>
      <use xlink:href="#DejaVuSans-44" x="473.166016"/>
     </g>
    </g>
    <g id="patch_112">
     <path d="M 383.698437 101.389063 
L 403.698437 101.389063 
L 403.698437 94.389063 
L 383.698437 94.389063 
z
" style="fill: #16a34a; opacity: 0.5"/>
    </g>
    <g id="text_23">
     <!-- NON_URGENT -->
     <g transform="translate(411.698437 101.389063) scale(0.1 -0.1)">
      <defs>
       <path id="DejaVuSans-4f" d="M 2522 4238 
Q 1834 4238 1429 3725 
Q 1025 3213 1025 2328 
Q 1025 1447 1429 934 
Q 1834 422 2522 422 
Q 3209 422 3611 934 
Q 4013 1447 4013 2328 
Q 4013 3213 3611 3725 
Q 3209 4238 2522 4238 
z
M 2522 4750 
Q 3503 4750 4090 4092 
Q 4678 3434 4678 2328 
Q 4678 1225 4090 567 
Q 3503 -91 2522 -91 
Q 1538 -91 948 565 
Q 359 1222 359 2328 
Q 359 3434 948 4092 
Q 1538 4750 2522 4750 
z
" transform="scale(0.015625)"/>
      </defs>
      <use xlink:href="#DejaVuSans-4e"/>
      <use xlink:href="#DejaVuSans-4f" x="74.804688"/>
      <use xlink:href="#DejaVuSans-4e" x="153.515625"/>
      <use xlink:href="#DejaVuSans-5f" x="228.320312"/>
      <use xlink:href="#DejaVuSans-55" x="278.320312"/>
      <use xlink:href="#DejaVuSans-52" x="351.513672"/>
      <use xlink:href="#DejaVuSans-47" x="420.996094"/>
      <use xlink:href="#DejaVuSans-45" x="498.486328"/>
      <use xlink:href="#DejaVuSans-4e" x="561.669922"/>
      <use xlink:href="#DejaVuSans-54" x="636.474609"/>
     </g>
    </g>
   </g>
  </g>
 </g>
 <defs>
  <clipPath id="pb37f2a31eb">
   <rect x="45.275" y="25.8" width="447.925" height="290.8"/>
  </clipPath>
 </defs>
</svg>
