<?xml version="1.0" encoding="utf-8" standalone="no"?>
<!DOCTYPE svg PUBLIC "-//W3C//DTD SVG 1.1//EN"
  "http://www.w3.org/Graphics/SVG/1.1/DTD/svg11.dtd">
<svg xmlns:xlink="http://www.w3.org/1999/xlink" width="576pt" height="360pt" viewBox="0 0 576 360" xmlns="http://www.w3.org/2000/svg" version="1.1">
 <metadata>
  <rdf:RDF xmlns:dc="http://purl.org/dc/elements/1.1/" xmlns:cc="http://creativecommons.org/ns#" xmlns:rdf="http://www.w3.org/1999/02/22-rdf-syntax-ns#">
   <cc:Work>
    <dc:type rdf:resource="http://purl.org/dc/dcmitype/StillImage"/>
    <dc:date>2025-09-07T05:36:57.864933</dc:date>
    <dc:format>image/svg+xml</dc:format>
    <dc:creator>
     <cc:Agent>
      <dc:title>Matplotlib v3.9.2, https://matplotlib.org/</dc:title>
     </cc:Agent>
    </dc:creator>
   </cc:Work>
  </rdf:RDF>
 </metadata>
 <defs>
  <style type="text/css">*{stroke-linejoin: round; stroke-linecap: butt}</style>
 </defs>
 <g id="figure_1">
  <g id="patch_1">
   <path d="M 0 360 
L 576 360 
L 576 0 
L 0 0 
z
" style="fill: #ffffff"/>
  </g>
  <g id="axes_1">
   <g id="patch_2">
    <path d="M 48.425 316.6 
L 565.2 316.6 
L 565.2 25.8 
L 48.425 25.8 
z
" style="fill: #ffffff"/>
   </g>
   <g id="matplotlib.axis_1">
    <g id="xtick_1">
     <g id="line2d_1">
      <defs>
       <path id="m5ebdfaa22b" d="M 0 0 
L 0 3.5 
" style="stroke: #000000; stroke-width: 0.8"/>
      </defs>
      <g>
       <use xlink:href="#m5ebdfaa22b" x="69.920238" y="316.6" style="stroke: #000000; stroke-width: 0.8"/>
      </g>
     </g>
     <g id="text_1">
      <!-- 0 -->
      <g transform="translate(66.738988 331.198438) scale(0.1 -0.1)">
       <defs>
        <path id="DejaVuSans-30" d="M 2034 4250 
Q 1547 4250 1301 3770 
Q 1056 3291 1056 2328 
Q 1056 1369 1301 889 
Q 1547 409 2034 409 
Q 2525 409 2770 889 
Q 3016 1369 3016 2328 
Q 3016 3291 2770 3770 
Q 2525 4250 2034 4250 
z
M 2034 4750 
Q 2819 4750 3233 4129 
Q 3647 3509 3647 2328 
Q 3647 1150 3233 529 
Q 2819 -91 2034 -91 
Q 1250 -91 836 529 
Q 422 1150 422 2328 
Q 422 3509 836 4129 
Q 1250 4750 2034 4750 
z
" transform="scale(0.015625)"/>
       </defs>
       <use xlink:href="#DejaVuSans-30"/>
      </g>
     </g>
    </g>
    <g id="xtick_2">
     <g id="line2d_2">
      <g>
       <use xlink:href="#m5ebdfaa22b" x="163.645816" y="316.6" style="stroke: #000000; stroke-width: 0.8"/>
      </g>
     </g>
     <g id="text_2">
      <!-- 200 -->
      <g transform="translate(154.102066 331.198438) scale(0.1 -0.1)">
       <defs>
        <path id="DejaVuSans-32" d="M 1228 531 
L 3431 531 
L 3431 0 
L 469 0 
L 469 531 
Q 828 903 1448 1529 
Q 2069 2156 2228 2338 
Q 2531 2678 2651 2914 
Q 2772 3150 2772 3378 
Q 2772 3750 2511 3984 
Q 2250 4219 1831 4219 
Q 1534 4219 1204 4116 
Q 875 4013 500 3803 
L 500 4441 
Q 881 4594 1212 4672 
Q 1544 4750 1819 4750 
Q 2544 4750 2975 4387 
Q 3406 4025 3406 3419 
Q 3406 3131 3298 2873 
Q 3191 2616 2906 2266 
Q 2828 2175 2409 1742 
Q 1991 1309 1228 531 
z
" transform="scale(0.015625)"/>
       </defs>
       <use xlink:href="#DejaVuSans-32"/>
       <use xlink:href="#DejaVuSans-30" x="63.623047"/>
       <use xlink:href="#DejaVuSans-30" x="127.246094"/>
      </g>
     </g>
    </g>
    <g id="xtick_3">
     <g id="line2d_3">
      <g>
       <use xlink:href="#m5ebdfaa22b" x="257.371395" y="316.6" style="stroke: #000000; stroke-width: 0.8"/>
      </g>
     </g>
     <g id="text_3">
      <!-- 400 -->
      <g transform="translate(247.827645 331.198438) scale(0.1 -0.1)">
       <defs>
        <path id="DejaVuSans-34" d="M 2419 4116 
L 825 1625 
L 2419 1625 
L 2419 4116 
z
M 2253 4666 
L 3047 4666 
L 3047 1625 
L 3713 1625 
L 3713 1100 
L 3047 1100 
L 3047 0 
L 2419 0 
L 2419 1100 
L 313 1100 
L 313 1709 
L 2253 4666 
z
" transform="scale(0.015625)"/>
       </defs>
       <use xlink:href="#DejaVuSans-34"/>
       <use xlink:href="#DejaVuSans-30" x="63.623047"/>
       <use xlink:href="#DejaVuSans-30" x="127.246094"/>
      </g>
     </g>
    </g>
    <g id="xtick_4">
     <g id="line2d_4">
      <g>
       <use xlink:href="#m5ebdfaa22b" x="351.096974" y="316.6" style="stroke: #000000; stroke-width: 0.8"/>
      </g>
     </g>
     <g id="text_4">
      <!-- 600 -->
      <g transform="translate(341.553224 331.198438) scale(0.1 -0.1)">
       <defs>
        <path id="DejaVuSans-36" d="M 2113 2584 
Q 1688 2584 1439 2293 
Q 1191 2003 1191 1497 
Q 1191 994 1439 701 
Q 1688 409 2113 409 
Q 2538 409 2786 701 
Q 3034 994 3034 1497 
Q 3034 2003 2786 2293 
Q 2538 2584 2113 2584 
z
M 3366 4563 
L 3366 3988 
Q 3128 4100 2886 4159 
Q 2644 4219 2406 4219 
Q 1781 4219 1451 3797 
Q 1122 3375 1075 2522 
Q 1259 2794 1537 2939 
Q 1816 3084 2150 3084 
Q 2853 3084 3261 2657 
Q 3669 2231 3669 1497 
Q 3669 778 3244 343 
Q 2819 -91 2113 -91 
Q 1303 -91 875 529 
Q 447 1150 447 2328 
Q 447 3434 972 4092 
Q 1497 4750 2381 4750 
Q 2619 4750 2861 4703 
Q 3103 4656 3366 4563 
z
" transform="scale(0.015625)"/>
       </defs>
       <use xlink:href="#DejaVuSans-36"/>
       <use xlink:href="#DejaVuSans-30" x="63.623047"/>
       <use xlink:href="#DejaVuSans-30" x="127.246094"/>
      </g>
     </g>
    </g>
    <g id="xtick_5">
     <g id="line2d_5">
      <g>
       <use xlink:href="#m5ebdfaa22b" x="444.822552" y="316.6" style="stroke: #000000; stroke-width: 0.8"/>
      </g>
     </g>
     <g id="text_5">
      <!-- 800 -->
      <g transform="translate(435.278802 331.198438) scale(0.1 -0.1)">
       <defs>
        <path id="DejaVuSans-38" d="M 2034 2216 
Q 1584 2216 1326 1975 
Q 1069 1734 1069 1313 
Q 1069 891 1326 650 
Q 1584 409 2034 409 
Q 2484 409 2743 651 
Q 3003 894 3003 1313 
Q 3003 1734 2745 1975 
Q 2488 2216 2034 2216 
z
M 1403 2484 
Q 997 2584 770 2862 
Q 544 3141 544 3541 
Q 544 4100 942 4425 
Q 1341 4750 2034 4750 
Q 2731 4750 3128 4425 
Q 3525 4100 3525 3541 
Q 3525 3141 3298 2862 
Q 3072 2584 2669 2484 
Q 3125 2378 3379 2068 
Q 3634 1759 3634 1313 
Q 3634 634 3220 271 
Q 2806 -91 2034 -91 
Q 1263 -91 848 271 
Q 434 634 434 1313 
Q 434 1759 690 2068 
Q 947 2378 1403 2484 
z
M 1172 3481 
Q 1172 3119 1398 2916 
Q 1625 2713 2034 2713 
Q 2441 2713 2670 2916 
Q 2900 3119 2900 3481 
Q 2900 3844 2670 4047 
Q 2441 4250 2034 4250 
Q 1625 4250 1398 4047 
Q 1172 3844 1172 3481 
z
" transform="scale(0.015625)"/>
       </defs>
       <use xlink:href="#DejaVuSans-38"/>
       <use xlink:href="#DejaVuSans-30" x="63.623047"/>
       <use xlink:href="#DejaVuSans-30" x="127.246094"/>
      </g>
     </g>
    </g>
    <g id="xtick_6">
     <g id="line2d_6">
      <g>
       <use xlink:href="#m5ebdfaa22b" x="538.548131" y="316.6" style="stroke: #000000; stroke-width: 0.8"/>
      </g>
     </g>
     <g id="text_6">
      <!-- 1000 -->
      <g transform="translate(525.823131 331.198438) scale(0.1 -0.1)">
       <defs>
        <path id="DejaVuSans-31" d="M 794 531 
L 1825 531 
L 1825 4091 
L 703 3866 
L 703 4441 
L 1819 4666 
L 2450 4666 
L 2450 531 
L 3481 531 
L 3481 0 
L 794 0 
L 794 531 
z
" transform="scale(0.015625)"/>
       </defs>
       <use xlink:href="#DejaVuSans-31"/>
       <use xlink:href="#DejaVuSans-30" x="63.623047"/>
       <use xlink:href="#DejaVuSans-30" x="127.246094"/>
       <use xlink:href="#DejaVuSans-30" x="190.869141"/>
      </g>
     </g>
    </g>
    <g id="text_7">
     <!-- time -->
     <g transform="translate(295.516406 344.876563) scale(0.1 -0.1)">
      <defs>
       <path id="DejaVuSans-74" d="M 1172 4494 
L 1172 3500 
L 2356 3500 
L 2356 3053 
L 1172 3053 
L 1172 1153 
Q 1172 725 1289 603 
Q 1406 481 1766 481 
L 2356 481 
L 2356 0 
L 1766 0 
Q 1100 0 847 248 
Q 594 497 594 1153 
L 594 3053 
L 172 3053 
L 172 3500 
L 594 3500 
L 594 4494 
L 1172 4494 
z
" transform="scale(0.015625)"/>
       <path id="DejaVuSans-69" d="M 603 3500 
L 1178 3500 
L 1178 0 
L 603 0 
L 603 3500 
z
M 603 4863 
L 1178 4863 
L 1178 4134 
L 603 4134 
L 603 4863 
z
" transform="scale(0.015625)"/>
       <path id="DejaVuSans-6d" d="M 3328 2828 
Q 3544 3216 3844 3400 
Q 4144 3584 4550 3584 
Q 5097 3584 5394 3201 
Q 5691 2819 5691 2113 
L 5691 0 
L 5113 0 
L 5113 2094 
Q 5113 2597 4934 2840 
Q 4756 3084 4391 3084 
Q 3944 3084 3684 2787 
Q 3425 2491 3425 1978 
L 3425 0 
L 2847 0 
L 2847 2094 
Q 2847 2600 2669 2842 
Q 2491 3084 2119 3084 
Q 1678 3084 1418 2786 
Q 1159 2488 1159 1978 
L 1159 0 
L 581 0 
L 581 3500 
L 1159 3500 
L 1159 2956 
Q 1356 3278 1631 3431 
Q 1906 3584 2284 3584 
Q 2666 3584 2933 3390 
Q 3200 3197 3328 2828 
z
" transform="scale(0.015625)"/>
       <path id="DejaVuSans-65" d="M 3597 1894 
L 3597 1613 
L 953 1613 
Q 991 1019 1311 708 
Q 1631 397 2203 397 
Q 2534 397 2845 478 
Q 3156 559 3463 722 
L 3463 178 
Q 3153 47 2828 -22 
Q 2503 -91 2169 -91 
Q 1331 -91 842 396 
Q 353 884 353 1716 
Q 353 2575 817 3079 
Q 1281 3584 2069 3584 
Q 2775 3584 3186 3129 
Q 3597 2675 3597 1894 
z
M 3022 2063 
Q 3016 2534 2758 2815 
Q 2500 3097 2075 3097 
Q 1594 3097 1305 2825 
Q 1016 2553 972 2059 
L 3022 2063 
z
" transform="scale(0.015625)"/>
      </defs>
      <use xlink:href="#DejaVuSans-74"/>
      <use xlink:href="#DejaVuSans-69" x="39.208984"/>
      <use xlink:href="#DejaVuSans-6d" x="66.992188"/>
      <use xlink:href="#DejaVuSans-65" x="164.404297"/>
     </g>
    </g>
   </g>
   <g id="matplotlib.axis_2">
    <g id="ytick_1">
     <g id="line2d_7">
      <defs>
       <path id="m1bd7ee4080" d="M 0 0 
L -3.5 0 
" style="stroke: #000000; stroke-width: 0.8"/>
      </defs>
      <g>
       <use xlink:href="#m1bd7ee4080" x="48.425" y="303.381818" style="stroke: #000000; stroke-width: 0.8"/>
      </g>
     </g>
     <g id="text_8">
      <!-- 0.0 -->
      <g transform="translate(25.521875 307.181037) scale(0.1 -0.1)">
       <defs>
        <path id="DejaVuSans-2e" d="M 684 794 
L 1344 794 
L 1344 0 
L 684 0 
L 684 794 
z
" transform="scale(0.015625)"/>
       </defs>
       <use xlink:href="#DejaVuSans-30"/>
       <use xlink:href="#DejaVuSans-2e" x="63.623047"/>
       <use xlink:href="#DejaVuSans-30" x="95.410156"/>
      </g>
     </g>
    </g>
    <g id="ytick_2">
     <g id="line2d_8">
      <g>
       <use xlink:href="#m1bd7ee4080" x="48.425" y="259.321212" style="stroke: #000000; stroke-width: 0.8"/>
      </g>
     </g>
     <g id="text_9">
      <!-- 0.5 -->
      <g transform="translate(25.521875 263.120431) scale(0.1 -0.1)">
       <defs>
        <path id="DejaVuSans-35" d="M 691 4666 
L 3169 4666 
L 3169 4134 
L 1269 4134 
L 1269 2991 
Q 1406 3038 1543 3061 
Q 1681 3084 1819 3084 
Q 2600 3084 3056 2656 
Q 3513 2228 3513 1497 
Q 3513 744 3044 326 
Q 2575 -91 1722 -91 
Q 1428 -91 1123 -41 
Q 819 9 494 109 
L 494 744 
Q 775 591 1075 516 
Q 1375 441 1709 441 
Q 2250 441 2565 725 
Q 2881 1009 2881 1497 
Q 2881 1984 2565 2268 
Q 2250 2553 1709 2553 
Q 1456 2553 1204 2497 
Q 953 2441 691 2322 
L 691 4666 
z
" transform="scale(0.015625)"/>
       </defs>
       <use xlink:href="#DejaVuSans-30"/>
       <use xlink:href="#DejaVuSans-2e" x="63.623047"/>
       <use xlink:href="#DejaVuSans-35" x="95.410156"/>
      </g>
     </g>
    </g>
    <g id="ytick_3">
     <g id="line2d_9">
      <g>
       <use xlink:href="#m1bd7ee4080" x="48.425" y="215.260606" style="stroke: #000000; stroke-width: 0.8"/>
      </g>
     </g>
     <g id="text_10">
      <!-- 1.0 -->
      <g transform="translate(25.521875 219.059825) scale(0.1 -0.1)">
       <use xlink:href="#DejaVuSans-31"/>
       <use xlink:href="#DejaVuSans-2e" x="63.623047"/>
       <use xlink:href="#DejaVuSans-30" x="95.410156"/>
      </g>
     </g>
    </g>
    <g id="ytick_4">
     <g id="line2d_10">
      <g>
       <use xlink:href="#m1bd7ee4080" x="48.425" y="171.2" style="stroke: #000000; stroke-width: 0.8"/>
      </g>
     </g>
     <g id="text_11">
      <!-- 1.5 -->
      <g transform="translate(25.521875 174.999219) scale(0.1 -0.1)">
       <use xlink:href="#DejaVuSans-31"/>
       <use xlink:href="#DejaVuSans-2e" x="63.623047"/>
       <use xlink:href="#DejaVuSans-35" x="95.410156"/>
      </g>
     </g>
    </g>
    <g id="ytick_5">
     <g id="line2d_11">
      <g>
       <use xlink:href="#m1bd7ee4080" x="48.425" y="127.139394" style="stroke: #000000; stroke-width: 0.8"/>
      </g>
     </g>
     <g id="text_12">
      <!-- 2.0 -->
      <g transform="translate(25.521875 130.938613) scale(0.1 -0.1)">
       <use xlink:href="#DejaVuSans-32"/>
       <use xlink:href="#DejaVuSans-2e" x="63.623047"/>
       <use xlink:href="#DejaVuSans-30" x="95.410156"/>
      </g>
     </g>
    </g>
    <g id="ytick_6">
     <g id="line2d_12">
      <g>
       <use xlink:href="#m1bd7ee4080" x="48.425" y="83.078788" style="stroke: #000000; stroke-width: 0.8"/>
      </g>
     </g>
     <g id="text_13">
      <!-- 2.5 -->
      <g transform="translate(25.521875 86.878007) scale(0.1 -0.1)">
       <use xlink:href="#DejaVuSans-32"/>
       <use xlink:href="#DejaVuSans-2e" x="63.623047"/>
       <use xlink:href="#DejaVuSans-35" x="95.410156"/>
      </g>
     </g>
    </g>
    <g id="ytick_7">
     <g id="line2d_13">
      <g>
       <use xlink:href="#m1bd7ee4080" x="48.425" y="39.018182" style="stroke: #000000; stroke-width: 0.8"/>
      </g>
     </g>
     <g id="text_14">
      <!-- 3.0 -->
      <g transform="translate(25.521875 42.817401) scale(0.1 -0.1)">
       <defs>
        <path id="DejaVuSans-33" d="M 2597 2516 
Q 3050 2419 3304 2112 
Q 3559 1806 3559 1356 
Q 3559 666 3084 287 
Q 2609 -91 1734 -91 
Q 1441 -91 1130 -33 
Q 819 25 488 141 
L 488 750 
Q 750 597 1062 519 
Q 1375 441 1716 441 
Q 2309 441 2620 675 
Q 2931 909 2931 1356 
Q 2931 1769 2642 2001 
Q 2353 2234 1838 2234 
L 1294 2234 
L 1294 2753 
L 1863 2753 
Q 2328 2753 2575 2939 
Q 2822 3125 2822 3475 
Q 2822 3834 2567 4026 
Q 2313 4219 1838 4219 
Q 1578 4219 1281 4162 
Q 984 4106 628 3988 
L 628 4550 
Q 988 4650 1302 4700 
Q 1616 4750 1894 4750 
Q 2613 4750 3031 4423 
Q 3450 4097 3450 3541 
Q 3450 3153 3228 2886 
Q 3006 2619 2597 2516 
z
" transform="scale(0.015625)"/>
       </defs>
       <use xlink:href="#DejaVuSans-33"/>
       <use xlink:href="#DejaVuSans-2e" x="63.623047"/>
       <use xlink:href="#DejaVuSans-30" x="95.410156"/>
      </g>
     </g>
    </g>
    <g id="text_15">
     <!-- in use -->
     <g transform="translate(19.442188 186.196875) rotate(-90) scale(0.1 -0.1)">
      <defs>
       <path id="DejaVuSans-6e" d="M 3513 2113 
L 3513 0 
L 2938 0 
L 2938 2094 
Q 2938 2591 2744 2837 
Q 2550 3084 2163 3084 
Q 1697 3084 1428 2787 
Q 1159 2491 1159 1978 
L 1159 0 
L 581 0 
L 581 3500 
L 1159 3500 
L 1159 2956 
Q 1366 3272 1645 3428 
Q 1925 3584 2291 3584 
Q 2894 3584 3203 3211 
Q 3513 2838 3513 2113 
z
" transform="scale(0.015625)"/>
       <path id="DejaVuSans-20" transform="scale(0.015625)"/>
       <path id="DejaVuSans-75" d="M 544 1381 
L 544 3500 
L 1119 3500 
L 1119 1403 
Q 1119 906 1312 657 
Q 1506 409 1894 409 
Q 2359 409 2629 706 
Q 2900 1003 2900 1516 
L 2900 3500 
L 3475 3500 
L 3475 0 
L 2900 0 
L 2900 538 
Q 2691 219 2414 64 
Q 2138 -91 1772 -91 
Q 1169 -91 856 284 
Q 544 659 544 1381 
z
M 1991 3584 
L 1991 3584 
z
" transform="scale(0.015625)"/>
       <path id="DejaVuSans-73" d="M 2834 3397 
L 2834 2853 
Q 2591 2978 2328 3040 
Q 2066 3103 1784 3103 
Q 1356 3103 1142 2972 
Q 928 2841 928 2578 
Q 928 2378 1081 2264 
Q 1234 2150 1697 2047 
L 1894 2003 
Q 2506 1872 2764 1633 
Q 3022 1394 3022 966 
Q 3022 478 2636 193 
Q 2250 -91 1575 -91 
Q 1294 -91 989 -36 
Q 684 19 347 128 
L 347 722 
Q 666 556 975 473 
Q 1284 391 1588 391 
Q 1994 391 2212 530 
Q 2431 669 2431 922 
Q 2431 1156 2273 1281 
Q 2116 1406 1581 1522 
L 1381 1569 
Q 847 1681 609 1914 
Q 372 2147 372 2553 
Q 372 3047 722 3315 
Q 1072 3584 1716 3584 
Q 2034 3584 2315 3537 
Q 2597 3491 2834 3397 
z
" transform="scale(0.015625)"/>
      </defs>
      <use xlink:href="#DejaVuSans-69"/>
      <use xlink:href="#DejaVuSans-6e" x="27.783203"/>
      <use xlink:href="#DejaVuSans-20" x="91.162109"/>
      <use xlink:href="#DejaVuSans-75" x="122.949219"/>
      <use xlink:href="#DejaVuSans-73" x="186.328125"/>
      <use xlink:href="#DejaVuSans-65" x="238.427734"/>
     </g>
    </g>
   </g>
   <g id="line2d_14">
    <path d="M 71.914773 303.381818 
L 71.914773 215.260606 
L 73.366743 215.260606 
L 73.366743 215.260606 
L 73.366743 127.139394 
L 73.565357 215.260606 
L 73.565357 215.260606 
L 74.526711 303.381818 
L 74.526711 303.381818 
L 76.69873 303.381818 
L 76.69873 303.381818 
L 76.69873 215.260606 
L 77.754493 303.381818 
L 77.754493 303.381818 
L 80.215049 303.381818 
L 80.215049 303.381818 
L 80.215049 215.260606 
L 80.812797 215.260606 
L 80.812797 215.260606 
L 80.812797 127.139394 
L 80.854009 215.260606 
L 81.274329 215.260606 
L 81.274329 215.260606 
L 81.662321 303.381818 
L 81.662321 303.381818 
L 81.987376 303.381818 
L 81.987376 303.381818 
L 81.987376 215.260606 
L 82.755274 215.260606 
L 82.755274 215.260606 
L 82.755274 127.139394 
L 83.123324 127.139394 
L 83.123324 127.139394 
L 84.145082 215.260606 
L 84.145082 215.260606 
L 84.145082 127.139394 
L 84.27683 215.260606 
L 84.27683 215.260606 
L 85.330224 215.260606 
L 85.330224 215.260606 
L 85.330224 127.139394 
L 85.476737 215.260606 
L 85.476737 215.260606 
L 86.322355 215.260606 
L 86.322355 215.260606 
L 86.332024 303.381818 
L 86.332024 303.381818 
L 87.207652 303.381818 
L 87.207652 303.381818 
L 87.207652 215.260606 
L 87.443813 215.260606 
L 87.443813 215.260606 
L 88.474656 303.381818 
L 88.474656 303.381818 
L 91.135897 303.381818 
L 91.135897 303.381818 
L 91.135897 215.260606 
L 91.917598 303.381818 
L 91.917598 303.381818 
L 93.483339 303.381818 
L 93.483339 303.381818 
L 93.483339 215.260606 
L 94.067382 215.260606 
L 94.067382 215.260606 
L 94.067382 127.139394 
L 94.232186 215.260606 
L 94.232186 215.260606 
L 95.78422 303.381818 
L 95.78422 303.381818 
L 97.122656 303.381818 
L 97.122656 303.381818 
L 97.122656 215.260606 
L 97.145946 215.260606 
L 98.208255 303.381818 
L 98.208255 303.381818 
L 98.208255 215.260606 
L 98.806846 215.260606 
L 98.806846 215.260606 
L 98.837546 303.381818 
L 98.837546 303.381818 
L 100.05581 303.381818 
L 100.05581 303.381818 
L 100.05581 215.260606 
L 101.027503 303.381818 
L 101.027503 303.381818 
L 101.339209 303.381818 
L 101.339209 303.381818 
L 101.339209 215.260606 
L 103.063208 215.260606 
L 103.063208 215.260606 
L 103.188063 303.381818 
L 103.188063 303.381818 
L 103.944524 303.381818 
L 103.944524 303.381818 
L 103.944524 215.260606 
L 105.277545 215.260606 
L 105.277545 215.260606 
L 105.277545 127.139394 
L 105.280906 127.139394 
L 105.398874 215.260606 
L 105.398874 215.260606 
L 106.32922 303.381818 
L 106.32922 303.381818 
L 107.811614 303.381818 
L 107.811614 303.381818 
L 107.811614 215.260606 
L 108.667131 215.260606 
L 108.667131 215.260606 
L 108.667131 127.139394 
L 109.574697 215.260606 
L 109.574697 215.260606 
L 109.904825 303.381818 
L 109.904825 303.381818 
L 111.732518 303.381818 
L 111.732518 303.381818 
L 111.732518 215.260606 
L 112.859444 215.260606 
L 112.859444 215.260606 
L 112.859444 127.139394 
L 113.204503 215.260606 
L 113.204503 215.260606 
L 113.814872 215.260606 
L 114.115182 303.381818 
L 114.115182 303.381818 
L 116.216526 303.381818 
L 116.216526 303.381818 
L 116.216526 215.260606 
L 117.535524 303.381818 
L 117.535524 303.381818 
L 118.563214 303.381818 
L 118.563214 303.381818 
L 118.563214 215.260606 
L 119.138451 303.381818 
L 119.138451 303.381818 
L 120.192161 303.381818 
L 120.192161 303.381818 
L 120.192161 215.260606 
L 122.058243 215.260606 
L 122.492857 303.381818 
L 122.492857 303.381818 
L 123.252941 303.381818 
L 123.252941 303.381818 
L 123.252941 215.260606 
L 123.972094 215.260606 
L 123.972094 215.260606 
L 124.283549 303.381818 
L 124.283549 303.381818 
L 125.086812 303.381818 
L 125.086812 303.381818 
L 125.086812 215.260606 
L 126.720096 215.260606 
L 126.720096 215.260606 
L 126.720096 127.139394 
L 126.963506 215.260606 
L 126.963506 215.260606 
L 127.815395 215.260606 
L 127.815395 215.260606 
L 127.815395 127.139394 
L 127.837478 215.260606 
L 128.56388 215.260606 
L 128.56388 215.260606 
L 128.56388 127.139394 
L 129.249444 215.260606 
L 129.249444 215.260606 
L 129.769543 303.381818 
L 129.769543 303.381818 
L 130.123763 303.381818 
L 130.123763 303.381818 
L 130.123763 215.260606 
L 131.047934 303.381818 
L 131.047934 303.381818 
L 131.43464 303.381818 
L 131.43464 303.381818 
L 131.43464 215.260606 
L 133.338873 215.260606 
L 133.338873 215.260606 
L 133.338873 127.139394 
L 134.191263 215.260606 
L 134.269451 215.260606 
L 134.750967 303.381818 
L 134.750967 303.381818 
L 135.036688 303.381818 
L 135.036688 303.381818 
L 135.036688 215.260606 
L 135.846007 215.260606 
L 136.341614 303.381818 
L 136.341614 303.381818 
L 136.572098 303.381818 
L 136.572098 303.381818 
L 136.572098 215.260606 
L 137.985321 215.260606 
L 137.985321 215.260606 
L 138.009263 303.381818 
L 138.009263 303.381818 
L 139.514449 303.381818 
L 139.514449 303.381818 
L 139.514449 215.260606 
L 140.432007 303.381818 
L 140.432007 303.381818 
L 141.825194 303.381818 
L 141.825194 303.381818 
L 141.825194 215.260606 
L 142.597116 215.260606 
L 142.597116 215.260606 
L 142.597116 127.139394 
L 143.4361 215.260606 
L 143.4361 215.260606 
L 143.45425 303.381818 
L 143.45425 303.381818 
L 147.249043 303.381818 
L 147.249043 303.381818 
L 147.249043 215.260606 
L 147.867805 215.260606 
L 147.867805 215.260606 
L 147.934129 303.381818 
L 147.934129 303.381818 
L 148.458675 303.381818 
L 148.458675 303.381818 
L 148.458675 215.260606 
L 149.373431 215.260606 
L 149.373431 215.260606 
L 149.373431 127.139394 
L 149.639522 127.139394 
L 149.639522 127.139394 
L 149.998226 215.260606 
L 149.998226 215.260606 
L 150.355927 215.260606 
L 150.355927 215.260606 
L 150.355927 127.139394 
L 151.680411 127.139394 
L 151.680411 127.139394 
L 151.741388 215.260606 
L 151.741388 127.139394 
L 152.11971 215.260606 
L 152.11971 215.260606 
L 152.521231 215.260606 
L 152.521231 215.260606 
L 152.521231 127.139394 
L 152.754239 127.139394 
L 152.754239 127.139394 
L 153.136587 215.260606 
L 153.136587 215.260606 
L 153.934643 303.381818 
L 153.934643 303.381818 
L 154.227605 303.381818 
L 154.227605 303.381818 
L 154.227605 215.260606 
L 155.03159 215.260606 
L 155.03159 215.260606 
L 155.03159 127.139394 
L 155.583172 127.139394 
L 155.79722 215.260606 
L 155.79722 215.260606 
L 156.36104 215.260606 
L 156.36104 215.260606 
L 156.439703 303.381818 
L 156.439703 303.381818 
L 156.836564 303.381818 
L 156.836564 303.381818 
L 156.836564 215.260606 
L 158.268866 303.381818 
L 158.268866 303.381818 
L 158.584054 303.381818 
L 158.584054 303.381818 
L 158.584054 215.260606 
L 158.742304 215.260606 
L 160.123753 303.381818 
L 160.123753 303.381818 
L 162.538897 303.381818 
L 162.538897 303.381818 
L 162.538897 215.260606 
L 163.494621 215.260606 
L 163.494621 215.260606 
L 163.494621 127.139394 
L 164.28413 215.260606 
L 164.28413 215.260606 
L 164.412014 303.381818 
L 164.412014 303.381818 
L 168.618439 303.381818 
L 168.618439 303.381818 
L 168.618439 215.260606 
L 169.617569 303.381818 
L 169.617569 303.381818 
L 169.994685 303.381818 
L 169.994685 303.381818 
L 169.994685 215.260606 
L 171.029424 215.260606 
L 171.029424 215.260606 
L 171.029424 127.139394 
L 171.229861 215.260606 
L 171.229861 215.260606 
L 171.563787 215.260606 
L 171.563787 215.260606 
L 172.452371 303.381818 
L 172.452371 303.381818 
L 172.874701 303.381818 
L 172.874701 303.381818 
L 172.874701 215.260606 
L 172.88058 215.260606 
L 174.020602 303.381818 
L 174.020602 303.381818 
L 176.092897 303.381818 
L 176.092897 303.381818 
L 176.092897 215.260606 
L 176.810691 215.260606 
L 176.997002 303.381818 
L 176.997002 303.381818 
L 178.220269 303.381818 
L 178.220269 303.381818 
L 178.220269 215.260606 
L 178.818244 215.260606 
L 179.385208 303.381818 
L 179.385208 303.381818 
L 180.200651 303.381818 
L 180.200651 303.381818 
L 180.200651 215.260606 
L 181.43794 303.381818 
L 181.43794 303.381818 
L 182.171911 303.381818 
L 182.171911 303.381818 
L 182.171911 215.260606 
L 182.90143 215.260606 
L 182.90143 215.260606 
L 183.237415 303.381818 
L 183.237415 303.381818 
L 185.288945 303.381818 
L 185.288945 303.381818 
L 185.288945 215.260606 
L 186.231978 303.381818 
L 186.231978 303.381818 
L 187.175425 303.381818 
L 187.175425 303.381818 
L 187.175425 215.260606 
L 188.03267 303.381818 
L 188.03267 303.381818 
L 188.777273 303.381818 
L 188.777273 303.381818 
L 188.777273 215.260606 
L 189.947043 215.260606 
L 190.836737 303.381818 
L 190.836737 303.381818 
L 190.836737 215.260606 
L 191.618049 215.260606 
L 191.618049 215.260606 
L 191.618049 127.139394 
L 191.712136 215.260606 
L 193.100742 215.260606 
L 193.100742 215.260606 
L 193.182552 303.381818 
L 193.182552 303.381818 
L 193.630939 303.381818 
L 193.630939 303.381818 
L 193.630939 215.260606 
L 195.107596 215.260606 
L 195.107596 215.260606 
L 195.700836 303.381818 
L 195.700836 303.381818 
L 195.700836 215.260606 
L 196.823772 303.381818 
L 196.823772 303.381818 
L 197.855747 303.381818 
L 197.855747 303.381818 
L 197.855747 215.260606 
L 198.912966 215.260606 
L 198.912966 215.260606 
L 198.912966 127.139394 
L 199.014479 215.260606 
L 200.133602 215.260606 
L 200.133602 215.260606 
L 200.133602 127.139394 
L 200.229238 215.260606 
L 200.745262 215.260606 
L 200.745262 215.260606 
L 200.745262 127.139394 
L 201.809849 215.260606 
L 201.809849 215.260606 
L 201.974123 215.260606 
L 201.974123 215.260606 
L 201.974123 127.139394 
L 202.714475 215.260606 
L 202.714475 215.260606 
L 202.881843 215.260606 
L 202.881843 215.260606 
L 202.881843 127.139394 
L 202.931012 215.260606 
L 203.961745 215.260606 
L 203.961745 215.260606 
L 203.961745 127.139394 
L 204.270917 215.260606 
L 204.270917 215.260606 
L 205.085026 215.260606 
L 205.085026 215.260606 
L 205.085026 127.139394 
L 206.06262 215.260606 
L 206.06262 215.260606 
L 206.792954 215.260606 
L 206.792954 215.260606 
L 206.964804 303.381818 
L 206.964804 303.381818 
L 207.839812 303.381818 
L 207.839812 303.381818 
L 207.839812 215.260606 
L 207.920478 215.260606 
L 208.571243 215.260606 
L 208.571243 215.260606 
L 208.627964 303.381818 
L 208.627964 303.381818 
L 210.238523 303.381818 
L 210.238523 303.381818 
L 210.238523 215.260606 
L 211.21943 303.381818 
L 211.21943 303.381818 
L 211.465534 303.381818 
L 211.465534 303.381818 
L 211.465534 215.260606 
L 212.233403 215.260606 
L 212.233403 215.260606 
L 212.234814 303.381818 
L 212.234814 303.381818 
L 213.370653 303.381818 
L 213.370653 303.381818 
L 213.370653 215.260606 
L 213.788757 215.260606 
L 213.788757 215.260606 
L 215.295872 303.381818 
L 215.295872 303.381818 
L 217.8664 303.381818 
L 217.8664 303.381818 
L 217.8664 215.260606 
L 219.087726 215.260606 
L 219.087726 215.260606 
L 219.087726 127.139394 
L 220.045114 215.260606 
L 220.045114 215.260606 
L 220.179953 215.260606 
L 220.179953 215.260606 
L 220.179953 127.139394 
L 220.609051 215.260606 
L 220.609051 215.260606 
L 221.158769 215.260606 
L 221.158769 215.260606 
L 221.158769 127.139394 
L 221.423843 215.260606 
L 221.423843 215.260606 
L 222.091033 215.260606 
L 222.091033 215.260606 
L 222.091033 127.139394 
L 222.310224 215.260606 
L 222.310224 215.260606 
L 222.809954 303.381818 
L 222.809954 303.381818 
L 225.610323 303.381818 
L 225.610323 303.381818 
L 225.610323 215.260606 
L 226.466775 215.260606 
L 226.466775 215.260606 
L 227.747724 303.381818 
L 227.747724 303.381818 
L 227.93311 303.381818 
L 227.93311 303.381818 
L 227.93311 215.260606 
L 228.935079 303.381818 
L 228.935079 303.381818 
L 229.651836 303.381818 
L 229.651836 303.381818 
L 229.651836 215.260606 
L 229.722954 215.260606 
L 230.935088 215.260606 
L 230.935088 215.260606 
L 230.935088 127.139394 
L 230.984874 215.260606 
L 233.101601 215.260606 
L 233.101601 215.260606 
L 233.101601 127.139394 
L 233.337469 215.260606 
L 233.337469 215.260606 
L 233.743509 303.381818 
L 233.743509 303.381818 
L 239.412463 303.381818 
L 239.412463 303.381818 
L 239.412463 215.260606 
L 240.234539 215.260606 
L 240.234539 215.260606 
L 240.418791 303.381818 
L 240.418791 303.381818 
L 240.628447 303.381818 
L 240.628447 303.381818 
L 240.628447 215.260606 
L 241.593946 303.381818 
L 241.593946 303.381818 
L 242.488419 303.381818 
L 242.488419 303.381818 
L 242.488419 215.260606 
L 244.096259 215.260606 
L 244.096259 215.260606 
L 244.302726 303.381818 
L 244.302726 303.381818 
L 244.302726 215.260606 
L 245.330665 303.381818 
L 245.330665 303.381818 
L 245.330665 215.260606 
L 245.711715 215.260606 
L 245.711715 215.260606 
L 246.593922 303.381818 
L 246.593922 303.381818 
L 247.441828 303.381818 
L 247.441828 303.381818 
L 247.441828 215.260606 
L 247.963974 215.260606 
L 247.963974 215.260606 
L 248.447268 303.381818 
L 248.447268 303.381818 
L 250.389119 303.381818 
L 250.389119 303.381818 
L 250.389119 215.260606 
L 250.742681 215.260606 
L 251.556755 303.381818 
L 251.556755 303.381818 
L 251.795412 303.381818 
L 251.795412 303.381818 
L 251.795412 215.260606 
L 253.255417 215.260606 
L 253.559189 303.381818 
L 253.559189 303.381818 
L 256.334319 303.381818 
L 256.334319 303.381818 
L 256.334319 215.260606 
L 257.543565 303.381818 
L 257.543565 303.381818 
L 258.163992 303.381818 
L 258.163992 303.381818 
L 258.163992 215.260606 
L 259.082289 303.381818 
L 259.082289 303.381818 
L 260.259157 303.381818 
L 260.259157 303.381818 
L 260.259157 215.260606 
L 261.042941 303.381818 
L 261.042941 303.381818 
L 261.200022 303.381818 
L 261.200022 303.381818 
L 261.200022 215.260606 
L 262.835119 303.381818 
L 262.835119 303.381818 
L 263.511496 303.381818 
L 263.511496 303.381818 
L 263.511496 215.260606 
L 264.391752 215.260606 
L 264.391752 215.260606 
L 264.401216 303.381818 
L 264.401216 303.381818 
L 265.057897 303.381818 
L 265.057897 303.381818 
L 265.057897 215.260606 
L 266.166913 215.260606 
L 266.166913 215.260606 
L 266.166913 127.139394 
L 266.825633 127.139394 
L 266.825633 127.139394 
L 267.082541 303.381818 
L 267.082541 303.381818 
L 267.612513 303.381818 
L 267.612513 303.381818 
L 267.612513 215.260606 
L 268.529342 303.381818 
L 268.529342 303.381818 
L 268.786249 303.381818 
L 268.786249 303.381818 
L 268.786249 215.260606 
L 269.794887 215.260606 
L 269.826307 303.381818 
L 269.826307 303.381818 
L 270.544882 303.381818 
L 270.544882 303.381818 
L 270.544882 215.260606 
L 271.299165 303.381818 
L 271.299165 303.381818 
L 273.116748 303.381818 
L 273.116748 303.381818 
L 273.116748 215.260606 
L 274.269369 215.260606 
L 274.269369 215.260606 
L 274.311667 303.381818 
L 274.311667 303.381818 
L 275.505769 303.381818 
L 275.505769 303.381818 
L 275.505769 215.260606 
L 276.448277 215.260606 
L 276.448277 215.260606 
L 276.448277 127.139394 
L 276.770233 215.260606 
L 276.770233 215.260606 
L 277.795067 215.260606 
L 277.795067 215.260606 
L 277.795067 127.139394 
L 277.897664 215.260606 
L 279.812301 215.260606 
L 279.812301 215.260606 
L 280.146793 303.381818 
L 280.146793 303.381818 
L 281.714308 303.381818 
L 281.714308 303.381818 
L 281.714308 215.260606 
L 281.92739 215.260606 
L 281.92739 215.260606 
L 283.038926 303.381818 
L 283.038926 303.381818 
L 283.280034 303.381818 
L 283.280034 303.381818 
L 283.280034 215.260606 
L 284.63265 215.260606 
L 284.63265 215.260606 
L 284.855119 303.381818 
L 284.855119 303.381818 
L 284.855119 215.260606 
L 287.368651 215.260606 
L 287.368651 215.260606 
L 287.368651 127.139394 
L 287.821517 127.139394 
L 287.821517 127.139394 
L 287.869295 215.260606 
L 287.869295 215.260606 
L 288.428769 215.260606 
L 288.428769 215.260606 
L 288.428769 127.139394 
L 289.174412 215.260606 
L 289.174412 215.260606 
L 289.350718 303.381818 
L 289.350718 303.381818 
L 293.079178 303.381818 
L 293.079178 303.381818 
L 293.079178 215.260606 
L 293.61718 215.260606 
L 293.61718 215.260606 
L 293.61718 127.139394 
L 294.134919 215.260606 
L 294.134919 215.260606 
L 294.681661 215.260606 
L 294.681661 215.260606 
L 294.681661 127.139394 
L 294.970027 215.260606 
L 294.970027 215.260606 
L 295.47153 215.260606 
L 295.47153 215.260606 
L 296.544726 303.381818 
L 296.544726 303.381818 
L 298.657116 303.381818 
L 298.657116 303.381818 
L 298.657116 215.260606 
L 299.461191 215.260606 
L 299.461191 215.260606 
L 299.461191 127.139394 
L 299.850986 127.139394 
L 300.51708 215.260606 
L 300.51708 215.260606 
L 301.307322 303.381818 
L 301.307322 303.381818 
L 305.156378 303.381818 
L 305.156378 303.381818 
L 305.156378 215.260606 
L 306.309377 215.260606 
L 306.309377 215.260606 
L 306.309377 127.139394 
L 306.432916 215.260606 
L 306.432916 215.260606 
L 306.615673 215.260606 
L 306.615673 215.260606 
L 307.373369 303.381818 
L 307.373369 303.381818 
L 307.902258 303.381818 
L 307.902258 303.381818 
L 307.902258 215.260606 
L 308.68849 215.260606 
L 308.68849 215.260606 
L 309.238915 303.381818 
L 309.238915 303.381818 
L 309.351244 303.381818 
L 309.351244 303.381818 
L 309.351244 215.260606 
L 309.936771 215.260606 
L 309.936771 215.260606 
L 310.163611 303.381818 
L 310.163611 303.381818 
L 311.57203 303.381818 
L 311.57203 303.381818 
L 311.57203 215.260606 
L 311.943258 215.260606 
L 313.026991 303.381818 
L 313.026991 303.381818 
L 314.519338 303.381818 
L 314.519338 303.381818 
L 314.519338 215.260606 
L 315.236924 215.260606 
L 315.853527 303.381818 
L 315.853527 303.381818 
L 317.898507 303.381818 
L 317.898507 303.381818 
L 317.898507 215.260606 
L 319.507829 215.260606 
L 319.507829 215.260606 
L 319.507829 127.139394 
L 320.660945 215.260606 
L 320.660945 215.260606 
L 320.803273 303.381818 
L 320.803273 303.381818 
L 326.334656 303.381818 
L 326.334656 303.381818 
L 326.334656 215.260606 
L 328.27997 303.381818 
L 328.27997 303.381818 
L 328.527237 303.381818 
L 328.527237 303.381818 
L 328.527237 215.260606 
L 329.090708 303.381818 
L 329.090708 303.381818 
L 329.388311 303.381818 
L 329.388311 303.381818 
L 329.388311 215.260606 
L 331.615688 215.260606 
L 331.615688 215.260606 
L 331.615688 127.139394 
L 331.711629 215.260606 
L 333.894201 215.260606 
L 333.894201 215.260606 
L 333.894201 127.139394 
L 334.059356 215.260606 
L 334.059356 215.260606 
L 334.921428 215.260606 
L 334.921428 215.260606 
L 335.151513 303.381818 
L 335.151513 303.381818 
L 335.779501 303.381818 
L 335.779501 303.381818 
L 335.779501 215.260606 
L 335.846227 215.260606 
L 336.589938 215.260606 
L 336.589938 215.260606 
L 336.589938 127.139394 
L 337.444663 215.260606 
L 337.444663 215.260606 
L 337.520397 303.381818 
L 337.520397 303.381818 
L 338.458844 303.381818 
L 338.458844 303.381818 
L 338.458844 215.260606 
L 339.966738 215.260606 
L 339.966738 215.260606 
L 339.966738 127.139394 
L 340.245704 127.139394 
L 340.325429 215.260606 
L 340.325429 215.260606 
L 340.917198 215.260606 
L 340.917198 215.260606 
L 340.917198 127.139394 
L 341.525158 215.260606 
L 341.525158 215.260606 
L 341.963872 215.260606 
L 341.963872 215.260606 
L 341.963872 127.139394 
L 342.137675 215.260606 
L 342.137675 215.260606 
L 342.752786 303.381818 
L 342.752786 303.381818 
L 343.143535 303.381818 
L 343.143535 303.381818 
L 343.143535 215.260606 
L 344.240109 215.260606 
L 344.240109 215.260606 
L 344.240109 127.139394 
L 344.531232 215.260606 
L 344.531232 215.260606 
L 345.406211 303.381818 
L 345.406211 303.381818 
L 345.711032 303.381818 
L 345.711032 303.381818 
L 345.711032 215.260606 
L 346.289549 215.260606 
L 346.722827 303.381818 
L 346.722827 303.381818 
L 347.633822 303.381818 
L 347.633822 303.381818 
L 347.633822 215.260606 
L 348.30617 215.260606 
L 348.30617 215.260606 
L 348.786905 303.381818 
L 348.786905 303.381818 
L 351.175276 303.381818 
L 351.175276 303.381818 
L 351.175276 215.260606 
L 352.993171 215.260606 
L 352.993171 215.260606 
L 352.993171 127.139394 
L 353.803567 127.139394 
L 354.203493 215.260606 
L 354.203493 215.260606 
L 355.49446 215.260606 
L 355.540224 303.381818 
L 355.540224 303.381818 
L 355.716462 303.381818 
L 355.716462 303.381818 
L 355.716462 215.260606 
L 356.602188 215.260606 
L 356.657769 303.381818 
L 356.657769 303.381818 
L 357.438977 303.381818 
L 357.438977 303.381818 
L 357.438977 215.260606 
L 357.780066 215.260606 
L 358.265469 303.381818 
L 358.265469 303.381818 
L 358.565085 303.381818 
L 358.565085 303.381818 
L 358.565085 215.260606 
L 359.834892 303.381818 
L 359.834892 303.381818 
L 360.982923 303.381818 
L 360.982923 303.381818 
L 360.982923 215.260606 
L 361.11797 215.260606 
L 361.885537 303.381818 
L 361.885537 303.381818 
L 362.60019 303.381818 
L 362.60019 303.381818 
L 362.60019 215.260606 
L 363.441459 303.381818 
L 363.441459 303.381818 
L 364.637253 303.381818 
L 364.637253 303.381818 
L 364.637253 215.260606 
L 365.065556 215.260606 
L 365.369918 303.381818 
L 365.369918 303.381818 
L 365.641507 303.381818 
L 365.641507 303.381818 
L 365.641507 215.260606 
L 366.369566 303.381818 
L 366.369566 303.381818 
L 370.807416 303.381818 
L 370.807416 303.381818 
L 370.807416 215.260606 
L 371.169342 215.260606 
L 371.709054 303.381818 
L 371.709054 303.381818 
L 371.964447 303.381818 
L 371.964447 303.381818 
L 371.964447 215.260606 
L 372.991382 215.260606 
L 372.991382 215.260606 
L 372.991382 127.139394 
L 373.453802 215.260606 
L 373.453802 215.260606 
L 374.149127 303.381818 
L 374.149127 303.381818 
L 374.508685 303.381818 
L 374.508685 303.381818 
L 374.508685 215.260606 
L 375.370282 303.381818 
L 375.370282 303.381818 
L 378.772807 303.381818 
L 378.772807 303.381818 
L 378.772807 215.260606 
L 379.889913 215.260606 
L 379.889913 215.260606 
L 379.889913 127.139394 
L 380.37327 215.260606 
L 380.37327 215.260606 
L 380.508759 303.381818 
L 380.508759 303.381818 
L 380.9522 303.381818 
L 380.9522 303.381818 
L 380.9522 215.260606 
L 381.73038 215.260606 
L 381.73038 215.260606 
L 381.839411 303.381818 
L 381.839411 303.381818 
L 382.723857 303.381818 
L 382.723857 303.381818 
L 382.723857 215.260606 
L 382.785644 215.260606 
L 383.40179 215.260606 
L 383.40179 215.260606 
L 383.40179 127.139394 
L 383.96449 215.260606 
L 383.96449 215.260606 
L 384.250996 215.260606 
L 384.250996 215.260606 
L 384.250996 127.139394 
L 384.383283 215.260606 
L 384.383283 215.260606 
L 385.262913 215.260606 
L 385.262913 215.260606 
L 385.262913 127.139394 
L 385.343237 215.260606 
L 386.428947 215.260606 
L 386.428947 215.260606 
L 386.428947 127.139394 
L 386.612794 127.139394 
L 387.10133 215.260606 
L 388.456756 215.260606 
L 388.456756 215.260606 
L 388.696454 303.381818 
L 388.696454 303.381818 
L 389.501326 303.381818 
L 389.501326 303.381818 
L 389.501326 215.260606 
L 390.651671 215.260606 
L 390.651671 215.260606 
L 390.651671 127.139394 
L 390.716634 127.139394 
L 390.820084 215.260606 
L 390.820084 215.260606 
L 392.091055 215.260606 
L 392.091055 215.260606 
L 392.091055 127.139394 
L 392.236432 127.139394 
L 392.236432 127.139394 
L 393.171424 303.381818 
L 393.171424 303.381818 
L 393.93306 303.381818 
L 393.93306 303.381818 
L 393.93306 215.260606 
L 394.092351 215.260606 
L 394.092351 215.260606 
L 395.009501 303.381818 
L 395.009501 303.381818 
L 395.828176 303.381818 
L 395.828176 303.381818 
L 395.828176 215.260606 
L 397.088149 215.260606 
L 397.088149 215.260606 
L 397.633073 303.381818 
L 397.633073 303.381818 
L 400.220042 303.381818 
L 400.220042 303.381818 
L 400.220042 215.260606 
L 400.523172 215.260606 
L 401.302055 303.381818 
L 401.302055 303.381818 
L 403.056797 303.381818 
L 403.056797 303.381818 
L 403.056797 215.260606 
L 403.65954 303.381818 
L 403.65954 303.381818 
L 403.99669 303.381818 
L 403.99669 303.381818 
L 403.99669 215.260606 
L 405.566984 215.260606 
L 405.566984 215.260606 
L 405.566984 127.139394 
L 406.463817 127.139394 
L 406.487551 215.260606 
L 406.487551 215.260606 
L 406.733957 303.381818 
L 406.733957 303.381818 
L 407.399184 303.381818 
L 407.399184 303.381818 
L 407.399184 215.260606 
L 407.619737 215.260606 
L 409.149613 303.381818 
L 409.149613 303.381818 
L 411.906028 303.381818 
L 411.906028 303.381818 
L 411.906028 215.260606 
L 413.17019 215.260606 
L 413.17019 215.260606 
L 413.17019 127.139394 
L 413.546799 215.260606 
L 413.546799 215.260606 
L 414.540176 303.381818 
L 414.540176 303.381818 
L 418.01254 303.381818 
L 418.01254 303.381818 
L 418.01254 215.260606 
L 419.02982 215.260606 
L 419.02982 215.260606 
L 419.02982 127.139394 
L 419.788229 215.260606 
L 419.788229 215.260606 
L 420.04393 215.260606 
L 420.04393 215.260606 
L 420.340675 303.381818 
L 420.340675 303.381818 
L 422.020857 303.381818 
L 422.020857 303.381818 
L 422.020857 215.260606 
L 422.688093 215.260606 
L 422.688093 215.260606 
L 422.882037 303.381818 
L 422.882037 303.381818 
L 423.380356 303.381818 
L 423.380356 303.381818 
L 423.380356 215.260606 
L 424.58866 215.260606 
L 424.58866 215.260606 
L 425.104705 303.381818 
L 425.104705 303.381818 
L 425.259289 303.381818 
L 425.259289 303.381818 
L 425.259289 215.260606 
L 426.064237 215.260606 
L 426.064237 215.260606 
L 427.450181 303.381818 
L 427.450181 303.381818 
L 427.662623 303.381818 
L 427.662623 303.381818 
L 427.662623 215.260606 
L 428.597386 303.381818 
L 428.597386 303.381818 
L 431.63932 303.381818 
L 431.63932 303.381818 
L 431.63932 215.260606 
L 432.278668 215.260606 
L 432.278668 215.260606 
L 432.278668 127.139394 
L 433.52452 215.260606 
L 433.52452 215.260606 
L 433.956779 303.381818 
L 433.956779 303.381818 
L 434.436786 303.381818 
L 434.436786 303.381818 
L 434.436786 215.260606 
L 435.183577 215.260606 
L 435.778224 303.381818 
L 435.778224 303.381818 
L 439.722088 303.381818 
L 439.722088 303.381818 
L 439.722088 215.260606 
L 441.266213 303.381818 
L 441.266213 303.381818 
L 441.958644 303.381818 
L 441.958644 303.381818 
L 441.958644 215.260606 
L 443.006574 215.260606 
L 443.006574 215.260606 
L 443.006574 127.139394 
L 443.105208 127.139394 
L 443.496887 215.260606 
L 443.496887 215.260606 
L 445.18853 303.381818 
L 445.18853 303.381818 
L 447.9423 303.381818 
L 447.9423 303.381818 
L 447.9423 215.260606 
L 448.649536 303.381818 
L 448.649536 303.381818 
L 450.631246 303.381818 
L 450.631246 303.381818 
L 450.631246 215.260606 
L 451.705151 303.381818 
L 451.705151 303.381818 
L 452.068954 303.381818 
L 452.068954 303.381818 
L 452.068954 215.260606 
L 452.749149 215.260606 
L 452.749149 215.260606 
L 452.749149 127.139394 
L 453.11884 127.139394 
L 453.11884 127.139394 
L 453.83956 303.381818 
L 453.83956 303.381818 
L 454.363145 303.381818 
L 454.363145 303.381818 
L 454.363145 215.260606 
L 454.388085 215.260606 
L 455.101559 215.260606 
L 455.51137 303.381818 
L 455.51137 303.381818 
L 457.94745 303.381818 
L 457.94745 303.381818 
L 457.94745 215.260606 
L 459.089659 303.381818 
L 459.089659 303.381818 
L 459.323452 303.381818 
L 459.323452 303.381818 
L 459.323452 215.260606 
L 459.776208 215.260606 
L 460.484914 303.381818 
L 460.484914 303.381818 
L 460.837681 303.381818 
L 460.837681 303.381818 
L 460.837681 215.260606 
L 462.836746 303.381818 
L 462.836746 303.381818 
L 465.654158 303.381818 
L 465.654158 303.381818 
L 465.654158 215.260606 
L 465.743055 215.260606 
L 466.935138 303.381818 
L 466.935138 303.381818 
L 467.256815 303.381818 
L 467.256815 303.381818 
L 467.256815 215.260606 
L 468.480664 303.381818 
L 468.480664 303.381818 
L 468.974704 303.381818 
L 468.974704 303.381818 
L 468.974704 215.260606 
L 470.158379 215.260606 
L 470.158379 215.260606 
L 470.158379 127.139394 
L 470.231986 215.260606 
L 471.11621 303.381818 
L 471.11621 303.381818 
L 474.029429 303.381818 
L 474.029429 303.381818 
L 474.029429 215.260606 
L 474.581189 215.260606 
L 474.581189 215.260606 
L 474.581189 127.139394 
L 474.592493 127.139394 
L 475.140116 215.260606 
L 475.140116 215.260606 
L 475.306648 303.381818 
L 475.306648 303.381818 
L 475.873372 303.381818 
L 475.873372 303.381818 
L 475.873372 215.260606 
L 477.091465 215.260606 
L 477.091465 215.260606 
L 477.725482 303.381818 
L 477.725482 303.381818 
L 479.610021 303.381818 
L 479.610021 303.381818 
L 479.610021 215.260606 
L 480.046038 215.260606 
L 480.046038 215.260606 
L 480.420956 303.381818 
L 480.420956 303.381818 
L 481.842002 303.381818 
L 481.842002 303.381818 
L 481.842002 215.260606 
L 482.623301 303.381818 
L 482.623301 303.381818 
L 483.829231 303.381818 
L 483.829231 303.381818 
L 483.829231 215.260606 
L 484.925733 303.381818 
L 484.925733 303.381818 
L 485.208965 303.381818 
L 485.208965 303.381818 
L 485.208965 215.260606 
L 485.265646 215.260606 
L 486.311561 303.381818 
L 486.311561 303.381818 
L 487.151873 303.381818 
L 487.151873 303.381818 
L 487.151873 215.260606 
L 488.058088 215.260606 
L 488.058088 215.260606 
L 488.058088 127.139394 
L 488.781625 215.260606 
L 488.781625 215.260606 
L 489.183597 303.381818 
L 489.183597 303.381818 
L 490.151101 303.381818 
L 490.151101 303.381818 
L 490.151101 215.260606 
L 490.230627 215.260606 
L 490.36502 215.260606 
L 491.334147 303.381818 
L 491.334147 303.381818 
L 495.249609 303.381818 
L 495.249609 303.381818 
L 495.249609 215.260606 
L 496.018984 303.381818 
L 496.018984 303.381818 
L 496.018984 215.260606 
L 496.839222 215.260606 
L 496.839222 215.260606 
L 496.839222 127.139394 
L 497.995434 127.139394 
L 498.589153 215.260606 
L 498.589153 215.260606 
L 498.589153 127.139394 
L 499.117665 127.139394 
L 499.117665 127.139394 
L 499.35011 215.260606 
L 499.35011 215.260606 
L 499.35011 127.139394 
L 499.814677 215.260606 
L 499.814677 215.260606 
L 500.049359 215.260606 
L 500.049359 215.260606 
L 500.604939 303.381818 
L 500.604939 303.381818 
L 501.017224 303.381818 
L 501.017224 303.381818 
L 501.017224 215.260606 
L 502.314476 303.381818 
L 502.314476 303.381818 
L 502.314476 215.260606 
L 502.976118 215.260606 
L 502.976118 215.260606 
L 502.976118 127.139394 
L 503.057356 215.260606 
L 504.22303 215.260606 
L 504.22303 215.260606 
L 504.340088 303.381818 
L 504.340088 303.381818 
L 505.232326 303.381818 
L 505.232326 303.381818 
L 505.232326 215.260606 
L 506.158167 215.260606 
L 506.165403 303.381818 
L 506.165403 303.381818 
L 506.420211 303.381818 
L 506.420211 303.381818 
L 506.420211 215.260606 
L 506.427476 215.260606 
L 507.064905 303.381818 
L 507.064905 303.381818 
L 510.299077 303.381818 
L 510.299077 303.381818 
L 510.299077 215.260606 
L 512.210412 303.381818 
L 512.210412 303.381818 
L 513.877031 303.381818 
L 513.877031 303.381818 
L 513.877031 215.260606 
L 514.697618 215.260606 
L 514.697618 215.260606 
L 514.697618 127.139394 
L 514.869188 215.260606 
L 514.869188 215.260606 
L 516.252292 215.260606 
L 516.273948 303.381818 
L 516.273948 215.260606 
L 517.340427 303.381818 
L 517.340427 303.381818 
L 518.321054 303.381818 
L 518.321054 303.381818 
L 518.321054 215.260606 
L 519.276208 215.260606 
L 519.276208 215.260606 
L 519.276208 127.139394 
L 520.244089 127.139394 
L 520.244089 127.139394 
L 520.26265 215.260606 
L 520.26265 127.139394 
L 520.357047 127.139394 
L 520.357047 127.139394 
L 521.686206 215.260606 
L 521.686206 215.260606 
L 522.23524 215.260606 
L 522.23524 215.260606 
L 522.23524 127.139394 
L 522.927228 215.260606 
L 522.927228 215.260606 
L 523.402005 215.260606 
L 523.402005 215.260606 
L 523.402005 127.139394 
L 523.572814 215.260606 
L 523.572814 215.260606 
L 524.884941 215.260606 
L 524.884941 215.260606 
L 524.884941 127.139394 
L 525.419311 215.260606 
L 525.419311 215.260606 
L 526.413857 215.260606 
L 526.413857 215.260606 
L 526.413857 127.139394 
L 527.514222 215.260606 
L 527.796393 215.260606 
L 528.104578 303.381818 
L 528.104578 303.381818 
L 530.264646 303.381818 
L 530.264646 303.381818 
L 530.264646 215.260606 
L 531.898233 303.381818 
L 531.898233 303.381818 
L 533.876576 303.381818 
L 533.876576 303.381818 
L 533.876576 215.260606 
L 535.375635 215.260606 
L 535.375635 215.260606 
L 535.375635 127.139394 
L 535.509419 215.260606 
L 535.509419 215.260606 
L 536.12234 303.381818 
L 536.12234 303.381818 
L 537.076104 303.381818 
L 537.076104 303.381818 
L 537.076104 215.260606 
L 537.436706 215.260606 
L 537.436706 215.260606 
L 539.038892 303.381818 
L 539.038892 303.381818 
L 541.710227 303.381818 
L 541.710227 303.381818 
" clip-path="url(#p1862695ca9)" style="fill: none; stroke: #2563eb; stroke-width: 1.5; stroke-linecap: square"/>
   </g>
   <g id="line2d_15">
    <path d="M 71.914773 303.381818 
L 73.565357 303.381818 
L 73.565357 303.381818 
L 73.565357 215.260606 
L 74.526711 215.260606 
L 74.526711 215.260606 
L 75.168254 303.381818 
L 75.168254 215.260606 
L 76.69873 215.260606 
L 76.69873 215.260606 
L 77.754493 303.381818 
L 77.754493 303.381818 
L 77.754493 215.260606 
L 77.754493 215.260606 
L 78.982371 215.260606 
L 78.982371 215.260606 
L 79.777979 303.381818 
L 79.777979 215.260606 
L 80.854009 215.260606 
L 80.854009 215.260606 
L 81.274329 303.381818 
L 81.274329 215.260606 
L 82.755274 215.260606 
L 82.755274 215.260606 
L 83.123324 303.381818 
L 83.123324 215.260606 
L 84.27683 215.260606 
L 84.27683 215.260606 
L 85.012854 303.381818 
L 85.012854 215.260606 
L 85.476737 215.260606 
L 85.476737 215.260606 
L 86.322355 303.381818 
L 86.322355 215.260606 
L 86.332024 215.260606 
L 87.207652 215.260606 
L 87.207652 215.260606 
L 87.443813 303.381818 
L 87.443813 215.260606 
L 88.474656 215.260606 
L 88.474656 215.260606 
L 88.661259 303.381818 
L 88.661259 215.260606 
L 88.745407 215.260606 
L 90.310358 303.381818 
L 91.917598 303.381818 
L 91.917598 303.381818 
L 91.917598 215.260606 
L 93.483339 215.260606 
L 93.483339 215.260606 
L 93.748324 303.381818 
L 94.232186 303.381818 
L 94.232186 303.381818 
L 94.232186 215.260606 
L 95.78422 215.260606 
L 95.78422 215.260606 
L 96.042435 303.381818 
L 96.042435 215.260606 
L 97.122656 215.260606 
L 97.122656 215.260606 
L 97.145946 303.381818 
L 97.145946 215.260606 
L 98.208255 215.260606 
L 98.208255 215.260606 
L 98.806846 303.381818 
L 98.806846 215.260606 
L 98.837546 215.260606 
L 101.027503 215.260606 
L 101.027503 215.260606 
L 101.168094 303.381818 
L 101.168094 215.260606 
L 101.339209 215.260606 
L 101.339209 215.260606 
L 103.063208 303.381818 
L 103.063208 215.260606 
L 103.944524 215.260606 
L 103.944524 215.260606 
L 105.129089 303.381818 
L 106.32922 303.381818 
L 106.32922 303.381818 
L 106.32922 215.260606 
L 107.563087 303.381818 
L 109.574697 303.381818 
L 109.574697 303.381818 
L 109.574697 215.260606 
L 111.732518 215.260606 
L 111.732518 215.260606 
L 111.898288 303.381818 
L 111.898288 215.260606 
L 113.204503 215.260606 
L 113.204503 215.260606 
L 113.814872 303.381818 
L 119.138451 303.381818 
L 119.138451 303.381818 
L 119.138451 215.260606 
L 120.429552 215.260606 
L 120.748319 303.381818 
L 122.052224 303.381818 
L 122.052224 303.381818 
L 122.052224 215.260606 
L 122.058243 215.260606 
L 122.492857 303.381818 
L 122.492857 303.381818 
L 122.492857 215.260606 
L 122.492857 215.260606 
L 123.252941 215.260606 
L 123.252941 215.260606 
L 123.972094 303.381818 
L 123.972094 215.260606 
L 125.086812 215.260606 
L 125.086812 215.260606 
L 126.235056 303.381818 
L 126.235056 215.260606 
L 127.837478 215.260606 
L 127.837478 215.260606 
L 128.240838 303.381818 
L 128.240838 215.260606 
L 129.723647 215.260606 
L 129.723647 215.260606 
L 129.769543 303.381818 
L 129.769543 215.260606 
L 131.43464 215.260606 
L 131.43464 215.260606 
L 131.62916 303.381818 
L 131.62916 215.260606 
L 132.753777 303.381818 
L 132.753777 215.260606 
L 134.191263 215.260606 
L 134.269451 303.381818 
L 136.341614 303.381818 
L 136.341614 303.381818 
L 136.341614 215.260606 
L 137.985321 215.260606 
L 137.985321 215.260606 
L 138.009263 303.381818 
L 138.009263 215.260606 
L 140.399862 215.260606 
L 140.399862 215.260606 
L 140.432007 303.381818 
L 140.432007 215.260606 
L 141.643011 303.381818 
L 141.643011 215.260606 
L 143.45425 215.260606 
L 143.45425 215.260606 
L 143.797673 303.381818 
L 143.797673 215.260606 
L 146.416933 303.381818 
L 146.416933 215.260606 
L 147.249043 215.260606 
L 147.249043 215.260606 
L 147.867805 303.381818 
L 147.867805 215.260606 
L 147.934129 215.260606 
L 149.373431 215.260606 
L 149.373431 215.260606 
L 149.639522 303.381818 
L 149.639522 215.260606 
L 150.355927 215.260606 
L 150.355927 215.260606 
L 151.394792 303.381818 
L 151.394792 215.260606 
L 152.521231 215.260606 
L 152.521231 215.260606 
L 152.754239 303.381818 
L 152.754239 215.260606 
L 155.03159 215.260606 
L 155.03159 215.260606 
L 155.299407 303.381818 
L 155.299407 215.260606 
L 155.79722 215.260606 
L 155.79722 215.260606 
L 156.36104 303.381818 
L 156.36104 215.260606 
L 156.439703 215.260606 
L 158.268866 215.260606 
L 158.268866 215.260606 
L 158.535109 303.381818 
L 158.535109 215.260606 
L 158.584054 215.260606 
L 158.742304 215.260606 
L 160.123753 303.381818 
L 160.123753 303.381818 
L 160.123753 215.260606 
L 160.123753 215.260606 
L 160.524526 215.260606 
L 161.326566 303.381818 
L 161.326566 215.260606 
L 162.538897 215.260606 
L 162.538897 215.260606 
L 163.494621 303.381818 
L 163.494621 303.381818 
L 164.28413 303.381818 
L 164.28413 303.381818 
L 164.28413 215.260606 
L 166.271566 215.260606 
L 166.271566 215.260606 
L 166.579896 303.381818 
L 166.579896 215.260606 
L 169.560731 215.260606 
L 169.560731 215.260606 
L 169.617569 303.381818 
L 169.617569 215.260606 
L 171.229861 215.260606 
L 171.229861 215.260606 
L 171.563787 303.381818 
L 171.563787 215.260606 
L 172.874701 215.260606 
L 172.874701 215.260606 
L 172.88058 303.381818 
L 172.88058 215.260606 
L 174.020602 215.260606 
L 174.020602 215.260606 
L 175.084436 303.381818 
L 175.084436 215.260606 
L 176.092897 215.260606 
L 176.092897 215.260606 
L 176.810691 303.381818 
L 182.90143 303.381818 
L 182.90143 303.381818 
L 182.90143 215.260606 
L 183.237415 303.381818 
L 183.237415 303.381818 
L 183.237415 215.260606 
L 183.237415 215.260606 
L 183.521291 215.260606 
L 184.420744 303.381818 
L 184.420744 215.260606 
L 186.183446 215.260606 
L 186.183446 215.260606 
L 186.231978 303.381818 
L 186.231978 215.260606 
L 187.981858 215.260606 
L 187.981858 215.260606 
L 188.03267 303.381818 
L 188.03267 215.260606 
L 188.777273 215.260606 
L 188.777273 215.260606 
L 189.947043 303.381818 
L 190.741845 303.381818 
L 190.741845 303.381818 
L 190.741845 215.260606 
L 190.836737 215.260606 
L 191.731059 215.260606 
L 193.100742 303.381818 
L 193.100742 215.260606 
L 193.182552 215.260606 
L 193.630939 215.260606 
L 193.630939 215.260606 
L 195.107596 303.381818 
L 195.107596 215.260606 
L 200.229238 215.260606 
L 200.229238 215.260606 
L 200.569914 303.381818 
L 200.569914 215.260606 
L 202.714475 215.260606 
L 202.714475 215.260606 
L 202.859232 303.381818 
L 202.859232 215.260606 
L 202.931012 215.260606 
L 203.961745 215.260606 
L 203.961745 215.260606 
L 204.270917 303.381818 
L 204.270917 303.381818 
L 204.270917 215.260606 
L 204.270917 215.260606 
L 206.06262 215.260606 
L 206.06262 215.260606 
L 206.350629 303.381818 
L 206.350629 215.260606 
L 207.920478 215.260606 
L 208.571243 303.381818 
L 208.571243 215.260606 
L 208.627964 215.260606 
L 210.232597 303.381818 
L 210.232597 215.260606 
L 210.238523 215.260606 
L 211.465534 215.260606 
L 211.465534 215.260606 
L 212.233403 303.381818 
L 212.233403 215.260606 
L 212.234814 215.260606 
L 213.370653 215.260606 
L 213.370653 215.260606 
L 213.788757 303.381818 
L 213.788757 215.260606 
L 215.295872 215.260606 
L 215.295872 215.260606 
L 217.23213 303.381818 
L 217.23213 215.260606 
L 217.8664 215.260606 
L 217.8664 215.260606 
L 218.292098 303.381818 
L 218.292098 215.260606 
L 219.9809 215.260606 
L 219.9809 215.260606 
L 220.045114 303.381818 
L 220.045114 215.260606 
L 220.609051 215.260606 
L 220.609051 215.260606 
L 220.981723 303.381818 
L 220.981723 215.260606 
L 222.091033 215.260606 
L 222.091033 215.260606 
L 222.310224 303.381818 
L 222.310224 303.381818 
L 222.310224 215.260606 
L 222.310224 215.260606 
L 223.061692 215.260606 
L 223.817103 303.381818 
L 223.817103 215.260606 
L 226.369229 215.260606 
L 226.369229 215.260606 
L 226.466775 303.381818 
L 226.466775 215.260606 
L 227.638869 215.260606 
L 227.638869 215.260606 
L 227.747724 303.381818 
L 227.747724 215.260606 
L 229.651836 215.260606 
L 229.651836 215.260606 
L 229.722954 303.381818 
L 229.722954 215.260606 
L 230.984874 215.260606 
L 230.984874 215.260606 
L 231.478876 303.381818 
L 231.478876 215.260606 
L 233.68506 215.260606 
L 233.68506 215.260606 
L 233.743509 303.381818 
L 233.743509 215.260606 
L 234.833579 303.381818 
L 234.833579 215.260606 
L 237.002965 303.381818 
L 237.002965 215.260606 
L 237.621865 303.381818 
L 237.621865 303.381818 
L 237.621865 215.260606 
L 237.621865 215.260606 
L 238.613606 215.260606 
L 239.048394 303.381818 
L 239.048394 215.260606 
L 239.412463 215.260606 
L 239.412463 215.260606 
L 240.234539 303.381818 
L 240.234539 215.260606 
L 241.593946 215.260606 
L 241.593946 215.260606 
L 241.87753 303.381818 
L 241.87753 215.260606 
L 242.488419 215.260606 
L 242.488419 215.260606 
L 244.096259 303.381818 
L 244.096259 215.260606 
L 245.330665 215.260606 
L 245.330665 215.260606 
L 245.711715 303.381818 
L 245.711715 215.260606 
L 247.441828 215.260606 
L 247.441828 215.260606 
L 247.963974 303.381818 
L 247.963974 215.260606 
L 248.447268 215.260606 
L 248.447268 215.260606 
L 250.041011 303.381818 
L 251.556755 303.381818 
L 251.556755 303.381818 
L 251.556755 215.260606 
L 253.255417 215.260606 
L 253.559189 303.381818 
L 253.559189 303.381818 
L 253.559189 215.260606 
L 253.559189 215.260606 
L 254.146227 215.260606 
L 254.146227 215.260606 
L 256.103087 303.381818 
L 256.103087 215.260606 
L 257.543565 215.260606 
L 257.543565 215.260606 
L 257.833491 303.381818 
L 257.833491 215.260606 
L 259.082289 215.260606 
L 259.082289 215.260606 
L 259.400194 303.381818 
L 259.400194 215.260606 
L 261.042941 215.260606 
L 261.042941 215.260606 
L 261.170501 303.381818 
L 261.170501 215.260606 
L 261.200022 215.260606 
L 263.511496 215.260606 
L 263.511496 215.260606 
L 264.391752 303.381818 
L 264.391752 215.260606 
L 264.401216 215.260606 
L 266.166913 215.260606 
L 266.166913 215.260606 
L 266.825633 303.381818 
L 266.825633 215.260606 
L 268.786249 215.260606 
L 268.786249 215.260606 
L 268.901871 303.381818 
L 268.901871 215.260606 
L 269.794887 215.260606 
L 269.826307 303.381818 
L 269.826307 215.260606 
L 270.544882 215.260606 
L 270.544882 215.260606 
L 271.270355 303.381818 
L 271.270355 303.381818 
L 271.270355 215.260606 
L 271.299165 215.260606 
L 272.537237 215.260606 
L 272.656492 303.381818 
L 272.656492 215.260606 
L 273.116748 215.260606 
L 273.116748 215.260606 
L 274.269369 303.381818 
L 274.269369 215.260606 
L 274.311667 215.260606 
L 276.770233 215.260606 
L 276.770233 215.260606 
L 276.946272 303.381818 
L 276.946272 215.260606 
L 277.897664 215.260606 
L 277.897664 215.260606 
L 278.656025 303.381818 
L 278.656025 215.260606 
L 279.812301 303.381818 
L 279.812301 303.381818 
L 279.812301 215.260606 
L 279.812301 215.260606 
L 281.714308 215.260606 
L 281.714308 215.260606 
L 281.92739 303.381818 
L 281.92739 215.260606 
L 283.038926 215.260606 
L 283.038926 215.260606 
L 283.269019 303.381818 
L 283.269019 215.260606 
L 283.280034 215.260606 
L 284.63265 303.381818 
L 284.63265 215.260606 
L 284.855119 215.260606 
L 284.855119 215.260606 
L 286.296985 303.381818 
L 286.296985 215.260606 
L 287.368651 215.260606 
L 287.368651 215.260606 
L 287.821517 303.381818 
L 287.821517 215.260606 
L 287.869295 215.260606 
L 289.350718 215.260606 
L 289.350718 215.260606 
L 289.660627 303.381818 
L 289.660627 215.260606 
L 292.318156 303.381818 
L 292.318156 215.260606 
L 294.11144 215.260606 
L 294.11144 215.260606 
L 294.134919 303.381818 
L 294.134919 215.260606 
L 294.970027 215.260606 
L 294.970027 215.260606 
L 295.47153 303.381818 
L 295.47153 215.260606 
L 296.544726 303.381818 
L 296.544726 303.381818 
L 296.544726 215.260606 
L 296.544726 215.260606 
L 297.419595 215.260606 
L 297.858008 303.381818 
L 297.858008 215.260606 
L 299.461191 215.260606 
L 299.461191 215.260606 
L 299.850986 303.381818 
L 300.51708 303.381818 
L 300.51708 303.381818 
L 300.51708 215.260606 
L 301.307322 303.381818 
L 301.307322 303.381818 
L 301.307322 215.260606 
L 301.307322 215.260606 
L 302.26723 215.260606 
L 302.26723 215.260606 
L 303.888421 303.381818 
L 303.888421 215.260606 
L 304.954221 303.381818 
L 304.954221 215.260606 
L 306.432916 215.260606 
L 306.432916 215.260606 
L 306.615673 303.381818 
L 306.615673 215.260606 
L 307.902258 215.260606 
L 307.902258 215.260606 
L 308.68849 303.381818 
L 308.68849 215.260606 
L 309.351244 215.260606 
L 309.351244 215.260606 
L 309.936771 303.381818 
L 309.936771 215.260606 
L 311.57203 215.260606 
L 311.57203 215.260606 
L 311.943258 303.381818 
L 320.660945 303.381818 
L 320.660945 303.381818 
L 320.660945 215.260606 
L 322.879629 215.260606 
L 322.962362 303.381818 
L 323.250218 303.381818 
L 323.250218 303.381818 
L 323.250218 215.260606 
L 324.537556 303.381818 
L 328.27997 303.381818 
L 328.27997 303.381818 
L 328.27997 215.260606 
L 329.090708 215.260606 
L 329.090708 215.260606 
L 329.294507 303.381818 
L 329.294507 215.260606 
L 329.388311 215.260606 
L 330.880533 303.381818 
L 331.711629 303.381818 
L 331.711629 303.381818 
L 331.711629 215.260606 
L 332.848209 303.381818 
L 333.230311 303.381818 
L 333.230311 303.381818 
L 333.230311 215.260606 
L 334.059356 215.260606 
L 334.059356 215.260606 
L 334.921428 303.381818 
L 334.921428 215.260606 
L 335.779501 215.260606 
L 335.779501 215.260606 
L 335.846227 303.381818 
L 335.846227 215.260606 
L 337.464617 215.260606 
L 337.464617 215.260606 
L 337.520397 303.381818 
L 337.520397 215.260606 
L 338.458844 215.260606 
L 338.458844 215.260606 
L 338.99427 303.381818 
L 338.99427 215.260606 
L 339.966738 215.260606 
L 339.966738 215.260606 
L 340.325429 303.381818 
L 340.325429 303.381818 
L 340.325429 215.260606 
L 341.525158 215.260606 
L 341.525158 215.260606 
L 341.792072 303.381818 
L 341.792072 215.260606 
L 342.752786 215.260606 
L 342.752786 215.260606 
L 343.143535 303.381818 
L 343.143535 303.381818 
L 345.406211 303.381818 
L 345.406211 303.381818 
L 345.406211 215.260606 
L 346.289549 215.260606 
L 346.722827 303.381818 
L 346.722827 303.381818 
L 346.722827 215.260606 
L 346.722827 215.260606 
L 347.633822 215.260606 
L 347.633822 215.260606 
L 348.30617 303.381818 
L 348.30617 215.260606 
L 348.786905 215.260606 
L 348.786905 215.260606 
L 349.168151 303.381818 
L 349.168151 215.260606 
L 351.175276 215.260606 
L 351.175276 215.260606 
L 351.759338 303.381818 
L 351.759338 215.260606 
L 353.393534 215.260606 
L 353.803567 303.381818 
L 354.203493 303.381818 
L 354.203493 303.381818 
L 354.203493 215.260606 
L 355.540224 303.381818 
L 355.540224 303.381818 
L 355.540224 215.260606 
L 355.716462 215.260606 
L 355.716462 215.260606 
L 356.657769 303.381818 
L 356.657769 303.381818 
L 356.657769 215.260606 
L 357.438977 215.260606 
L 357.438977 215.260606 
L 357.780066 303.381818 
L 358.265469 303.381818 
L 358.265469 303.381818 
L 358.265469 215.260606 
L 360.982923 215.260606 
L 360.982923 215.260606 
L 361.11797 303.381818 
L 363.441459 303.381818 
L 363.441459 303.381818 
L 363.441459 215.260606 
L 364.637253 215.260606 
L 364.637253 215.260606 
L 365.065556 303.381818 
L 365.369918 303.381818 
L 365.369918 303.381818 
L 365.369918 215.260606 
L 366.369566 215.260606 
L 366.369566 215.260606 
L 367.640207 303.381818 
L 367.640207 215.260606 
L 368.249929 215.260606 
L 369.683597 303.381818 
L 369.683597 303.381818 
L 369.683597 215.260606 
L 370.807416 215.260606 
L 370.807416 215.260606 
L 371.169342 303.381818 
L 371.709054 303.381818 
L 371.709054 303.381818 
L 371.709054 215.260606 
L 373.38385 215.260606 
L 373.38385 215.260606 
L 373.453802 303.381818 
L 373.453802 215.260606 
L 374.149127 303.381818 
L 374.149127 303.381818 
L 374.149127 215.260606 
L 374.149127 215.260606 
L 375.370282 215.260606 
L 375.370282 215.260606 
L 375.595447 303.381818 
L 375.595447 215.260606 
L 376.507416 303.381818 
L 376.507416 303.381818 
L 376.507416 215.260606 
L 376.507416 215.260606 
L 377.54951 303.381818 
L 377.54951 215.260606 
L 378.772807 215.260606 
L 378.772807 215.260606 
L 379.573482 303.381818 
L 379.573482 215.260606 
L 380.9522 215.260606 
L 380.9522 215.260606 
L 381.73038 303.381818 
L 381.73038 215.260606 
L 381.839411 215.260606 
L 382.723857 215.260606 
L 382.723857 215.260606 
L 382.785644 303.381818 
L 382.785644 215.260606 
L 384.383283 215.260606 
L 384.383283 215.260606 
L 384.530164 303.381818 
L 384.530164 215.260606 
L 386.428947 215.260606 
L 386.428947 215.260606 
L 386.612794 303.381818 
L 387.04241 303.381818 
L 387.04241 303.381818 
L 387.04241 215.260606 
L 387.10133 215.260606 
L 387.527099 215.260606 
L 387.8616 303.381818 
L 388.456756 303.381818 
L 388.456756 303.381818 
L 388.456756 215.260606 
L 388.696454 303.381818 
L 388.696454 303.381818 
L 388.696454 215.260606 
L 388.696454 215.260606 
L 389.501326 215.260606 
L 389.501326 215.260606 
L 390.314372 303.381818 
L 390.314372 215.260606 
L 392.091055 215.260606 
L 392.091055 215.260606 
L 392.236432 303.381818 
L 392.236432 215.260606 
L 393.93306 215.260606 
L 393.93306 215.260606 
L 394.092351 303.381818 
L 394.092351 215.260606 
L 395.009501 215.260606 
L 395.009501 215.260606 
L 395.577882 303.381818 
L 395.577882 215.260606 
L 395.828176 215.260606 
L 395.828176 215.260606 
L 397.088149 303.381818 
L 397.088149 215.260606 
L 397.633073 215.260606 
L 397.633073 215.260606 
L 398.963857 303.381818 
L 398.963857 215.260606 
L 400.220042 215.260606 
L 400.220042 215.260606 
L 400.523172 303.381818 
L 406.733957 303.381818 
L 406.733957 303.381818 
L 406.733957 215.260606 
L 407.399184 215.260606 
L 407.399184 215.260606 
L 407.619737 303.381818 
L 409.13313 303.381818 
L 409.13313 303.381818 
L 409.13313 215.260606 
L 409.149613 215.260606 
L 410.23662 303.381818 
L 410.23662 215.260606 
L 411.906028 215.260606 
L 411.906028 215.260606 
L 412.183169 303.381818 
L 413.546799 303.381818 
L 413.546799 303.381818 
L 413.546799 215.260606 
L 414.540176 215.260606 
L 414.540176 215.260606 
L 415.399269 303.381818 
L 415.399269 215.260606 
L 416.897441 303.381818 
L 419.788229 303.381818 
L 419.788229 303.381818 
L 419.788229 215.260606 
L 420.04393 215.260606 
L 420.04393 215.260606 
L 420.340675 303.381818 
L 420.340675 303.381818 
L 420.340675 215.260606 
L 420.340675 215.260606 
L 422.020857 215.260606 
L 422.020857 215.260606 
L 422.688093 303.381818 
L 422.688093 215.260606 
L 423.380356 215.260606 
L 423.380356 215.260606 
L 424.58866 303.381818 
L 424.58866 215.260606 
L 425.259289 215.260606 
L 425.259289 215.260606 
L 426.064237 303.381818 
L 426.064237 215.260606 
L 427.450181 215.260606 
L 427.450181 215.260606 
L 427.569196 303.381818 
L 427.569196 215.260606 
L 427.662623 215.260606 
L 428.597386 215.260606 
L 428.597386 215.260606 
L 428.873154 303.381818 
L 428.873154 215.260606 
L 430.819754 303.381818 
L 430.819754 215.260606 
L 431.63932 215.260606 
L 431.63932 215.260606 
L 432.003468 303.381818 
L 433.956779 303.381818 
L 433.956779 303.381818 
L 433.956779 215.260606 
L 434.436786 215.260606 
L 434.436786 215.260606 
L 435.183577 303.381818 
L 441.266213 303.381818 
L 441.266213 303.381818 
L 441.266213 215.260606 
L 443.006574 215.260606 
L 443.006574 215.260606 
L 443.105208 303.381818 
L 443.496887 303.381818 
L 443.496887 303.381818 
L 443.496887 215.260606 
L 445.18853 215.260606 
L 445.18853 215.260606 
L 446.270109 303.381818 
L 446.270109 215.260606 
L 446.993681 303.381818 
L 446.993681 303.381818 
L 446.993681 215.260606 
L 446.993681 215.260606 
L 448.589608 215.260606 
L 448.589608 215.260606 
L 448.649536 303.381818 
L 448.649536 215.260606 
L 450.398059 303.381818 
L 450.398059 215.260606 
L 452.749149 215.260606 
L 452.749149 215.260606 
L 453.11884 303.381818 
L 453.11884 215.260606 
L 454.363145 215.260606 
L 454.363145 215.260606 
L 454.388085 303.381818 
L 454.388085 215.260606 
L 455.51137 215.260606 
L 455.51137 215.260606 
L 455.942841 303.381818 
L 462.836746 303.381818 
L 462.836746 303.381818 
L 462.836746 215.260606 
L 464.423019 303.381818 
L 464.759406 303.381818 
L 464.759406 303.381818 
L 464.759406 215.260606 
L 468.459203 215.260606 
L 468.459203 215.260606 
L 468.480664 303.381818 
L 468.480664 215.260606 
L 470.158379 215.260606 
L 470.158379 215.260606 
L 470.231986 303.381818 
L 470.231986 215.260606 
L 471.11621 303.381818 
L 471.11621 303.381818 
L 471.11621 215.260606 
L 471.11621 215.260606 
L 471.344089 215.260606 
L 471.344089 215.260606 
L 473.81621 303.381818 
L 473.81621 215.260606 
L 474.581189 215.260606 
L 474.581189 215.260606 
L 474.592493 303.381818 
L 474.592493 215.260606 
L 475.873372 215.260606 
L 475.873372 215.260606 
L 477.091465 303.381818 
L 477.091465 215.260606 
L 477.725482 215.260606 
L 477.725482 215.260606 
L 478.453131 303.381818 
L 478.453131 215.260606 
L 479.610021 215.260606 
L 479.610021 215.260606 
L 480.046038 303.381818 
L 480.046038 215.260606 
L 480.420956 215.260606 
L 480.420956 215.260606 
L 481.278336 303.381818 
L 481.278336 215.260606 
L 482.623301 215.260606 
L 482.623301 215.260606 
L 483.796475 303.381818 
L 483.796475 215.260606 
L 483.829231 215.260606 
L 485.208965 215.260606 
L 485.208965 215.260606 
L 485.265646 303.381818 
L 485.265646 215.260606 
L 487.151873 215.260606 
L 487.151873 215.260606 
L 487.395286 303.381818 
L 489.183597 303.381818 
L 489.183597 303.381818 
L 489.183597 215.260606 
L 490.230627 215.260606 
L 490.36502 303.381818 
L 491.334147 303.381818 
L 491.334147 303.381818 
L 491.334147 215.260606 
L 492.620728 215.260606 
L 492.620728 215.260606 
L 492.80411 303.381818 
L 492.80411 215.260606 
L 493.25399 215.260606 
L 494.196122 303.381818 
L 495.933062 303.381818 
L 495.933062 303.381818 
L 495.933062 215.260606 
L 496.018984 215.260606 
L 497.388632 215.260606 
L 497.388632 215.260606 
L 497.995434 303.381818 
L 498.589153 303.381818 
L 498.589153 303.381818 
L 498.589153 215.260606 
L 498.589153 215.260606 
L 499.814677 215.260606 
L 499.814677 215.260606 
L 500.049359 303.381818 
L 500.049359 215.260606 
L 502.314476 215.260606 
L 502.314476 215.260606 
L 502.443548 303.381818 
L 502.443548 215.260606 
L 503.057356 215.260606 
L 503.057356 215.260606 
L 504.22303 303.381818 
L 504.22303 215.260606 
L 504.340088 303.381818 
L 504.340088 303.381818 
L 504.340088 215.260606 
L 504.340088 215.260606 
L 505.232326 215.260606 
L 505.232326 215.260606 
L 506.069159 303.381818 
L 506.069159 215.260606 
L 506.165403 215.260606 
L 507.064905 215.260606 
L 507.064905 215.260606 
L 507.988993 303.381818 
L 507.988993 215.260606 
L 508.328449 303.381818 
L 508.328449 303.381818 
L 508.328449 215.260606 
L 508.328449 215.260606 
L 510.185264 303.381818 
L 510.185264 215.260606 
L 512.210412 215.260606 
L 512.210412 215.260606 
L 512.494371 303.381818 
L 512.494371 215.260606 
L 513.357847 215.260606 
L 513.877031 303.381818 
L 513.877031 303.381818 
L 514.869188 303.381818 
L 514.869188 303.381818 
L 514.869188 215.260606 
L 516.264547 303.381818 
L 516.264547 303.381818 
L 516.264547 215.260606 
L 516.273948 215.260606 
L 517.340427 215.260606 
L 517.340427 215.260606 
L 518.083177 303.381818 
L 518.083177 215.260606 
L 518.321054 215.260606 
L 518.321054 215.260606 
L 519.229488 303.381818 
L 519.229488 215.260606 
L 519.276208 215.260606 
L 520.26265 215.260606 
L 520.26265 215.260606 
L 520.357047 303.381818 
L 520.357047 215.260606 
L 521.634264 215.260606 
L 521.634264 215.260606 
L 521.686206 303.381818 
L 521.686206 215.260606 
L 523.572814 215.260606 
L 523.572814 215.260606 
L 523.807755 303.381818 
L 523.807755 215.260606 
L 527.471618 215.260606 
L 527.471618 215.260606 
L 527.514222 303.381818 
L 531.898233 303.381818 
L 531.898233 303.381818 
L 531.898233 215.260606 
L 532.794929 215.260606 
L 532.794929 215.260606 
L 532.971799 303.381818 
L 532.971799 215.260606 
L 533.876576 215.260606 
L 533.876576 215.260606 
L 534.568274 303.381818 
L 535.509419 303.381818 
L 535.509419 303.381818 
L 535.509419 215.260606 
L 537.076104 215.260606 
L 537.076104 215.260606 
L 537.436706 303.381818 
L 537.436706 215.260606 
L 539.038892 215.260606 
L 539.038892 215.260606 
L 539.501911 303.381818 
L 539.501911 215.260606 
L 541.710227 303.381818 
L 541.710227 303.381818 
" clip-path="url(#p1862695ca9)" style="fill: none; stroke: #16a34a; stroke-width: 1.5; stroke-linecap: square"/>
   </g>
   <g id="line2d_16">
    <path d="M 71.914773 303.381818 
L 86.332024 303.381818 
L 86.332024 303.381818 
L 86.332024 215.260606 
L 88.474656 215.260606 
L 88.474656 215.260606 
L 88.474656 127.139394 
L 88.661259 127.139394 
L 88.661259 127.139394 
L 88.745407 215.260606 
L 90.236717 215.260606 
L 90.310358 303.381818 
L 103.188063 303.381818 
L 103.188063 303.381818 
L 103.188063 215.260606 
L 105.277545 215.260606 
L 105.277545 215.260606 
L 105.280906 303.381818 
L 105.398874 303.381818 
L 105.398874 303.381818 
L 105.398874 215.260606 
L 107.811614 215.260606 
L 107.811614 215.260606 
L 108.49657 303.381818 
L 113.204503 303.381818 
L 113.204503 303.381818 
L 113.204503 215.260606 
L 114.115182 215.260606 
L 114.115182 215.260606 
L 114.115182 127.139394 
L 114.834254 215.260606 
L 117.535524 215.260606 
L 117.535524 215.260606 
L 117.535524 127.139394 
L 120.192161 127.139394 
L 120.192161 127.139394 
L 120.429552 215.260606 
L 122.052224 215.260606 
L 122.052224 215.260606 
L 122.058243 303.381818 
L 131.047934 303.381818 
L 131.047934 303.381818 
L 131.047934 215.260606 
L 134.1435 215.260606 
L 134.1435 215.260606 
L 134.1435 127.139394 
L 134.191263 215.260606 
L 134.750967 215.260606 
L 134.750967 215.260606 
L 134.750967 127.139394 
L 135.036688 127.139394 
L 135.036688 127.139394 
L 135.846007 215.260606 
L 136.572098 215.260606 
L 136.572098 215.260606 
L 137.454951 303.381818 
L 153.934643 303.381818 
L 153.934643 303.381818 
L 153.934643 215.260606 
L 155.299407 215.260606 
L 155.299407 215.260606 
L 155.583172 303.381818 
L 156.439703 303.381818 
L 156.439703 303.381818 
L 156.439703 215.260606 
L 158.268866 215.260606 
L 158.268866 215.260606 
L 158.268866 127.139394 
L 158.584054 127.139394 
L 158.584054 127.139394 
L 158.742304 215.260606 
L 160.123753 215.260606 
L 160.123753 215.260606 
L 160.524526 303.381818 
L 174.020602 303.381818 
L 174.020602 303.381818 
L 174.020602 215.260606 
L 176.997002 215.260606 
L 176.997002 215.260606 
L 176.997002 127.139394 
L 178.220269 127.139394 
L 178.220269 127.139394 
L 178.818244 215.260606 
L 179.385208 215.260606 
L 179.385208 215.260606 
L 179.385208 127.139394 
L 181.43794 127.139394 
L 181.43794 127.139394 
L 181.43794 39.018182 
L 183.237415 39.018182 
L 183.237415 39.018182 
L 183.521291 127.139394 
L 184.420744 127.139394 
L 184.420744 127.139394 
L 184.699788 215.260606 
L 191.712136 215.260606 
L 191.712136 215.260606 
L 191.731059 303.381818 
L 202.714475 303.381818 
L 202.714475 303.381818 
L 202.714475 215.260606 
L 202.931012 215.260606 
L 202.931012 215.260606 
L 202.931012 127.139394 
L 206.350629 127.139394 
L 206.350629 127.139394 
L 206.489717 215.260606 
L 207.839812 215.260606 
L 207.839812 215.260606 
L 207.920478 303.381818 
L 220.609051 303.381818 
L 220.609051 303.381818 
L 220.609051 215.260606 
L 220.981723 215.260606 
L 220.981723 215.260606 
L 221.158769 303.381818 
L 221.158769 303.381818 
L 221.423843 303.381818 
L 221.423843 303.381818 
L 221.423843 215.260606 
L 222.809954 215.260606 
L 222.809954 215.260606 
L 223.061692 303.381818 
L 233.68506 303.381818 
L 233.68506 303.381818 
L 233.68506 215.260606 
L 233.743509 215.260606 
L 237.621865 215.260606 
L 237.621865 215.260606 
L 238.613606 303.381818 
L 245.32087 303.381818 
L 245.32087 303.381818 
L 245.32087 215.260606 
L 245.330665 215.260606 
L 246.593922 215.260606 
L 246.593922 215.260606 
L 246.593922 127.139394 
L 248.447268 127.139394 
L 248.447268 127.139394 
L 248.447268 39.018182 
L 250.041011 39.018182 
L 250.389119 127.139394 
L 250.389119 127.139394 
L 250.742681 215.260606 
L 251.795412 215.260606 
L 251.795412 215.260606 
L 253.255417 303.381818 
L 266.939458 303.381818 
L 266.939458 303.381818 
L 266.939458 215.260606 
L 267.082541 215.260606 
L 267.082541 215.260606 
L 267.082541 127.139394 
L 268.529342 127.139394 
L 268.529342 127.139394 
L 268.529342 39.018182 
L 268.901871 39.018182 
L 268.901871 39.018182 
L 269.826307 127.139394 
L 269.826307 127.139394 
L 271.299165 127.139394 
L 271.299165 127.139394 
L 271.518805 215.260606 
L 272.537237 303.381818 
L 294.11144 303.381818 
L 294.11144 303.381818 
L 294.11144 215.260606 
L 294.134919 215.260606 
L 294.970027 215.260606 
L 294.970027 215.260606 
L 294.970027 127.139394 
L 296.544726 127.139394 
L 296.544726 127.139394 
L 297.419595 215.260606 
L 297.858008 215.260606 
L 297.858008 215.260606 
L 298.36224 303.381818 
L 310.163611 303.381818 
L 310.163611 303.381818 
L 310.163611 215.260606 
L 311.57203 303.381818 
L 311.57203 303.381818 
L 313.026991 303.381818 
L 313.026991 303.381818 
L 313.026991 215.260606 
L 314.519338 215.260606 
L 314.519338 215.260606 
L 315.236924 303.381818 
L 315.853527 303.381818 
L 315.853527 303.381818 
L 315.853527 215.260606 
L 320.803273 215.260606 
L 320.803273 215.260606 
L 320.803273 127.139394 
L 322.962362 215.260606 
L 324.537556 215.260606 
L 325.903471 303.381818 
L 342.137675 303.381818 
L 342.137675 303.381818 
L 342.137675 215.260606 
L 342.752786 215.260606 
L 342.752786 215.260606 
L 342.752786 127.139394 
L 344.531232 127.139394 
L 344.531232 127.139394 
L 344.531232 39.018182 
L 345.711032 39.018182 
L 345.711032 39.018182 
L 346.289549 127.139394 
L 349.168151 127.139394 
L 349.168151 127.139394 
L 349.536815 215.260606 
L 352.993171 215.260606 
L 352.993171 215.260606 
L 353.393534 303.381818 
L 359.834892 303.381818 
L 359.834892 303.381818 
L 359.834892 215.260606 
L 361.885537 215.260606 
L 361.885537 215.260606 
L 361.885537 127.139394 
L 367.640207 127.139394 
L 367.640207 127.139394 
L 368.249929 215.260606 
L 369.683597 215.260606 
L 369.683597 215.260606 
L 370.52144 303.381818 
L 383.96449 303.381818 
L 383.96449 303.381818 
L 383.96449 215.260606 
L 384.383283 215.260606 
L 384.383283 215.260606 
L 384.383283 127.139394 
L 385.343237 127.139394 
L 385.343237 127.139394 
L 385.343237 39.018182 
L 387.04241 39.018182 
L 387.04241 39.018182 
L 387.10133 127.139394 
L 387.527099 215.260606 
L 390.651671 215.260606 
L 390.651671 215.260606 
L 390.820084 303.381818 
L 390.820084 303.381818 
L 401.302055 303.381818 
L 401.302055 303.381818 
L 401.302055 215.260606 
L 402.321419 303.381818 
L 403.65954 303.381818 
L 403.65954 303.381818 
L 403.65954 215.260606 
L 405.566984 215.260606 
L 405.566984 215.260606 
L 406.487551 303.381818 
L 406.487551 303.381818 
L 406.487551 215.260606 
L 412.139946 215.260606 
L 412.183169 303.381818 
L 433.52452 303.381818 
L 433.52452 303.381818 
L 433.52452 215.260606 
L 435.778224 215.260606 
L 435.778224 215.260606 
L 435.778224 127.139394 
L 439.475849 303.381818 
L 453.509534 303.381818 
L 453.509534 303.381818 
L 453.509534 215.260606 
L 454.388085 215.260606 
L 454.388085 215.260606 
L 455.101559 303.381818 
L 455.51137 303.381818 
L 455.51137 303.381818 
L 455.51137 215.260606 
L 455.942841 215.260606 
L 456.916553 303.381818 
L 459.089659 303.381818 
L 459.089659 303.381818 
L 459.089659 215.260606 
L 459.323452 215.260606 
L 459.323452 215.260606 
L 459.776208 303.381818 
L 460.484914 303.381818 
L 460.484914 303.381818 
L 460.484914 215.260606 
L 465.654158 215.260606 
L 465.654158 215.260606 
L 465.743055 303.381818 
L 484.925733 303.381818 
L 484.925733 303.381818 
L 484.925733 215.260606 
L 486.311561 215.260606 
L 486.311561 215.260606 
L 486.311561 127.139394 
L 488.781625 127.139394 
L 488.781625 127.139394 
L 488.781625 39.018182 
L 490.151101 39.018182 
L 490.151101 39.018182 
L 490.230627 127.139394 
L 492.80411 127.139394 
L 492.80411 127.139394 
L 493.25399 303.381818 
L 502.262399 303.381818 
L 502.262399 303.381818 
L 502.262399 215.260606 
L 502.314476 215.260606 
L 503.057356 215.260606 
L 503.057356 215.260606 
L 503.057356 127.139394 
L 506.069159 127.139394 
L 506.069159 127.139394 
L 506.165403 215.260606 
L 506.165403 215.260606 
L 506.420211 215.260606 
L 506.420211 215.260606 
L 506.427476 303.381818 
L 512.210412 303.381818 
L 512.210412 303.381818 
L 512.210412 215.260606 
L 512.494371 215.260606 
L 512.494371 215.260606 
L 513.357847 303.381818 
L 523.572814 303.381818 
L 523.572814 303.381818 
L 523.572814 215.260606 
L 525.419311 215.260606 
L 525.419311 215.260606 
L 525.419311 127.139394 
L 525.84365 215.260606 
L 527.471618 215.260606 
L 527.471618 215.260606 
L 527.471618 127.139394 
L 527.514222 127.139394 
L 527.796393 215.260606 
L 528.104578 215.260606 
L 528.104578 215.260606 
L 528.104578 127.139394 
L 529.942496 215.260606 
L 532.971799 215.260606 
L 532.971799 215.260606 
L 533.165245 303.381818 
L 541.710227 303.381818 
L 541.710227 303.381818 
" clip-path="url(#p1862695ca9)" style="fill: none; stroke: #f59e0b; stroke-width: 1.5; stroke-linecap: square"/>
   </g>
   <g id="patch_3">
    <path d="M 48.425 316.6 
L 48.425 25.8 
" style="fill: none; stroke: #000000; stroke-width: 0.8; stroke-linejoin: miter; stroke-linecap: square"/>
   </g>
   <g id="patch_4">
    <path d="M 565.2 316.6 
L 565.2 25.8 
" style="fill: none; stroke: #000000; stroke-width: 0.8; stroke-linejoin: miter; stroke-linecap: square"/>
   </g>
   <g id="patch_5">
    <path d="M 48.425 316.6 
L 565.2 316.6 
" style="fill: none; stroke: #000000; stroke-width: 0.8; stroke-linejoin: miter; stroke-linecap: square"/>
   </g>
   <g id="patch_6">
    <path d="M 48.425 25.8 
L 565.2 25.8 
" style="fill: none; stroke: #000000; stroke-width: 0.8; stroke-linejoin: miter; stroke-linecap: square"/>
   </g>
   <g id="text_16">
    <!-- Resource In-Use Over Time (DOCTOR: avg=0.51, med=0.00; MRI: avg=0.71, med=1.00; BED: avg=0.48, med=0.00) -->
    <g transform="translate(-45.167188 19.8) scale(0.12 -0.12)">
     <defs>
      <path id="DejaVuSans-52" d="M 2841 2188 
Q 3044 2119 3236 1894 
Q 3428 1669 3622 1275 
L 4263 0 
L 3584 0 
L 2988 1197 
Q 2756 1666 2539 1819 
Q 2322 1972 1947 1972 
L 1259 1972 
L 1259 0 
L 628 0 
L 628 4666 
L 2053 4666 
Q 2853 4666 3247 4331 
Q 3641 3997 3641 3322 
Q 3641 2881 3436 2590 
Q 3231 2300 2841 2188 
z
M 1259 4147 
L 1259 2491 
L 2053 2491 
Q 2509 2491 2742 2702 
Q 2975 2913 2975 3322 
Q 2975 3731 2742 3939 
Q 2509 4147 2053 4147 
L 1259 4147 
z
" transform="scale(0.015625)"/>
      <path id="DejaVuSans-6f" d="M 1959 3097 
Q 1497 3097 1228 2736 
Q 959 2375 959 1747 
Q 959 1119 1226 758 
Q 1494 397 1959 397 
Q 2419 397 2687 759 
Q 2956 1122 2956 1747 
Q 2956 2369 2687 2733 
Q 2419 3097 1959 3097 
z
M 1959 3584 
Q 2709 3584 3137 3096 
Q 3566 2609 3566 1747 
Q 3566 888 3137 398 
Q 2709 -91 1959 -91 
Q 1206 -91 779 398 
Q 353 888 353 1747 
Q 353 2609 779 3096 
Q 1206 3584 1959 3584 
z
" transform="scale(0.015625)"/>
      <path id="DejaVuSans-72" d="M 2631 2963 
Q 2534 3019 2420 3045 
Q 2306 3072 2169 3072 
Q 1681 3072 1420 2755 
Q 1159 2438 1159 1844 
L 1159 0 
L 581 0 
L 581 3500 
L 1159 3500 
L 1159 2956 
Q 1341 3275 1631 3429 
Q 1922 3584 2338 3584 
Q 2397 3584 2469 3576 
Q 2541 3569 2628 3553 
L 2631 2963 
z
" transform="scale(0.015625)"/>
      <path id="DejaVuSans-63" d="M 3122 3366 
L 3122 2828 
Q 2878 2963 2633 3030 
Q 2388 3097 2138 3097 
Q 1578 3097 1268 2742 
Q 959 2388 959 1747 
Q 959 1106 1268 751 
Q 1578 397 2138 397 
Q 2388 397 2633 464 
Q 2878 531 3122 666 
L 3122 134 
Q 2881 22 2623 -34 
Q 2366 -91 2075 -91 
Q 1284 -91 818 406 
Q 353 903 353 1747 
Q 353 2603 823 3093 
Q 1294 3584 2113 3584 
Q 2378 3584 2631 3529 
Q 2884 3475 3122 3366 
z
" transform="scale(0.015625)"/>
      <path id="DejaVuSans-49" d="M 628 4666 
L 1259 4666 
L 1259 0 
L 628 0 
L 628 4666 
z
" transform="scale(0.015625)"/>
      <path id="DejaVuSans-2d" d="M 313 2009 
L 1997 2009 
L 1997 1497 
L 313 1497 
L 313 2009 
z
" transform="scale(0.015625)"/>
      <path id="DejaVuSans-55" d="M 556 4666 
L 1191 4666 
L 1191 1831 
Q 1191 1081 1462 751 
Q 1734 422 2344 422 
Q 2950 422 3222 751 
Q 3494 1081 3494 1831 
L 3494 4666 
L 4128 4666 
L 4128 1753 
Q 4128 841 3676 375 
Q 3225 -91 2344 -91 
Q 1459 -91 1007 375 
Q 556 841 556 1753 
L 556 4666 
z
" transform="scale(0.015625)"/>
      <path id="DejaVuSans-4f" d="M 2522 4238 
Q 1834 4238 1429 3725 
Q 1025 3213 1025 2328 
Q 1025 1447 1429 934 
Q 1834 422 2522 422 
Q 3209 422 3611 934 
Q 4013 1447 4013 2328 
Q 4013 3213 3611 3725 
Q 3209 4238 2522 4238 
z
M 2522 4750 
Q 3503 4750 4090 4092 
Q 4678 3434 4678 2328 
Q 4678 1225 4090 567 
Q 3503 -91 2522 -91 
Q 1538 -91 948 565 
Q 359 1222 359 2328 
Q 359 3434 948 4092 
Q 1538 4750 2522 4750 
z
" transform="scale(0.015625)"/>
      <path id="DejaVuSans-76" d="M 191 3500 
L 800 3500 
L 1894 563 
L 2988 3500 
L 3597 3500 
L 2284 0 
L 1503 0 
L 191 3500 
z
" transform="scale(0.015625)"/>
      <path id="DejaVuSans-54" d="M -19 4666 
L 3928 4666 
L 3928 4134 
L 2272 4134 
L 2272 0 
L 1638 0 
L 1638 4134 
L -19 4134 
L -19 4666 
z
" transform="scale(0.015625)"/>
      <path id="DejaVuSans-28" d="M 1984 4856 
Q 1566 4138 1362 3434 
Q 1159 2731 1159 2009 
Q 1159 1288 1364 580 
Q 1569 -128 1984 -844 
L 1484 -844 
Q 1016 -109 783 600 
Q 550 1309 550 2009 
Q 550 2706 781 3412 
Q 1013 4119 1484 4856 
L 1984 4856 
z
" transform="scale(0.015625)"/>
      <path id="DejaVuSans-44" d="M 1259 4147 
L 1259 519 
L 2022 519 
Q 2988 519 3436 956 
Q 3884 1394 3884 2338 
Q 3884 3275 3436 3711 
Q 2988 4147 2022 4147 
L 1259 4147 
z
M 628 4666 
L 1925 4666 
Q 3281 4666 3915 4102 
Q 4550 3538 4550 2338 
Q 4550 1131 3912 565 
Q 3275 0 1925 0 
L 628 0 
L 628 4666 
z
" transform="scale(0.015625)"/>
      <path id="DejaVuSans-43" d="M 4122 4306 
L 4122 3641 
Q 3803 3938 3442 4084 
Q 3081 4231 2675 4231 
Q 1875 4231 1450 3742 
Q 1025 3253 1025 2328 
Q 1025 1406 1450 917 
Q 1875 428 2675 428 
Q 3081 428 3442 575 
Q 3803 722 4122 1019 
L 4122 359 
Q 3791 134 3420 21 
Q 3050 -91 2638 -91 
Q 1578 -91 968 557 
Q 359 1206 359 2328 
Q 359 3453 968 4101 
Q 1578 4750 2638 4750 
Q 3056 4750 3426 4639 
Q 3797 4528 4122 4306 
z
" transform="scale(0.015625)"/>
      <path id="DejaVuSans-3a" d="M 750 794 
L 1409 794 
L 1409 0 
L 750 0 
L 750 794 
z
M 750 3309 
L 1409 3309 
L 1409 2516 
L 750 2516 
L 750 3309 
z
" transform="scale(0.015625)"/>
      <path id="DejaVuSans-61" d="M 2194 1759 
Q 1497 1759 1228 1600 
Q 959 1441 959 1056 
Q 959 750 1161 570 
Q 1363 391 1709 391 
Q 2188 391 2477 730 
Q 2766 1069 2766 1631 
L 2766 1759 
L 2194 1759 
z
M 3341 1997 
L 3341 0 
L 2766 0 
L 2766 531 
Q 2569 213 2275 61 
Q 1981 -91 1556 -91 
Q 1019 -91 701 211 
Q 384 513 384 1019 
Q 384 1609 779 1909 
Q 1175 2209 1959 2209 
L 2766 2209 
L 2766 2266 
Q 2766 2663 2505 2880 
Q 2244 3097 1772 3097 
Q 1472 3097 1187 3025 
Q 903 2953 641 2809 
L 641 3341 
Q 956 3463 1253 3523 
Q 1550 3584 1831 3584 
Q 2591 3584 2966 3190 
Q 3341 2797 3341 1997 
z
" transform="scale(0.015625)"/>
      <path id="DejaVuSans-67" d="M 2906 1791 
Q 2906 2416 2648 2759 
Q 2391 3103 1925 3103 
Q 1463 3103 1205 2759 
Q 947 2416 947 1791 
Q 947 1169 1205 825 
Q 1463 481 1925 481 
Q 2391 481 2648 825 
Q 2906 1169 2906 1791 
z
M 3481 434 
Q 3481 -459 3084 -895 
Q 2688 -1331 1869 -1331 
Q 1566 -1331 1297 -1286 
Q 1028 -1241 775 -1147 
L 775 -588 
Q 1028 -725 1275 -790 
Q 1522 -856 1778 -856 
Q 2344 -856 2625 -561 
Q 2906 -266 2906 331 
L 2906 616 
Q 2728 306 2450 153 
Q 2172 0 1784 0 
Q 1141 0 747 490 
Q 353 981 353 1791 
Q 353 2603 747 3093 
Q 1141 3584 1784 3584 
Q 2172 3584 2450 3431 
Q 2728 3278 2906 2969 
L 2906 3500 
L 3481 3500 
L 3481 434 
z
" transform="scale(0.015625)"/>
      <path id="DejaVuSans-3d" d="M 678 2906 
L 4684 2906 
L 4684 2381 
L 678 2381 
L 678 2906 
z
M 678 1631 
L 4684 1631 
L 4684 1100 
L 678 1100 
L 678 1631 
z
" transform="scale(0.015625)"/>
      <path id="DejaVuSans-2c" d="M 750 794 
L 1409 794 
L 1409 256 
L 897 -744 
L 494 -744 
L 750 256 
L 750 794 
z
" transform="scale(0.015625)"/>
      <path id="DejaVuSans-64" d="M 2906 2969 
L 2906 4863 
L 3481 4863 
L 3481 0 
L 2906 0 
L 2906 525 
Q 2725 213 2448 61 
Q 2172 -91 1784 -91 
Q 1150 -91 751 415 
Q 353 922 353 1747 
Q 353 2572 751 3078 
Q 1150 3584 1784 3584 
Q 2172 3584 2448 3432 
Q 2725 3281 2906 2969 
z
M 947 1747 
Q 947 1113 1208 752 
Q 1469 391 1925 391 
Q 2381 391 2643 752 
Q 2906 1113 2906 1747 
Q 2906 2381 2643 2742 
Q 2381 3103 1925 3103 
Q 1469 3103 1208 2742 
Q 947 2381 947 1747 
z
" transform="scale(0.015625)"/>
      <path id="DejaVuSans-3b" d="M 750 3309 
L 1409 3309 
L 1409 2516 
L 750 2516 
L 750 3309 
z
M 750 794 
L 1409 794 
L 1409 256 
L 897 -744 
L 494 -744 
L 750 256 
L 750 794 
z
" transform="scale(0.015625)"/>
      <path id="DejaVuSans-4d" d="M 628 4666 
L 1569 4666 
L 2759 1491 
L 3956 4666 
L 4897 4666 
L 4897 0 
L 4281 0 
L 4281 4097 
L 3078 897 
L 2444 897 
L 1241 4097 
L 1241 0 
L 628 0 
L 628 4666 
z
" transform="scale(0.015625)"/>
      <path id="DejaVuSans-37" d="M 525 4666 
L 3525 4666 
L 3525 4397 
L 1831 0 
L 1172 0 
L 2766 4134 
L 525 4134 
L 525 4666 
z
" transform="scale(0.015625)"/>
      <path id="DejaVuSans-42" d="M 1259 2228 
L 1259 519 
L 2272 519 
Q 2781 519 3026 730 
Q 3272 941 3272 1375 
Q 3272 1813 3026 2020 
Q 2781 2228 2272 2228 
L 1259 2228 
z
M 1259 4147 
L 1259 2741 
L 2194 2741 
Q 2656 2741 2882 2914 
Q 3109 3088 3109 3444 
Q 3109 3797 2882 3972 
Q 2656 4147 2194 4147 
L 1259 4147 
z
M 628 4666 
L 2241 4666 
Q 2963 4666 3353 4366 
Q 3744 4066 3744 3513 
Q 3744 3084 3544 2831 
Q 3344 2578 2956 2516 
Q 3422 2416 3680 2098 
Q 3938 1781 3938 1306 
Q 3938 681 3513 340 
Q 3088 0 2303 0 
L 628 0 
L 628 4666 
z
" transform="scale(0.015625)"/>
      <path id="DejaVuSans-45" d="M 628 4666 
L 3578 4666 
L 3578 4134 
L 1259 4134 
L 1259 2753 
L 3481 2753 
L 3481 2222 
L 1259 2222 
L 1259 531 
L 3634 531 
L 3634 0 
L 628 0 
L 628 4666 
z
" transform="scale(0.015625)"/>
      <path id="DejaVuSans-29" d="M 513 4856 
L 1013 4856 
Q 1481 4119 1714 3412 
Q 1947 2706 1947 2009 
Q 1947 1309 1714 600 
Q 1481 -109 1013 -844 
L 513 -844 
Q 928 -128 1133 580 
Q 1338 1288 1338 2009 
Q 1338 2731 1133 3434 
Q 928 4138 513 4856 
z
" transform="scale(0.015625)"/>
     </defs>
     <use xlink:href="#DejaVuSans-52"/>
     <use xlink:href="#DejaVuSans-65" x="64.982422"/>
     <use xlink:href="#DejaVuSans-73" x="126.505859"/>
     <use xlink:href="#DejaVuSans-6f" x="178.605469"/>
     <use xlink:href="#DejaVuSans-75" x="239.787109"/>
     <use xlink:href="#DejaVuSans-72" x="303.166016"/>
     <use xlink:href="#DejaVuSans-63" x="342.029297"/>
     <use xlink:href="#DejaVuSans-65" x="397.009766"/>
     <use xlink:href="#DejaVuSans-20" x="458.533203"/>
     <use xlink:href="#DejaVuSans-49" x="490.320312"/>
     <use xlink:href="#DejaVuSans-6e" x="519.8125"/>
     <use xlink:href="#DejaVuSans-2d" x="583.191406"/>
     <use xlink:href="#DejaVuSans-55" x="619.275391"/>
     <use xlink:href="#DejaVuSans-73" x="692.46875"/>
     <use xlink:href="#DejaVuSans-65" x="744.568359"/>
     <use xlink:href="#DejaVuSans-20" x="806.091797"/>
     <use xlink:href="#DejaVuSans-4f" x="837.878906"/>
     <use xlink:href="#DejaVuSans-76" x="916.589844"/>
     <use xlink:href="#DejaVuSans-65" x="975.769531"/>
     <use xlink:href="#DejaVuSans-72" x="1037.292969"/>
     <use xlink:href="#DejaVuSans-20" x="1078.40625"/>
     <use xlink:href="#DejaVuSans-54" x="1110.193359"/>
     <use xlink:href="#DejaVuSans-69" x="1168.152344"/>
     <use xlink:href="#DejaVuSans-6d" x="1195.935547"/>
     <use xlink:href="#DejaVuSans-65" x="1293.347656"/>
     <use xlink:href="#DejaVuSans-20" x="1354.871094"/>
     <use xlink:href="#DejaVuSans-28" x="1386.658203"/>
     <use xlink:href="#DejaVuSans-44" x="1425.671875"/>
     <use xlink:href="#DejaVuSans-4f" x="1502.673828"/>
     <use xlink:href="#DejaVuSans-43" x="1581.384766"/>
     <use xlink:href="#DejaVuSans-54" x="1651.208984"/>
     <use xlink:href="#DejaVuSans-4f" x="1712.292969"/>
     <use xlink:href="#DejaVuSans-52" x="1791.003906"/>
     <use xlink:href="#DejaVuSans-3a" x="1857.361328"/>
     <use xlink:href="#DejaVuSans-20" x="1891.052734"/>
     <use xlink:href="#DejaVuSans-61" x="1922.839844"/>
     <use xlink:href="#DejaVuSans-76" x="1984.119141"/>
     <use xlink:href="#DejaVuSans-67" x="2043.298828"/>
     <use xlink:href="#DejaVuSans-3d" x="2106.775391"/>
     <use xlink:href="#DejaVuSans-30" x="2190.564453"/>
     <use xlink:href="#DejaVuSans-2e" x="2254.1875"/>
     <use xlink:href="#DejaVuSans-35" x="2285.974609"/>
     <use xlink:href="#DejaVuSans-31" x="2349.597656"/>
     <use xlink:href="#DejaVuSans-2c" x="2413.220703"/>
     <use xlink:href="#DejaVuSans-20" x="2445.007812"/>
     <use xlink:href="#DejaVuSans-6d" x="2476.794922"/>
     <use xlink:href="#DejaVuSans-65" x="2574.207031"/>
     <use xlink:href="#DejaVuSans-64" x="2635.730469"/>
     <use xlink:href="#DejaVuSans-3d" x="2699.207031"/>
     <use xlink:href="#DejaVuSans-30" x="2782.996094"/>
     <use xlink:href="#DejaVuSans-2e" x="2846.619141"/>
     <use xlink:href="#DejaVuSans-30" x="2878.40625"/>
     <use xlink:href="#DejaVuSans-30" x="2942.029297"/>
     <use xlink:href="#DejaVuSans-3b" x="3005.652344"/>
     <use xlink:href="#DejaVuSans-20" x="3039.34375"/>
     <use xlink:href="#DejaVuSans-4d" x="3071.130859"/>
     <use xlink:href="#DejaVuSans-52" x="3157.410156"/>
     <use xlink:href="#DejaVuSans-49" x="3226.892578"/>
     <use xlink:href="#DejaVuSans-3a" x="3256.384766"/>
     <use xlink:href="#DejaVuSans-20" x="3290.076172"/>
     <use xlink:href="#DejaVuSans-61" x="3321.863281"/>
     <use xlink:href="#DejaVuSans-76" x="3383.142578"/>
     <use xlink:href="#DejaVuSans-67" x="3442.322266"/>
     <use xlink:href="#DejaVuSans-3d" x="3505.798828"/>
     <use xlink:href="#DejaVuSans-30" x="3589.587891"/>
     <use xlink:href="#DejaVuSans-2e" x="3653.210938"/>
     <use xlink:href="#DejaVuSans-37" x="3684.998047"/>
     <use xlink:href="#DejaVuSans-31" x="3748.621094"/>
     <use xlink:href="#DejaVuSans-2c" x="3812.244141"/>
     <use xlink:href="#DejaVuSans-20" x="3844.03125"/>
     <use xlink:href="#DejaVuSans-6d" x="3875.818359"/>
     <use xlink:href="#DejaVuSans-65" x="3973.230469"/>
     <use xlink:href="#DejaVuSans-64" x="4034.753906"/>
     <use xlink:href="#DejaVuSans-3d" x="4098.230469"/>
     <use xlink:href="#DejaVuSans-31" x="4182.019531"/>
     <use xlink:href="#DejaVuSans-2e" x="4245.642578"/>
     <use xlink:href="#DejaVuSans-30" x="4277.429688"/>
     <use xlink:href="#DejaVuSans-30" x="4341.052734"/>
     <use xlink:href="#DejaVuSans-3b" x="4404.675781"/>
     <use xlink:href="#DejaVuSans-20" x="4438.367188"/>
     <use xlink:href="#DejaVuSans-42" x="4470.154297"/>
     <use xlink:href="#DejaVuSans-45" x="4538.757812"/>
     <use xlink:href="#DejaVuSans-44" x="4601.941406"/>
     <use xlink:href="#DejaVuSans-3a" x="4678.943359"/>
     <use xlink:href="#DejaVuSans-20" x="4712.634766"/>
     <use xlink:href="#DejaVuSans-61" x="4744.421875"/>
     <use xlink:href="#DejaVuSans-76" x="4805.701172"/>
     <use xlink:href="#DejaVuSans-67" x="4864.880859"/>
     <use xlink:href="#DejaVuSans-3d" x="4928.357422"/>
     <use xlink:href="#DejaVuSans-30" x="5012.146484"/>
     <use xlink:href="#DejaVuSans-2e" x="5075.769531"/>
     <use xlink:href="#DejaVuSans-34" x="5107.556641"/>
     <use xlink:href="#DejaVuSans-38" x="5171.179688"/>
     <use xlink:href="#DejaVuSans-2c" x="5234.802734"/>
     <use xlink:href="#DejaVuSans-20" x="5266.589844"/>
     <use xlink:href="#DejaVuSans-6d" x="5298.376953"/>
     <use xlink:href="#DejaVuSans-65" x="5395.789062"/>
     <use xlink:href="#DejaVuSans-64" x="5457.3125"/>
     <use xlink:href="#DejaVuSans-3d" x="5520.789062"/>
     <use xlink:href="#DejaVuSans-30" x="5604.578125"/>
     <use xlink:href="#DejaVuSans-2e" x="5668.201172"/>
     <use xlink:href="#DejaVuSans-30" x="5699.988281"/>
     <use xlink:href="#DejaVuSans-30" x="5763.611328"/>
     <use xlink:href="#DejaVuSans-29" x="5827.234375"/>
    </g>
   </g>
   <g id="legend_1">
    <g id="patch_7">
     <path d="M 55.425 77.834375 
L 130.907813 77.834375 
Q 132.907813 77.834375 132.907813 75.834375 
L 132.907813 32.8 
Q 132.907813 30.8 130.907813 30.8 
L 55.425 30.8 
Q 53.425 30.8 53.425 32.8 
L 53.425 75.834375 
Q 53.425 77.834375 55.425 77.834375 
z
" style="fill: #ffffff; opacity: 0.8; stroke: #cccccc; stroke-linejoin: miter"/>
    </g>
    <g id="line2d_17">
     <path d="M 57.425 38.898438 
L 67.425 38.898438 
L 77.425 38.898438 
" style="fill: none; stroke: #2563eb; stroke-width: 1.5; stroke-linecap: square"/>
    </g>
    <g id="text_17">
     <!-- DOCTOR -->
     <g transform="translate(85.425 42.398438) scale(0.1 -0.1)">
      <use xlink:href="#DejaVuSans-44"/>
      <use xlink:href="#DejaVuSans-4f" x="77.001953"/>
      <use xlink:href="#DejaVuSans-43" x="155.712891"/>
      <use xlink:href="#DejaVuSans-54" x="225.537109"/>
      <use xlink:href="#DejaVuSans-4f" x="286.621094"/>
      <use xlink:href="#DejaVuSans-52" x="365.332031"/>
     </g>
    </g>
    <g id="line2d_18">
     <path d="M 57.425 53.576563 
L 67.425 53.576563 
L 77.425 53.576563 
" style="fill: none; stroke: #16a34a; stroke-width: 1.5; stroke-linecap: square"/>
    </g>
    <g id="text_18">
     <!-- MRI -->
     <g transform="translate(85.425 57.076563) scale(0.1 -0.1)">
      <use xlink:href="#DejaVuSans-4d"/>
      <use xlink:href="#DejaVuSans-52" x="86.279297"/>
      <use xlink:href="#DejaVuSans-49" x="155.761719"/>
     </g>
    </g>
    <g id="line2d_19">
     <path d="M 57.425 68.254687 
L 67.425 68.254687 
L 77.425 68.254687 
" style="fill: none; stroke: #f59e0b; stroke-width: 1.5; stroke-linecap: square"/>
    </g>
    <g id="text_19">
     <!-- BED -->
     <g transform="translate(85.425 71.754687) scale(0.1 -0.1)">
      <use xlink:href="#DejaVuSans-42"/>
      <use xlink:href="#DejaVuSans-45" x="68.603516"/>
      <use xlink:href="#DejaVuSans-44" x="131.787109"/>
     </g>
    </g>
   </g>
  </g>
 </g>
 <defs>
  <clipPath id="p1862695ca9">
   <rect x="48.425" y="25.8" width="516.775" height="290.8"/>
  </clipPath>
 </defs>
</svg>
