<?xml version="1.0" encoding="utf-8" standalone="no"?>
<!DOCTYPE svg PUBLIC "-//W3C//DTD SVG 1.1//EN"
  "http://www.w3.org/Graphics/SVG/1.1/DTD/svg11.dtd">
<svg xmlns:xlink="http://www.w3.org/1999/xlink" width="504pt" height="288pt" viewBox="0 0 504 288" xmlns="http://www.w3.org/2000/svg" version="1.1">
 <metadata>
  <rdf:RDF xmlns:dc="http://purl.org/dc/elements/1.1/" xmlns:cc="http://creativecommons.org/ns#" xmlns:rdf="http://www.w3.org/1999/02/22-rdf-syntax-ns#">
   <cc:Work>
    <dc:type rdf:resource="http://purl.org/dc/dcmitype/StillImage"/>
    <dc:date>2025-09-07T05:36:58.112358</dc:date>
    <dc:format>image/svg+xml</dc:format>
    <dc:creator>
     <cc:Agent>
      <dc:title>Matplotlib v3.9.2, https://matplotlib.org/</dc:title>
     </cc:Agent>
    </dc:creator>
   </cc:Work>
  </rdf:RDF>
 </metadata>
 <defs>
  <style type="text/css">*{stroke-linejoin: round; stroke-linecap: butt}</style>
 </defs>
 <g id="figure_1">
  <g id="patch_1">
   <path d="M 0 288 
L 504 288 
L 504 0 
L 0 0 
z
" style="fill: #ffffff"/>
  </g>
  <g id="axes_1">
   <g id="patch_2">
    <path d="M 38.975 244.6 
L 493.2 244.6 
L 493.2 25.8 
L 38.975 25.8 
z
" style="fill: #ffffff"/>
   </g>
   <g id="matplotlib.axis_1">
    <g id="xtick_1">
     <g id="line2d_1">
      <defs>
       <path id="me8ff1e395c" d="M 0 0 
L 0 3.5 
" style="stroke: #000000; stroke-width: 0.8"/>
      </defs>
      <g>
       <use xlink:href="#me8ff1e395c" x="57.868473" y="244.6" style="stroke: #000000; stroke-width: 0.8"/>
      </g>
     </g>
     <g id="text_1">
      <!-- 0 -->
      <g transform="translate(54.687223 259.198438) scale(0.1 -0.1)">
       <defs>
        <path id="DejaVuSans-30" d="M 2034 4250 
Q 1547 4250 1301 3770 
Q 1056 3291 1056 2328 
Q 1056 1369 1301 889 
Q 1547 409 2034 409 
Q 2525 409 2770 889 
Q 3016 1369 3016 2328 
Q 3016 3291 2770 3770 
Q 2525 4250 2034 4250 
z
M 2034 4750 
Q 2819 4750 3233 4129 
Q 3647 3509 3647 2328 
Q 3647 1150 3233 529 
Q 2819 -91 2034 -91 
Q 1250 -91 836 529 
Q 422 1150 422 2328 
Q 422 3509 836 4129 
Q 1250 4750 2034 4750 
z
" transform="scale(0.015625)"/>
       </defs>
       <use xlink:href="#DejaVuSans-30"/>
      </g>
     </g>
    </g>
    <g id="xtick_2">
     <g id="line2d_2">
      <g>
       <use xlink:href="#me8ff1e395c" x="140.249588" y="244.6" style="stroke: #000000; stroke-width: 0.8"/>
      </g>
     </g>
     <g id="text_2">
      <!-- 200 -->
      <g transform="translate(130.705838 259.198438) scale(0.1 -0.1)">
       <defs>
        <path id="DejaVuSans-32" d="M 1228 531 
L 3431 531 
L 3431 0 
L 469 0 
L 469 531 
Q 828 903 1448 1529 
Q 2069 2156 2228 2338 
Q 2531 2678 2651 2914 
Q 2772 3150 2772 3378 
Q 2772 3750 2511 3984 
Q 2250 4219 1831 4219 
Q 1534 4219 1204 4116 
Q 875 4013 500 3803 
L 500 4441 
Q 881 4594 1212 4672 
Q 1544 4750 1819 4750 
Q 2544 4750 2975 4387 
Q 3406 4025 3406 3419 
Q 3406 3131 3298 2873 
Q 3191 2616 2906 2266 
Q 2828 2175 2409 1742 
Q 1991 1309 1228 531 
z
" transform="scale(0.015625)"/>
       </defs>
       <use xlink:href="#DejaVuSans-32"/>
       <use xlink:href="#DejaVuSans-30" x="63.623047"/>
       <use xlink:href="#DejaVuSans-30" x="127.246094"/>
      </g>
     </g>
    </g>
    <g id="xtick_3">
     <g id="line2d_3">
      <g>
       <use xlink:href="#me8ff1e395c" x="222.630704" y="244.6" style="stroke: #000000; stroke-width: 0.8"/>
      </g>
     </g>
     <g id="text_3">
      <!-- 400 -->
      <g transform="translate(213.086954 259.198438) scale(0.1 -0.1)">
       <defs>
        <path id="DejaVuSans-34" d="M 2419 4116 
L 825 1625 
L 2419 1625 
L 2419 4116 
z
M 2253 4666 
L 3047 4666 
L 3047 1625 
L 3713 1625 
L 3713 1100 
L 3047 1100 
L 3047 0 
L 2419 0 
L 2419 1100 
L 313 1100 
L 313 1709 
L 2253 4666 
z
" transform="scale(0.015625)"/>
       </defs>
       <use xlink:href="#DejaVuSans-34"/>
       <use xlink:href="#DejaVuSans-30" x="63.623047"/>
       <use xlink:href="#DejaVuSans-30" x="127.246094"/>
      </g>
     </g>
    </g>
    <g id="xtick_4">
     <g id="line2d_4">
      <g>
       <use xlink:href="#me8ff1e395c" x="305.011819" y="244.6" style="stroke: #000000; stroke-width: 0.8"/>
      </g>
     </g>
     <g id="text_4">
      <!-- 600 -->
      <g transform="translate(295.468069 259.198438) scale(0.1 -0.1)">
       <defs>
        <path id="DejaVuSans-36" d="M 2113 2584 
Q 1688 2584 1439 2293 
Q 1191 2003 1191 1497 
Q 1191 994 1439 701 
Q 1688 409 2113 409 
Q 2538 409 2786 701 
Q 3034 994 3034 1497 
Q 3034 2003 2786 2293 
Q 2538 2584 2113 2584 
z
M 3366 4563 
L 3366 3988 
Q 3128 4100 2886 4159 
Q 2644 4219 2406 4219 
Q 1781 4219 1451 3797 
Q 1122 3375 1075 2522 
Q 1259 2794 1537 2939 
Q 1816 3084 2150 3084 
Q 2853 3084 3261 2657 
Q 3669 2231 3669 1497 
Q 3669 778 3244 343 
Q 2819 -91 2113 -91 
Q 1303 -91 875 529 
Q 447 1150 447 2328 
Q 447 3434 972 4092 
Q 1497 4750 2381 4750 
Q 2619 4750 2861 4703 
Q 3103 4656 3366 4563 
z
" transform="scale(0.015625)"/>
       </defs>
       <use xlink:href="#DejaVuSans-36"/>
       <use xlink:href="#DejaVuSans-30" x="63.623047"/>
       <use xlink:href="#DejaVuSans-30" x="127.246094"/>
      </g>
     </g>
    </g>
    <g id="xtick_5">
     <g id="line2d_5">
      <g>
       <use xlink:href="#me8ff1e395c" x="387.392935" y="244.6" style="stroke: #000000; stroke-width: 0.8"/>
      </g>
     </g>
     <g id="text_5">
      <!-- 800 -->
      <g transform="translate(377.849185 259.198438) scale(0.1 -0.1)">
       <defs>
        <path id="DejaVuSans-38" d="M 2034 2216 
Q 1584 2216 1326 1975 
Q 1069 1734 1069 1313 
Q 1069 891 1326 650 
Q 1584 409 2034 409 
Q 2484 409 2743 651 
Q 3003 894 3003 1313 
Q 3003 1734 2745 1975 
Q 2488 2216 2034 2216 
z
M 1403 2484 
Q 997 2584 770 2862 
Q 544 3141 544 3541 
Q 544 4100 942 4425 
Q 1341 4750 2034 4750 
Q 2731 4750 3128 4425 
Q 3525 4100 3525 3541 
Q 3525 3141 3298 2862 
Q 3072 2584 2669 2484 
Q 3125 2378 3379 2068 
Q 3634 1759 3634 1313 
Q 3634 634 3220 271 
Q 2806 -91 2034 -91 
Q 1263 -91 848 271 
Q 434 634 434 1313 
Q 434 1759 690 2068 
Q 947 2378 1403 2484 
z
M 1172 3481 
Q 1172 3119 1398 2916 
Q 1625 2713 2034 2713 
Q 2441 2713 2670 2916 
Q 2900 3119 2900 3481 
Q 2900 3844 2670 4047 
Q 2441 4250 2034 4250 
Q 1625 4250 1398 4047 
Q 1172 3844 1172 3481 
z
" transform="scale(0.015625)"/>
       </defs>
       <use xlink:href="#DejaVuSans-38"/>
       <use xlink:href="#DejaVuSans-30" x="63.623047"/>
       <use xlink:href="#DejaVuSans-30" x="127.246094"/>
      </g>
     </g>
    </g>
    <g id="xtick_6">
     <g id="line2d_6">
      <g>
       <use xlink:href="#me8ff1e395c" x="469.77405" y="244.6" style="stroke: #000000; stroke-width: 0.8"/>
      </g>
     </g>
     <g id="text_6">
      <!-- 1000 -->
      <g transform="translate(457.04905 259.198438) scale(0.1 -0.1)">
       <defs>
        <path id="DejaVuSans-31" d="M 794 531 
L 1825 531 
L 1825 4091 
L 703 3866 
L 703 4441 
L 1819 4666 
L 2450 4666 
L 2450 531 
L 3481 531 
L 3481 0 
L 794 0 
L 794 531 
z
" transform="scale(0.015625)"/>
       </defs>
       <use xlink:href="#DejaVuSans-31"/>
       <use xlink:href="#DejaVuSans-30" x="63.623047"/>
       <use xlink:href="#DejaVuSans-30" x="127.246094"/>
       <use xlink:href="#DejaVuSans-30" x="190.869141"/>
      </g>
     </g>
    </g>
    <g id="text_7">
     <!-- time -->
     <g transform="translate(254.791406 272.876562) scale(0.1 -0.1)">
      <defs>
       <path id="DejaVuSans-74" d="M 1172 4494 
L 1172 3500 
L 2356 3500 
L 2356 3053 
L 1172 3053 
L 1172 1153 
Q 1172 725 1289 603 
Q 1406 481 1766 481 
L 2356 481 
L 2356 0 
L 1766 0 
Q 1100 0 847 248 
Q 594 497 594 1153 
L 594 3053 
L 172 3053 
L 172 3500 
L 594 3500 
L 594 4494 
L 1172 4494 
z
" transform="scale(0.015625)"/>
       <path id="DejaVuSans-69" d="M 603 3500 
L 1178 3500 
L 1178 0 
L 603 0 
L 603 3500 
z
M 603 4863 
L 1178 4863 
L 1178 4134 
L 603 4134 
L 603 4863 
z
" transform="scale(0.015625)"/>
       <path id="DejaVuSans-6d" d="M 3328 2828 
Q 3544 3216 3844 3400 
Q 4144 3584 4550 3584 
Q 5097 3584 5394 3201 
Q 5691 2819 5691 2113 
L 5691 0 
L 5113 0 
L 5113 2094 
Q 5113 2597 4934 2840 
Q 4756 3084 4391 3084 
Q 3944 3084 3684 2787 
Q 3425 2491 3425 1978 
L 3425 0 
L 2847 0 
L 2847 2094 
Q 2847 2600 2669 2842 
Q 2491 3084 2119 3084 
Q 1678 3084 1418 2786 
Q 1159 2488 1159 1978 
L 1159 0 
L 581 0 
L 581 3500 
L 1159 3500 
L 1159 2956 
Q 1356 3278 1631 3431 
Q 1906 3584 2284 3584 
Q 2666 3584 2933 3390 
Q 3200 3197 3328 2828 
z
" transform="scale(0.015625)"/>
       <path id="DejaVuSans-65" d="M 3597 1894 
L 3597 1613 
L 953 1613 
Q 991 1019 1311 708 
Q 1631 397 2203 397 
Q 2534 397 2845 478 
Q 3156 559 3463 722 
L 3463 178 
Q 3153 47 2828 -22 
Q 2503 -91 2169 -91 
Q 1331 -91 842 396 
Q 353 884 353 1716 
Q 353 2575 817 3079 
Q 1281 3584 2069 3584 
Q 2775 3584 3186 3129 
Q 3597 2675 3597 1894 
z
M 3022 2063 
Q 3016 2534 2758 2815 
Q 2500 3097 2075 3097 
Q 1594 3097 1305 2825 
Q 1016 2553 972 2059 
L 3022 2063 
z
" transform="scale(0.015625)"/>
      </defs>
      <use xlink:href="#DejaVuSans-74"/>
      <use xlink:href="#DejaVuSans-69" x="39.208984"/>
      <use xlink:href="#DejaVuSans-6d" x="66.992188"/>
      <use xlink:href="#DejaVuSans-65" x="164.404297"/>
     </g>
    </g>
   </g>
   <g id="matplotlib.axis_2">
    <g id="ytick_1">
     <g id="line2d_7">
      <defs>
       <path id="m95dc740113" d="M 0 0 
L -3.5 0 
" style="stroke: #000000; stroke-width: 0.8"/>
      </defs>
      <g>
       <use xlink:href="#m95dc740113" x="38.975" y="234.654545" style="stroke: #000000; stroke-width: 0.8"/>
      </g>
     </g>
     <g id="text_8">
      <!-- 0 -->
      <g transform="translate(25.6125 238.453764) scale(0.1 -0.1)">
       <use xlink:href="#DejaVuSans-30"/>
      </g>
     </g>
    </g>
    <g id="ytick_2">
     <g id="line2d_8">
      <g>
       <use xlink:href="#m95dc740113" x="38.975" y="190.452525" style="stroke: #000000; stroke-width: 0.8"/>
      </g>
     </g>
     <g id="text_9">
      <!-- 2 -->
      <g transform="translate(25.6125 194.251744) scale(0.1 -0.1)">
       <use xlink:href="#DejaVuSans-32"/>
      </g>
     </g>
    </g>
    <g id="ytick_3">
     <g id="line2d_9">
      <g>
       <use xlink:href="#m95dc740113" x="38.975" y="146.250505" style="stroke: #000000; stroke-width: 0.8"/>
      </g>
     </g>
     <g id="text_10">
      <!-- 4 -->
      <g transform="translate(25.6125 150.049724) scale(0.1 -0.1)">
       <use xlink:href="#DejaVuSans-34"/>
      </g>
     </g>
    </g>
    <g id="ytick_4">
     <g id="line2d_10">
      <g>
       <use xlink:href="#m95dc740113" x="38.975" y="102.048485" style="stroke: #000000; stroke-width: 0.8"/>
      </g>
     </g>
     <g id="text_11">
      <!-- 6 -->
      <g transform="translate(25.6125 105.847704) scale(0.1 -0.1)">
       <use xlink:href="#DejaVuSans-36"/>
      </g>
     </g>
    </g>
    <g id="ytick_5">
     <g id="line2d_11">
      <g>
       <use xlink:href="#m95dc740113" x="38.975" y="57.846465" style="stroke: #000000; stroke-width: 0.8"/>
      </g>
     </g>
     <g id="text_12">
      <!-- 8 -->
      <g transform="translate(25.6125 61.645683) scale(0.1 -0.1)">
       <use xlink:href="#DejaVuSans-38"/>
      </g>
     </g>
    </g>
    <g id="text_13">
     <!-- patients -->
     <g transform="translate(19.532813 155.597656) rotate(-90) scale(0.1 -0.1)">
      <defs>
       <path id="DejaVuSans-70" d="M 1159 525 
L 1159 -1331 
L 581 -1331 
L 581 3500 
L 1159 3500 
L 1159 2969 
Q 1341 3281 1617 3432 
Q 1894 3584 2278 3584 
Q 2916 3584 3314 3078 
Q 3713 2572 3713 1747 
Q 3713 922 3314 415 
Q 2916 -91 2278 -91 
Q 1894 -91 1617 61 
Q 1341 213 1159 525 
z
M 3116 1747 
Q 3116 2381 2855 2742 
Q 2594 3103 2138 3103 
Q 1681 3103 1420 2742 
Q 1159 2381 1159 1747 
Q 1159 1113 1420 752 
Q 1681 391 2138 391 
Q 2594 391 2855 752 
Q 3116 1113 3116 1747 
z
" transform="scale(0.015625)"/>
       <path id="DejaVuSans-61" d="M 2194 1759 
Q 1497 1759 1228 1600 
Q 959 1441 959 1056 
Q 959 750 1161 570 
Q 1363 391 1709 391 
Q 2188 391 2477 730 
Q 2766 1069 2766 1631 
L 2766 1759 
L 2194 1759 
z
M 3341 1997 
L 3341 0 
L 2766 0 
L 2766 531 
Q 2569 213 2275 61 
Q 1981 -91 1556 -91 
Q 1019 -91 701 211 
Q 384 513 384 1019 
Q 384 1609 779 1909 
Q 1175 2209 1959 2209 
L 2766 2209 
L 2766 2266 
Q 2766 2663 2505 2880 
Q 2244 3097 1772 3097 
Q 1472 3097 1187 3025 
Q 903 2953 641 2809 
L 641 3341 
Q 956 3463 1253 3523 
Q 1550 3584 1831 3584 
Q 2591 3584 2966 3190 
Q 3341 2797 3341 1997 
z
" transform="scale(0.015625)"/>
       <path id="DejaVuSans-6e" d="M 3513 2113 
L 3513 0 
L 2938 0 
L 2938 2094 
Q 2938 2591 2744 2837 
Q 2550 3084 2163 3084 
Q 1697 3084 1428 2787 
Q 1159 2491 1159 1978 
L 1159 0 
L 581 0 
L 581 3500 
L 1159 3500 
L 1159 2956 
Q 1366 3272 1645 3428 
Q 1925 3584 2291 3584 
Q 2894 3584 3203 3211 
Q 3513 2838 3513 2113 
z
" transform="scale(0.015625)"/>
       <path id="DejaVuSans-73" d="M 2834 3397 
L 2834 2853 
Q 2591 2978 2328 3040 
Q 2066 3103 1784 3103 
Q 1356 3103 1142 2972 
Q 928 2841 928 2578 
Q 928 2378 1081 2264 
Q 1234 2150 1697 2047 
L 1894 2003 
Q 2506 1872 2764 1633 
Q 3022 1394 3022 966 
Q 3022 478 2636 193 
Q 2250 -91 1575 -91 
Q 1294 -91 989 -36 
Q 684 19 347 128 
L 347 722 
Q 666 556 975 473 
Q 1284 391 1588 391 
Q 1994 391 2212 530 
Q 2431 669 2431 922 
Q 2431 1156 2273 1281 
Q 2116 1406 1581 1522 
L 1381 1569 
Q 847 1681 609 1914 
Q 372 2147 372 2553 
Q 372 3047 722 3315 
Q 1072 3584 1716 3584 
Q 2034 3584 2315 3537 
Q 2597 3491 2834 3397 
z
" transform="scale(0.015625)"/>
      </defs>
      <use xlink:href="#DejaVuSans-70"/>
      <use xlink:href="#DejaVuSans-61" x="63.476562"/>
      <use xlink:href="#DejaVuSans-74" x="124.755859"/>
      <use xlink:href="#DejaVuSans-69" x="163.964844"/>
      <use xlink:href="#DejaVuSans-65" x="191.748047"/>
      <use xlink:href="#DejaVuSans-6e" x="253.271484"/>
      <use xlink:href="#DejaVuSans-74" x="316.650391"/>
      <use xlink:href="#DejaVuSans-73" x="355.859375"/>
     </g>
    </g>
   </g>
   <g id="line2d_12">
    <path d="M 59.621591 212.553535 
L 60.897816 190.452525 
L 60.897816 190.452525 
L 61.917383 190.452525 
L 61.917383 190.452525 
L 62.481273 212.553535 
L 62.481273 212.553535 
L 63.826502 190.452525 
L 63.826502 190.452525 
L 64.754477 190.452525 
L 64.754477 190.452525 
L 65.833733 168.351515 
L 65.833733 168.351515 
L 66.533042 190.452525 
L 66.533042 190.452525 
L 66.917209 168.351515 
L 66.917209 168.351515 
L 67.47883 146.250505 
L 67.47883 146.250505 
L 67.848274 168.351515 
L 67.848274 168.351515 
L 68.189304 168.351515 
L 68.189304 168.351515 
L 68.475015 146.250505 
L 68.475015 146.250505 
L 69.149967 124.149495 
L 69.149967 124.149495 
L 69.473469 146.250505 
L 69.473469 146.250505 
L 70.300299 146.250505 
L 70.300299 146.250505 
L 70.371554 124.149495 
L 70.371554 124.149495 
L 70.487355 124.149495 
L 70.487355 124.149495 
L 71.134291 146.250505 
L 71.134291 146.250505 
L 71.413247 124.149495 
L 71.413247 124.149495 
L 71.542027 124.149495 
L 71.542027 124.149495 
L 72.29379 146.250505 
L 72.29379 146.250505 
L 73.063433 124.149495 
L 73.063433 124.149495 
L 73.271009 146.250505 
L 73.271009 146.250505 
L 74.17708 146.250505 
L 74.17708 146.250505 
L 74.41506 190.452525 
L 75.725863 212.553535 
L 75.79059 234.654545 
L 76.516207 212.553535 
L 76.516207 212.553535 
L 77.203291 212.553535 
L 77.203291 212.553535 
L 78.579517 190.452525 
L 78.579517 190.452525 
L 78.812428 212.553535 
L 79.092867 190.452525 
L 79.092867 190.452525 
L 80.597315 190.452525 
L 80.597315 190.452525 
L 80.601901 168.351515 
L 80.601901 168.351515 
L 80.828862 190.452525 
L 80.828862 190.452525 
L 81.778334 168.351515 
L 81.778334 168.351515 
L 81.798805 190.452525 
L 81.798805 190.452525 
L 82.709594 190.452525 
L 82.709594 190.452525 
L 82.732533 168.351515 
L 82.732533 168.351515 
L 83.285655 190.452525 
L 83.285655 190.452525 
L 84.356461 168.351515 
L 84.356461 168.351515 
L 85.210541 168.351515 
L 85.210541 168.351515 
L 85.334115 190.452525 
L 85.334115 190.452525 
L 85.484519 168.351515 
L 85.484519 168.351515 
L 87.109589 190.452525 
L 87.109589 190.452525 
L 87.774489 168.351515 
L 87.774489 168.351515 
L 88.815675 190.452525 
L 88.946162 168.351515 
L 88.946162 168.351515 
L 89.052806 190.452525 
L 89.052806 190.452525 
L 89.870543 190.452525 
L 89.870543 190.452525 
L 90.955064 212.553535 
L 91.17351 190.452525 
L 91.17351 190.452525 
L 91.775559 212.553535 
L 91.925475 190.452525 
L 91.925475 190.452525 
L 93.01336 190.452525 
L 93.01336 190.452525 
L 94.61983 168.351515 
L 94.61983 168.351515 
L 94.765536 190.452525 
L 94.765536 190.452525 
L 95.610355 168.351515 
L 95.610355 168.351515 
L 95.913648 168.351515 
L 95.913648 168.351515 
L 96.450138 190.452525 
L 96.714099 190.452525 
L 96.714099 190.452525 
L 97.346135 212.553535 
L 98.561098 190.452525 
L 98.561098 190.452525 
L 99.720446 190.452525 
L 99.720446 190.452525 
L 100.623745 168.351515 
L 100.623745 168.351515 
L 101.129356 168.351515 
L 101.129356 168.351515 
L 102.055526 146.250505 
L 102.055526 146.250505 
L 102.544366 190.452525 
L 103.690448 168.351515 
L 103.690448 168.351515 
L 103.695739 190.452525 
L 104.077747 190.452525 
L 104.077747 190.452525 
L 104.745831 168.351515 
L 104.745831 168.351515 
L 105.377939 190.452525 
L 105.377939 190.452525 
L 105.651696 190.452525 
L 105.651696 190.452525 
L 106.357733 168.351515 
L 106.357733 168.351515 
L 107.366994 190.452525 
L 107.366994 190.452525 
L 107.793325 168.351515 
L 107.793325 168.351515 
L 108.007273 168.351515 
L 108.007273 168.351515 
L 108.775461 146.250505 
L 108.775461 146.250505 
L 109.129998 168.351515 
L 109.129998 168.351515 
L 109.413939 146.250505 
L 109.413939 146.250505 
L 110.433329 146.250505 
L 110.433329 146.250505 
L 110.47367 168.351515 
L 110.47367 168.351515 
L 110.785015 146.250505 
L 110.785015 146.250505 
L 111.597326 146.250505 
L 111.597326 146.250505 
L 111.937225 124.149495 
L 111.937225 124.149495 
L 112.1082 146.250505 
L 112.1082 146.250505 
L 113.096695 168.351515 
L 113.096695 168.351515 
L 113.610971 146.250505 
L 113.610971 146.250505 
L 114.318207 146.250505 
L 114.318207 146.250505 
L 114.428913 190.452525 
L 114.852146 190.452525 
L 114.852146 190.452525 
L 115.103284 168.351515 
L 115.103284 168.351515 
L 115.814644 190.452525 
L 116.250263 190.452525 
L 116.250263 190.452525 
L 116.452849 168.351515 
L 116.452849 168.351515 
L 117.228842 190.452525 
L 117.716061 168.351515 
L 117.716061 168.351515 
L 119.039061 146.250505 
L 119.039061 146.250505 
L 119.817304 146.250505 
L 119.817304 146.250505 
L 119.845558 168.351515 
L 119.845558 168.351515 
L 120.909984 190.452525 
L 120.909984 190.452525 
L 121.070115 168.351515 
L 121.070115 168.351515 
L 121.748604 146.250505 
L 121.748604 146.250505 
L 122.501992 146.250505 
L 122.501992 146.250505 
L 122.803847 168.351515 
L 122.803847 168.351515 
L 125.106074 190.452525 
L 125.106074 190.452525 
L 125.837466 168.351515 
L 125.837466 168.351515 
L 126.43963 190.452525 
L 126.43963 190.452525 
L 126.900685 168.351515 
L 126.900685 168.351515 
L 127.70472 146.250505 
L 127.70472 146.250505 
L 127.938604 168.351515 
L 127.938604 168.351515 
L 128.25389 168.351515 
L 128.25389 168.351515 
L 128.568296 146.250505 
L 128.568296 146.250505 
L 129.481417 168.351515 
L 129.481417 168.351515 
L 129.786061 146.250505 
L 129.786061 146.250505 
L 130.118592 146.250505 
L 130.118592 146.250505 
L 130.471513 124.149495 
L 130.471513 124.149495 
L 130.676318 146.250505 
L 130.676318 146.250505 
L 131.713847 146.250505 
L 131.713847 146.250505 
L 131.971349 124.149495 
L 131.971349 124.149495 
L 132.67802 102.048485 
L 132.67802 102.048485 
L 133.162839 146.250505 
L 133.350979 146.250505 
L 133.350979 146.250505 
L 133.915697 168.351515 
L 133.915697 168.351515 
L 134.264522 146.250505 
L 134.264522 146.250505 
L 135.523459 146.250505 
L 135.523459 146.250505 
L 135.757477 168.351515 
L 135.757477 168.351515 
L 135.800497 146.250505 
L 135.800497 146.250505 
L 135.939592 168.351515 
L 137.153832 168.351515 
L 137.153832 168.351515 
L 137.506096 190.452525 
L 138.211058 212.553535 
L 138.211058 212.553535 
L 139.27665 190.452525 
L 139.27665 190.452525 
L 140.051498 212.553535 
L 140.116693 190.452525 
L 140.116693 190.452525 
L 140.923046 190.452525 
L 140.923046 190.452525 
L 142.557519 168.351515 
L 142.557519 168.351515 
L 142.828529 190.452525 
L 142.828529 190.452525 
L 144.620329 168.351515 
L 144.620329 168.351515 
L 145.448566 168.351515 
L 145.448566 168.351515 
L 145.498525 190.452525 
L 145.498525 190.452525 
L 145.829996 168.351515 
L 145.829996 168.351515 
L 146.73949 146.250505 
L 146.73949 146.250505 
L 146.915667 146.250505 
L 146.915667 146.250505 
L 147.209174 168.351515 
L 147.209174 168.351515 
L 147.990205 168.351515 
L 147.990205 168.351515 
L 148.361417 146.250505 
L 148.361417 146.250505 
L 148.366584 168.351515 
L 148.366584 168.351515 
L 149.368619 168.351515 
L 149.368619 168.351515 
L 150.303687 190.452525 
L 150.303687 190.452525 
L 151.190085 168.351515 
L 151.190085 168.351515 
L 151.820998 190.452525 
L 151.984758 190.452525 
L 151.984758 190.452525 
L 153.059962 168.351515 
L 153.059962 168.351515 
L 153.585558 190.452525 
L 154.083897 190.452525 
L 154.083897 190.452525 
L 154.80064 168.351515 
L 154.80064 168.351515 
L 155.888168 168.351515 
L 155.888168 168.351515 
L 157.174519 124.149495 
L 157.174519 124.149495 
L 157.469836 124.149495 
L 157.469836 124.149495 
L 157.719352 146.250505 
L 158.509937 168.351515 
L 158.509937 168.351515 
L 158.755206 190.452525 
L 159.273051 168.351515 
L 159.273051 168.351515 
L 160.059283 168.351515 
L 160.059283 168.351515 
L 160.10194 190.452525 
L 160.10194 190.452525 
L 160.931193 168.351515 
L 160.931193 168.351515 
L 161.640016 168.351515 
L 161.640016 168.351515 
L 161.684678 190.452525 
L 161.684678 190.452525 
L 162.339155 168.351515 
L 162.339155 168.351515 
L 163.367337 190.452525 
L 164.065937 190.452525 
L 164.065937 190.452525 
L 164.149344 168.351515 
L 164.149344 168.351515 
L 164.918785 146.250505 
L 164.918785 146.250505 
L 164.935418 168.351515 
L 166.211223 190.452525 
L 166.211223 190.452525 
L 166.605338 168.351515 
L 166.605338 168.351515 
L 167.903261 190.452525 
L 167.903261 190.452525 
L 168.368775 190.452525 
L 168.368775 190.452525 
L 168.424696 168.351515 
L 168.424696 168.351515 
L 169.411713 168.351515 
L 169.411713 168.351515 
L 171.248032 124.149495 
L 171.248032 124.149495 
L 171.337259 124.149495 
L 171.337259 124.149495 
L 172.404984 102.048485 
L 172.404984 102.048485 
L 172.704425 124.149495 
L 172.704425 124.149495 
L 172.858549 102.048485 
L 172.858549 102.048485 
L 173.79428 102.048485 
L 173.79428 102.048485 
L 173.938669 79.947475 
L 173.938669 79.947475 
L 174.58941 79.947475 
L 174.58941 79.947475 
L 174.716646 102.048485 
L 174.716646 102.048485 
L 174.779738 79.947475 
L 174.779738 79.947475 
L 175.685712 57.846465 
L 175.685712 57.846465 
L 175.957462 57.846465 
L 175.957462 57.846465 
L 176.673032 35.745455 
L 176.673032 35.745455 
L 177.532299 35.745455 
L 177.532299 35.745455 
L 177.785447 57.846465 
L 177.785447 57.846465 
L 177.9077 79.947475 
L 178.174234 57.846465 
L 178.174234 57.846465 
L 178.325283 57.846465 
L 178.325283 57.846465 
L 179.094381 35.745455 
L 179.094381 35.745455 
L 179.165283 57.846465 
L 179.787135 79.947475 
L 179.787135 79.947475 
L 181.197545 102.048485 
L 181.197545 102.048485 
L 181.202754 79.947475 
L 181.202754 79.947475 
L 182.064932 79.947475 
L 182.064932 79.947475 
L 182.281248 57.846465 
L 182.281248 57.846465 
L 182.957416 79.947475 
L 182.957416 79.947475 
L 183.955774 57.846465 
L 183.955774 57.846465 
L 184.323271 79.947475 
L 184.323271 79.947475 
L 185.647966 79.947475 
L 185.647966 79.947475 
L 187.34986 102.048485 
L 187.34986 102.048485 
L 187.907359 79.947475 
L 187.907359 79.947475 
L 188.281531 102.048485 
L 188.281531 102.048485 
L 188.980857 79.947475 
L 188.980857 79.947475 
L 189.765922 79.947475 
L 189.765922 79.947475 
L 189.822364 102.048485 
L 189.822364 102.048485 
L 189.940882 79.947475 
L 189.940882 79.947475 
L 190.318042 79.947475 
L 190.318042 79.947475 
L 190.645606 102.048485 
L 190.645606 102.048485 
L 190.753341 124.149495 
L 190.801223 102.048485 
L 190.801223 102.048485 
L 191.034213 102.048485 
L 191.034213 102.048485 
L 191.620646 79.947475 
L 191.620646 79.947475 
L 192.25255 79.947475 
L 192.25255 79.947475 
L 192.473818 102.048485 
L 193.137794 124.149495 
L 193.137794 124.149495 
L 194.713964 102.048485 
L 194.713964 102.048485 
L 195.381013 79.947475 
L 195.381013 79.947475 
L 195.466752 102.048485 
L 195.466752 102.048485 
L 196.496977 102.048485 
L 196.496977 102.048485 
L 196.592656 124.149495 
L 196.592656 124.149495 
L 196.755603 102.048485 
L 196.755603 102.048485 
L 197.636295 102.048485 
L 197.636295 102.048485 
L 198.266296 79.947475 
L 198.266296 79.947475 
L 198.328806 102.048485 
L 198.328806 102.048485 
L 199.437985 79.947475 
L 199.437985 79.947475 
L 199.872193 102.048485 
L 199.872193 102.048485 
L 201.298505 79.947475 
L 201.298505 79.947475 
L 201.811342 79.947475 
L 201.811342 79.947475 
L 201.862716 102.048485 
L 201.862716 102.048485 
L 202.820846 124.149495 
L 202.820846 124.149495 
L 204.727651 146.250505 
L 204.727651 146.250505 
L 205.27164 124.149495 
L 205.27164 124.149495 
L 206.143341 146.250505 
L 206.525503 168.351515 
L 206.525503 168.351515 
L 206.845506 146.250505 
L 206.845506 146.250505 
L 207.568078 168.351515 
L 207.568078 168.351515 
L 207.730028 168.351515 
L 207.730028 168.351515 
L 207.914308 146.250505 
L 207.914308 146.250505 
L 208.762943 146.250505 
L 208.762943 146.250505 
L 209.012203 168.351515 
L 209.012203 168.351515 
L 209.54915 146.250505 
L 209.54915 146.250505 
L 210.962379 168.351515 
L 210.962379 168.351515 
L 211.09904 168.351515 
L 211.09904 168.351515 
L 211.143855 146.250505 
L 211.143855 146.250505 
L 212.038764 146.250505 
L 212.038764 146.250505 
L 212.047374 124.149495 
L 212.047374 124.149495 
L 212.382301 146.250505 
L 212.382301 146.250505 
L 213.157727 146.250505 
L 213.157727 146.250505 
L 213.903003 124.149495 
L 213.903003 124.149495 
L 214.361949 146.250505 
L 214.361949 146.250505 
L 214.786745 146.250505 
L 214.786745 146.250505 
L 216.187583 168.351515 
L 216.4233 190.452525 
L 216.493556 168.351515 
L 216.493556 168.351515 
L 216.804324 190.452525 
L 217.519862 190.452525 
L 217.519862 190.452525 
L 217.729633 168.351515 
L 217.729633 168.351515 
L 219.01292 190.452525 
L 219.279924 190.452525 
L 219.279924 190.452525 
L 219.795907 168.351515 
L 219.795907 168.351515 
L 221.51591 190.452525 
L 221.51591 190.452525 
L 221.719155 168.351515 
L 221.719155 168.351515 
L 222.782034 168.351515 
L 222.782034 168.351515 
L 223.036868 190.452525 
L 223.036868 190.452525 
L 223.327365 168.351515 
L 223.327365 168.351515 
L 224.134512 168.351515 
L 224.134512 168.351515 
L 224.413939 190.452525 
L 224.413939 190.452525 
L 225.168933 168.351515 
L 225.168933 168.351515 
L 225.857849 168.351515 
L 225.857849 168.351515 
L 225.969969 190.452525 
L 225.969969 190.452525 
L 225.995917 168.351515 
L 225.995917 168.351515 
L 227.433103 168.351515 
L 227.433103 168.351515 
L 228.027612 146.250505 
L 228.027612 146.250505 
L 228.809641 168.351515 
L 228.809641 168.351515 
L 229.386838 146.250505 
L 229.386838 146.250505 
L 230.361619 124.149495 
L 230.361619 124.149495 
L 231.040656 146.250505 
L 231.040656 146.250505 
L 231.166421 146.250505 
L 231.166421 146.250505 
L 231.632246 124.149495 
L 231.632246 124.149495 
L 232.438103 124.149495 
L 232.438103 124.149495 
L 232.663914 102.048485 
L 232.663914 102.048485 
L 232.76554 124.149495 
L 232.76554 124.149495 
L 233.578084 146.250505 
L 233.578084 146.250505 
L 234.209684 124.149495 
L 234.209684 124.149495 
L 234.847346 124.149495 
L 234.847346 124.149495 
L 234.872668 102.048485 
L 234.872668 102.048485 
L 235.065723 124.149495 
L 235.960885 146.250505 
L 236.065706 168.351515 
L 236.065706 168.351515 
L 236.470253 146.250505 
L 236.470253 146.250505 
L 237.52054 168.351515 
L 237.52054 168.351515 
L 238.570108 146.250505 
L 238.570108 146.250505 
L 239.398536 124.149495 
L 239.398536 124.149495 
L 239.681523 124.149495 
L 239.681523 124.149495 
L 239.836255 146.250505 
L 239.836255 146.250505 
L 240.672491 124.149495 
L 240.672491 124.149495 
L 241.339061 146.250505 
L 241.339061 146.250505 
L 242.355382 124.149495 
L 242.355382 124.149495 
L 242.649387 124.149495 
L 242.649387 124.149495 
L 244.027171 102.048485 
L 244.027171 102.048485 
L 244.214462 124.149495 
L 244.214462 124.149495 
L 245.191459 124.149495 
L 245.191459 124.149495 
L 245.393701 146.250505 
L 245.393701 146.250505 
L 245.403384 124.149495 
L 245.403384 124.149495 
L 246.59228 146.250505 
L 246.59228 146.250505 
L 246.769864 146.250505 
L 246.769864 146.250505 
L 246.787821 124.149495 
L 246.787821 124.149495 
L 248.055165 146.250505 
L 248.055165 146.250505 
L 248.997118 124.149495 
L 248.997118 124.149495 
L 249.437165 146.250505 
L 249.437165 146.250505 
L 249.92892 124.149495 
L 249.92892 124.149495 
L 250.739277 124.149495 
L 250.739277 124.149495 
L 251.011674 146.250505 
L 251.011674 146.250505 
L 253.347539 168.351515 
L 253.347539 168.351515 
L 254.016448 146.250505 
L 254.016448 146.250505 
L 254.48933 124.149495 
L 254.48933 124.149495 
L 254.923765 124.149495 
L 254.923765 124.149495 
L 254.944402 146.250505 
L 254.944402 146.250505 
L 255.424967 124.149495 
L 255.424967 124.149495 
L 255.67843 124.149495 
L 255.67843 124.149495 
L 256.119231 146.250505 
L 256.119231 146.250505 
L 257.062529 146.250505 
L 257.062529 146.250505 
L 257.831504 168.351515 
L 258.660052 212.553535 
L 258.919236 190.452525 
L 258.919236 190.452525 
L 259.625987 168.351515 
L 259.625987 168.351515 
L 259.968601 190.452525 
L 261.248664 190.452525 
L 261.248664 190.452525 
L 262.092385 168.351515 
L 262.092385 168.351515 
L 263.517349 190.452525 
L 263.517349 190.452525 
L 264.454145 212.553535 
L 264.454145 212.553535 
L 264.631834 190.452525 
L 264.631834 190.452525 
L 265.75386 168.351515 
L 265.75386 168.351515 
L 265.914496 190.452525 
L 265.914496 190.452525 
L 266.580482 190.452525 
L 266.580482 190.452525 
L 267.045354 168.351515 
L 267.045354 168.351515 
L 267.736422 190.452525 
L 267.736422 190.452525 
L 268.220224 190.452525 
L 268.220224 190.452525 
L 268.318956 168.351515 
L 268.318956 168.351515 
L 268.833612 190.452525 
L 268.833612 190.452525 
L 269.032995 190.452525 
L 269.032995 190.452525 
L 270.245357 212.553535 
L 270.27094 190.452525 
L 270.27094 190.452525 
L 270.597236 212.553535 
L 271.549795 212.553535 
L 271.549795 212.553535 
L 272.861509 190.452525 
L 272.861509 190.452525 
L 273.492239 212.553535 
L 274.034209 212.553535 
L 274.034209 212.553535 
L 275.831666 190.452525 
L 275.831666 190.452525 
L 277.246197 168.351515 
L 277.246197 168.351515 
L 278.384842 168.351515 
L 278.384842 168.351515 
L 280.209877 190.452525 
L 280.282597 212.553535 
L 280.535611 190.452525 
L 280.535611 190.452525 
L 282.867716 234.654545 
L 283.246711 212.553535 
L 283.246711 212.553535 
L 284.956566 212.553535 
L 284.956566 212.553535 
L 285.173904 190.452525 
L 285.173904 190.452525 
L 285.669173 190.452525 
L 285.669173 190.452525 
L 285.848304 212.553535 
L 285.848304 212.553535 
L 285.930754 190.452525 
L 285.930754 190.452525 
L 287.242359 212.553535 
L 287.97286 190.452525 
L 287.97286 190.452525 
L 288.971869 212.553535 
L 289.307722 190.452525 
L 289.307722 190.452525 
L 289.891256 168.351515 
L 289.891256 168.351515 
L 290.03642 168.351515 
L 290.03642 168.351515 
L 290.794148 190.452525 
L 290.794148 190.452525 
L 290.996383 190.452525 
L 290.996383 190.452525 
L 291.54836 168.351515 
L 291.54836 168.351515 
L 291.60701 190.452525 
L 291.60701 190.452525 
L 292.260703 168.351515 
L 292.260703 168.351515 
L 293.029511 168.351515 
L 293.029511 168.351515 
L 293.07854 190.452525 
L 293.07854 190.452525 
L 293.903397 168.351515 
L 293.903397 168.351515 
L 294.374017 190.452525 
L 294.374017 190.452525 
L 295.228778 168.351515 
L 295.228778 168.351515 
L 295.544053 190.452525 
L 295.544053 190.452525 
L 296.064195 168.351515 
L 296.064195 168.351515 
L 296.598568 168.351515 
L 296.598568 168.351515 
L 296.833175 190.452525 
L 296.833175 190.452525 
L 296.98418 168.351515 
L 296.98418 168.351515 
L 297.677605 168.351515 
L 297.677605 168.351515 
L 297.941075 190.452525 
L 298.021058 168.351515 
L 298.021058 168.351515 
L 298.984904 146.250505 
L 298.984904 146.250505 
L 300.009861 146.250505 
L 300.009861 146.250505 
L 300.277787 124.149495 
L 300.277787 124.149495 
L 300.786281 146.250505 
L 301.167116 146.250505 
L 301.167116 146.250505 
L 301.326736 124.149495 
L 301.326736 124.149495 
L 301.967844 102.048485 
L 301.967844 102.048485 
L 302.558812 124.149495 
L 302.558812 124.149495 
L 302.981359 124.149495 
L 302.981359 124.149495 
L 303.640501 168.351515 
L 305.080644 146.250505 
L 305.080644 146.250505 
L 305.594011 168.351515 
L 305.594011 168.351515 
L 306.678502 146.250505 
L 306.678502 146.250505 
L 307.390809 190.452525 
L 307.742328 190.452525 
L 307.742328 190.452525 
L 308.917262 212.553535 
L 308.917262 212.553535 
L 309.072169 190.452525 
L 309.072169 190.452525 
L 309.89954 212.553535 
L 309.89954 212.553535 
L 310.586192 190.452525 
L 310.586192 190.452525 
L 310.885996 212.553535 
L 311.312646 212.553535 
L 311.312646 212.553535 
L 311.575997 190.452525 
L 311.575997 190.452525 
L 312.692107 190.452525 
L 312.692107 190.452525 
L 313.701182 168.351515 
L 313.701182 168.351515 
L 313.819883 190.452525 
L 314.494544 190.452525 
L 314.494544 190.452525 
L 315.122697 168.351515 
L 315.122697 168.351515 
L 315.862138 168.351515 
L 315.862138 168.351515 
L 316.913195 146.250505 
L 316.913195 146.250505 
L 317.289656 168.351515 
L 317.557179 168.351515 
L 317.557179 168.351515 
L 317.795894 146.250505 
L 317.795894 146.250505 
L 318.43583 146.250505 
L 318.43583 146.250505 
L 319.552674 168.351515 
L 319.552674 168.351515 
L 320.088596 190.452525 
L 321.342162 212.553535 
L 321.348734 190.452525 
L 321.348734 190.452525 
L 322.085165 212.553535 
L 322.336527 190.452525 
L 322.336527 190.452525 
L 322.654645 212.553535 
L 323.129031 212.553535 
L 323.129031 212.553535 
L 323.353511 190.452525 
L 323.353511 190.452525 
L 324.256147 168.351515 
L 324.256147 168.351515 
L 324.601111 168.351515 
L 324.601111 168.351515 
L 324.662596 190.452525 
L 324.662596 190.452525 
L 325.27376 190.452525 
L 325.27376 190.452525 
L 325.589797 168.351515 
L 325.589797 168.351515 
L 326.347107 168.351515 
L 326.347107 168.351515 
L 326.545019 190.452525 
L 326.545019 190.452525 
L 327.346603 168.351515 
L 327.346603 168.351515 
L 328.262563 190.452525 
L 328.262563 190.452525 
L 329.337793 168.351515 
L 329.337793 168.351515 
L 330.041555 190.452525 
L 330.041555 190.452525 
L 330.319686 168.351515 
L 330.319686 168.351515 
L 330.863628 168.351515 
L 330.863628 168.351515 
L 331.253395 146.250505 
L 331.253395 146.250505 
L 332.033218 168.351515 
L 332.033218 168.351515 
L 332.810612 146.250505 
L 332.810612 146.250505 
L 332.86492 168.351515 
L 332.86492 168.351515 
L 333.406489 146.250505 
L 333.406489 146.250505 
L 333.90108 146.250505 
L 333.90108 146.250505 
L 334.152907 124.149495 
L 334.152907 124.149495 
L 334.269182 124.149495 
L 334.269182 124.149495 
L 334.398285 146.250505 
L 334.398285 146.250505 
L 335.112944 124.149495 
L 335.112944 124.149495 
L 336.067241 102.048485 
L 336.067241 102.048485 
L 336.228835 124.149495 
L 336.606451 124.149495 
L 336.606451 124.149495 
L 336.658239 146.250505 
L 337.326487 190.452525 
L 337.849605 168.351515 
L 337.849605 168.351515 
L 338.060291 168.351515 
L 338.060291 168.351515 
L 338.767742 146.250505 
L 338.767742 146.250505 
L 339.482378 168.351515 
L 339.482378 168.351515 
L 339.77885 146.250505 
L 339.77885 146.250505 
L 339.926878 168.351515 
L 339.926878 168.351515 
L 341.044012 146.250505 
L 341.044012 146.250505 
L 341.171793 168.351515 
L 341.171793 168.351515 
L 341.993614 168.351515 
L 341.993614 168.351515 
L 342.663063 146.250505 
L 342.663063 146.250505 
L 342.803073 168.351515 
L 342.803073 168.351515 
L 343.609212 168.351515 
L 343.609212 168.351515 
L 344.108797 190.452525 
L 344.108797 190.452525 
L 344.328795 168.351515 
L 344.328795 168.351515 
L 345.436262 190.452525 
L 345.436262 190.452525 
L 345.915229 190.452525 
L 345.915229 190.452525 
L 347.084936 212.553535 
L 347.084936 212.553535 
L 348.189074 190.452525 
L 348.189074 190.452525 
L 348.455513 212.553535 
L 349.140121 212.553535 
L 349.140121 212.553535 
L 350.036102 234.654545 
L 350.68247 212.553535 
L 350.68247 212.553535 
L 351.212258 212.553535 
L 351.212258 212.553535 
L 351.508599 190.452525 
L 351.508599 190.452525 
L 352.888826 168.351515 
L 352.888826 168.351515 
L 353.697969 190.452525 
L 353.697969 190.452525 
L 353.91455 190.452525 
L 353.91455 190.452525 
L 354.499258 168.351515 
L 354.499258 168.351515 
L 354.693116 190.452525 
L 356.023329 190.452525 
L 356.023329 190.452525 
L 356.037817 168.351515 
L 356.037817 168.351515 
L 356.993254 190.452525 
L 356.993254 190.452525 
L 358.460598 168.351515 
L 358.460598 168.351515 
L 358.666202 190.452525 
L 358.704194 212.553535 
L 359.571747 190.452525 
L 359.571747 190.452525 
L 360.775911 190.452525 
L 360.775911 190.452525 
L 361.53102 212.553535 
L 361.53102 212.553535 
L 362.847855 234.654545 
L 364.722132 190.452525 
L 364.722132 190.452525 
L 365.388744 190.452525 
L 365.388744 190.452525 
L 365.613495 168.351515 
L 365.613495 168.351515 
L 365.874323 168.351515 
L 365.874323 168.351515 
L 367.351137 146.250505 
L 367.351137 146.250505 
L 367.937611 168.351515 
L 367.937611 168.351515 
L 368.108081 168.351515 
L 368.108081 168.351515 
L 368.546083 146.250505 
L 368.546083 146.250505 
L 369.608135 168.351515 
L 369.608135 168.351515 
L 370.061718 168.351515 
L 370.061718 168.351515 
L 370.197592 146.250505 
L 370.197592 146.250505 
L 370.905109 168.351515 
L 370.905109 168.351515 
L 372.123301 168.351515 
L 372.123301 168.351515 
L 372.22791 190.452525 
L 372.22791 190.452525 
L 372.310028 168.351515 
L 372.310028 168.351515 
L 373.131648 168.351515 
L 373.131648 168.351515 
L 373.374038 190.452525 
L 375.085023 212.553535 
L 375.085023 212.553535 
L 375.805389 190.452525 
L 375.805389 190.452525 
L 376.125461 212.553535 
L 376.367351 190.452525 
L 376.367351 190.452525 
L 377.842346 190.452525 
L 377.842346 190.452525 
L 378.264253 168.351515 
L 378.264253 168.351515 
L 378.920652 190.452525 
L 379.443324 190.452525 
L 379.443324 190.452525 
L 382.693392 234.654545 
L 382.909826 212.553535 
L 382.909826 212.553535 
L 384.267052 212.553535 
L 384.267052 212.553535 
L 384.875671 190.452525 
L 384.875671 190.452525 
L 385.796761 168.351515 
L 385.796761 168.351515 
L 385.883456 190.452525 
L 387.714615 190.452525 
L 387.714615 190.452525 
L 388.66528 212.553535 
L 388.66528 212.553535 
L 389.301272 190.452525 
L 389.301272 190.452525 
L 390.13507 168.351515 
L 390.13507 168.351515 
L 390.704029 168.351515 
L 390.704029 168.351515 
L 390.756704 190.452525 
L 390.756704 190.452525 
L 392.293587 212.553535 
L 392.293587 212.553535 
L 392.498549 190.452525 
L 392.498549 190.452525 
L 393.44247 190.452525 
L 393.44247 190.452525 
L 393.762238 168.351515 
L 393.762238 168.351515 
L 394.360103 146.250505 
L 394.360103 146.250505 
L 394.685047 168.351515 
L 394.685047 168.351515 
L 395.318531 168.351515 
L 395.318531 168.351515 
L 395.778742 146.250505 
L 395.778742 146.250505 
L 395.800664 168.351515 
L 395.800664 168.351515 
L 396.427779 190.452525 
L 396.787987 190.452525 
L 396.787987 190.452525 
L 397.167233 212.553535 
L 398.023088 234.654545 
L 398.929206 212.553535 
L 398.929206 212.553535 
L 399.933163 212.553535 
L 399.933163 212.553535 
L 400.138658 190.452525 
L 400.138658 190.452525 
L 400.536612 212.553535 
L 401.159538 212.553535 
L 401.159538 212.553535 
L 401.469606 190.452525 
L 401.469606 190.452525 
L 403.226706 190.452525 
L 403.226706 190.452525 
L 404.620978 212.553535 
L 404.916649 190.452525 
L 404.916649 190.452525 
L 405.703101 168.351515 
L 405.703101 168.351515 
L 405.781238 190.452525 
L 406.829032 190.452525 
L 406.829032 190.452525 
L 407.111774 168.351515 
L 407.111774 168.351515 
L 408.168626 168.351515 
L 408.168626 168.351515 
L 408.187489 190.452525 
L 408.187489 190.452525 
L 408.621731 168.351515 
L 408.621731 168.351515 
L 409.662135 146.250505 
L 409.662135 146.250505 
L 409.726833 168.351515 
L 409.726833 168.351515 
L 410.504031 168.351515 
L 410.504031 168.351515 
L 410.704327 146.250505 
L 410.704327 146.250505 
L 412.877225 168.351515 
L 412.877225 168.351515 
L 413.064636 146.250505 
L 413.064636 146.250505 
L 413.549612 124.149495 
L 413.549612 124.149495 
L 413.559548 146.250505 
L 413.559548 146.250505 
L 414.187262 146.250505 
L 414.187262 146.250505 
L 414.68539 124.149495 
L 414.68539 124.149495 
L 415.756046 146.250505 
L 415.756046 146.250505 
L 416.313322 146.250505 
L 416.313322 146.250505 
L 416.952897 168.351515 
L 416.952897 168.351515 
L 417.969758 146.250505 
L 417.969758 146.250505 
L 418.353 168.351515 
L 418.353 168.351515 
L 418.682538 168.351515 
L 418.682538 168.351515 
L 419.436142 190.452525 
L 419.436142 190.452525 
L 419.931582 168.351515 
L 419.931582 168.351515 
L 420.618313 168.351515 
L 420.618313 168.351515 
L 421.649488 190.452525 
L 421.649488 190.452525 
L 421.678278 168.351515 
L 421.678278 168.351515 
L 422.642061 168.351515 
L 422.642061 168.351515 
L 422.891011 146.250505 
L 422.891011 146.250505 
L 422.940831 168.351515 
L 422.940831 168.351515 
L 423.86015 168.351515 
L 423.86015 168.351515 
L 424.598751 146.250505 
L 424.598751 146.250505 
L 424.812702 168.351515 
L 425.395279 146.250505 
L 425.395279 146.250505 
L 426.384557 146.250505 
L 426.384557 146.250505 
L 427.234955 124.149495 
L 427.234955 124.149495 
L 427.422981 168.351515 
L 428.274806 168.351515 
L 428.274806 168.351515 
L 429.405661 146.250505 
L 429.405661 146.250505 
L 429.962273 212.553535 
L 430.79037 234.654545 
L 431.716344 212.553535 
L 431.716344 212.553535 
L 432.317072 212.553535 
L 432.317072 212.553535 
L 432.392595 190.452525 
L 432.392595 190.452525 
L 433.113552 168.351515 
L 433.113552 168.351515 
L 433.596461 146.250505 
L 433.596461 146.250505 
L 434.129817 168.351515 
L 434.651672 168.351515 
L 434.651672 168.351515 
L 435.116214 146.250505 
L 435.116214 146.250505 
L 435.72886 146.250505 
L 435.72886 146.250505 
L 435.935137 168.351515 
L 435.935137 168.351515 
L 436.42347 168.351515 
L 436.42347 168.351515 
L 436.785852 146.250505 
L 436.785852 146.250505 
L 437.880312 146.250505 
L 437.880312 146.250505 
L 437.926085 124.149495 
L 437.926085 124.149495 
L 438.039535 146.250505 
L 438.039535 146.250505 
L 438.579048 124.149495 
L 438.579048 124.149495 
L 439.706519 146.250505 
L 439.706519 146.250505 
L 440.490762 124.149495 
L 440.490762 124.149495 
L 441.226305 146.250505 
L 441.226305 146.250505 
L 441.3109 168.351515 
L 441.3109 168.351515 
L 441.534866 146.250505 
L 441.534866 146.250505 
L 441.541251 168.351515 
L 442.101526 168.351515 
L 442.101526 168.351515 
L 442.913764 190.452525 
L 442.913764 190.452525 
L 443.212132 168.351515 
L 443.212132 168.351515 
L 444.8442 190.452525 
L 444.8442 190.452525 
L 444.944237 168.351515 
L 444.944237 168.351515 
L 446.624226 168.351515 
L 446.624226 168.351515 
L 446.873815 190.452525 
L 446.873815 190.452525 
L 447.632776 212.553535 
L 448.000779 234.654545 
L 448.089118 212.553535 
L 448.089118 212.553535 
L 448.810383 190.452525 
L 448.810383 190.452525 
L 448.961186 190.452525 
L 448.961186 190.452525 
L 450.187652 212.553535 
L 450.187652 212.553535 
L 450.195915 190.452525 
L 450.195915 190.452525 
L 451.072634 190.452525 
L 451.072634 190.452525 
L 451.133308 168.351515 
L 451.133308 168.351515 
L 451.786157 190.452525 
L 451.786157 190.452525 
L 451.995241 168.351515 
L 451.995241 168.351515 
L 452.793719 190.452525 
L 452.793719 190.452525 
L 452.834784 168.351515 
L 452.834784 168.351515 
L 453.701828 146.250505 
L 453.701828 146.250505 
L 453.784799 168.351515 
L 453.784799 168.351515 
L 454.907423 168.351515 
L 454.907423 168.351515 
L 454.953078 190.452525 
L 454.953078 190.452525 
L 455.435657 168.351515 
L 455.435657 168.351515 
L 456.043888 168.351515 
L 456.043888 168.351515 
L 456.461198 146.250505 
L 456.461198 146.250505 
L 456.611333 146.250505 
L 456.611333 146.250505 
L 456.817837 168.351515 
L 456.817837 168.351515 
L 457.764641 146.250505 
L 457.764641 146.250505 
L 458.234331 146.250505 
L 458.234331 146.250505 
L 458.607308 168.351515 
L 459.108499 146.250505 
L 459.108499 146.250505 
L 460.038228 146.250505 
L 460.038228 146.250505 
L 460.075676 168.351515 
L 460.323693 190.452525 
L 460.594576 190.452525 
L 460.594576 190.452525 
L 462.210034 212.553535 
L 462.493191 190.452525 
L 462.493191 190.452525 
L 463.92905 190.452525 
L 463.92905 190.452525 
L 464.717211 168.351515 
L 464.717211 168.351515 
L 465.042704 212.553535 
L 465.667937 190.452525 
L 465.667937 190.452525 
L 466.275912 212.553535 
L 466.98555 190.452525 
L 466.98555 190.452525 
L 467.641875 190.452525 
L 467.641875 190.452525 
L 468.480196 168.351515 
L 468.480196 168.351515 
L 468.797151 190.452525 
L 468.797151 190.452525 
L 470.20541 190.452525 
L 470.20541 190.452525 
L 470.612385 212.553535 
L 470.612385 212.553535 
L 472.553409 234.654545 
L 472.553409 234.654545 
" clip-path="url(#p38a021e3f2)" style="fill: none; stroke: #2563eb; stroke-width: 1.5; stroke-linecap: square"/>
   </g>
   <g id="patch_3">
    <path d="M 38.975 244.6 
L 38.975 25.8 
" style="fill: none; stroke: #000000; stroke-width: 0.8; stroke-linejoin: miter; stroke-linecap: square"/>
   </g>
   <g id="patch_4">
    <path d="M 493.2 244.6 
L 493.2 25.8 
" style="fill: none; stroke: #000000; stroke-width: 0.8; stroke-linejoin: miter; stroke-linecap: square"/>
   </g>
   <g id="patch_5">
    <path d="M 38.975 244.6 
L 493.2 244.6 
" style="fill: none; stroke: #000000; stroke-width: 0.8; stroke-linejoin: miter; stroke-linecap: square"/>
   </g>
   <g id="patch_6">
    <path d="M 38.975 25.8 
L 493.2 25.8 
" style="fill: none; stroke: #000000; stroke-width: 0.8; stroke-linejoin: miter; stroke-linecap: square"/>
   </g>
   <g id="text_14">
    <!-- System Load Over Time (patients in system; avg=3.38, median=3.00) -->
    <g transform="translate(54.399062 19.8) scale(0.12 -0.12)">
     <defs>
      <path id="DejaVuSans-53" d="M 3425 4513 
L 3425 3897 
Q 3066 4069 2747 4153 
Q 2428 4238 2131 4238 
Q 1616 4238 1336 4038 
Q 1056 3838 1056 3469 
Q 1056 3159 1242 3001 
Q 1428 2844 1947 2747 
L 2328 2669 
Q 3034 2534 3370 2195 
Q 3706 1856 3706 1288 
Q 3706 609 3251 259 
Q 2797 -91 1919 -91 
Q 1588 -91 1214 -16 
Q 841 59 441 206 
L 441 856 
Q 825 641 1194 531 
Q 1563 422 1919 422 
Q 2459 422 2753 634 
Q 3047 847 3047 1241 
Q 3047 1584 2836 1778 
Q 2625 1972 2144 2069 
L 1759 2144 
Q 1053 2284 737 2584 
Q 422 2884 422 3419 
Q 422 4038 858 4394 
Q 1294 4750 2059 4750 
Q 2388 4750 2728 4690 
Q 3069 4631 3425 4513 
z
" transform="scale(0.015625)"/>
      <path id="DejaVuSans-79" d="M 2059 -325 
Q 1816 -950 1584 -1140 
Q 1353 -1331 966 -1331 
L 506 -1331 
L 506 -850 
L 844 -850 
Q 1081 -850 1212 -737 
Q 1344 -625 1503 -206 
L 1606 56 
L 191 3500 
L 800 3500 
L 1894 763 
L 2988 3500 
L 3597 3500 
L 2059 -325 
z
" transform="scale(0.015625)"/>
      <path id="DejaVuSans-20" transform="scale(0.015625)"/>
      <path id="DejaVuSans-4c" d="M 628 4666 
L 1259 4666 
L 1259 531 
L 3531 531 
L 3531 0 
L 628 0 
L 628 4666 
z
" transform="scale(0.015625)"/>
      <path id="DejaVuSans-6f" d="M 1959 3097 
Q 1497 3097 1228 2736 
Q 959 2375 959 1747 
Q 959 1119 1226 758 
Q 1494 397 1959 397 
Q 2419 397 2687 759 
Q 2956 1122 2956 1747 
Q 2956 2369 2687 2733 
Q 2419 3097 1959 3097 
z
M 1959 3584 
Q 2709 3584 3137 3096 
Q 3566 2609 3566 1747 
Q 3566 888 3137 398 
Q 2709 -91 1959 -91 
Q 1206 -91 779 398 
Q 353 888 353 1747 
Q 353 2609 779 3096 
Q 1206 3584 1959 3584 
z
" transform="scale(0.015625)"/>
      <path id="DejaVuSans-64" d="M 2906 2969 
L 2906 4863 
L 3481 4863 
L 3481 0 
L 2906 0 
L 2906 525 
Q 2725 213 2448 61 
Q 2172 -91 1784 -91 
Q 1150 -91 751 415 
Q 353 922 353 1747 
Q 353 2572 751 3078 
Q 1150 3584 1784 3584 
Q 2172 3584 2448 3432 
Q 2725 3281 2906 2969 
z
M 947 1747 
Q 947 1113 1208 752 
Q 1469 391 1925 391 
Q 2381 391 2643 752 
Q 2906 1113 2906 1747 
Q 2906 2381 2643 2742 
Q 2381 3103 1925 3103 
Q 1469 3103 1208 2742 
Q 947 2381 947 1747 
z
" transform="scale(0.015625)"/>
      <path id="DejaVuSans-4f" d="M 2522 4238 
Q 1834 4238 1429 3725 
Q 1025 3213 1025 2328 
Q 1025 1447 1429 934 
Q 1834 422 2522 422 
Q 3209 422 3611 934 
Q 4013 1447 4013 2328 
Q 4013 3213 3611 3725 
Q 3209 4238 2522 4238 
z
M 2522 4750 
Q 3503 4750 4090 4092 
Q 4678 3434 4678 2328 
Q 4678 1225 4090 567 
Q 3503 -91 2522 -91 
Q 1538 -91 948 565 
Q 359 1222 359 2328 
Q 359 3434 948 4092 
Q 1538 4750 2522 4750 
z
" transform="scale(0.015625)"/>
      <path id="DejaVuSans-76" d="M 191 3500 
L 800 3500 
L 1894 563 
L 2988 3500 
L 3597 3500 
L 2284 0 
L 1503 0 
L 191 3500 
z
" transform="scale(0.015625)"/>
      <path id="DejaVuSans-72" d="M 2631 2963 
Q 2534 3019 2420 3045 
Q 2306 3072 2169 3072 
Q 1681 3072 1420 2755 
Q 1159 2438 1159 1844 
L 1159 0 
L 581 0 
L 581 3500 
L 1159 3500 
L 1159 2956 
Q 1341 3275 1631 3429 
Q 1922 3584 2338 3584 
Q 2397 3584 2469 3576 
Q 2541 3569 2628 3553 
L 2631 2963 
z
" transform="scale(0.015625)"/>
      <path id="DejaVuSans-54" d="M -19 4666 
L 3928 4666 
L 3928 4134 
L 2272 4134 
L 2272 0 
L 1638 0 
L 1638 4134 
L -19 4134 
L -19 4666 
z
" transform="scale(0.015625)"/>
      <path id="DejaVuSans-28" d="M 1984 4856 
Q 1566 4138 1362 3434 
Q 1159 2731 1159 2009 
Q 1159 1288 1364 580 
Q 1569 -128 1984 -844 
L 1484 -844 
Q 1016 -109 783 600 
Q 550 1309 550 2009 
Q 550 2706 781 3412 
Q 1013 4119 1484 4856 
L 1984 4856 
z
" transform="scale(0.015625)"/>
      <path id="DejaVuSans-3b" d="M 750 3309 
L 1409 3309 
L 1409 2516 
L 750 2516 
L 750 3309 
z
M 750 794 
L 1409 794 
L 1409 256 
L 897 -744 
L 494 -744 
L 750 256 
L 750 794 
z
" transform="scale(0.015625)"/>
      <path id="DejaVuSans-67" d="M 2906 1791 
Q 2906 2416 2648 2759 
Q 2391 3103 1925 3103 
Q 1463 3103 1205 2759 
Q 947 2416 947 1791 
Q 947 1169 1205 825 
Q 1463 481 1925 481 
Q 2391 481 2648 825 
Q 2906 1169 2906 1791 
z
M 3481 434 
Q 3481 -459 3084 -895 
Q 2688 -1331 1869 -1331 
Q 1566 -1331 1297 -1286 
Q 1028 -1241 775 -1147 
L 775 -588 
Q 1028 -725 1275 -790 
Q 1522 -856 1778 -856 
Q 2344 -856 2625 -561 
Q 2906 -266 2906 331 
L 2906 616 
Q 2728 306 2450 153 
Q 2172 0 1784 0 
Q 1141 0 747 490 
Q 353 981 353 1791 
Q 353 2603 747 3093 
Q 1141 3584 1784 3584 
Q 2172 3584 2450 3431 
Q 2728 3278 2906 2969 
L 2906 3500 
L 3481 3500 
L 3481 434 
z
" transform="scale(0.015625)"/>
      <path id="DejaVuSans-3d" d="M 678 2906 
L 4684 2906 
L 4684 2381 
L 678 2381 
L 678 2906 
z
M 678 1631 
L 4684 1631 
L 4684 1100 
L 678 1100 
L 678 1631 
z
" transform="scale(0.015625)"/>
      <path id="DejaVuSans-33" d="M 2597 2516 
Q 3050 2419 3304 2112 
Q 3559 1806 3559 1356 
Q 3559 666 3084 287 
Q 2609 -91 1734 -91 
Q 1441 -91 1130 -33 
Q 819 25 488 141 
L 488 750 
Q 750 597 1062 519 
Q 1375 441 1716 441 
Q 2309 441 2620 675 
Q 2931 909 2931 1356 
Q 2931 1769 2642 2001 
Q 2353 2234 1838 2234 
L 1294 2234 
L 1294 2753 
L 1863 2753 
Q 2328 2753 2575 2939 
Q 2822 3125 2822 3475 
Q 2822 3834 2567 4026 
Q 2313 4219 1838 4219 
Q 1578 4219 1281 4162 
Q 984 4106 628 3988 
L 628 4550 
Q 988 4650 1302 4700 
Q 1616 4750 1894 4750 
Q 2613 4750 3031 4423 
Q 3450 4097 3450 3541 
Q 3450 3153 3228 2886 
Q 3006 2619 2597 2516 
z
" transform="scale(0.015625)"/>
      <path id="DejaVuSans-2e" d="M 684 794 
L 1344 794 
L 1344 0 
L 684 0 
L 684 794 
z
" transform="scale(0.015625)"/>
      <path id="DejaVuSans-2c" d="M 750 794 
L 1409 794 
L 1409 256 
L 897 -744 
L 494 -744 
L 750 256 
L 750 794 
z
" transform="scale(0.015625)"/>
      <path id="DejaVuSans-29" d="M 513 4856 
L 1013 4856 
Q 1481 4119 1714 3412 
Q 1947 2706 1947 2009 
Q 1947 1309 1714 600 
Q 1481 -109 1013 -844 
L 513 -844 
Q 928 -128 1133 580 
Q 1338 1288 1338 2009 
Q 1338 2731 1133 3434 
Q 928 4138 513 4856 
z
" transform="scale(0.015625)"/>
     </defs>
     <use xlink:href="#DejaVuSans-53"/>
     <use xlink:href="#DejaVuSans-79" x="63.476562"/>
     <use xlink:href="#DejaVuSans-73" x="122.65625"/>
     <use xlink:href="#DejaVuSans-74" x="174.755859"/>
     <use xlink:href="#DejaVuSans-65" x="213.964844"/>
     <use xlink:href="#DejaVuSans-6d" x="275.488281"/>
     <use xlink:href="#DejaVuSans-20" x="372.900391"/>
     <use xlink:href="#DejaVuSans-4c" x="404.6875"/>
     <use xlink:href="#DejaVuSans-6f" x="458.650391"/>
     <use xlink:href="#DejaVuSans-61" x="519.832031"/>
     <use xlink:href="#DejaVuSans-64" x="581.111328"/>
     <use xlink:href="#DejaVuSans-20" x="644.587891"/>
     <use xlink:href="#DejaVuSans-4f" x="676.375"/>
     <use xlink:href="#DejaVuSans-76" x="755.085938"/>
     <use xlink:href="#DejaVuSans-65" x="814.265625"/>
     <use xlink:href="#DejaVuSans-72" x="875.789062"/>
     <use xlink:href="#DejaVuSans-20" x="916.902344"/>
     <use xlink:href="#DejaVuSans-54" x="948.689453"/>
     <use xlink:href="#DejaVuSans-69" x="1006.648438"/>
     <use xlink:href="#DejaVuSans-6d" x="1034.431641"/>
     <use xlink:href="#DejaVuSans-65" x="1131.84375"/>
     <use xlink:href="#DejaVuSans-20" x="1193.367188"/>
     <use xlink:href="#DejaVuSans-28" x="1225.154297"/>
     <use xlink:href="#DejaVuSans-70" x="1264.167969"/>
     <use xlink:href="#DejaVuSans-61" x="1327.644531"/>
     <use xlink:href="#DejaVuSans-74" x="1388.923828"/>
     <use xlink:href="#DejaVuSans-69" x="1428.132812"/>
     <use xlink:href="#DejaVuSans-65" x="1455.916016"/>
     <use xlink:href="#DejaVuSans-6e" x="1517.439453"/>
     <use xlink:href="#DejaVuSans-74" x="1580.818359"/>
     <use xlink:href="#DejaVuSans-73" x="1620.027344"/>
     <use xlink:href="#DejaVuSans-20" x="1672.126953"/>
     <use xlink:href="#DejaVuSans-69" x="1703.914062"/>
     <use xlink:href="#DejaVuSans-6e" x="1731.697266"/>
     <use xlink:href="#DejaVuSans-20" x="1795.076172"/>
     <use xlink:href="#DejaVuSans-73" x="1826.863281"/>
     <use xlink:href="#DejaVuSans-79" x="1878.962891"/>
     <use xlink:href="#DejaVuSans-73" x="1938.142578"/>
     <use xlink:href="#DejaVuSans-74" x="1990.242188"/>
     <use xlink:href="#DejaVuSans-65" x="2029.451172"/>
     <use xlink:href="#DejaVuSans-6d" x="2090.974609"/>
     <use xlink:href="#DejaVuSans-3b" x="2188.386719"/>
     <use xlink:href="#DejaVuSans-20" x="2222.078125"/>
     <use xlink:href="#DejaVuSans-61" x="2253.865234"/>
     <use xlink:href="#DejaVuSans-76" x="2315.144531"/>
     <use xlink:href="#DejaVuSans-67" x="2374.324219"/>
     <use xlink:href="#DejaVuSans-3d" x="2437.800781"/>
     <use xlink:href="#DejaVuSans-33" x="2521.589844"/>
     <use xlink:href="#DejaVuSans-2e" x="2585.212891"/>
     <use xlink:href="#DejaVuSans-33" x="2617"/>
     <use xlink:href="#DejaVuSans-38" x="2680.623047"/>
     <use xlink:href="#DejaVuSans-2c" x="2744.246094"/>
     <use xlink:href="#DejaVuSans-20" x="2776.033203"/>
     <use xlink:href="#DejaVuSans-6d" x="2807.820312"/>
     <use xlink:href="#DejaVuSans-65" x="2905.232422"/>
     <use xlink:href="#DejaVuSans-64" x="2966.755859"/>
     <use xlink:href="#DejaVuSans-69" x="3030.232422"/>
     <use xlink:href="#DejaVuSans-61" x="3058.015625"/>
     <use xlink:href="#DejaVuSans-6e" x="3119.294922"/>
     <use xlink:href="#DejaVuSans-3d" x="3182.673828"/>
     <use xlink:href="#DejaVuSans-33" x="3266.462891"/>
     <use xlink:href="#DejaVuSans-2e" x="3330.085938"/>
     <use xlink:href="#DejaVuSans-30" x="3361.873047"/>
     <use xlink:href="#DejaVuSans-30" x="3425.496094"/>
     <use xlink:href="#DejaVuSans-29" x="3489.119141"/>
    </g>
   </g>
  </g>
 </g>
 <defs>
  <clipPath id="p38a021e3f2">
   <rect x="38.975" y="25.8" width="454.225" height="218.8"/>
  </clipPath>
 </defs>
</svg>
