<?xml version="1.0" encoding="utf-8" standalone="no"?>
<!DOCTYPE svg PUBLIC "-//W3C//DTD SVG 1.1//EN"
  "http://www.w3.org/Graphics/SVG/1.1/DTD/svg11.dtd">
<svg xmlns:xlink="http://www.w3.org/1999/xlink" width="576pt" height="360pt" viewBox="0 0 576 360" xmlns="http://www.w3.org/2000/svg" version="1.1">
 <metadata>
  <rdf:RDF xmlns:dc="http://purl.org/dc/elements/1.1/" xmlns:cc="http://creativecommons.org/ns#" xmlns:rdf="http://www.w3.org/1999/02/22-rdf-syntax-ns#">
   <cc:Work>
    <dc:type rdf:resource="http://purl.org/dc/dcmitype/StillImage"/>
    <dc:date>2025-09-07T05:36:58.197693</dc:date>
    <dc:format>image/svg+xml</dc:format>
    <dc:creator>
     <cc:Agent>
      <dc:title>Matplotlib v3.9.2, https://matplotlib.org/</dc:title>
     </cc:Agent>
    </dc:creator>
   </cc:Work>
  </rdf:RDF>
 </metadata>
 <defs>
  <style type="text/css">*{stroke-linejoin: round; stroke-linecap: butt}</style>
 </defs>
 <g id="figure_1">
  <g id="patch_1">
   <path d="M 0 360 
L 576 360 
L 576 0 
L 0 0 
z
" style="fill: #ffffff"/>
  </g>
  <g id="axes_1">
   <g id="patch_2">
    <path d="M 38.975 316.6 
L 565.2 316.6 
L 565.2 25.8 
L 38.975 25.8 
z
" style="fill: #ffffff"/>
   </g>
   <g id="matplotlib.axis_1">
    <g id="xtick_1">
     <g id="line2d_1">
      <defs>
       <path id="md46356fcd7" d="M 0 0 
L 0 3.5 
" style="stroke: #000000; stroke-width: 0.8"/>
      </defs>
      <g>
       <use xlink:href="#md46356fcd7" x="60.86331" y="316.6" style="stroke: #000000; stroke-width: 0.8"/>
      </g>
     </g>
     <g id="text_1">
      <!-- 0 -->
      <g transform="translate(57.68206 331.198438) scale(0.1 -0.1)">
       <defs>
        <path id="DejaVuSans-30" d="M 2034 4250 
Q 1547 4250 1301 3770 
Q 1056 3291 1056 2328 
Q 1056 1369 1301 889 
Q 1547 409 2034 409 
Q 2525 409 2770 889 
Q 3016 1369 3016 2328 
Q 3016 3291 2770 3770 
Q 2525 4250 2034 4250 
z
M 2034 4750 
Q 2819 4750 3233 4129 
Q 3647 3509 3647 2328 
Q 3647 1150 3233 529 
Q 2819 -91 2034 -91 
Q 1250 -91 836 529 
Q 422 1150 422 2328 
Q 422 3509 836 4129 
Q 1250 4750 2034 4750 
z
" transform="scale(0.015625)"/>
       </defs>
       <use xlink:href="#DejaVuSans-30"/>
      </g>
     </g>
    </g>
    <g id="xtick_2">
     <g id="line2d_2">
      <g>
       <use xlink:href="#md46356fcd7" x="156.302801" y="316.6" style="stroke: #000000; stroke-width: 0.8"/>
      </g>
     </g>
     <g id="text_2">
      <!-- 200 -->
      <g transform="translate(146.759051 331.198438) scale(0.1 -0.1)">
       <defs>
        <path id="DejaVuSans-32" d="M 1228 531 
L 3431 531 
L 3431 0 
L 469 0 
L 469 531 
Q 828 903 1448 1529 
Q 2069 2156 2228 2338 
Q 2531 2678 2651 2914 
Q 2772 3150 2772 3378 
Q 2772 3750 2511 3984 
Q 2250 4219 1831 4219 
Q 1534 4219 1204 4116 
Q 875 4013 500 3803 
L 500 4441 
Q 881 4594 1212 4672 
Q 1544 4750 1819 4750 
Q 2544 4750 2975 4387 
Q 3406 4025 3406 3419 
Q 3406 3131 3298 2873 
Q 3191 2616 2906 2266 
Q 2828 2175 2409 1742 
Q 1991 1309 1228 531 
z
" transform="scale(0.015625)"/>
       </defs>
       <use xlink:href="#DejaVuSans-32"/>
       <use xlink:href="#DejaVuSans-30" x="63.623047"/>
       <use xlink:href="#DejaVuSans-30" x="127.246094"/>
      </g>
     </g>
    </g>
    <g id="xtick_3">
     <g id="line2d_3">
      <g>
       <use xlink:href="#md46356fcd7" x="251.742291" y="316.6" style="stroke: #000000; stroke-width: 0.8"/>
      </g>
     </g>
     <g id="text_3">
      <!-- 400 -->
      <g transform="translate(242.198541 331.198438) scale(0.1 -0.1)">
       <defs>
        <path id="DejaVuSans-34" d="M 2419 4116 
L 825 1625 
L 2419 1625 
L 2419 4116 
z
M 2253 4666 
L 3047 4666 
L 3047 1625 
L 3713 1625 
L 3713 1100 
L 3047 1100 
L 3047 0 
L 2419 0 
L 2419 1100 
L 313 1100 
L 313 1709 
L 2253 4666 
z
" transform="scale(0.015625)"/>
       </defs>
       <use xlink:href="#DejaVuSans-34"/>
       <use xlink:href="#DejaVuSans-30" x="63.623047"/>
       <use xlink:href="#DejaVuSans-30" x="127.246094"/>
      </g>
     </g>
    </g>
    <g id="xtick_4">
     <g id="line2d_4">
      <g>
       <use xlink:href="#md46356fcd7" x="347.181781" y="316.6" style="stroke: #000000; stroke-width: 0.8"/>
      </g>
     </g>
     <g id="text_4">
      <!-- 600 -->
      <g transform="translate(337.638031 331.198438) scale(0.1 -0.1)">
       <defs>
        <path id="DejaVuSans-36" d="M 2113 2584 
Q 1688 2584 1439 2293 
Q 1191 2003 1191 1497 
Q 1191 994 1439 701 
Q 1688 409 2113 409 
Q 2538 409 2786 701 
Q 3034 994 3034 1497 
Q 3034 2003 2786 2293 
Q 2538 2584 2113 2584 
z
M 3366 4563 
L 3366 3988 
Q 3128 4100 2886 4159 
Q 2644 4219 2406 4219 
Q 1781 4219 1451 3797 
Q 1122 3375 1075 2522 
Q 1259 2794 1537 2939 
Q 1816 3084 2150 3084 
Q 2853 3084 3261 2657 
Q 3669 2231 3669 1497 
Q 3669 778 3244 343 
Q 2819 -91 2113 -91 
Q 1303 -91 875 529 
Q 447 1150 447 2328 
Q 447 3434 972 4092 
Q 1497 4750 2381 4750 
Q 2619 4750 2861 4703 
Q 3103 4656 3366 4563 
z
" transform="scale(0.015625)"/>
       </defs>
       <use xlink:href="#DejaVuSans-36"/>
       <use xlink:href="#DejaVuSans-30" x="63.623047"/>
       <use xlink:href="#DejaVuSans-30" x="127.246094"/>
      </g>
     </g>
    </g>
    <g id="xtick_5">
     <g id="line2d_5">
      <g>
       <use xlink:href="#md46356fcd7" x="442.621271" y="316.6" style="stroke: #000000; stroke-width: 0.8"/>
      </g>
     </g>
     <g id="text_5">
      <!-- 800 -->
      <g transform="translate(433.077521 331.198438) scale(0.1 -0.1)">
       <defs>
        <path id="DejaVuSans-38" d="M 2034 2216 
Q 1584 2216 1326 1975 
Q 1069 1734 1069 1313 
Q 1069 891 1326 650 
Q 1584 409 2034 409 
Q 2484 409 2743 651 
Q 3003 894 3003 1313 
Q 3003 1734 2745 1975 
Q 2488 2216 2034 2216 
z
M 1403 2484 
Q 997 2584 770 2862 
Q 544 3141 544 3541 
Q 544 4100 942 4425 
Q 1341 4750 2034 4750 
Q 2731 4750 3128 4425 
Q 3525 4100 3525 3541 
Q 3525 3141 3298 2862 
Q 3072 2584 2669 2484 
Q 3125 2378 3379 2068 
Q 3634 1759 3634 1313 
Q 3634 634 3220 271 
Q 2806 -91 2034 -91 
Q 1263 -91 848 271 
Q 434 634 434 1313 
Q 434 1759 690 2068 
Q 947 2378 1403 2484 
z
M 1172 3481 
Q 1172 3119 1398 2916 
Q 1625 2713 2034 2713 
Q 2441 2713 2670 2916 
Q 2900 3119 2900 3481 
Q 2900 3844 2670 4047 
Q 2441 4250 2034 4250 
Q 1625 4250 1398 4047 
Q 1172 3844 1172 3481 
z
" transform="scale(0.015625)"/>
       </defs>
       <use xlink:href="#DejaVuSans-38"/>
       <use xlink:href="#DejaVuSans-30" x="63.623047"/>
       <use xlink:href="#DejaVuSans-30" x="127.246094"/>
      </g>
     </g>
    </g>
    <g id="xtick_6">
     <g id="line2d_6">
      <g>
       <use xlink:href="#md46356fcd7" x="538.060762" y="316.6" style="stroke: #000000; stroke-width: 0.8"/>
      </g>
     </g>
     <g id="text_6">
      <!-- 1000 -->
      <g transform="translate(525.335762 331.198438) scale(0.1 -0.1)">
       <defs>
        <path id="DejaVuSans-31" d="M 794 531 
L 1825 531 
L 1825 4091 
L 703 3866 
L 703 4441 
L 1819 4666 
L 2450 4666 
L 2450 531 
L 3481 531 
L 3481 0 
L 794 0 
L 794 531 
z
" transform="scale(0.015625)"/>
       </defs>
       <use xlink:href="#DejaVuSans-31"/>
       <use xlink:href="#DejaVuSans-30" x="63.623047"/>
       <use xlink:href="#DejaVuSans-30" x="127.246094"/>
       <use xlink:href="#DejaVuSans-30" x="190.869141"/>
      </g>
     </g>
    </g>
    <g id="text_7">
     <!-- time -->
     <g transform="translate(290.791406 344.876563) scale(0.1 -0.1)">
      <defs>
       <path id="DejaVuSans-74" d="M 1172 4494 
L 1172 3500 
L 2356 3500 
L 2356 3053 
L 1172 3053 
L 1172 1153 
Q 1172 725 1289 603 
Q 1406 481 1766 481 
L 2356 481 
L 2356 0 
L 1766 0 
Q 1100 0 847 248 
Q 594 497 594 1153 
L 594 3053 
L 172 3053 
L 172 3500 
L 594 3500 
L 594 4494 
L 1172 4494 
z
" transform="scale(0.015625)"/>
       <path id="DejaVuSans-69" d="M 603 3500 
L 1178 3500 
L 1178 0 
L 603 0 
L 603 3500 
z
M 603 4863 
L 1178 4863 
L 1178 4134 
L 603 4134 
L 603 4863 
z
" transform="scale(0.015625)"/>
       <path id="DejaVuSans-6d" d="M 3328 2828 
Q 3544 3216 3844 3400 
Q 4144 3584 4550 3584 
Q 5097 3584 5394 3201 
Q 5691 2819 5691 2113 
L 5691 0 
L 5113 0 
L 5113 2094 
Q 5113 2597 4934 2840 
Q 4756 3084 4391 3084 
Q 3944 3084 3684 2787 
Q 3425 2491 3425 1978 
L 3425 0 
L 2847 0 
L 2847 2094 
Q 2847 2600 2669 2842 
Q 2491 3084 2119 3084 
Q 1678 3084 1418 2786 
Q 1159 2488 1159 1978 
L 1159 0 
L 581 0 
L 581 3500 
L 1159 3500 
L 1159 2956 
Q 1356 3278 1631 3431 
Q 1906 3584 2284 3584 
Q 2666 3584 2933 3390 
Q 3200 3197 3328 2828 
z
" transform="scale(0.015625)"/>
       <path id="DejaVuSans-65" d="M 3597 1894 
L 3597 1613 
L 953 1613 
Q 991 1019 1311 708 
Q 1631 397 2203 397 
Q 2534 397 2845 478 
Q 3156 559 3463 722 
L 3463 178 
Q 3153 47 2828 -22 
Q 2503 -91 2169 -91 
Q 1331 -91 842 396 
Q 353 884 353 1716 
Q 353 2575 817 3079 
Q 1281 3584 2069 3584 
Q 2775 3584 3186 3129 
Q 3597 2675 3597 1894 
z
M 3022 2063 
Q 3016 2534 2758 2815 
Q 2500 3097 2075 3097 
Q 1594 3097 1305 2825 
Q 1016 2553 972 2059 
L 3022 2063 
z
" transform="scale(0.015625)"/>
      </defs>
      <use xlink:href="#DejaVuSans-74"/>
      <use xlink:href="#DejaVuSans-69" x="39.208984"/>
      <use xlink:href="#DejaVuSans-6d" x="66.992188"/>
      <use xlink:href="#DejaVuSans-65" x="164.404297"/>
     </g>
    </g>
   </g>
   <g id="matplotlib.axis_2">
    <g id="ytick_1">
     <g id="line2d_7">
      <defs>
       <path id="m96acd2f2e4" d="M 0 0 
L -3.5 0 
" style="stroke: #000000; stroke-width: 0.8"/>
      </defs>
      <g>
       <use xlink:href="#m96acd2f2e4" x="38.975" y="303.381818" style="stroke: #000000; stroke-width: 0.8"/>
      </g>
     </g>
     <g id="text_8">
      <!-- 0 -->
      <g transform="translate(25.6125 307.181037) scale(0.1 -0.1)">
       <use xlink:href="#DejaVuSans-30"/>
      </g>
     </g>
    </g>
    <g id="ytick_2">
     <g id="line2d_8">
      <g>
       <use xlink:href="#m96acd2f2e4" x="38.975" y="265.615584" style="stroke: #000000; stroke-width: 0.8"/>
      </g>
     </g>
     <g id="text_9">
      <!-- 1 -->
      <g transform="translate(25.6125 269.414803) scale(0.1 -0.1)">
       <use xlink:href="#DejaVuSans-31"/>
      </g>
     </g>
    </g>
    <g id="ytick_3">
     <g id="line2d_9">
      <g>
       <use xlink:href="#m96acd2f2e4" x="38.975" y="227.849351" style="stroke: #000000; stroke-width: 0.8"/>
      </g>
     </g>
     <g id="text_10">
      <!-- 2 -->
      <g transform="translate(25.6125 231.648569) scale(0.1 -0.1)">
       <use xlink:href="#DejaVuSans-32"/>
      </g>
     </g>
    </g>
    <g id="ytick_4">
     <g id="line2d_10">
      <g>
       <use xlink:href="#m96acd2f2e4" x="38.975" y="190.083117" style="stroke: #000000; stroke-width: 0.8"/>
      </g>
     </g>
     <g id="text_11">
      <!-- 3 -->
      <g transform="translate(25.6125 193.882336) scale(0.1 -0.1)">
       <defs>
        <path id="DejaVuSans-33" d="M 2597 2516 
Q 3050 2419 3304 2112 
Q 3559 1806 3559 1356 
Q 3559 666 3084 287 
Q 2609 -91 1734 -91 
Q 1441 -91 1130 -33 
Q 819 25 488 141 
L 488 750 
Q 750 597 1062 519 
Q 1375 441 1716 441 
Q 2309 441 2620 675 
Q 2931 909 2931 1356 
Q 2931 1769 2642 2001 
Q 2353 2234 1838 2234 
L 1294 2234 
L 1294 2753 
L 1863 2753 
Q 2328 2753 2575 2939 
Q 2822 3125 2822 3475 
Q 2822 3834 2567 4026 
Q 2313 4219 1838 4219 
Q 1578 4219 1281 4162 
Q 984 4106 628 3988 
L 628 4550 
Q 988 4650 1302 4700 
Q 1616 4750 1894 4750 
Q 2613 4750 3031 4423 
Q 3450 4097 3450 3541 
Q 3450 3153 3228 2886 
Q 3006 2619 2597 2516 
z
" transform="scale(0.015625)"/>
       </defs>
       <use xlink:href="#DejaVuSans-33"/>
      </g>
     </g>
    </g>
    <g id="ytick_5">
     <g id="line2d_11">
      <g>
       <use xlink:href="#m96acd2f2e4" x="38.975" y="152.316883" style="stroke: #000000; stroke-width: 0.8"/>
      </g>
     </g>
     <g id="text_12">
      <!-- 4 -->
      <g transform="translate(25.6125 156.116102) scale(0.1 -0.1)">
       <use xlink:href="#DejaVuSans-34"/>
      </g>
     </g>
    </g>
    <g id="ytick_6">
     <g id="line2d_12">
      <g>
       <use xlink:href="#m96acd2f2e4" x="38.975" y="114.550649" style="stroke: #000000; stroke-width: 0.8"/>
      </g>
     </g>
     <g id="text_13">
      <!-- 5 -->
      <g transform="translate(25.6125 118.349868) scale(0.1 -0.1)">
       <defs>
        <path id="DejaVuSans-35" d="M 691 4666 
L 3169 4666 
L 3169 4134 
L 1269 4134 
L 1269 2991 
Q 1406 3038 1543 3061 
Q 1681 3084 1819 3084 
Q 2600 3084 3056 2656 
Q 3513 2228 3513 1497 
Q 3513 744 3044 326 
Q 2575 -91 1722 -91 
Q 1428 -91 1123 -41 
Q 819 9 494 109 
L 494 744 
Q 775 591 1075 516 
Q 1375 441 1709 441 
Q 2250 441 2565 725 
Q 2881 1009 2881 1497 
Q 2881 1984 2565 2268 
Q 2250 2553 1709 2553 
Q 1456 2553 1204 2497 
Q 953 2441 691 2322 
L 691 4666 
z
" transform="scale(0.015625)"/>
       </defs>
       <use xlink:href="#DejaVuSans-35"/>
      </g>
     </g>
    </g>
    <g id="ytick_7">
     <g id="line2d_13">
      <g>
       <use xlink:href="#m96acd2f2e4" x="38.975" y="76.784416" style="stroke: #000000; stroke-width: 0.8"/>
      </g>
     </g>
     <g id="text_14">
      <!-- 6 -->
      <g transform="translate(25.6125 80.583634) scale(0.1 -0.1)">
       <use xlink:href="#DejaVuSans-36"/>
      </g>
     </g>
    </g>
    <g id="ytick_8">
     <g id="line2d_14">
      <g>
       <use xlink:href="#m96acd2f2e4" x="38.975" y="39.018182" style="stroke: #000000; stroke-width: 0.8"/>
      </g>
     </g>
     <g id="text_15">
      <!-- 7 -->
      <g transform="translate(25.6125 42.817401) scale(0.1 -0.1)">
       <defs>
        <path id="DejaVuSans-37" d="M 525 4666 
L 3525 4666 
L 3525 4397 
L 1831 0 
L 1172 0 
L 2766 4134 
L 525 4134 
L 525 4666 
z
" transform="scale(0.015625)"/>
       </defs>
       <use xlink:href="#DejaVuSans-37"/>
      </g>
     </g>
    </g>
    <g id="text_16">
     <!-- patients -->
     <g transform="translate(19.532813 191.597656) rotate(-90) scale(0.1 -0.1)">
      <defs>
       <path id="DejaVuSans-70" d="M 1159 525 
L 1159 -1331 
L 581 -1331 
L 581 3500 
L 1159 3500 
L 1159 2969 
Q 1341 3281 1617 3432 
Q 1894 3584 2278 3584 
Q 2916 3584 3314 3078 
Q 3713 2572 3713 1747 
Q 3713 922 3314 415 
Q 2916 -91 2278 -91 
Q 1894 -91 1617 61 
Q 1341 213 1159 525 
z
M 3116 1747 
Q 3116 2381 2855 2742 
Q 2594 3103 2138 3103 
Q 1681 3103 1420 2742 
Q 1159 2381 1159 1747 
Q 1159 1113 1420 752 
Q 1681 391 2138 391 
Q 2594 391 2855 752 
Q 3116 1113 3116 1747 
z
" transform="scale(0.015625)"/>
       <path id="DejaVuSans-61" d="M 2194 1759 
Q 1497 1759 1228 1600 
Q 959 1441 959 1056 
Q 959 750 1161 570 
Q 1363 391 1709 391 
Q 2188 391 2477 730 
Q 2766 1069 2766 1631 
L 2766 1759 
L 2194 1759 
z
M 3341 1997 
L 3341 0 
L 2766 0 
L 2766 531 
Q 2569 213 2275 61 
Q 1981 -91 1556 -91 
Q 1019 -91 701 211 
Q 384 513 384 1019 
Q 384 1609 779 1909 
Q 1175 2209 1959 2209 
L 2766 2209 
L 2766 2266 
Q 2766 2663 2505 2880 
Q 2244 3097 1772 3097 
Q 1472 3097 1187 3025 
Q 903 2953 641 2809 
L 641 3341 
Q 956 3463 1253 3523 
Q 1550 3584 1831 3584 
Q 2591 3584 2966 3190 
Q 3341 2797 3341 1997 
z
" transform="scale(0.015625)"/>
       <path id="DejaVuSans-6e" d="M 3513 2113 
L 3513 0 
L 2938 0 
L 2938 2094 
Q 2938 2591 2744 2837 
Q 2550 3084 2163 3084 
Q 1697 3084 1428 2787 
Q 1159 2491 1159 1978 
L 1159 0 
L 581 0 
L 581 3500 
L 1159 3500 
L 1159 2956 
Q 1366 3272 1645 3428 
Q 1925 3584 2291 3584 
Q 2894 3584 3203 3211 
Q 3513 2838 3513 2113 
z
" transform="scale(0.015625)"/>
       <path id="DejaVuSans-73" d="M 2834 3397 
L 2834 2853 
Q 2591 2978 2328 3040 
Q 2066 3103 1784 3103 
Q 1356 3103 1142 2972 
Q 928 2841 928 2578 
Q 928 2378 1081 2264 
Q 1234 2150 1697 2047 
L 1894 2003 
Q 2506 1872 2764 1633 
Q 3022 1394 3022 966 
Q 3022 478 2636 193 
Q 2250 -91 1575 -91 
Q 1294 -91 989 -36 
Q 684 19 347 128 
L 347 722 
Q 666 556 975 473 
Q 1284 391 1588 391 
Q 1994 391 2212 530 
Q 2431 669 2431 922 
Q 2431 1156 2273 1281 
Q 2116 1406 1581 1522 
L 1381 1569 
Q 847 1681 609 1914 
Q 372 2147 372 2553 
Q 372 3047 722 3315 
Q 1072 3584 1716 3584 
Q 2034 3584 2315 3537 
Q 2597 3491 2834 3397 
z
" transform="scale(0.015625)"/>
      </defs>
      <use xlink:href="#DejaVuSans-70"/>
      <use xlink:href="#DejaVuSans-61" x="63.476562"/>
      <use xlink:href="#DejaVuSans-74" x="124.755859"/>
      <use xlink:href="#DejaVuSans-69" x="163.964844"/>
      <use xlink:href="#DejaVuSans-65" x="191.748047"/>
      <use xlink:href="#DejaVuSans-6e" x="253.271484"/>
      <use xlink:href="#DejaVuSans-74" x="316.650391"/>
      <use xlink:href="#DejaVuSans-73" x="355.859375"/>
     </g>
    </g>
   </g>
   <g id="line2d_15">
    <path d="M 62.894318 265.615584 
L 65.55402 265.615584 
L 65.55402 265.615584 
L 66.207294 303.381818 
L 66.207294 303.381818 
L 67.765757 265.615584 
L 67.765757 265.615584 
L 70.091158 265.615584 
L 70.091158 265.615584 
L 70.901315 303.381818 
L 70.901315 303.381818 
L 81.626294 303.381818 
L 82.46693 265.615584 
L 82.46693 265.615584 
L 84.857298 265.615584 
L 84.857298 265.615584 
L 85.127129 303.381818 
L 110.981551 303.381818 
L 110.981551 303.381818 
L 112.054531 265.615584 
L 112.054531 265.615584 
L 115.171281 265.615584 
L 115.171281 265.615584 
L 115.903585 303.381818 
L 115.903585 303.381818 
L 124.845854 303.381818 
L 124.845854 303.381818 
L 125.441649 265.615584 
L 125.441649 265.615584 
L 127.170512 265.615584 
L 127.170512 265.615584 
L 127.99463 303.381818 
L 128.4993 303.381818 
L 128.4993 303.381818 
L 128.733998 265.615584 
L 128.733998 265.615584 
L 132.63176 265.615584 
L 132.63176 265.615584 
L 132.664492 303.381818 
L 132.664492 303.381818 
L 151.098637 303.381818 
L 151.098637 303.381818 
L 151.148476 265.615584 
L 151.148476 265.615584 
L 153.124433 265.615584 
L 153.941139 303.381818 
L 153.941139 303.381818 
L 174.420279 303.381818 
L 174.420279 303.381818 
L 175.167672 265.615584 
L 175.167672 265.615584 
L 176.541727 265.615584 
L 177.457629 303.381818 
L 177.457629 303.381818 
L 196.233292 303.381818 
L 196.233292 303.381818 
L 196.306384 265.615584 
L 196.306384 265.615584 
L 197.670792 265.615584 
L 197.670792 265.615584 
L 198.499788 227.849351 
L 198.499788 227.849351 
L 199.495259 227.849351 
L 199.495259 227.849351 
L 199.788534 265.615584 
L 199.788534 265.615584 
L 201.38709 265.615584 
L 202.107514 303.381818 
L 202.107514 303.381818 
L 214.811992 303.381818 
L 214.867463 265.615584 
L 214.867463 265.615584 
L 216.805184 265.615584 
L 217.574409 303.381818 
L 217.574409 303.381818 
L 245.821321 303.381818 
L 245.821321 303.381818 
L 246.064343 265.615584 
L 246.064343 265.615584 
L 248.458145 265.615584 
L 248.458145 265.615584 
L 250.45079 303.381818 
L 250.45079 303.381818 
L 261.631019 303.381818 
L 261.631019 303.381818 
L 262.170683 265.615584 
L 262.170683 265.615584 
L 264.424959 265.615584 
L 264.424959 265.615584 
L 265.156675 227.849351 
L 265.156675 227.849351 
L 266.148407 227.849351 
L 267.185463 265.615584 
L 267.306898 303.381818 
L 267.306898 303.381818 
L 289.17809 303.381818 
L 289.17809 303.381818 
L 289.73483 265.615584 
L 289.73483 265.615584 
L 292.522831 265.615584 
L 292.969262 303.381818 
L 292.969262 303.381818 
L 313.376231 303.381818 
L 313.376231 303.381818 
L 315.014982 265.615584 
L 315.014982 265.615584 
L 318.44844 265.615584 
L 318.532686 303.381818 
L 338.990241 303.381818 
L 339.082902 265.615584 
L 339.082902 265.615584 
L 341.386954 265.615584 
L 341.386954 265.615584 
L 341.697349 227.849351 
L 341.697349 227.849351 
L 343.6553 227.849351 
L 343.6553 227.849351 
L 344.339944 265.615584 
L 344.339944 265.615584 
L 345.217687 265.615584 
L 345.217687 265.615584 
L 345.593093 303.381818 
L 358.16763 303.381818 
L 358.16763 303.381818 
L 358.895351 265.615584 
L 358.895351 265.615584 
L 360.969665 265.615584 
L 360.969665 265.615584 
L 361.4058 303.381818 
L 382.054288 303.381818 
L 382.054288 303.381818 
L 383.159852 265.615584 
L 383.159852 265.615584 
L 386.288415 265.615584 
L 386.288415 265.615584 
L 387.116328 303.381818 
L 387.116328 303.381818 
L 400.705533 303.381818 
L 400.705533 303.381818 
L 401.048847 265.615584 
L 401.048847 265.615584 
L 403.83617 265.615584 
L 403.83617 265.615584 
L 404.513561 227.849351 
L 404.513561 227.849351 
L 406.295999 227.849351 
L 406.295999 227.849351 
L 407.402884 265.615584 
L 407.402884 265.615584 
L 409.341015 265.615584 
L 409.385029 303.381818 
L 415.320999 303.381818 
L 415.320999 303.381818 
L 416.35688 265.615584 
L 416.35688 265.615584 
L 419.402613 265.615584 
L 419.402613 265.615584 
L 420.08205 303.381818 
L 420.08205 303.381818 
L 437.176796 303.381818 
L 437.427538 265.615584 
L 437.427538 265.615584 
L 440.772085 265.615584 
L 440.772085 265.615584 
L 440.872523 303.381818 
L 458.570043 303.381818 
L 458.570043 303.381818 
L 458.92926 265.615584 
L 458.92926 265.615584 
L 460.964882 265.615584 
L 460.964882 265.615584 
L 462.580162 303.381818 
L 467.215081 303.381818 
L 467.215081 303.381818 
L 468.495355 265.615584 
L 468.495355 265.615584 
L 469.627794 265.615584 
L 469.627794 265.615584 
L 472.145121 303.381818 
L 472.145121 303.381818 
L 484.868969 303.381818 
L 484.868969 303.381818 
L 485.724646 265.615584 
L 485.724646 265.615584 
L 487.793524 265.615584 
L 487.793524 265.615584 
L 488.8597 227.849351 
L 491.293508 227.849351 
L 491.293508 227.849351 
L 491.672349 303.381818 
L 501.295953 303.381818 
L 501.295953 303.381818 
L 501.920985 265.615584 
L 501.920985 265.615584 
L 504.135728 265.615584 
L 504.135728 265.615584 
L 505.085867 303.381818 
L 505.085867 303.381818 
L 512.836171 303.381818 
L 512.938514 265.615584 
L 512.938514 265.615584 
L 513.948814 265.615584 
L 513.948814 265.615584 
L 515.379262 303.381818 
L 515.379262 303.381818 
L 529.29776 303.381818 
L 529.625801 265.615584 
L 529.625801 265.615584 
L 532.202354 265.615584 
L 532.202354 265.615584 
L 532.382459 303.381818 
L 532.382459 303.381818 
L 541.280682 303.381818 
L 541.280682 303.381818 
" clip-path="url(#p1075baeb48)" style="fill: none; stroke: #dc2626; stroke-width: 1.5; stroke-linecap: square"/>
   </g>
   <g id="line2d_16">
    <path d="M 62.894318 303.381818 
L 64.37284 265.615584 
L 64.37284 265.615584 
L 68.840827 265.615584 
L 68.840827 265.615584 
L 70.091158 227.849351 
L 70.091158 227.849351 
L 71.997021 227.849351 
L 71.997021 227.849351 
L 72.425028 265.615584 
L 72.425028 265.615584 
L 73.933054 265.615584 
L 73.933054 265.615584 
L 74.307835 303.381818 
L 74.307835 303.381818 
L 83.262925 303.381818 
L 83.262925 303.381818 
L 84.857298 265.615584 
L 84.857298 265.615584 
L 87.19494 265.615584 
L 87.19494 265.615584 
L 87.200254 227.849351 
L 87.200254 227.849351 
L 87.463191 265.615584 
L 87.463191 265.615584 
L 88.563165 265.615584 
L 88.563165 265.615584 
L 88.586881 303.381818 
L 88.586881 303.381818 
L 109.349313 303.381818 
L 109.349313 303.381818 
L 110.395796 265.615584 
L 110.395796 265.615584 
L 112.296263 265.615584 
L 112.620858 303.381818 
L 113.954736 265.615584 
L 117.038688 265.615584 
L 117.038688 265.615584 
L 118.207928 303.381818 
L 118.207928 303.381818 
L 126.879566 303.381818 
L 126.879566 303.381818 
L 127.170512 265.615584 
L 127.170512 265.615584 
L 129.632996 265.615584 
L 130.197444 227.849351 
L 130.197444 227.849351 
L 132.664492 227.849351 
L 132.664492 227.849351 
L 133.897641 265.615584 
L 133.897641 265.615584 
L 135.742001 265.615584 
L 135.742001 265.615584 
L 136.091704 303.381818 
L 136.091704 303.381818 
L 153.941139 303.381818 
L 153.941139 303.381818 
L 155.17564 265.615584 
L 155.17564 265.615584 
L 157.083009 265.615584 
L 157.083009 265.615584 
L 158.976566 227.849351 
L 158.976566 227.849351 
L 159.290534 265.615584 
L 159.290534 265.615584 
L 162.325878 265.615584 
L 162.325878 265.615584 
L 162.383755 303.381818 
L 162.383755 303.381818 
L 172.33001 303.381818 
L 172.33001 303.381818 
L 173.160365 265.615584 
L 173.160365 265.615584 
L 175.167672 265.615584 
L 175.167672 265.615584 
L 175.910531 227.849351 
L 175.910531 227.849351 
L 176.25266 227.849351 
L 176.25266 227.849351 
L 176.541727 265.615584 
L 179.252564 265.615584 
L 179.252564 265.615584 
L 179.301983 303.381818 
L 179.301983 303.381818 
L 196.306384 303.381818 
L 196.306384 303.381818 
L 197.355966 265.615584 
L 197.355966 265.615584 
L 199.930166 265.615584 
L 200.238948 227.849351 
L 200.238948 227.849351 
L 202.107514 227.849351 
L 202.107514 227.849351 
L 203.747524 265.615584 
L 203.747524 265.615584 
L 204.996973 265.615584 
L 204.996973 265.615584 
L 205.780321 303.381818 
L 205.780321 303.381818 
L 215.137385 303.381818 
L 215.137385 303.381818 
L 215.816774 265.615584 
L 215.816774 265.615584 
L 219.40042 265.615584 
L 219.40042 265.615584 
L 220.173204 227.849351 
L 220.173204 227.849351 
L 220.272534 265.615584 
L 220.272534 265.615584 
L 221.466061 265.615584 
L 221.466061 265.615584 
L 221.576907 303.381818 
L 221.576907 303.381818 
L 231.001394 303.381818 
L 231.001394 303.381818 
L 231.631611 265.615584 
L 231.631611 265.615584 
L 232.641488 265.615584 
L 233.084226 303.381818 
L 233.084226 303.381818 
L 244.550941 303.381818 
L 244.632333 265.615584 
L 244.632333 265.615584 
L 247.860373 265.615584 
L 247.860373 265.615584 
L 248.458145 227.849351 
L 248.458145 227.849351 
L 251.917609 227.849351 
L 251.917609 227.849351 
L 252.212837 265.615584 
L 252.212837 265.615584 
L 253.484471 265.615584 
L 253.484471 265.615584 
L 253.80819 303.381818 
L 253.80819 303.381818 
L 263.104278 303.381818 
L 263.104278 303.381818 
L 263.365882 265.615584 
L 263.365882 265.615584 
L 265.895414 265.615584 
L 265.895414 265.615584 
L 265.924751 227.849351 
L 265.924751 227.849351 
L 267.775571 227.849351 
L 267.775571 227.849351 
L 268.992341 265.615584 
L 268.992341 265.615584 
L 271.495865 265.615584 
L 271.495865 265.615584 
L 271.675124 303.381818 
L 271.675124 303.381818 
L 273.416142 303.381818 
L 273.416142 303.381818 
L 274.593562 265.615584 
L 274.593562 265.615584 
L 276.53035 265.615584 
L 276.53035 265.615584 
L 276.747329 303.381818 
L 276.747329 303.381818 
L 293.482715 303.381818 
L 293.782982 265.615584 
L 293.782982 265.615584 
L 296.481651 265.615584 
L 296.481651 265.615584 
L 297.459113 227.849351 
L 297.459113 227.849351 
L 299.10995 265.615584 
L 299.10995 265.615584 
L 300.195239 303.381818 
L 300.195239 303.381818 
L 311.293855 303.381818 
L 311.293855 303.381818 
L 313.376231 265.615584 
L 313.376231 265.615584 
L 318.532686 265.615584 
L 318.825806 227.849351 
L 318.825806 227.849351 
L 321.527578 303.381818 
L 328.59931 303.381818 
L 328.9884 265.615584 
L 328.9884 265.615584 
L 329.832605 265.615584 
L 329.832605 265.615584 
L 330.710442 303.381818 
L 330.710442 303.381818 
L 339.082902 303.381818 
L 339.082902 303.381818 
L 340.199529 265.615584 
L 340.199529 265.615584 
L 342.727647 265.615584 
L 342.727647 265.615584 
L 342.912569 227.849351 
L 342.912569 227.849351 
L 344.829469 227.849351 
L 344.829469 227.849351 
L 345.217687 265.615584 
L 345.217687 265.615584 
L 347.261516 265.615584 
L 347.261516 265.615584 
L 347.856257 303.381818 
L 347.856257 303.381818 
L 359.752004 303.381818 
L 359.752004 303.381818 
L 360.969665 265.615584 
L 360.969665 265.615584 
L 362.733655 265.615584 
L 362.733655 265.615584 
L 364.027532 303.381818 
L 364.027532 303.381818 
L 366.100675 303.381818 
L 366.108289 265.615584 
L 366.108289 265.615584 
L 367.252658 265.615584 
L 367.252658 265.615584 
L 367.621203 303.381818 
L 368.430847 303.381818 
L 368.430847 303.381818 
L 369.476561 265.615584 
L 369.476561 265.615584 
L 371.898963 265.615584 
L 371.898963 265.615584 
L 372.128246 303.381818 
L 372.128246 303.381818 
L 373.056891 265.615584 
L 373.056891 265.615584 
L 374.118041 303.381818 
L 374.118041 303.381818 
L 381.226347 303.381818 
L 381.226347 303.381818 
L 382.054288 265.615584 
L 382.054288 265.615584 
L 384.278085 265.615584 
L 384.618703 303.381818 
L 385.224742 265.615584 
L 385.224742 265.615584 
L 388.9255 265.615584 
L 388.9255 265.615584 
L 389.073536 303.381818 
L 389.073536 303.381818 
L 401.048847 303.381818 
L 401.048847 303.381818 
L 402.647856 265.615584 
L 402.647856 265.615584 
L 404.513561 265.615584 
L 404.513561 265.615584 
L 404.738147 303.381818 
L 406.279215 303.381818 
L 406.279215 303.381818 
L 406.295999 265.615584 
L 406.295999 265.615584 
L 409.102819 265.615584 
L 409.102819 265.615584 
L 409.385029 303.381818 
L 414.185508 303.381818 
L 415.320999 265.615584 
L 415.320999 265.615584 
L 417.129158 265.615584 
L 417.129158 265.615584 
L 417.389535 227.849351 
L 417.389535 227.849351 
L 420.786973 227.849351 
L 420.786973 227.849351 
L 422.017372 265.615584 
L 422.017372 265.615584 
L 422.700265 265.615584 
L 422.700265 265.615584 
L 423.519932 303.381818 
L 423.519932 303.381818 
L 438.999899 303.381818 
L 438.999899 303.381818 
L 439.704992 265.615584 
L 439.704992 265.615584 
L 442.993941 265.615584 
L 442.993941 265.615584 
L 444.095299 303.381818 
L 444.095299 303.381818 
L 444.832103 265.615584 
L 444.832103 265.615584 
L 446.457214 265.615584 
L 446.457214 265.615584 
L 446.518238 303.381818 
L 446.518238 303.381818 
L 457.149273 303.381818 
L 457.149273 303.381818 
L 457.387341 265.615584 
L 457.387341 265.615584 
L 462.580162 265.615584 
L 462.922701 227.849351 
L 462.922701 227.849351 
L 463.833814 227.849351 
L 463.833814 227.849351 
L 463.924337 265.615584 
L 466.690154 265.615584 
L 466.690154 265.615584 
L 466.712007 303.381818 
L 466.712007 303.381818 
L 467.215081 265.615584 
L 467.215081 265.615584 
L 469.395748 265.615584 
L 469.395748 265.615584 
L 469.627794 227.849351 
L 469.627794 227.849351 
L 472.924089 227.849351 
L 472.924089 227.849351 
L 472.9356 265.615584 
L 472.9356 265.615584 
L 474.239902 265.615584 
L 474.239902 265.615584 
L 475.480269 303.381818 
L 475.480269 303.381818 
L 485.972511 303.381818 
L 486.647434 265.615584 
L 486.647434 265.615584 
L 488.8597 265.615584 
L 488.996551 303.381818 
L 489.9834 303.381818 
L 489.9834 303.381818 
L 491.293508 265.615584 
L 491.293508 265.615584 
L 491.93835 265.615584 
L 492.897711 303.381818 
L 503.227174 303.381818 
L 503.227174 303.381818 
L 504.135728 265.615584 
L 504.135728 265.615584 
L 506.001818 265.615584 
L 506.001818 265.615584 
L 506.942805 303.381818 
L 506.942805 303.381818 
L 507.288468 265.615584 
L 507.288468 265.615584 
L 509.179237 303.381818 
L 509.179237 303.381818 
L 509.295132 265.615584 
L 509.295132 265.615584 
L 511.53057 265.615584 
L 511.53057 265.615584 
L 512.409836 303.381818 
L 512.938514 303.381818 
L 512.938514 303.381818 
L 513.774107 265.615584 
L 513.774107 265.615584 
L 516.394952 265.615584 
L 516.394952 265.615584 
L 516.465243 227.849351 
L 516.465243 227.849351 
L 517.221576 265.615584 
L 517.221576 265.615584 
L 517.463803 265.615584 
L 517.463803 265.615584 
L 518.436423 303.381818 
L 518.436423 303.381818 
L 525.12396 303.381818 
L 525.704595 265.615584 
L 525.704595 265.615584 
L 531.28926 265.615584 
L 531.28926 265.615584 
L 532.202354 227.849351 
L 532.202354 227.849351 
L 532.382459 227.849351 
L 532.382459 227.849351 
L 532.579442 265.615584 
L 533.303781 265.615584 
L 533.303781 265.615584 
L 534.008128 303.381818 
L 541.280682 303.381818 
L 541.280682 303.381818 
" clip-path="url(#p1075baeb48)" style="fill: none; stroke: #ea580c; stroke-width: 1.5; stroke-linecap: square"/>
   </g>
   <g id="line2d_17">
    <path d="M 62.894318 303.381818 
L 70.901315 303.381818 
L 70.901315 303.381818 
L 71.346377 265.615584 
L 71.346377 265.615584 
L 75.482434 265.615584 
L 75.482434 265.615584 
L 76.231917 303.381818 
L 76.231917 303.381818 
L 85.127129 303.381818 
L 85.452021 265.615584 
L 85.452021 265.615584 
L 87.463191 265.615584 
L 87.463191 265.615584 
L 88.586881 227.849351 
L 88.586881 227.849351 
L 89.668616 227.849351 
L 89.668616 227.849351 
L 90.309414 265.615584 
L 90.309414 265.615584 
L 92.539418 265.615584 
L 92.539418 265.615584 
L 92.68258 303.381818 
L 92.68258 303.381818 
L 96.716007 303.381818 
L 96.870601 265.615584 
L 97.938085 265.615584 
L 97.938085 265.615584 
L 99.194515 303.381818 
L 114.397298 303.381818 
L 114.397298 303.381818 
L 115.171281 265.615584 
L 115.171281 265.615584 
L 119.839654 265.615584 
L 119.839654 265.615584 
L 120.250389 303.381818 
L 120.250389 303.381818 
L 130.197444 303.381818 
L 130.197444 303.381818 
L 131.730156 265.615584 
L 131.730156 265.615584 
L 136.091704 265.615584 
L 136.091704 265.615584 
L 138.758862 303.381818 
L 138.758862 303.381818 
L 140.837939 303.381818 
L 140.837939 303.381818 
L 141.769423 265.615584 
L 141.769423 265.615584 
L 147.53105 265.615584 
L 147.53105 265.615584 
L 147.803764 303.381818 
L 147.803764 303.381818 
L 156.073311 303.381818 
L 156.14884 265.615584 
L 156.14884 265.615584 
L 159.290534 265.615584 
L 159.290534 265.615584 
L 161.366355 227.849351 
L 161.366355 227.849351 
L 164.025531 227.849351 
L 164.025531 227.849351 
L 164.365563 265.615584 
L 164.365563 265.615584 
L 165.700449 265.615584 
L 165.700449 265.615584 
L 165.706435 303.381818 
L 165.706435 303.381818 
L 177.741776 303.381818 
L 178.341706 265.615584 
L 178.341706 265.615584 
L 181.083863 265.615584 
L 181.083863 265.615584 
L 181.135604 303.381818 
L 181.135604 303.381818 
L 186.37966 303.381818 
L 186.37966 303.381818 
L 186.836246 265.615584 
L 186.836246 265.615584 
L 196.085887 265.615584 
L 196.085887 265.615584 
L 196.306384 303.381818 
L 196.306384 303.381818 
L 200.413941 303.381818 
L 200.413941 303.381818 
L 201.38709 265.615584 
L 206.93693 265.615584 
L 206.93693 265.615584 
L 207.36268 303.381818 
L 207.36268 303.381818 
L 217.574409 303.381818 
L 217.574409 303.381818 
L 219.40042 265.615584 
L 219.40042 265.615584 
L 221.576907 265.615584 
L 221.576907 265.615584 
L 221.765683 227.849351 
L 221.765683 227.849351 
L 223.515839 227.849351 
L 223.515839 227.849351 
L 223.588257 265.615584 
L 223.588257 265.615584 
L 224.873253 265.615584 
L 224.873253 265.615584 
L 225.376289 303.381818 
L 225.376289 303.381818 
L 233.084226 303.381818 
L 233.084226 303.381818 
L 233.454953 265.615584 
L 233.454953 265.615584 
L 236.587157 265.615584 
L 236.587157 265.615584 
L 238.224399 303.381818 
L 238.224399 303.381818 
L 250.45079 303.381818 
L 250.45079 303.381818 
L 250.686251 265.615584 
L 250.686251 265.615584 
L 255.480976 265.615584 
L 255.480976 265.615584 
L 255.64093 303.381818 
L 255.64093 303.381818 
L 267.306898 303.381818 
L 267.306898 303.381818 
L 267.775571 265.615584 
L 267.775571 265.615584 
L 272.643914 265.615584 
L 272.643914 265.615584 
L 273.416142 303.381818 
L 273.416142 303.381818 
L 274.934171 303.381818 
L 274.934171 303.381818 
L 276.53035 265.615584 
L 276.53035 265.615584 
L 278.124708 265.615584 
L 278.124708 265.615584 
L 279.502058 303.381818 
L 279.502058 303.381818 
L 293.782982 303.381818 
L 293.782982 303.381818 
L 294.601761 265.615584 
L 294.601761 265.615584 
L 300.195239 265.615584 
L 300.195239 265.615584 
L 300.401094 227.849351 
L 300.401094 227.849351 
L 301.700974 227.849351 
L 301.700974 227.849351 
L 301.887073 265.615584 
L 301.887073 265.615584 
L 303.197186 265.615584 
L 303.197186 265.615584 
L 303.997795 303.381818 
L 303.997795 303.381818 
L 321.527578 303.381818 
L 321.966648 265.615584 
L 321.966648 265.615584 
L 324.773099 265.615584 
L 324.773099 265.615584 
L 325.076143 303.381818 
L 325.076143 303.381818 
L 328.9884 303.381818 
L 328.9884 303.381818 
L 329.664431 265.615584 
L 329.664431 265.615584 
L 333.300137 265.615584 
L 333.300137 265.615584 
L 333.356937 303.381818 
L 333.356937 303.381818 
L 342.912569 303.381818 
L 342.912569 303.381818 
L 343.6553 265.615584 
L 343.6553 265.615584 
L 349.520338 265.615584 
L 349.937868 303.381818 
L 361.715728 303.381818 
L 361.715728 303.381818 
L 361.992283 265.615584 
L 361.992283 265.615584 
L 364.648404 265.615584 
L 366.108289 303.381818 
L 366.108289 303.381818 
L 366.961453 303.381818 
L 367.252658 265.615584 
L 367.252658 265.615584 
L 369.876206 265.615584 
L 369.876206 265.615584 
L 369.947437 303.381818 
L 369.947437 303.381818 
L 370.655478 303.381818 
L 370.655478 303.381818 
L 371.021611 265.615584 
L 371.021611 265.615584 
L 374.118041 265.615584 
L 374.118041 265.615584 
L 375.363708 227.849351 
L 375.363708 227.849351 
L 376.179025 265.615584 
L 376.179025 265.615584 
L 379.387009 265.615584 
L 379.387009 265.615584 
L 379.449926 303.381818 
L 379.449926 303.381818 
L 385.468824 303.381818 
L 385.468824 303.381818 
L 386.288415 265.615584 
L 386.288415 265.615584 
L 390.801189 265.615584 
L 390.801189 265.615584 
L 390.963393 303.381818 
L 390.963393 303.381818 
L 407.402884 303.381818 
L 407.402884 303.381818 
L 409.102819 265.615584 
L 409.102819 265.615584 
L 411.785137 265.615584 
L 411.785137 265.615584 
L 412.65994 303.381818 
L 412.65994 303.381818 
L 417.691707 303.381818 
L 417.691707 303.381818 
L 419.402613 265.615584 
L 419.402613 265.615584 
L 424.931221 265.615584 
L 424.931221 265.615584 
L 425.147547 303.381818 
L 425.147547 303.381818 
L 439.704992 303.381818 
L 439.704992 303.381818 
L 440.872523 265.615584 
L 444.832103 265.615584 
L 444.832103 265.615584 
L 445.798068 227.849351 
L 445.798068 227.849351 
L 446.518238 227.849351 
L 446.518238 227.849351 
L 448.298735 265.615584 
L 448.298735 265.615584 
L 450.692818 265.615584 
L 450.692818 265.615584 
L 451.069269 303.381818 
L 451.069269 303.381818 
L 462.922701 303.381818 
L 462.922701 303.381818 
L 463.924337 265.615584 
L 468.420402 265.615584 
L 468.420402 265.615584 
L 468.495355 303.381818 
L 468.495355 303.381818 
L 472.145121 303.381818 
L 472.145121 303.381818 
L 472.362239 265.615584 
L 472.362239 265.615584 
L 476.12588 265.615584 
L 476.12588 265.615584 
L 476.866835 303.381818 
L 476.866835 303.381818 
L 492.897711 303.381818 
L 493.970462 265.615584 
L 493.970462 265.615584 
L 496.1486 265.615584 
L 496.1486 265.615584 
L 496.766498 303.381818 
L 505.085867 303.381818 
L 505.085867 303.381818 
L 505.352733 265.615584 
L 511.241418 265.615584 
L 511.241418 265.615584 
L 511.53057 303.381818 
L 511.53057 303.381818 
L 515.369689 303.381818 
L 515.369689 303.381818 
L 515.379262 265.615584 
L 515.379262 265.615584 
L 517.221576 265.615584 
L 517.221576 265.615584 
L 517.463803 227.849351 
L 517.463803 227.849351 
L 519.440904 227.849351 
L 519.440904 227.849351 
L 519.537027 265.615584 
L 519.537027 265.615584 
L 520.8376 265.615584 
L 520.8376 265.615584 
L 520.890491 303.381818 
L 520.890491 303.381818 
L 532.579442 303.381818 
L 533.303781 265.615584 
L 533.303781 265.615584 
L 536.561817 265.615584 
L 536.561817 265.615584 
L 536.929013 303.381818 
L 536.929013 303.381818 
L 541.280682 303.381818 
L 541.280682 303.381818 
" clip-path="url(#p1075baeb48)" style="fill: none; stroke: #d97706; stroke-width: 1.5; stroke-linecap: square"/>
   </g>
   <g id="line2d_18">
    <path d="M 62.894318 303.381818 
L 71.346377 303.381818 
L 71.346377 303.381818 
L 71.997021 265.615584 
L 71.997021 265.615584 
L 72.820115 265.615584 
L 72.820115 265.615584 
L 73.151114 227.849351 
L 73.151114 227.849351 
L 73.933054 190.083117 
L 73.933054 190.083117 
L 75.265727 190.083117 
L 75.265727 190.083117 
L 75.348277 152.316883 
L 75.348277 152.316883 
L 76.704284 152.316883 
L 76.704284 152.316883 
L 77.57521 190.083117 
L 77.57521 190.083117 
L 78.46685 190.083117 
L 78.46685 190.083117 
L 78.70733 227.849351 
L 78.70733 227.849351 
L 79.757023 227.849351 
L 79.757023 227.849351 
L 80.032726 265.615584 
L 81.626294 303.381818 
L 89.642041 303.381818 
L 89.642041 303.381818 
L 89.668616 265.615584 
L 89.668616 265.615584 
L 90.309414 265.615584 
L 90.309414 265.615584 
L 91.549956 227.849351 
L 91.549956 227.849351 
L 92.856825 227.849351 
L 92.856825 227.849351 
L 94.612349 265.615584 
L 94.612349 265.615584 
L 94.739487 265.615584 
L 94.739487 265.615584 
L 95.509781 227.849351 
L 95.509781 227.849351 
L 96.716007 265.615584 
L 99.194515 265.615584 
L 99.447587 227.849351 
L 99.447587 227.849351 
L 100.145068 265.615584 
L 100.318748 227.849351 
L 100.318748 227.849351 
L 103.44019 227.849351 
L 103.44019 227.849351 
L 103.608991 265.615584 
L 103.608991 265.615584 
L 104.587724 227.849351 
L 104.587724 227.849351 
L 104.939093 227.849351 
L 104.939093 227.849351 
L 105.560623 265.615584 
L 105.866425 265.615584 
L 105.866425 265.615584 
L 106.598646 303.381818 
L 116.220736 303.381818 
L 116.220736 303.381818 
L 117.038688 265.615584 
L 117.038688 265.615584 
L 118.207928 265.615584 
L 118.207928 265.615584 
L 118.701838 227.849351 
L 118.701838 227.849351 
L 118.9497 227.849351 
L 118.9497 227.849351 
L 119.839654 190.083117 
L 119.839654 190.083117 
L 120.250389 190.083117 
L 120.250389 190.083117 
L 120.579339 152.316883 
L 120.579339 152.316883 
L 121.760314 152.316883 
L 121.760314 152.316883 
L 121.807049 190.083117 
L 121.807049 190.083117 
L 123.502595 190.083117 
L 123.502595 190.083117 
L 123.700672 227.849351 
L 123.700672 227.849351 
L 124.845854 265.615584 
L 124.845854 265.615584 
L 126.309627 265.615584 
L 126.389244 303.381818 
L 133.897641 303.381818 
L 133.897641 303.381818 
L 134.083155 265.615584 
L 134.083155 265.615584 
L 134.869193 227.849351 
L 134.869193 227.849351 
L 138.758862 227.849351 
L 138.758862 227.849351 
L 139.606188 190.083117 
L 139.606188 190.083117 
L 140.303801 227.849351 
L 140.303801 227.849351 
L 140.837939 190.083117 
L 140.837939 190.083117 
L 141.769423 190.083117 
L 141.769423 190.083117 
L 142.04038 227.849351 
L 142.04038 227.849351 
L 142.405643 227.849351 
L 142.405643 227.849351 
L 142.769886 190.083117 
L 142.769886 190.083117 
L 143.827748 227.849351 
L 143.827748 227.849351 
L 144.180681 190.083117 
L 144.180681 190.083117 
L 144.565922 190.083117 
L 144.565922 190.083117 
L 144.974785 152.316883 
L 144.974785 152.316883 
L 145.212054 190.083117 
L 145.212054 190.083117 
L 146.414044 190.083117 
L 146.414044 190.083117 
L 146.712363 152.316883 
L 146.712363 152.316883 
L 147.803764 152.316883 
L 147.803764 152.316883 
L 148.092719 190.083117 
L 148.310681 190.083117 
L 148.310681 190.083117 
L 148.964913 227.849351 
L 148.964913 227.849351 
L 150.827524 227.849351 
L 150.827524 227.849351 
L 151.148476 265.615584 
L 151.148476 265.615584 
L 155.17564 265.615584 
L 155.17564 265.615584 
L 156.14884 303.381818 
L 156.14884 303.381818 
L 162.383755 303.381818 
L 162.383755 303.381818 
L 162.767768 265.615584 
L 162.767768 265.615584 
L 163.821428 227.849351 
L 163.821428 227.849351 
L 166.867305 227.849351 
L 166.867305 227.849351 
L 167.950593 265.615584 
L 167.950593 265.615584 
L 168.977494 227.849351 
L 168.977494 227.849351 
L 169.708415 265.615584 
L 171.143769 265.615584 
L 171.143769 265.615584 
L 171.752678 303.381818 
L 179.301983 303.381818 
L 179.301983 303.381818 
L 180.262683 265.615584 
L 180.262683 265.615584 
L 181.135604 265.615584 
L 181.135604 265.615584 
L 181.893823 227.849351 
L 181.893823 227.849351 
L 183.084984 265.615584 
L 183.89432 265.615584 
L 183.89432 265.615584 
L 183.990948 227.849351 
L 183.990948 227.849351 
L 184.882354 190.083117 
L 184.882354 190.083117 
L 184.901624 190.083117 
L 186.37966 227.849351 
L 186.37966 227.849351 
L 186.836246 227.849351 
L 186.836246 227.849351 
L 188.339905 265.615584 
L 188.339905 265.615584 
L 188.879209 265.615584 
L 188.879209 265.615584 
L 188.943994 227.849351 
L 188.943994 227.849351 
L 190.087464 227.849351 
L 190.087464 227.849351 
L 192.214862 152.316883 
L 192.214862 152.316883 
L 192.318232 152.316883 
L 192.318232 152.316883 
L 193.555204 114.550649 
L 193.555204 114.550649 
L 193.90211 152.316883 
L 193.90211 152.316883 
L 203.74149 152.316883 
L 203.74149 152.316883 
L 203.747524 114.550649 
L 203.747524 114.550649 
L 204.746368 114.550649 
L 204.746368 114.550649 
L 204.996973 76.784416 
L 204.996973 76.784416 
L 205.780321 76.784416 
L 205.780321 76.784416 
L 206.93693 39.018182 
L 206.93693 39.018182 
L 208.897355 39.018182 
L 208.897355 39.018182 
L 210.869019 76.784416 
L 210.869019 76.784416 
L 211.514889 39.018182 
L 211.514889 39.018182 
L 211.948371 76.784416 
L 211.948371 76.784416 
L 213.668055 76.784416 
L 213.668055 76.784416 
L 213.733443 114.550649 
L 213.733443 114.550649 
L 214.307692 114.550649 
L 214.307692 114.550649 
L 214.68718 152.316883 
L 214.68718 152.316883 
L 222.785974 152.316883 
L 222.785974 152.316883 
L 223.588257 114.550649 
L 223.588257 114.550649 
L 224.873253 76.784416 
L 224.873253 76.784416 
L 227.622816 76.784416 
L 227.622816 76.784416 
L 227.682333 114.550649 
L 227.682333 114.550649 
L 228.792338 152.316883 
L 228.792338 152.316883 
L 231.001394 190.083117 
L 231.001394 190.083117 
L 233.454953 190.083117 
L 233.454953 190.083117 
L 234.292062 227.849351 
L 234.292062 227.849351 
L 234.479683 227.849351 
L 234.479683 227.849351 
L 234.693173 190.083117 
L 234.693173 190.083117 
L 235.676328 190.083117 
L 235.676328 190.083117 
L 235.965098 227.849351 
L 235.965098 227.849351 
L 236.587157 190.083117 
L 236.587157 190.083117 
L 239.471404 190.083117 
L 239.471404 190.083117 
L 239.481379 152.316883 
L 239.481379 152.316883 
L 239.869396 190.083117 
L 239.869396 190.083117 
L 241.631147 190.083117 
L 241.631147 190.083117 
L 242.162841 227.849351 
L 242.162841 227.849351 
L 242.654973 227.849351 
L 242.654973 227.849351 
L 244.27786 265.615584 
L 244.632333 303.381818 
L 244.632333 303.381818 
L 252.212837 303.381818 
L 252.212837 303.381818 
L 252.549381 265.615584 
L 252.549381 265.615584 
L 253.80819 265.615584 
L 253.80819 265.615584 
L 254.68286 227.849351 
L 254.68286 227.849351 
L 255.610869 227.849351 
L 255.610869 227.849351 
L 255.64093 190.083117 
L 255.64093 190.083117 
L 257.305927 190.083117 
L 257.305927 190.083117 
L 257.994672 152.316883 
L 257.994672 152.316883 
L 258.900663 190.083117 
L 258.900663 190.083117 
L 260.698647 190.083117 
L 260.698647 190.083117 
L 261.369413 227.849351 
L 261.369413 227.849351 
L 263.365882 227.849351 
L 263.365882 227.849351 
L 263.483618 265.615584 
L 263.483618 265.615584 
L 268.992341 265.615584 
L 268.992341 265.615584 
L 270.208278 227.849351 
L 270.208278 227.849351 
L 271.168022 190.083117 
L 271.168022 190.083117 
L 271.675124 190.083117 
L 271.675124 190.083117 
L 272.643914 152.316883 
L 272.643914 152.316883 
L 277.879191 152.316883 
L 277.879191 152.316883 
L 278.113491 190.083117 
L 278.113491 190.083117 
L 278.124708 152.316883 
L 278.124708 152.316883 
L 279.707791 152.316883 
L 279.707791 152.316883 
L 279.728595 114.550649 
L 279.728595 114.550649 
L 281.196828 152.316883 
L 281.196828 152.316883 
L 282.288092 114.550649 
L 282.288092 114.550649 
L 282.797891 152.316883 
L 282.797891 152.316883 
L 283.367595 114.550649 
L 283.367595 114.550649 
L 284.306403 114.550649 
L 284.306403 114.550649 
L 284.621979 152.316883 
L 284.621979 152.316883 
L 287.328105 190.083117 
L 287.328105 190.083117 
L 289.154182 190.083117 
L 289.154182 190.083117 
L 289.17809 227.849351 
L 289.17809 227.849351 
L 290.02847 227.849351 
L 290.02847 227.849351 
L 290.539143 265.615584 
L 290.539143 265.615584 
L 294.601761 265.615584 
L 294.601761 265.615584 
L 294.998684 303.381818 
L 300.401094 303.381818 
L 300.401094 303.381818 
L 301.575177 265.615584 
L 301.575177 265.615584 
L 302.658625 265.615584 
L 302.658625 265.615584 
L 303.197186 227.849351 
L 303.197186 227.849351 
L 304.672669 227.849351 
L 304.672669 227.849351 
L 305.268903 265.615584 
L 305.268903 265.615584 
L 306.904426 265.615584 
L 306.934065 227.849351 
L 306.934065 227.849351 
L 307.312082 265.615584 
L 309.935269 265.615584 
L 309.935269 265.615584 
L 310.665977 303.381818 
L 323.947535 303.381818 
L 323.947535 303.381818 
L 324.199323 265.615584 
L 324.199323 265.615584 
L 324.980624 265.615584 
L 324.980624 265.615584 
L 325.076143 227.849351 
L 325.076143 227.849351 
L 326.595653 265.615584 
L 327.441947 227.849351 
L 327.441947 227.849351 
L 328.59931 265.615584 
L 330.944734 265.615584 
L 330.944734 265.615584 
L 331.584205 227.849351 
L 331.584205 227.849351 
L 331.652152 265.615584 
L 331.652152 265.615584 
L 332.409463 227.849351 
L 332.409463 227.849351 
L 333.356937 227.849351 
L 333.356937 227.849351 
L 334.312544 190.083117 
L 334.312544 190.083117 
L 334.857762 227.849351 
L 334.857762 227.849351 
L 335.848012 190.083117 
L 335.848012 190.083117 
L 336.213263 227.849351 
L 336.213263 227.849351 
L 337.43493 227.849351 
L 337.43493 227.849351 
L 337.706726 265.615584 
L 337.706726 265.615584 
L 338.685008 265.615584 
L 338.685008 265.615584 
L 339.082902 303.381818 
L 339.082902 303.381818 
L 345.593093 303.381818 
L 347.261516 265.615584 
L 347.261516 265.615584 
L 347.856257 265.615584 
L 347.856257 265.615584 
L 349.112653 227.849351 
L 349.112653 227.849351 
L 350.345108 227.849351 
L 350.345108 227.849351 
L 351.706283 265.615584 
L 351.706283 265.615584 
L 351.885744 227.849351 
L 351.885744 227.849351 
L 352.844264 265.615584 
L 352.844264 265.615584 
L 353.639758 227.849351 
L 353.639758 227.849351 
L 353.987084 265.615584 
L 357.24851 265.615584 
L 357.24851 265.615584 
L 357.386027 303.381818 
L 368.170784 303.381818 
L 368.170784 303.381818 
L 368.430847 265.615584 
L 368.430847 265.615584 
L 376.179025 265.615584 
L 376.179025 265.615584 
L 376.501243 227.849351 
L 376.501243 227.849351 
L 377.131405 227.849351 
L 377.131405 227.849351 
L 377.582955 190.083117 
L 377.582955 190.083117 
L 378.48639 227.849351 
L 378.48639 227.849351 
L 379.449926 227.849351 
L 379.449926 227.849351 
L 380.07734 190.083117 
L 380.07734 190.083117 
L 381.07678 190.083117 
L 381.07678 190.083117 
L 381.226347 227.849351 
L 381.226347 227.849351 
L 383.159852 227.849351 
L 383.159852 227.849351 
L 383.347061 265.615584 
L 387.116328 265.615584 
L 387.116328 265.615584 
L 387.459795 227.849351 
L 387.459795 227.849351 
L 387.631287 265.615584 
L 387.631287 265.615584 
L 388.9255 227.849351 
L 388.9255 227.849351 
L 390.025625 227.849351 
L 390.025625 227.849351 
L 390.801189 190.083117 
L 390.801189 190.083117 
L 391.897315 190.083117 
L 391.897315 190.083117 
L 392.476089 227.849351 
L 392.476089 227.849351 
L 392.73096 190.083117 
L 392.73096 190.083117 
L 394.013973 227.849351 
L 394.013973 227.849351 
L 394.568863 227.849351 
L 394.568863 227.849351 
L 395.923981 265.615584 
L 395.923981 265.615584 
L 397.203138 265.615584 
L 397.203138 265.615584 
L 397.511811 303.381818 
L 409.385029 303.381818 
L 410.390099 265.615584 
L 410.390099 265.615584 
L 412.65994 265.615584 
L 412.65994 265.615584 
L 414.185508 303.381818 
L 420.279541 303.381818 
L 420.279541 303.381818 
L 420.786973 265.615584 
L 420.786973 265.615584 
L 422.542854 265.615584 
L 422.542854 265.615584 
L 422.700265 227.849351 
L 422.700265 227.849351 
L 425.052412 227.849351 
L 425.052412 227.849351 
L 425.147547 190.083117 
L 425.147547 190.083117 
L 426.099404 190.083117 
L 426.099404 190.083117 
L 426.380215 227.849351 
L 426.380215 227.849351 
L 428.362411 265.615584 
L 428.362411 265.615584 
L 429.196964 227.849351 
L 429.196964 227.849351 
L 429.567771 265.615584 
L 432.045586 265.615584 
L 432.045586 265.615584 
L 432.806033 303.381818 
L 448.298735 303.381818 
L 448.298735 303.381818 
L 448.536186 265.615584 
L 448.536186 265.615584 
L 449.629729 265.615584 
L 449.629729 265.615584 
L 450.000184 227.849351 
L 450.000184 227.849351 
L 451.803168 227.849351 
L 451.803168 227.849351 
L 452.336328 190.083117 
L 452.336328 190.083117 
L 452.361724 227.849351 
L 452.361724 227.849351 
L 453.50555 227.849351 
L 453.50555 227.849351 
L 453.944911 265.615584 
L 454.936429 303.381818 
L 465.138219 303.381818 
L 465.138219 303.381818 
L 465.465778 265.615584 
L 465.465778 265.615584 
L 472.362239 265.615584 
L 472.362239 265.615584 
L 472.9356 227.849351 
L 472.9356 227.849351 
L 473.662814 227.849351 
L 473.662814 227.849351 
L 474.239902 190.083117 
L 474.239902 190.083117 
L 476.866835 190.083117 
L 476.866835 190.083117 
L 478.04488 152.316883 
L 478.04488 152.316883 
L 478.488871 190.083117 
L 478.488871 190.083117 
L 478.870645 190.083117 
L 478.870645 190.083117 
L 479.743703 227.849351 
L 479.743703 227.849351 
L 480.317677 190.083117 
L 480.317677 190.083117 
L 481.113263 190.083117 
L 481.113263 190.083117 
L 482.341245 227.849351 
L 482.341245 227.849351 
L 483.74621 227.849351 
L 483.74621 227.849351 
L 483.803927 265.615584 
L 483.803927 265.615584 
L 485.724646 265.615584 
L 485.724646 265.615584 
L 485.972511 303.381818 
L 494.666413 303.381818 
L 494.666413 303.381818 
L 494.753906 265.615584 
L 494.753906 265.615584 
L 495.589144 227.849351 
L 495.589144 227.849351 
L 496.1486 190.083117 
L 496.1486 190.083117 
L 497.371074 190.083117 
L 497.371074 190.083117 
L 497.909251 152.316883 
L 497.909251 152.316883 
L 498.619009 152.316883 
L 498.619009 152.316883 
L 498.857983 190.083117 
L 498.857983 190.083117 
L 501.16452 190.083117 
L 501.16452 190.083117 
L 501.295953 227.849351 
L 501.295953 227.849351 
L 501.920985 227.849351 
L 501.920985 227.849351 
L 503.107975 265.615584 
L 503.107975 265.615584 
L 512.409836 265.615584 
L 512.938514 303.381818 
L 512.938514 303.381818 
L 518.388848 303.381818 
L 518.388848 303.381818 
L 518.436423 265.615584 
L 518.436423 265.615584 
L 519.440904 227.849351 
L 519.440904 227.849351 
L 522.154207 227.849351 
L 522.154207 227.849351 
L 522.637666 190.083117 
L 522.637666 190.083117 
L 522.811599 190.083117 
L 522.811599 190.083117 
L 523.050837 227.849351 
L 523.050837 227.849351 
L 526.781698 227.849351 
L 526.781698 227.849351 
L 526.825082 265.615584 
L 527.112412 303.381818 
L 534.008128 303.381818 
L 534.830252 265.615584 
L 534.830252 265.615584 
L 535.590612 265.615584 
L 535.590612 265.615584 
L 536.561817 227.849351 
L 536.561817 227.849351 
L 538.560497 227.849351 
L 538.560497 227.849351 
L 539.031983 265.615584 
L 539.031983 265.615584 
L 541.280682 303.381818 
L 541.280682 303.381818 
" clip-path="url(#p1075baeb48)" style="fill: none; stroke: #2563eb; stroke-width: 1.5; stroke-linecap: square"/>
   </g>
   <g id="line2d_19">
    <path d="M 62.894318 303.381818 
L 76.231917 303.381818 
L 76.231917 303.381818 
L 76.555091 265.615584 
L 76.555091 265.615584 
L 77.57521 265.615584 
L 77.57521 265.615584 
L 78.46685 227.849351 
L 78.46685 227.849351 
L 79.947039 227.849351 
L 79.947039 227.849351 
L 80.032726 265.615584 
L 81.551306 265.615584 
L 81.626294 303.381818 
L 92.68258 303.381818 
L 92.68258 303.381818 
L 92.856825 265.615584 
L 92.856825 265.615584 
L 96.867178 265.615584 
L 96.867178 265.615584 
L 96.870601 303.381818 
L 101.579075 303.381818 
L 101.579075 303.381818 
L 103.44019 265.615584 
L 103.44019 265.615584 
L 106.598646 265.615584 
L 108.006195 227.849351 
L 108.006195 227.849351 
L 112.054531 227.849351 
L 112.054531 227.849351 
L 112.296263 265.615584 
L 113.948607 265.615584 
L 113.948607 265.615584 
L 113.954736 303.381818 
L 121.807049 303.381818 
L 121.807049 303.381818 
L 122.167746 265.615584 
L 122.167746 265.615584 
L 123.108818 265.615584 
L 123.108818 265.615584 
L 123.502595 227.849351 
L 123.502595 227.849351 
L 126.260991 227.849351 
L 126.260991 227.849351 
L 126.389244 265.615584 
L 128.733998 265.615584 
L 128.733998 265.615584 
L 129.632996 303.381818 
L 146.712363 303.381818 
L 146.712363 303.381818 
L 147.53105 265.615584 
L 147.53105 265.615584 
L 148.964913 265.615584 
L 148.964913 265.615584 
L 149.369031 227.849351 
L 149.369031 227.849351 
L 151.148476 227.849351 
L 151.148476 227.849351 
L 151.30962 265.615584 
L 152.716331 265.615584 
L 152.716331 265.615584 
L 153.124433 303.381818 
L 165.270396 303.381818 
L 165.270396 303.381818 
L 165.706435 265.615584 
L 165.706435 265.615584 
L 169.898133 265.615584 
L 169.898133 265.615584 
L 171.143769 227.849351 
L 171.143769 227.849351 
L 177.457629 227.849351 
L 177.457629 227.849351 
L 177.741776 265.615584 
L 184.882354 265.615584 
L 184.882354 265.615584 
L 184.901624 303.381818 
L 193.90211 303.381818 
L 193.90211 303.381818 
L 194.080664 265.615584 
L 194.080664 265.615584 
L 195.16472 265.615584 
L 195.16472 265.615584 
L 195.331997 227.849351 
L 195.331997 227.849351 
L 199.788534 227.849351 
L 199.788534 227.849351 
L 199.930166 265.615584 
L 201.304949 265.615584 
L 201.304949 265.615584 
L 201.38709 303.381818 
L 211.948371 303.381818 
L 211.948371 303.381818 
L 212.758548 265.615584 
L 212.758548 265.615584 
L 213.733443 265.615584 
L 213.733443 265.615584 
L 213.870748 227.849351 
L 213.870748 227.849351 
L 214.68718 227.849351 
L 214.68718 227.849351 
L 214.867463 265.615584 
L 214.867463 265.615584 
L 216.548843 265.615584 
L 216.548843 265.615584 
L 216.805184 303.381818 
L 225.376289 303.381818 
L 225.376289 303.381818 
L 227.028687 265.615584 
L 227.028687 265.615584 
L 231.631611 265.615584 
L 231.631611 265.615584 
L 232.641488 303.381818 
L 238.382723 303.381818 
L 238.382723 303.381818 
L 238.434642 265.615584 
L 238.434642 265.615584 
L 240.767736 265.615584 
L 240.767736 265.615584 
L 241.631147 227.849351 
L 241.631147 227.849351 
L 244.632333 227.849351 
L 244.632333 227.849351 
L 244.992361 265.615584 
L 246.064343 265.615584 
L 246.064343 265.615584 
L 247.551046 303.381818 
L 258.900663 303.381818 
L 258.900663 303.381818 
L 259.569352 265.615584 
L 259.569352 265.615584 
L 260.698647 227.849351 
L 260.698647 227.849351 
L 263.483618 227.849351 
L 263.483618 227.849351 
L 264.424959 265.615584 
L 264.424959 265.615584 
L 265.924751 265.615584 
L 265.924751 265.615584 
L 266.148407 303.381818 
L 287.328105 303.381818 
L 287.328105 303.381818 
L 288.103044 265.615584 
L 288.103044 265.615584 
L 288.650884 227.849351 
L 288.650884 227.849351 
L 291.631965 227.849351 
L 291.631965 227.849351 
L 292.522831 265.615584 
L 292.969262 265.615584 
L 292.969262 265.615584 
L 293.482715 303.381818 
L 304.558286 303.381818 
L 304.558286 303.381818 
L 304.672669 265.615584 
L 304.672669 265.615584 
L 305.499891 265.615584 
L 305.499891 265.615584 
L 306.934065 303.381818 
L 306.934065 303.381818 
L 308.415633 303.381818 
L 308.415633 303.381818 
L 309.935269 265.615584 
L 309.935269 265.615584 
L 316.334115 265.615584 
L 316.334115 265.615584 
L 318.532686 303.381818 
L 336.213263 303.381818 
L 336.213263 303.381818 
L 336.815853 265.615584 
L 336.815853 265.615584 
L 337.706726 265.615584 
L 337.706726 265.615584 
L 337.881667 227.849351 
L 337.881667 227.849351 
L 341.697349 227.849351 
L 341.697349 227.849351 
L 342.286446 265.615584 
L 349.112653 265.615584 
L 349.112653 265.615584 
L 349.520338 303.381818 
L 354.481363 303.381818 
L 354.481363 303.381818 
L 354.786458 265.615584 
L 354.786458 265.615584 
L 356.079485 265.615584 
L 356.079485 265.615584 
L 357.24851 227.849351 
L 357.24851 227.849351 
L 364.027532 227.849351 
L 364.027532 227.849351 
L 364.648404 265.615584 
L 366.108289 265.615584 
L 366.108289 265.615584 
L 366.961453 303.381818 
L 378.48639 303.381818 
L 378.48639 303.381818 
L 379.449926 265.615584 
L 379.449926 265.615584 
L 380.650329 265.615584 
L 380.650329 265.615584 
L 380.942074 227.849351 
L 380.942074 227.849351 
L 383.784533 227.849351 
L 383.784533 227.849351 
L 383.84453 265.615584 
L 384.278085 303.381818 
L 395.923981 303.381818 
L 395.923981 303.381818 
L 397.203138 265.615584 
L 397.203138 265.615584 
L 398.304937 265.615584 
L 398.304937 265.615584 
L 399.342942 303.381818 
L 400.091767 265.615584 
L 400.091767 265.615584 
L 402.647856 265.615584 
L 402.647856 265.615584 
L 403.585258 303.381818 
L 403.585258 303.381818 
L 429.567771 303.381818 
L 429.848004 265.615584 
L 429.848004 265.615584 
L 431.556802 265.615584 
L 431.556802 265.615584 
L 432.045586 227.849351 
L 432.045586 227.849351 
L 433.411554 227.849351 
L 433.411554 227.849351 
L 437.176796 303.381818 
L 450.000184 303.381818 
L 450.000184 303.381818 
L 450.692818 265.615584 
L 450.692818 265.615584 
L 452.361724 265.615584 
L 452.361724 265.615584 
L 453.088245 303.381818 
L 454.936429 303.381818 
L 455.986177 265.615584 
L 455.986177 265.615584 
L 457.387341 265.615584 
L 457.387341 265.615584 
L 457.848377 303.381818 
L 482.307891 303.381818 
L 482.307891 303.381818 
L 482.341245 265.615584 
L 482.341245 265.615584 
L 483.457799 265.615584 
L 483.457799 265.615584 
L 483.803927 227.849351 
L 483.803927 227.849351 
L 488.77872 227.849351 
L 488.77872 227.849351 
L 488.8597 265.615584 
L 491.672349 265.615584 
L 491.93835 303.381818 
L 499.423723 303.381818 
L 499.423723 303.381818 
L 499.843547 265.615584 
L 499.843547 265.615584 
L 501.111491 265.615584 
L 501.111491 265.615584 
L 501.16452 227.849351 
L 501.16452 227.849351 
L 504.987863 227.849351 
L 504.987863 227.849351 
L 505.085867 265.615584 
L 505.085867 265.615584 
L 505.345335 265.615584 
L 505.345335 265.615584 
L 505.352733 303.381818 
L 520.890491 303.381818 
L 520.890491 303.381818 
L 521.449565 265.615584 
L 521.449565 265.615584 
L 523.050837 265.615584 
L 523.050837 265.615584 
L 524.14772 227.849351 
L 524.14772 227.849351 
L 524.691862 227.849351 
L 524.691862 227.849351 
L 525.12396 265.615584 
L 527.426233 265.615584 
L 527.426233 265.615584 
L 529.29776 303.381818 
L 541.280682 303.381818 
L 541.280682 303.381818 
" clip-path="url(#p1075baeb48)" style="fill: none; stroke: #16a34a; stroke-width: 1.5; stroke-linecap: square"/>
   </g>
   <g id="patch_3">
    <path d="M 38.975 316.6 
L 38.975 25.8 
" style="fill: none; stroke: #000000; stroke-width: 0.8; stroke-linejoin: miter; stroke-linecap: square"/>
   </g>
   <g id="patch_4">
    <path d="M 565.2 316.6 
L 565.2 25.8 
" style="fill: none; stroke: #000000; stroke-width: 0.8; stroke-linejoin: miter; stroke-linecap: square"/>
   </g>
   <g id="patch_5">
    <path d="M 38.975 316.6 
L 565.2 316.6 
" style="fill: none; stroke: #000000; stroke-width: 0.8; stroke-linejoin: miter; stroke-linecap: square"/>
   </g>
   <g id="patch_6">
    <path d="M 38.975 25.8 
L 565.2 25.8 
" style="fill: none; stroke: #000000; stroke-width: 0.8; stroke-linejoin: miter; stroke-linecap: square"/>
   </g>
   <g id="text_17">
    <!-- System Load By Priority Over Time (IMMEDIATE: avg=0.26, med=0.00; VERY_URGENT: avg=0.48, med=0.00; URGENT: avg=0.44, med=0.00; STANDARD: avg=1.66, med=1.00; NON_URGENT: avg=0.54, med=0.00) -->
    <g transform="translate(-344.087188 19.8) scale(0.12 -0.12)">
     <defs>
      <path id="DejaVuSans-53" d="M 3425 4513 
L 3425 3897 
Q 3066 4069 2747 4153 
Q 2428 4238 2131 4238 
Q 1616 4238 1336 4038 
Q 1056 3838 1056 3469 
Q 1056 3159 1242 3001 
Q 1428 2844 1947 2747 
L 2328 2669 
Q 3034 2534 3370 2195 
Q 3706 1856 3706 1288 
Q 3706 609 3251 259 
Q 2797 -91 1919 -91 
Q 1588 -91 1214 -16 
Q 841 59 441 206 
L 441 856 
Q 825 641 1194 531 
Q 1563 422 1919 422 
Q 2459 422 2753 634 
Q 3047 847 3047 1241 
Q 3047 1584 2836 1778 
Q 2625 1972 2144 2069 
L 1759 2144 
Q 1053 2284 737 2584 
Q 422 2884 422 3419 
Q 422 4038 858 4394 
Q 1294 4750 2059 4750 
Q 2388 4750 2728 4690 
Q 3069 4631 3425 4513 
z
" transform="scale(0.015625)"/>
      <path id="DejaVuSans-79" d="M 2059 -325 
Q 1816 -950 1584 -1140 
Q 1353 -1331 966 -1331 
L 506 -1331 
L 506 -850 
L 844 -850 
Q 1081 -850 1212 -737 
Q 1344 -625 1503 -206 
L 1606 56 
L 191 3500 
L 800 3500 
L 1894 763 
L 2988 3500 
L 3597 3500 
L 2059 -325 
z
" transform="scale(0.015625)"/>
      <path id="DejaVuSans-20" transform="scale(0.015625)"/>
      <path id="DejaVuSans-4c" d="M 628 4666 
L 1259 4666 
L 1259 531 
L 3531 531 
L 3531 0 
L 628 0 
L 628 4666 
z
" transform="scale(0.015625)"/>
      <path id="DejaVuSans-6f" d="M 1959 3097 
Q 1497 3097 1228 2736 
Q 959 2375 959 1747 
Q 959 1119 1226 758 
Q 1494 397 1959 397 
Q 2419 397 2687 759 
Q 2956 1122 2956 1747 
Q 2956 2369 2687 2733 
Q 2419 3097 1959 3097 
z
M 1959 3584 
Q 2709 3584 3137 3096 
Q 3566 2609 3566 1747 
Q 3566 888 3137 398 
Q 2709 -91 1959 -91 
Q 1206 -91 779 398 
Q 353 888 353 1747 
Q 353 2609 779 3096 
Q 1206 3584 1959 3584 
z
" transform="scale(0.015625)"/>
      <path id="DejaVuSans-64" d="M 2906 2969 
L 2906 4863 
L 3481 4863 
L 3481 0 
L 2906 0 
L 2906 525 
Q 2725 213 2448 61 
Q 2172 -91 1784 -91 
Q 1150 -91 751 415 
Q 353 922 353 1747 
Q 353 2572 751 3078 
Q 1150 3584 1784 3584 
Q 2172 3584 2448 3432 
Q 2725 3281 2906 2969 
z
M 947 1747 
Q 947 1113 1208 752 
Q 1469 391 1925 391 
Q 2381 391 2643 752 
Q 2906 1113 2906 1747 
Q 2906 2381 2643 2742 
Q 2381 3103 1925 3103 
Q 1469 3103 1208 2742 
Q 947 2381 947 1747 
z
" transform="scale(0.015625)"/>
      <path id="DejaVuSans-42" d="M 1259 2228 
L 1259 519 
L 2272 519 
Q 2781 519 3026 730 
Q 3272 941 3272 1375 
Q 3272 1813 3026 2020 
Q 2781 2228 2272 2228 
L 1259 2228 
z
M 1259 4147 
L 1259 2741 
L 2194 2741 
Q 2656 2741 2882 2914 
Q 3109 3088 3109 3444 
Q 3109 3797 2882 3972 
Q 2656 4147 2194 4147 
L 1259 4147 
z
M 628 4666 
L 2241 4666 
Q 2963 4666 3353 4366 
Q 3744 4066 3744 3513 
Q 3744 3084 3544 2831 
Q 3344 2578 2956 2516 
Q 3422 2416 3680 2098 
Q 3938 1781 3938 1306 
Q 3938 681 3513 340 
Q 3088 0 2303 0 
L 628 0 
L 628 4666 
z
" transform="scale(0.015625)"/>
      <path id="DejaVuSans-50" d="M 1259 4147 
L 1259 2394 
L 2053 2394 
Q 2494 2394 2734 2622 
Q 2975 2850 2975 3272 
Q 2975 3691 2734 3919 
Q 2494 4147 2053 4147 
L 1259 4147 
z
M 628 4666 
L 2053 4666 
Q 2838 4666 3239 4311 
Q 3641 3956 3641 3272 
Q 3641 2581 3239 2228 
Q 2838 1875 2053 1875 
L 1259 1875 
L 1259 0 
L 628 0 
L 628 4666 
z
" transform="scale(0.015625)"/>
      <path id="DejaVuSans-72" d="M 2631 2963 
Q 2534 3019 2420 3045 
Q 2306 3072 2169 3072 
Q 1681 3072 1420 2755 
Q 1159 2438 1159 1844 
L 1159 0 
L 581 0 
L 581 3500 
L 1159 3500 
L 1159 2956 
Q 1341 3275 1631 3429 
Q 1922 3584 2338 3584 
Q 2397 3584 2469 3576 
Q 2541 3569 2628 3553 
L 2631 2963 
z
" transform="scale(0.015625)"/>
      <path id="DejaVuSans-4f" d="M 2522 4238 
Q 1834 4238 1429 3725 
Q 1025 3213 1025 2328 
Q 1025 1447 1429 934 
Q 1834 422 2522 422 
Q 3209 422 3611 934 
Q 4013 1447 4013 2328 
Q 4013 3213 3611 3725 
Q 3209 4238 2522 4238 
z
M 2522 4750 
Q 3503 4750 4090 4092 
Q 4678 3434 4678 2328 
Q 4678 1225 4090 567 
Q 3503 -91 2522 -91 
Q 1538 -91 948 565 
Q 359 1222 359 2328 
Q 359 3434 948 4092 
Q 1538 4750 2522 4750 
z
" transform="scale(0.015625)"/>
      <path id="DejaVuSans-76" d="M 191 3500 
L 800 3500 
L 1894 563 
L 2988 3500 
L 3597 3500 
L 2284 0 
L 1503 0 
L 191 3500 
z
" transform="scale(0.015625)"/>
      <path id="DejaVuSans-54" d="M -19 4666 
L 3928 4666 
L 3928 4134 
L 2272 4134 
L 2272 0 
L 1638 0 
L 1638 4134 
L -19 4134 
L -19 4666 
z
" transform="scale(0.015625)"/>
      <path id="DejaVuSans-28" d="M 1984 4856 
Q 1566 4138 1362 3434 
Q 1159 2731 1159 2009 
Q 1159 1288 1364 580 
Q 1569 -128 1984 -844 
L 1484 -844 
Q 1016 -109 783 600 
Q 550 1309 550 2009 
Q 550 2706 781 3412 
Q 1013 4119 1484 4856 
L 1984 4856 
z
" transform="scale(0.015625)"/>
      <path id="DejaVuSans-49" d="M 628 4666 
L 1259 4666 
L 1259 0 
L 628 0 
L 628 4666 
z
" transform="scale(0.015625)"/>
      <path id="DejaVuSans-4d" d="M 628 4666 
L 1569 4666 
L 2759 1491 
L 3956 4666 
L 4897 4666 
L 4897 0 
L 4281 0 
L 4281 4097 
L 3078 897 
L 2444 897 
L 1241 4097 
L 1241 0 
L 628 0 
L 628 4666 
z
" transform="scale(0.015625)"/>
      <path id="DejaVuSans-45" d="M 628 4666 
L 3578 4666 
L 3578 4134 
L 1259 4134 
L 1259 2753 
L 3481 2753 
L 3481 2222 
L 1259 2222 
L 1259 531 
L 3634 531 
L 3634 0 
L 628 0 
L 628 4666 
z
" transform="scale(0.015625)"/>
      <path id="DejaVuSans-44" d="M 1259 4147 
L 1259 519 
L 2022 519 
Q 2988 519 3436 956 
Q 3884 1394 3884 2338 
Q 3884 3275 3436 3711 
Q 2988 4147 2022 4147 
L 1259 4147 
z
M 628 4666 
L 1925 4666 
Q 3281 4666 3915 4102 
Q 4550 3538 4550 2338 
Q 4550 1131 3912 565 
Q 3275 0 1925 0 
L 628 0 
L 628 4666 
z
" transform="scale(0.015625)"/>
      <path id="DejaVuSans-41" d="M 2188 4044 
L 1331 1722 
L 3047 1722 
L 2188 4044 
z
M 1831 4666 
L 2547 4666 
L 4325 0 
L 3669 0 
L 3244 1197 
L 1141 1197 
L 716 0 
L 50 0 
L 1831 4666 
z
" transform="scale(0.015625)"/>
      <path id="DejaVuSans-3a" d="M 750 794 
L 1409 794 
L 1409 0 
L 750 0 
L 750 794 
z
M 750 3309 
L 1409 3309 
L 1409 2516 
L 750 2516 
L 750 3309 
z
" transform="scale(0.015625)"/>
      <path id="DejaVuSans-67" d="M 2906 1791 
Q 2906 2416 2648 2759 
Q 2391 3103 1925 3103 
Q 1463 3103 1205 2759 
Q 947 2416 947 1791 
Q 947 1169 1205 825 
Q 1463 481 1925 481 
Q 2391 481 2648 825 
Q 2906 1169 2906 1791 
z
M 3481 434 
Q 3481 -459 3084 -895 
Q 2688 -1331 1869 -1331 
Q 1566 -1331 1297 -1286 
Q 1028 -1241 775 -1147 
L 775 -588 
Q 1028 -725 1275 -790 
Q 1522 -856 1778 -856 
Q 2344 -856 2625 -561 
Q 2906 -266 2906 331 
L 2906 616 
Q 2728 306 2450 153 
Q 2172 0 1784 0 
Q 1141 0 747 490 
Q 353 981 353 1791 
Q 353 2603 747 3093 
Q 1141 3584 1784 3584 
Q 2172 3584 2450 3431 
Q 2728 3278 2906 2969 
L 2906 3500 
L 3481 3500 
L 3481 434 
z
" transform="scale(0.015625)"/>
      <path id="DejaVuSans-3d" d="M 678 2906 
L 4684 2906 
L 4684 2381 
L 678 2381 
L 678 2906 
z
M 678 1631 
L 4684 1631 
L 4684 1100 
L 678 1100 
L 678 1631 
z
" transform="scale(0.015625)"/>
      <path id="DejaVuSans-2e" d="M 684 794 
L 1344 794 
L 1344 0 
L 684 0 
L 684 794 
z
" transform="scale(0.015625)"/>
      <path id="DejaVuSans-2c" d="M 750 794 
L 1409 794 
L 1409 256 
L 897 -744 
L 494 -744 
L 750 256 
L 750 794 
z
" transform="scale(0.015625)"/>
      <path id="DejaVuSans-3b" d="M 750 3309 
L 1409 3309 
L 1409 2516 
L 750 2516 
L 750 3309 
z
M 750 794 
L 1409 794 
L 1409 256 
L 897 -744 
L 494 -744 
L 750 256 
L 750 794 
z
" transform="scale(0.015625)"/>
      <path id="DejaVuSans-56" d="M 1831 0 
L 50 4666 
L 709 4666 
L 2188 738 
L 3669 4666 
L 4325 4666 
L 2547 0 
L 1831 0 
z
" transform="scale(0.015625)"/>
      <path id="DejaVuSans-52" d="M 2841 2188 
Q 3044 2119 3236 1894 
Q 3428 1669 3622 1275 
L 4263 0 
L 3584 0 
L 2988 1197 
Q 2756 1666 2539 1819 
Q 2322 1972 1947 1972 
L 1259 1972 
L 1259 0 
L 628 0 
L 628 4666 
L 2053 4666 
Q 2853 4666 3247 4331 
Q 3641 3997 3641 3322 
Q 3641 2881 3436 2590 
Q 3231 2300 2841 2188 
z
M 1259 4147 
L 1259 2491 
L 2053 2491 
Q 2509 2491 2742 2702 
Q 2975 2913 2975 3322 
Q 2975 3731 2742 3939 
Q 2509 4147 2053 4147 
L 1259 4147 
z
" transform="scale(0.015625)"/>
      <path id="DejaVuSans-59" d="M -13 4666 
L 666 4666 
L 1959 2747 
L 3244 4666 
L 3922 4666 
L 2272 2222 
L 2272 0 
L 1638 0 
L 1638 2222 
L -13 4666 
z
" transform="scale(0.015625)"/>
      <path id="DejaVuSans-5f" d="M 3263 -1063 
L 3263 -1509 
L -63 -1509 
L -63 -1063 
L 3263 -1063 
z
" transform="scale(0.015625)"/>
      <path id="DejaVuSans-55" d="M 556 4666 
L 1191 4666 
L 1191 1831 
Q 1191 1081 1462 751 
Q 1734 422 2344 422 
Q 2950 422 3222 751 
Q 3494 1081 3494 1831 
L 3494 4666 
L 4128 4666 
L 4128 1753 
Q 4128 841 3676 375 
Q 3225 -91 2344 -91 
Q 1459 -91 1007 375 
Q 556 841 556 1753 
L 556 4666 
z
" transform="scale(0.015625)"/>
      <path id="DejaVuSans-47" d="M 3809 666 
L 3809 1919 
L 2778 1919 
L 2778 2438 
L 4434 2438 
L 4434 434 
Q 4069 175 3628 42 
Q 3188 -91 2688 -91 
Q 1594 -91 976 548 
Q 359 1188 359 2328 
Q 359 3472 976 4111 
Q 1594 4750 2688 4750 
Q 3144 4750 3555 4637 
Q 3966 4525 4313 4306 
L 4313 3634 
Q 3963 3931 3569 4081 
Q 3175 4231 2741 4231 
Q 1884 4231 1454 3753 
Q 1025 3275 1025 2328 
Q 1025 1384 1454 906 
Q 1884 428 2741 428 
Q 3075 428 3337 486 
Q 3600 544 3809 666 
z
" transform="scale(0.015625)"/>
      <path id="DejaVuSans-4e" d="M 628 4666 
L 1478 4666 
L 3547 763 
L 3547 4666 
L 4159 4666 
L 4159 0 
L 3309 0 
L 1241 3903 
L 1241 0 
L 628 0 
L 628 4666 
z
" transform="scale(0.015625)"/>
      <path id="DejaVuSans-29" d="M 513 4856 
L 1013 4856 
Q 1481 4119 1714 3412 
Q 1947 2706 1947 2009 
Q 1947 1309 1714 600 
Q 1481 -109 1013 -844 
L 513 -844 
Q 928 -128 1133 580 
Q 1338 1288 1338 2009 
Q 1338 2731 1133 3434 
Q 928 4138 513 4856 
z
" transform="scale(0.015625)"/>
     </defs>
     <use xlink:href="#DejaVuSans-53"/>
     <use xlink:href="#DejaVuSans-79" x="63.476562"/>
     <use xlink:href="#DejaVuSans-73" x="122.65625"/>
     <use xlink:href="#DejaVuSans-74" x="174.755859"/>
     <use xlink:href="#DejaVuSans-65" x="213.964844"/>
     <use xlink:href="#DejaVuSans-6d" x="275.488281"/>
     <use xlink:href="#DejaVuSans-20" x="372.900391"/>
     <use xlink:href="#DejaVuSans-4c" x="404.6875"/>
     <use xlink:href="#DejaVuSans-6f" x="458.650391"/>
     <use xlink:href="#DejaVuSans-61" x="519.832031"/>
     <use xlink:href="#DejaVuSans-64" x="581.111328"/>
     <use xlink:href="#DejaVuSans-20" x="644.587891"/>
     <use xlink:href="#DejaVuSans-42" x="676.375"/>
     <use xlink:href="#DejaVuSans-79" x="744.978516"/>
     <use xlink:href="#DejaVuSans-20" x="804.158203"/>
     <use xlink:href="#DejaVuSans-50" x="835.945312"/>
     <use xlink:href="#DejaVuSans-72" x="894.498047"/>
     <use xlink:href="#DejaVuSans-69" x="935.611328"/>
     <use xlink:href="#DejaVuSans-6f" x="963.394531"/>
     <use xlink:href="#DejaVuSans-72" x="1024.576172"/>
     <use xlink:href="#DejaVuSans-69" x="1065.689453"/>
     <use xlink:href="#DejaVuSans-74" x="1093.472656"/>
     <use xlink:href="#DejaVuSans-79" x="1132.681641"/>
     <use xlink:href="#DejaVuSans-20" x="1191.861328"/>
     <use xlink:href="#DejaVuSans-4f" x="1223.648438"/>
     <use xlink:href="#DejaVuSans-76" x="1302.359375"/>
     <use xlink:href="#DejaVuSans-65" x="1361.539062"/>
     <use xlink:href="#DejaVuSans-72" x="1423.0625"/>
     <use xlink:href="#DejaVuSans-20" x="1464.175781"/>
     <use xlink:href="#DejaVuSans-54" x="1495.962891"/>
     <use xlink:href="#DejaVuSans-69" x="1553.921875"/>
     <use xlink:href="#DejaVuSans-6d" x="1581.705078"/>
     <use xlink:href="#DejaVuSans-65" x="1679.117188"/>
     <use xlink:href="#DejaVuSans-20" x="1740.640625"/>
     <use xlink:href="#DejaVuSans-28" x="1772.427734"/>
     <use xlink:href="#DejaVuSans-49" x="1811.441406"/>
     <use xlink:href="#DejaVuSans-4d" x="1840.933594"/>
     <use xlink:href="#DejaVuSans-4d" x="1927.212891"/>
     <use xlink:href="#DejaVuSans-45" x="2013.492188"/>
     <use xlink:href="#DejaVuSans-44" x="2076.675781"/>
     <use xlink:href="#DejaVuSans-49" x="2153.677734"/>
     <use xlink:href="#DejaVuSans-41" x="2183.169922"/>
     <use xlink:href="#DejaVuSans-54" x="2243.828125"/>
     <use xlink:href="#DejaVuSans-45" x="2304.912109"/>
     <use xlink:href="#DejaVuSans-3a" x="2368.095703"/>
     <use xlink:href="#DejaVuSans-20" x="2401.787109"/>
     <use xlink:href="#DejaVuSans-61" x="2433.574219"/>
     <use xlink:href="#DejaVuSans-76" x="2494.853516"/>
     <use xlink:href="#DejaVuSans-67" x="2554.033203"/>
     <use xlink:href="#DejaVuSans-3d" x="2617.509766"/>
     <use xlink:href="#DejaVuSans-30" x="2701.298828"/>
     <use xlink:href="#DejaVuSans-2e" x="2764.921875"/>
     <use xlink:href="#DejaVuSans-32" x="2796.708984"/>
     <use xlink:href="#DejaVuSans-36" x="2860.332031"/>
     <use xlink:href="#DejaVuSans-2c" x="2923.955078"/>
     <use xlink:href="#DejaVuSans-20" x="2955.742188"/>
     <use xlink:href="#DejaVuSans-6d" x="2987.529297"/>
     <use xlink:href="#DejaVuSans-65" x="3084.941406"/>
     <use xlink:href="#DejaVuSans-64" x="3146.464844"/>
     <use xlink:href="#DejaVuSans-3d" x="3209.941406"/>
     <use xlink:href="#DejaVuSans-30" x="3293.730469"/>
     <use xlink:href="#DejaVuSans-2e" x="3357.353516"/>
     <use xlink:href="#DejaVuSans-30" x="3389.140625"/>
     <use xlink:href="#DejaVuSans-30" x="3452.763672"/>
     <use xlink:href="#DejaVuSans-3b" x="3516.386719"/>
     <use xlink:href="#DejaVuSans-20" x="3550.078125"/>
     <use xlink:href="#DejaVuSans-56" x="3581.865234"/>
     <use xlink:href="#DejaVuSans-45" x="3650.273438"/>
     <use xlink:href="#DejaVuSans-52" x="3713.457031"/>
     <use xlink:href="#DejaVuSans-59" x="3776.564453"/>
     <use xlink:href="#DejaVuSans-5f" x="3837.648438"/>
     <use xlink:href="#DejaVuSans-55" x="3887.648438"/>
     <use xlink:href="#DejaVuSans-52" x="3960.841797"/>
     <use xlink:href="#DejaVuSans-47" x="4030.324219"/>
     <use xlink:href="#DejaVuSans-45" x="4107.814453"/>
     <use xlink:href="#DejaVuSans-4e" x="4170.998047"/>
     <use xlink:href="#DejaVuSans-54" x="4245.802734"/>
     <use xlink:href="#DejaVuSans-3a" x="4295.886719"/>
     <use xlink:href="#DejaVuSans-20" x="4329.578125"/>
     <use xlink:href="#DejaVuSans-61" x="4361.365234"/>
     <use xlink:href="#DejaVuSans-76" x="4422.644531"/>
     <use xlink:href="#DejaVuSans-67" x="4481.824219"/>
     <use xlink:href="#DejaVuSans-3d" x="4545.300781"/>
     <use xlink:href="#DejaVuSans-30" x="4629.089844"/>
     <use xlink:href="#DejaVuSans-2e" x="4692.712891"/>
     <use xlink:href="#DejaVuSans-34" x="4724.5"/>
     <use xlink:href="#DejaVuSans-38" x="4788.123047"/>
     <use xlink:href="#DejaVuSans-2c" x="4851.746094"/>
     <use xlink:href="#DejaVuSans-20" x="4883.533203"/>
     <use xlink:href="#DejaVuSans-6d" x="4915.320312"/>
     <use xlink:href="#DejaVuSans-65" x="5012.732422"/>
     <use xlink:href="#DejaVuSans-64" x="5074.255859"/>
     <use xlink:href="#DejaVuSans-3d" x="5137.732422"/>
     <use xlink:href="#DejaVuSans-30" x="5221.521484"/>
     <use xlink:href="#DejaVuSans-2e" x="5285.144531"/>
     <use xlink:href="#DejaVuSans-30" x="5316.931641"/>
     <use xlink:href="#DejaVuSans-30" x="5380.554688"/>
     <use xlink:href="#DejaVuSans-3b" x="5444.177734"/>
     <use xlink:href="#DejaVuSans-20" x="5477.869141"/>
     <use xlink:href="#DejaVuSans-55" x="5509.65625"/>
     <use xlink:href="#DejaVuSans-52" x="5582.849609"/>
     <use xlink:href="#DejaVuSans-47" x="5652.332031"/>
     <use xlink:href="#DejaVuSans-45" x="5729.822266"/>
     <use xlink:href="#DejaVuSans-4e" x="5793.005859"/>
     <use xlink:href="#DejaVuSans-54" x="5867.810547"/>
     <use xlink:href="#DejaVuSans-3a" x="5917.894531"/>
     <use xlink:href="#DejaVuSans-20" x="5951.585938"/>
     <use xlink:href="#DejaVuSans-61" x="5983.373047"/>
     <use xlink:href="#DejaVuSans-76" x="6044.652344"/>
     <use xlink:href="#DejaVuSans-67" x="6103.832031"/>
     <use xlink:href="#DejaVuSans-3d" x="6167.308594"/>
     <use xlink:href="#DejaVuSans-30" x="6251.097656"/>
     <use xlink:href="#DejaVuSans-2e" x="6314.720703"/>
     <use xlink:href="#DejaVuSans-34" x="6346.507812"/>
     <use xlink:href="#DejaVuSans-34" x="6410.130859"/>
     <use xlink:href="#DejaVuSans-2c" x="6473.753906"/>
     <use xlink:href="#DejaVuSans-20" x="6505.541016"/>
     <use xlink:href="#DejaVuSans-6d" x="6537.328125"/>
     <use xlink:href="#DejaVuSans-65" x="6634.740234"/>
     <use xlink:href="#DejaVuSans-64" x="6696.263672"/>
     <use xlink:href="#DejaVuSans-3d" x="6759.740234"/>
     <use xlink:href="#DejaVuSans-30" x="6843.529297"/>
     <use xlink:href="#DejaVuSans-2e" x="6907.152344"/>
     <use xlink:href="#DejaVuSans-30" x="6938.939453"/>
     <use xlink:href="#DejaVuSans-30" x="7002.5625"/>
     <use xlink:href="#DejaVuSans-3b" x="7066.185547"/>
     <use xlink:href="#DejaVuSans-20" x="7099.876953"/>
     <use xlink:href="#DejaVuSans-53" x="7131.664062"/>
     <use xlink:href="#DejaVuSans-54" x="7195.140625"/>
     <use xlink:href="#DejaVuSans-41" x="7248.474609"/>
     <use xlink:href="#DejaVuSans-4e" x="7316.882812"/>
     <use xlink:href="#DejaVuSans-44" x="7391.6875"/>
     <use xlink:href="#DejaVuSans-41" x="7466.939453"/>
     <use xlink:href="#DejaVuSans-52" x="7535.347656"/>
     <use xlink:href="#DejaVuSans-44" x="7604.830078"/>
     <use xlink:href="#DejaVuSans-3a" x="7681.832031"/>
     <use xlink:href="#DejaVuSans-20" x="7715.523438"/>
     <use xlink:href="#DejaVuSans-61" x="7747.310547"/>
     <use xlink:href="#DejaVuSans-76" x="7808.589844"/>
     <use xlink:href="#DejaVuSans-67" x="7867.769531"/>
     <use xlink:href="#DejaVuSans-3d" x="7931.246094"/>
     <use xlink:href="#DejaVuSans-31" x="8015.035156"/>
     <use xlink:href="#DejaVuSans-2e" x="8078.658203"/>
     <use xlink:href="#DejaVuSans-36" x="8110.445312"/>
     <use xlink:href="#DejaVuSans-36" x="8174.068359"/>
     <use xlink:href="#DejaVuSans-2c" x="8237.691406"/>
     <use xlink:href="#DejaVuSans-20" x="8269.478516"/>
     <use xlink:href="#DejaVuSans-6d" x="8301.265625"/>
     <use xlink:href="#DejaVuSans-65" x="8398.677734"/>
     <use xlink:href="#DejaVuSans-64" x="8460.201172"/>
     <use xlink:href="#DejaVuSans-3d" x="8523.677734"/>
     <use xlink:href="#DejaVuSans-31" x="8607.466797"/>
     <use xlink:href="#DejaVuSans-2e" x="8671.089844"/>
     <use xlink:href="#DejaVuSans-30" x="8702.876953"/>
     <use xlink:href="#DejaVuSans-30" x="8766.5"/>
     <use xlink:href="#DejaVuSans-3b" x="8830.123047"/>
     <use xlink:href="#DejaVuSans-20" x="8863.814453"/>
     <use xlink:href="#DejaVuSans-4e" x="8895.601562"/>
     <use xlink:href="#DejaVuSans-4f" x="8970.40625"/>
     <use xlink:href="#DejaVuSans-4e" x="9049.117188"/>
     <use xlink:href="#DejaVuSans-5f" x="9123.921875"/>
     <use xlink:href="#DejaVuSans-55" x="9173.921875"/>
     <use xlink:href="#DejaVuSans-52" x="9247.115234"/>
     <use xlink:href="#DejaVuSans-47" x="9316.597656"/>
     <use xlink:href="#DejaVuSans-45" x="9394.087891"/>
     <use xlink:href="#DejaVuSans-4e" x="9457.271484"/>
     <use xlink:href="#DejaVuSans-54" x="9532.076172"/>
     <use xlink:href="#DejaVuSans-3a" x="9582.160156"/>
     <use xlink:href="#DejaVuSans-20" x="9615.851562"/>
     <use xlink:href="#DejaVuSans-61" x="9647.638672"/>
     <use xlink:href="#DejaVuSans-76" x="9708.917969"/>
     <use xlink:href="#DejaVuSans-67" x="9768.097656"/>
     <use xlink:href="#DejaVuSans-3d" x="9831.574219"/>
     <use xlink:href="#DejaVuSans-30" x="9915.363281"/>
     <use xlink:href="#DejaVuSans-2e" x="9978.986328"/>
     <use xlink:href="#DejaVuSans-35" x="10010.773438"/>
     <use xlink:href="#DejaVuSans-34" x="10074.396484"/>
     <use xlink:href="#DejaVuSans-2c" x="10138.019531"/>
     <use xlink:href="#DejaVuSans-20" x="10169.806641"/>
     <use xlink:href="#DejaVuSans-6d" x="10201.59375"/>
     <use xlink:href="#DejaVuSans-65" x="10299.005859"/>
     <use xlink:href="#DejaVuSans-64" x="10360.529297"/>
     <use xlink:href="#DejaVuSans-3d" x="10424.005859"/>
     <use xlink:href="#DejaVuSans-30" x="10507.794922"/>
     <use xlink:href="#DejaVuSans-2e" x="10571.417969"/>
     <use xlink:href="#DejaVuSans-30" x="10603.205078"/>
     <use xlink:href="#DejaVuSans-30" x="10666.828125"/>
     <use xlink:href="#DejaVuSans-29" x="10730.451172"/>
    </g>
   </g>
   <g id="legend_1">
    <g id="patch_7">
     <path d="M 453.698437 107.746875 
L 558.2 107.746875 
Q 560.2 107.746875 560.2 105.746875 
L 560.2 32.8 
Q 560.2 30.8 558.2 30.8 
L 453.698437 30.8 
Q 451.698437 30.8 451.698437 32.8 
L 451.698437 105.746875 
Q 451.698437 107.746875 453.698437 107.746875 
z
" style="fill: #ffffff; opacity: 0.8; stroke: #cccccc; stroke-linejoin: miter"/>
    </g>
    <g id="line2d_20">
     <path d="M 455.698437 38.898438 
L 465.698437 38.898438 
L 475.698437 38.898438 
" style="fill: none; stroke: #dc2626; stroke-width: 1.5; stroke-linecap: square"/>
    </g>
    <g id="text_18">
     <!-- IMMEDIATE -->
     <g transform="translate(483.698437 42.398438) scale(0.1 -0.1)">
      <use xlink:href="#DejaVuSans-49"/>
      <use xlink:href="#DejaVuSans-4d" x="29.492188"/>
      <use xlink:href="#DejaVuSans-4d" x="115.771484"/>
      <use xlink:href="#DejaVuSans-45" x="202.050781"/>
      <use xlink:href="#DejaVuSans-44" x="265.234375"/>
      <use xlink:href="#DejaVuSans-49" x="342.236328"/>
      <use xlink:href="#DejaVuSans-41" x="371.728516"/>
      <use xlink:href="#DejaVuSans-54" x="432.386719"/>
      <use xlink:href="#DejaVuSans-45" x="493.470703"/>
     </g>
    </g>
    <g id="line2d_21">
     <path d="M 455.698437 53.576563 
L 465.698437 53.576563 
L 475.698437 53.576563 
" style="fill: none; stroke: #ea580c; stroke-width: 1.5; stroke-linecap: square"/>
    </g>
    <g id="text_19">
     <!-- VERY_URGENT -->
     <g transform="translate(483.698437 57.076563) scale(0.1 -0.1)">
      <use xlink:href="#DejaVuSans-56"/>
      <use xlink:href="#DejaVuSans-45" x="68.408203"/>
      <use xlink:href="#DejaVuSans-52" x="131.591797"/>
      <use xlink:href="#DejaVuSans-59" x="194.699219"/>
      <use xlink:href="#DejaVuSans-5f" x="255.783203"/>
      <use xlink:href="#DejaVuSans-55" x="305.783203"/>
      <use xlink:href="#DejaVuSans-52" x="378.976562"/>
      <use xlink:href="#DejaVuSans-47" x="448.458984"/>
      <use xlink:href="#DejaVuSans-45" x="525.949219"/>
      <use xlink:href="#DejaVuSans-4e" x="589.132812"/>
      <use xlink:href="#DejaVuSans-54" x="663.9375"/>
     </g>
    </g>
    <g id="line2d_22">
     <path d="M 455.698437 68.532812 
L 465.698437 68.532812 
L 475.698437 68.532812 
" style="fill: none; stroke: #d97706; stroke-width: 1.5; stroke-linecap: square"/>
    </g>
    <g id="text_20">
     <!-- URGENT -->
     <g transform="translate(483.698437 72.032812) scale(0.1 -0.1)">
      <use xlink:href="#DejaVuSans-55"/>
      <use xlink:href="#DejaVuSans-52" x="73.193359"/>
      <use xlink:href="#DejaVuSans-47" x="142.675781"/>
      <use xlink:href="#DejaVuSans-45" x="220.166016"/>
      <use xlink:href="#DejaVuSans-4e" x="283.349609"/>
      <use xlink:href="#DejaVuSans-54" x="358.154297"/>
     </g>
    </g>
    <g id="line2d_23">
     <path d="M 455.698437 83.210938 
L 465.698437 83.210938 
L 475.698437 83.210938 
" style="fill: none; stroke: #2563eb; stroke-width: 1.5; stroke-linecap: square"/>
    </g>
    <g id="text_21">
     <!-- STANDARD -->
     <g transform="translate(483.698437 86.710938) scale(0.1 -0.1)">
      <use xlink:href="#DejaVuSans-53"/>
      <use xlink:href="#DejaVuSans-54" x="63.476562"/>
      <use xlink:href="#DejaVuSans-41" x="116.810547"/>
      <use xlink:href="#DejaVuSans-4e" x="185.21875"/>
      <use xlink:href="#DejaVuSans-44" x="260.023438"/>
      <use xlink:href="#DejaVuSans-41" x="335.275391"/>
      <use xlink:href="#DejaVuSans-52" x="403.683594"/>
      <use xlink:href="#DejaVuSans-44" x="473.166016"/>
     </g>
    </g>
    <g id="line2d_24">
     <path d="M 455.698437 97.889063 
L 465.698437 97.889063 
L 475.698437 97.889063 
" style="fill: none; stroke: #16a34a; stroke-width: 1.5; stroke-linecap: square"/>
    </g>
    <g id="text_22">
     <!-- NON_URGENT -->
     <g transform="translate(483.698437 101.389063) scale(0.1 -0.1)">
      <use xlink:href="#DejaVuSans-4e"/>
      <use xlink:href="#DejaVuSans-4f" x="74.804688"/>
      <use xlink:href="#DejaVuSans-4e" x="153.515625"/>
      <use xlink:href="#DejaVuSans-5f" x="228.320312"/>
      <use xlink:href="#DejaVuSans-55" x="278.320312"/>
      <use xlink:href="#DejaVuSans-52" x="351.513672"/>
      <use xlink:href="#DejaVuSans-47" x="420.996094"/>
      <use xlink:href="#DejaVuSans-45" x="498.486328"/>
      <use xlink:href="#DejaVuSans-4e" x="561.669922"/>
      <use xlink:href="#DejaVuSans-54" x="636.474609"/>
     </g>
    </g>
   </g>
  </g>
 </g>
 <defs>
  <clipPath id="p1075baeb48">
   <rect x="38.975" y="25.8" width="526.225" height="290.8"/>
  </clipPath>
 </defs>
</svg>
